<svg xmlns="http://www.w3.org/2000/svg" width="44.74" height="12.683" viewBox="0 0 44.74 12.683"><defs><style>.a{fill:#cacccf;}.a,.b{fill-rule:evenodd;}.b,.c{fill:#a0a4a8;}</style></defs><g transform="translate(0)"><g transform="translate(16.557)"><path class="a" d="M173.939,25.911a1.984,1.984,0,0,1-.262.7,1.643,1.643,0,0,1-.56.553,2.153,2.153,0,0,1-1.911,0,1.6,1.6,0,0,1-.555-.553,2.106,2.106,0,0,1-.251-.7,3.812,3.812,0,0,1,0-1.351,2.106,2.106,0,0,1,.251-.7,1.582,1.582,0,0,1,.555-.554,1.816,1.816,0,0,1,.956-.226,2.14,2.14,0,0,1,.981.2,1.359,1.359,0,0,1,.562.516,1.894,1.894,0,0,1,.236.7,5.293,5.293,0,0,1,.054.748,4.1,4.1,0,0,1-.062.676m1.414-2.178a2.8,2.8,0,0,0-.6-1.113,2.68,2.68,0,0,0-1.034-.7,4.362,4.362,0,0,0-1.554-.246,4.16,4.16,0,0,0-1.724.4,3.449,3.449,0,0,0-.628.412,2.551,2.551,0,0,0-.545.625,3.449,3.449,0,0,0-.384.9,4.588,4.588,0,0,0-.146,1.223,4.858,4.858,0,0,0,.139,1.225,3.413,3.413,0,0,0,.364.892,2.543,2.543,0,0,0,.5.612,3.029,3.029,0,0,0,.583.4,3.532,3.532,0,0,0,1.584.369,3.168,3.168,0,0,0,.859-.171,6.666,6.666,0,0,0,1-.856l.891-1.079-.334.759a2.74,2.74,0,0,1-.32.555V28.6h1.542V25.25a5.581,5.581,0,0,0-.189-1.518" transform="translate(-168.734 -19.55)"/><path class="a" d="M250.6,9.051h1.587V0H250.6Z" transform="translate(-242.567)"/><path class="a" d="M282.76,30.254h1.588V23.51H282.76Z" transform="translate(-271.572 -21.203)"/><path class="a" d="M282.757.2c0,.1-.007.249-.007.447s0,.349.007.447a.217.217,0,0,0,.051.145.332.332,0,0,0,.2.047c.125,0,.3.008.542.008s.418,0,.542-.008a.32.32,0,0,0,.2-.047.209.209,0,0,0,.052-.145c0-.1.007-.248.007-.447s0-.349-.007-.447a.209.209,0,0,0-.052-.145.341.341,0,0,0-.2-.045C283.962,0,283.782,0,283.544,0s-.417,0-.542.007a.325.325,0,0,0-.2.048.21.21,0,0,0-.049.141" transform="translate(-271.563)"/><path class="a" d="M314.343,23.358a1.724,1.724,0,0,1,.856.186,1.421,1.421,0,0,1,.5.471,1.731,1.731,0,0,1,.237.612,3.382,3.382,0,0,1,.063.636v3.367h1.588V25.265a4.428,4.428,0,0,0-.224-1.51,3.278,3.278,0,0,0-.571-1,2.633,2.633,0,0,0-.744-.6,3.9,3.9,0,0,0-.771-.31,2.844,2.844,0,0,0-.622-.112c-.181-.009-.286-.015-.315-.015s-.147.006-.322.015a2.846,2.846,0,0,0-.615.112,3.89,3.89,0,0,0-.767.313,2.574,2.574,0,0,0-.744.6,3.249,3.249,0,0,0-.572,1,4.429,4.429,0,0,0-.226,1.51v3.366h1.588V25.265a3.449,3.449,0,0,1,.062-.636,1.766,1.766,0,0,1,.237-.613,1.447,1.447,0,0,1,.5-.471A1.727,1.727,0,0,1,314.343,23.358Z" transform="translate(-297.127 -19.58)"/><path class="a" d="M387.776,24.328a2.079,2.079,0,0,1,.188-.462,1.586,1.586,0,0,1,.333-.426,1.516,1.516,0,0,1,.5-.305,2.1,2.1,0,0,1,1.348,0,1.531,1.531,0,0,1,.506.305,1.561,1.561,0,0,1,.332.428,3.589,3.589,0,0,1,.2.452l.048.144h-3.483Zm4.207,3.5a3.124,3.124,0,0,0,.461-.6,2.831,2.831,0,0,0,.294-.675h-1.721a1.887,1.887,0,0,1-.507.605,1.929,1.929,0,0,1-2.069,0,1.864,1.864,0,0,1-.537-.671,2.205,2.205,0,0,1-.157-.5c-.031-.164-.056-.322-.076-.481l-.016-.121H392.9v-.139c0-.16-.007-.314-.021-.457s-.032-.284-.052-.419a3.254,3.254,0,0,0-.283-.91,3.074,3.074,0,0,0-.447-.676,2.679,2.679,0,0,0-.548-.476,3.7,3.7,0,0,0-.589-.312,4.427,4.427,0,0,0-1.49-.307,4.164,4.164,0,0,0-1.718.4,3.5,3.5,0,0,0-.637.417,2.531,2.531,0,0,0-.545.625,3.375,3.375,0,0,0-.384.9,5.181,5.181,0,0,0,0,2.444,3.3,3.3,0,0,0,.383.893,2.5,2.5,0,0,0,.546.605,3.838,3.838,0,0,0,.63.407,4.233,4.233,0,0,0,3.13.131,4.1,4.1,0,0,0,.564-.273,2.6,2.6,0,0,0,.538-.414Z" transform="translate(-364.721 -19.562)"/></g><g transform="translate(0)"><path class="b" d="M78.51,30.254H80.1V23.51H78.51Z" transform="translate(-70.806 -21.203)"/><path class="b" d="M103.72,24.8H107.7L103.51,28.9v1.359h6.476V28.961H105.6l4.178-4.094V23.51H103.72Z" transform="translate(-93.353 -21.203)"/><path class="b" d="M5.141,6.361a2.085,2.085,0,0,1-.252.7,1.579,1.579,0,0,1-.554.554,1.827,1.827,0,0,1-.957.224,1.825,1.825,0,0,1-.956-.224,1.638,1.638,0,0,1-.562-.554,1.989,1.989,0,0,1-.261-.7,3.767,3.767,0,0,1,0-1.351,2.013,2.013,0,0,1,.261-.705,1.649,1.649,0,0,1,.561-.551,1.816,1.816,0,0,1,.957-.222,1.819,1.819,0,0,1,.957.224,1.582,1.582,0,0,1,.554.555,2.077,2.077,0,0,1,.252.7,3.812,3.812,0,0,1,0,1.351m1.527-1.9a3.606,3.606,0,0,0-.364-.9A2.46,2.46,0,0,0,3.638,2.481,4.059,4.059,0,0,0,1.565,3.645s-.687.646-.673.625l.325-.738a2.778,2.778,0,0,1,.321-.556V0H0V5.671A4.6,4.6,0,0,0,.143,6.895a3.413,3.413,0,0,0,.385.9,2.551,2.551,0,0,0,.536.619,3.6,3.6,0,0,0,.622.405,3.968,3.968,0,0,0,1.693.37,4.069,4.069,0,0,0,1.71-.371,3.707,3.707,0,0,0,.628-.405A2.526,2.526,0,0,0,6.26,7.8,3.483,3.483,0,0,0,6.652,6.9,4.343,4.343,0,0,0,6.8,5.684a4.847,4.847,0,0,0-.136-1.224" transform="translate(0.005)"/></g><path class="c" d="M.492,105.28v1.795H.26V105.28Z" transform="translate(-0.234 -94.95)"/><path class="c" d="M9.471,110.516c0-.133,0-.242-.011-.349h.205l.011.208h.008a.446.446,0,0,1,.405-.237.382.382,0,0,1,.365.259h0a.546.546,0,0,1,.144-.168.441.441,0,0,1,.286-.091c.17,0,.423.113.423.56v.758h-.229v-.73c0-.247-.091-.392-.28-.392a.3.3,0,0,0-.278.213.383.383,0,0,0-.019.117v.8h-.229v-.777c0-.205-.091-.354-.269-.354a.319.319,0,0,0-.294.235.313.313,0,0,0-.019.115v.777H9.471Z" transform="translate(-8.531 -99.33)"/><path class="c" d="M34.751,110.577c0-.165,0-.294-.011-.421h.211l.011.222h0a.506.506,0,0,1,.458-.251.584.584,0,0,1,.547.655.61.61,0,0,1-.589.693.453.453,0,0,1-.392-.2h0v.705h-.23Zm.233.344a.567.567,0,0,0,.01.1.363.363,0,0,0,.352.275c.247,0,.392-.2.392-.5,0-.258-.136-.479-.384-.479A.373.373,0,0,0,35,110.6a.392.392,0,0,0-.016.1Z" transform="translate(-31.331 -99.32)"/><path class="c" d="M52.94,104.3h.235v1.891H52.94Z" transform="translate(-47.745 -94.066)"/><path class="c" d="M61.254,110.847a.41.41,0,0,0,.442.447.847.847,0,0,0,.357-.067l.04.168a1.045,1.045,0,0,1-.429.079.6.6,0,0,1-.634-.65.626.626,0,0,1,.6-.7.547.547,0,0,1,.533.607.855.855,0,0,1-.008.11Zm.687-.168c0-.149-.061-.382-.325-.382a.388.388,0,0,0-.359.382Z" transform="translate(-55.041 -99.324)"/><path class="c" d="M78.121,110.516c0-.133,0-.242-.011-.349h.205l.011.208h.008a.443.443,0,0,1,.4-.237.382.382,0,0,1,.365.259h.006a.531.531,0,0,1,.143-.168.441.441,0,0,1,.286-.091c.171,0,.423.113.423.56v.758h-.229v-.73c0-.247-.09-.393-.28-.393a.3.3,0,0,0-.274.208.382.382,0,0,0-.019.117v.8h-.233v-.772c0-.205-.09-.354-.269-.354a.32.32,0,0,0-.294.235.335.335,0,0,0-.019.115v.777h-.225Z" transform="translate(-70.445 -99.33)"/><path class="c" d="M102.774,110.847a.41.41,0,0,0,.442.447.85.85,0,0,0,.357-.067l.04.168a1.045,1.045,0,0,1-.429.079.6.6,0,0,1-.634-.65.626.626,0,0,1,.6-.7.547.547,0,0,1,.533.607,1.08,1.08,0,0,1-.008.11Zm.687-.168c0-.149-.061-.382-.325-.382a.389.389,0,0,0-.36.382Z" transform="translate(-92.487 -99.324)"/><path class="c" d="M119.64,110.517c0-.133,0-.242-.01-.349h.207l.014.213h0a.477.477,0,0,1,.427-.242c.179,0,.455.107.455.549v.769H120.5v-.744c0-.208-.078-.381-.294-.381a.346.346,0,0,0-.331.348v.775h-.235Z" transform="translate(-107.891 -99.332)"/><path class="c" d="M136.3,106.66v.37h.336v.179H136.3v.7c0,.16.045.25.176.25a.529.529,0,0,0,.135-.016l.011.176a.574.574,0,0,1-.208.031.326.326,0,0,1-.253-.1.482.482,0,0,1-.09-.336v-.7h-.2v-.179h.2v-.309Z" transform="translate(-122.538 -96.194)"/><path class="c" d="M148.9,105.394a.147.147,0,0,1-.294,0,.143.143,0,0,1,.146-.146.139.139,0,0,1,.148.146Zm-.256,1.651v-1.289h.235v1.289Z" transform="translate(-134.028 -94.92)"/><path class="c" d="M157.841,110.517c0-.133,0-.242-.011-.349h.213l.013.213h.006a.475.475,0,0,1,.426-.242c.179,0,.455.107.455.549v.769h-.234v-.744c0-.208-.077-.381-.294-.381a.342.342,0,0,0-.33.348v.775h-.234Z" transform="translate(-142.343 -99.332)"/><path class="c" d="M175.934,110.108c0,.093-.011.2-.011.354v.749a.742.742,0,0,1-.183.589.687.687,0,0,1-.469.155.829.829,0,0,1-.429-.107l.059-.179a.731.731,0,0,0,.378.1c.24,0,.416-.125.416-.449v-.144h-.006a.459.459,0,0,1-.41.216.577.577,0,0,1-.548-.629.621.621,0,0,1,.581-.687.429.429,0,0,1,.4.225h0l.011-.2Zm-.242.509a.363.363,0,0,0-.013-.107.339.339,0,0,0-.334-.248c-.224,0-.384.189-.384.491,0,.252.128.463.381.463a.341.341,0,0,0,.325-.239.4.4,0,0,0,.019-.126Z" transform="translate(-157.585 -99.272)"/><path class="c" d="M203.809,111.209a.612.612,0,0,0,.309.1c.17,0,.25-.085.25-.2s-.067-.174-.24-.237c-.232-.082-.34-.21-.34-.365a.4.4,0,0,1,.444-.379.646.646,0,0,1,.317.08l-.058.171a.5.5,0,0,0-.264-.075c-.138,0-.216.079-.216.176s.078.154.245.218c.224.085.339.2.339.393,0,.227-.177.386-.483.386a.737.737,0,0,1-.362-.087Z" transform="translate(-183.757 -99.324)"/><path class="c" d="M217.026,106.66v.37h.336v.179h-.336v.7c0,.16.045.25.176.25a.529.529,0,0,0,.135-.016l.011.176a.574.574,0,0,1-.208.031.327.327,0,0,1-.253-.1.482.482,0,0,1-.09-.336v-.7h-.2v-.179h.2v-.309Z" transform="translate(-195.347 -96.194)"/><path class="c" d="M229.581,110.562c0-.151,0-.283-.011-.4h.205l.008.253h.011a.392.392,0,0,1,.357-.283.234.234,0,0,1,.067.009v.221a.386.386,0,0,0-.08-.008.329.329,0,0,0-.314.3.719.719,0,0,0-.011.11v.687h-.232Z" transform="translate(-207.044 -99.324)"/><path class="c" d="M240.871,111.448l-.019-.162h-.008a.48.48,0,0,1-.392.2.366.366,0,0,1-.392-.37c0-.312.277-.483.775-.48v-.026a.266.266,0,0,0-.294-.294.64.64,0,0,0-.336.1l-.053-.166a.8.8,0,0,1,.423-.115c.393,0,.491.27.491.528v.482a1.844,1.844,0,0,0,.021.309Zm-.034-.657c-.256-.006-.547.039-.547.294a.208.208,0,0,0,.222.224.321.321,0,0,0,.311-.216.226.226,0,0,0,.014-.075Z" transform="translate(-216.504 -99.323)"/><path class="c" d="M255.663,106.66v.37H256v.179h-.336v.7c0,.16.045.25.176.25a.524.524,0,0,0,.135-.016l.011.176a.572.572,0,0,1-.207.031.325.325,0,0,1-.253-.1.477.477,0,0,1-.091-.336v-.7h-.2v-.179h.2v-.309Z" transform="translate(-230.195 -96.194)"/><path class="c" d="M267.395,110.82a.413.413,0,0,0,.443.447.842.842,0,0,0,.356-.067l.039.165a1.045,1.045,0,0,1-.429.079.6.6,0,0,1-.634-.65.626.626,0,0,1,.6-.7.547.547,0,0,1,.533.607.854.854,0,0,1-.008.11Zm.687-.168c0-.149-.061-.382-.325-.382a.389.389,0,0,0-.359.382Z" transform="translate(-240.955 -99.297)"/><path class="c" d="M284.624,110.108c-.006.093-.011.2-.011.354v.749a.745.745,0,0,1-.183.589.687.687,0,0,1-.469.155.827.827,0,0,1-.429-.107l.058-.179a.732.732,0,0,0,.379.1c.239,0,.415-.125.415-.449v-.144h0a.461.461,0,0,1-.41.216.576.576,0,0,1-.549-.629.621.621,0,0,1,.58-.687.429.429,0,0,1,.4.225h.006l.011-.2Zm-.242.509a.332.332,0,0,0-.014-.107.338.338,0,0,0-.328-.247c-.224,0-.384.189-.384.491,0,.252.129.463.381.463a.343.343,0,0,0,.326-.239.428.428,0,0,0,.019-.126Z" transform="translate(-255.61 -99.272)"/><path class="c" d="M301.974,105.394a.147.147,0,0,1-.294,0,.142.142,0,0,1,.146-.146.139.139,0,0,1,.148.146Zm-.263,1.651v-1.289h.234v1.289Z" transform="translate(-272.078 -94.92)"/><path class="c" d="M311.055,111.4a.86.86,0,0,1-.37.075.611.611,0,0,1-.643-.657.655.655,0,0,1,.693-.687.792.792,0,0,1,.325.067l-.053.182a.54.54,0,0,0-.272-.062.488.488,0,0,0-.008.972.663.663,0,0,0,.288-.064Z" transform="translate(-279.62 -99.323)"/><path class="c" d="M337.277,104.3v1.558a3.149,3.149,0,0,0,.011.333h-.211l-.011-.224h0a.476.476,0,0,1-.44.253.588.588,0,0,1-.551-.655.619.619,0,0,1,.578-.693.429.429,0,0,1,.392.2h0V104.3Zm-.233,1.126a.418.418,0,0,0-.011-.1.344.344,0,0,0-.339-.272c-.242,0-.386.213-.386.5,0,.261.128.477.381.477a.351.351,0,0,0,.343-.28.412.412,0,0,0,.011-.1Z" transform="translate(-303.094 -94.066)"/><path class="c" d="M354.924,105.394a.147.147,0,0,1-.294,0,.143.143,0,0,1,.146-.146.139.139,0,0,1,.148.146Zm-.258,1.651v-1.289h.234v1.289Z" transform="translate(-319.833 -94.92)"/><path class="c" d="M363.9,110.552c0-.151,0-.283-.011-.4h.205l0,.252h.011a.392.392,0,0,1,.357-.283.222.222,0,0,1,.066.009v.221a.369.369,0,0,0-.079-.008.328.328,0,0,0-.314.3.615.615,0,0,0-.011.11v.687H363.9Z" transform="translate(-328.184 -99.315)"/><path class="c" d="M374.474,110.847a.413.413,0,0,0,.442.447.847.847,0,0,0,.357-.067l.04.168a1.045,1.045,0,0,1-.429.079.6.6,0,0,1-.634-.65.626.626,0,0,1,.6-.7.547.547,0,0,1,.533.607.865.865,0,0,1-.008.11Zm.687-.168c0-.149-.061-.382-.325-.382a.388.388,0,0,0-.359.382Z" transform="translate(-337.528 -99.324)"/><path class="c" d="M391.494,111.4a.856.856,0,0,1-.37.075.61.61,0,0,1-.642-.657.654.654,0,0,1,.692-.687.8.8,0,0,1,.326.067l-.054.182a.537.537,0,0,0-.272-.062.488.488,0,0,0-.008.972.659.659,0,0,0,.288-.064Z" transform="translate(-352.166 -99.323)"/><path class="c" d="M405.555,106.66v.37h.336v.179h-.336v.7c0,.16.046.25.177.25a.529.529,0,0,0,.135-.016l.011.176a.578.578,0,0,1-.208.031.326.326,0,0,1-.253-.1.477.477,0,0,1-.09-.336v-.7h-.2v-.179h.2v-.309Z" transform="translate(-365.378 -96.194)"/><path class="c" d="M418.164,105.394a.147.147,0,0,1-.294,0,.142.142,0,0,1,.146-.146.139.139,0,0,1,.148.146Zm-.261,1.651v-1.289h.235v1.289Z" transform="translate(-376.867 -94.92)"/><path class="c" d="M427.51,110.793a.632.632,0,0,1-.643.687.612.612,0,0,1-.617-.663.631.631,0,0,1,.639-.687A.619.619,0,0,1,427.51,110.793Zm-1.023.014c0,.283.163.491.392.491s.393-.211.393-.5c0-.219-.109-.491-.386-.491s-.4.255-.4.5Z" transform="translate(-384.425 -99.324)"/><path class="c" d="M444.641,110.517c0-.133,0-.242-.011-.349h.207l.014.213h.006a.475.475,0,0,1,.426-.242c.179,0,.455.107.455.549v.769H445.5v-.744c0-.208-.078-.381-.294-.381a.342.342,0,0,0-.33.348v.775h-.234Z" transform="translate(-401.002 -99.332)"/></g></svg>