<svg xmlns="http://www.w3.org/2000/svg" width="126.607" height="25.999" viewBox="0 0 126.607 25.999"><defs><style>.bizaline{fill:#cacccf;}.bizaline,.bizaline-b{fill-rule:evenodd;}.bizaline-b{fill:#a0a4a8;}</style></defs><g transform="translate(0.005)"><g transform="translate(46.848)"><path class="bizaline" d="M183.463,33.659a5.615,5.615,0,0,1-.741,1.991,4.651,4.651,0,0,1-1.585,1.566,6.092,6.092,0,0,1-5.409,0,4.529,4.529,0,0,1-1.572-1.566,5.956,5.956,0,0,1-.711-1.983,10.788,10.788,0,0,1,0-3.823,5.956,5.956,0,0,1,.711-1.983,4.476,4.476,0,0,1,1.572-1.569,5.14,5.14,0,0,1,2.7-.639,6.056,6.056,0,0,1,2.777.555A3.845,3.845,0,0,1,182.8,27.67a5.359,5.359,0,0,1,.669,1.971,14.977,14.977,0,0,1,.153,2.116,11.617,11.617,0,0,1-.175,1.913m4-6.164a7.911,7.911,0,0,0-1.691-3.149,7.586,7.586,0,0,0-2.927-1.98,12.342,12.342,0,0,0-4.4-.7,11.773,11.773,0,0,0-4.879,1.127,9.756,9.756,0,0,0-1.777,1.166,7.219,7.219,0,0,0-1.541,1.769,9.761,9.761,0,0,0-1.086,2.543,12.987,12.987,0,0,0-.414,3.46,13.744,13.744,0,0,0,.394,3.465,9.657,9.657,0,0,0,1.03,2.524,7.2,7.2,0,0,0,1.416,1.733,8.574,8.574,0,0,0,1.649,1.144,10,10,0,0,0,4.482,1.044,8.966,8.966,0,0,0,2.43-.483,18.863,18.863,0,0,0,2.832-2.421L185.49,35.7l-.944,2.149a7.753,7.753,0,0,1-.905,1.572V41.27H188V31.788a15.79,15.79,0,0,0-.536-4.3" transform="translate(-168.734 -15.658)"/><path class="bizaline" d="M250.6,25.612h4.49V0H250.6Z" transform="translate(-227.869)"/><path class="bizaline" d="M282.76,42.594h4.493V23.51H282.76Z" transform="translate(-251.099 -16.982)"/><path class="bizaline" d="M282.769.555c-.014.278-.019.705-.019,1.266s0,.988.019,1.266a.614.614,0,0,0,.144.411.939.939,0,0,0,.555.133c.353,0,.861.022,1.533.022s1.183,0,1.533-.022a.905.905,0,0,0,.555-.133.592.592,0,0,0,.147-.411c0-.278.019-.7.019-1.266s0-.988-.019-1.266a.592.592,0,0,0-.147-.411.966.966,0,0,0-.555-.128C286.179,0,285.671,0,285,0s-1.18,0-1.533.019a.919.919,0,0,0-.555.136.594.594,0,0,0-.139.4" transform="translate(-251.092)"/><path class="bizaline" d="M320.285,26.375a4.879,4.879,0,0,1,2.421.528,4.021,4.021,0,0,1,1.424,1.333,4.9,4.9,0,0,1,.672,1.733,9.568,9.568,0,0,1,.178,1.8v9.527h4.493V31.77a12.531,12.531,0,0,0-.633-4.273,9.277,9.277,0,0,0-1.616-2.841,7.453,7.453,0,0,0-2.1-1.71,11.054,11.054,0,0,0-2.182-.877,8.052,8.052,0,0,0-1.76-.317c-.511-.025-.811-.042-.891-.042s-.417.017-.911.042a8.052,8.052,0,0,0-1.741.317,11,11,0,0,0-2.171.886,7.283,7.283,0,0,0-2.1,1.71,9.2,9.2,0,0,0-1.619,2.841,12.531,12.531,0,0,0-.639,4.273V41.3h4.493V31.77a9.755,9.755,0,0,1,.175-1.8,5,5,0,0,1,.672-1.735,4.093,4.093,0,0,1,1.424-1.333A4.887,4.887,0,0,1,320.285,26.375Z" transform="translate(-271.567 -15.682)"/><path class="bizaline" d="M390.944,29.156a5.881,5.881,0,0,1,.533-1.308,4.489,4.489,0,0,1,.941-1.205,4.29,4.29,0,0,1,1.416-.864,5.942,5.942,0,0,1,3.815,0,4.332,4.332,0,0,1,1.433.864,4.42,4.42,0,0,1,.939,1.211,10.178,10.178,0,0,1,.555,1.28l.136.408h-9.857Zm11.906,9.891a8.841,8.841,0,0,0,1.305-1.691,8.012,8.012,0,0,0,.833-1.91h-4.87a5.339,5.339,0,0,1-1.436,1.713,5.459,5.459,0,0,1-5.856,0,5.276,5.276,0,0,1-1.519-1.9,6.242,6.242,0,0,1-.444-1.408c-.089-.464-.158-.911-.214-1.361l-.044-.342h14.852v-.394c0-.453-.019-.889-.058-1.294s-.092-.8-.147-1.186a9.209,9.209,0,0,0-.8-2.574,8.7,8.7,0,0,0-1.266-1.913,7.583,7.583,0,0,0-1.552-1.347,10.454,10.454,0,0,0-1.666-.883,12.529,12.529,0,0,0-4.218-.869,11.784,11.784,0,0,0-4.862,1.127,9.9,9.9,0,0,0-1.8,1.18,7.164,7.164,0,0,0-1.541,1.769,9.554,9.554,0,0,0-1.086,2.546,12.951,12.951,0,0,0-.414,3.457,12.987,12.987,0,0,0,.414,3.46,9.338,9.338,0,0,0,1.083,2.527,7.073,7.073,0,0,0,1.544,1.713,10.859,10.859,0,0,0,1.783,1.152,11.979,11.979,0,0,0,8.858.369,11.583,11.583,0,0,0,1.6-.772,7.34,7.34,0,0,0,1.522-1.172Z" transform="translate(-325.704 -15.667)"/></g><g transform="translate(-0.005)"><path class="bizaline-b" d="M78.51,42.594H83V23.51H78.51Z" transform="translate(-56.709 -16.982)"/><path class="bizaline-b" d="M104.1,27.17H115.38L103.51,38.751V42.6h18.326V38.934H109.424L121.247,27.35V23.51H104.1Z" transform="translate(-74.767 -16.982)"/><path class="bizaline-b" d="M14.557,18a5.9,5.9,0,0,1-.714,1.991,4.468,4.468,0,0,1-1.569,1.569,5.17,5.17,0,0,1-2.707.633,5.165,5.165,0,0,1-2.7-.633,4.634,4.634,0,0,1-1.591-1.569A5.628,5.628,0,0,1,4.533,18a10.66,10.66,0,0,1,0-3.823,5.7,5.7,0,0,1,.739-2,4.668,4.668,0,0,1,1.588-1.56A5.14,5.14,0,0,1,9.568,10a5.148,5.148,0,0,1,2.707.633A4.476,4.476,0,0,1,13.844,12.2a5.878,5.878,0,0,1,.714,1.983,10.787,10.787,0,0,1,0,3.823m4.321-5.381a10.2,10.2,0,0,0-1.03-2.549A6.961,6.961,0,0,0,10.3,7.022c-2.355.453-3.848,1.494-5.864,3.293,0,0-1.944,1.827-1.9,1.769L3.453,10a7.861,7.861,0,0,1,.908-1.574V0H0V16.049a13.02,13.02,0,0,0,.416,3.463A9.657,9.657,0,0,0,1.5,22.052,7.219,7.219,0,0,0,3.017,23.8a10.187,10.187,0,0,0,1.76,1.147A11.229,11.229,0,0,0,9.568,26a11.515,11.515,0,0,0,4.84-1.05A10.49,10.49,0,0,0,16.184,23.8a7.147,7.147,0,0,0,1.538-1.73,9.857,9.857,0,0,0,1.111-2.532,12.29,12.29,0,0,0,.43-3.454,13.717,13.717,0,0,0-.386-3.463" transform="translate(0.005)"/></g></g></svg>