<svg xmlns="http://www.w3.org/2000/svg" width="23.74" height="21.422" viewBox="0 0 23.74 21.422"><defs><style>.a{fill:#27debf;}</style></defs><path class="a" d="M98.706,249H97.544a.544.544,0,1,0,0,1.089h1.161a.544.544,0,1,0,0-1.089Z" transform="translate(-92.368 -238.457)"/><path class="a" d="M98.706,313H97.544a.544.544,0,1,0,0,1.089h1.161a.544.544,0,1,0,0-1.089Z" transform="translate(-92.368 -299.445)"/><path class="a" d="M98.706,377H97.544a.544.544,0,1,0,0,1.089h1.161a.544.544,0,1,0,0-1.089Z" transform="translate(-92.368 -360.433)"/><path class="a" d="M226.706,249h-1.161a.544.544,0,0,0,0,1.089h1.161a.544.544,0,1,0,0-1.089Z" transform="translate(-214.255 -238.457)"/><path class="a" d="M226.706,313h-1.161a.544.544,0,0,0,0,1.089h1.161a.544.544,0,1,0,0-1.089Z" transform="translate(-214.255 -299.445)"/><path class="a" d="M226.706,377h-1.161a.544.544,0,0,0,0,1.089h1.161a.544.544,0,1,0,0-1.089Z" transform="translate(-214.255 -360.433)"/><path class="a" d="M354.706,249h-1.161a.544.544,0,1,0,0,1.089h1.161a.544.544,0,0,0,0-1.089Z" transform="translate(-336.142 -238.457)"/><path class="a" d="M354.706,313h-1.161a.544.544,0,1,0,0,1.089h1.161a.544.544,0,0,0,0-1.089Z" transform="translate(-336.142 -299.445)"/><path class="a" d="M354.706,377h-1.161a.544.544,0,1,0,0,1.089h1.161a.544.544,0,0,0,0-1.089Z" transform="translate(-336.142 -360.433)"/><path class="a" d="M21.653,26.855H19.984V25.7a.7.7,0,1,0-1.391,0v1.159H12.566V25.7a.7.7,0,1,0-1.391,0v1.159H5.147V25.7a.7.7,0,1,0-1.391,0v1.159H2.087A2.089,2.089,0,0,0,0,28.941V44.335a2.089,2.089,0,0,0,2.087,2.087H21.653a2.089,2.089,0,0,0,2.087-2.087V28.941A2.089,2.089,0,0,0,21.653,26.855ZM1.391,28.941a.7.7,0,0,1,.7-.7H3.756V29.4a.7.7,0,1,0,1.391,0V28.246h6.028V29.4a.7.7,0,1,0,1.391,0V28.246h6.028V29.4a.7.7,0,1,0,1.391,0V28.246h1.669a.7.7,0,0,1,.7.7v2.736H1.391ZM21.653,45.031H2.087a.7.7,0,0,1-.7-.7V33.068H22.349V44.335A.7.7,0,0,1,21.653,45.031Z" transform="translate(0 -25)"/></svg>