<svg xmlns="http://www.w3.org/2000/svg" xmlns:xlink="http://www.w3.org/1999/xlink" width="386.119" height="394.408" viewBox="0 0 386.119 394.408"><defs><style>.a{fill:none;}.b{fill:#f2f2f2;}.c{fill:#835c63;}.d{fill:#704f56;}.e{fill:#ffd8b0;}.f{fill:#f5cfa9;}.g{fill:#02293f;}.h{fill:#fff;}.i{fill:#7dffe5;}.j{fill:#53ebcd;}.k{fill:#ff6c1c;}.l{fill:#ed651a;}.m{clip-path:url(#a);}</style><clipPath id="a"><rect class="a" width="144.27" height="131.637"/></clipPath></defs><g transform="translate(1044.76 -46.466)"><path class="b" d="M-658.641,248.042c0,106.624-86.431,193.06-193.06,193.06s-193.06-86.436-193.06-193.06,86.436-193.06,193.06-193.06,193.06,86.436,193.06,193.06" transform="translate(0 -1.349)"/><path class="c" d="M-756.71,170.884c0-58.806-48.1-75.89-76.856-75.89-29,0-76.509,14.878-76.509,75.89,0,59.723-24.49,56.609-22.544,90.487,3.068,53.511,49.214,65.967,99.223,65.967s96.157-12.455,99.223-65.967c1.942-33.878-22.544-30.764-22.544-90.487" transform="translate(-17.747 -7.688)"/><path class="d" d="M-754.11,173.077c0-27.856-10.788-46.339-25.187-58.078,9.324,11.5,15.564,27.267,15.564,48.454,0,59.668,18.044,60.089,16.108,93.934-3.059,53.461-42.7,62.375-92.574,62.375-29.587,0-57.815-4.382-76.524-19.11,17.589,22.513,50.9,28.731,86.148,28.731,49.872,0,95.885-12.444,98.945-65.905,1.936-33.847-22.48-30.736-22.48-90.4" transform="translate(-20.283 -10.857)"/><path class="e" d="M-763.214,183.258c0,38.434-28.393,69.592-63.418,69.592s-63.418-31.157-63.418-69.592,28.394-69.592,63.418-69.592,63.418,31.156,63.418,69.592" transform="translate(-24.508 -10.645)"/><path class="f" d="M-803.3,304.089-817.1,316.853l-14.27-12.764V269.711H-803.3Z" transform="translate(-33.805 -35.365)"/><path class="f" d="M-785.95,129.67l-51.8,28.653c7.8,36.164,60.436,47.56,60.436,47.56-10.91,23.228-34.045,38.776-56.167,38.776a60.038,60.038,0,0,1-37.9-13.612c11.648,14.237,28.621,23.214,47.53,23.214,35.12,0,63.591-30.937,63.591-69.1,0-22.731-10.1-42.9-25.694-55.49" transform="translate(-27.466 -13.181)"/><path class="c" d="M-696,477.6a6.764,6.764,0,0,1-6.733,6.757H-983.345a6.764,6.764,0,0,1-6.733-6.757v-1.078a6.765,6.765,0,0,1,6.733-6.757h280.613A6.765,6.765,0,0,1-696,476.525Z" transform="translate(-8.662 -67.057)"/><path class="c" d="M-781.095,130.555c-17.03-18.65-40.5-19.876-57.283-17.1-17.217,2.845-48.543,17.423-53,58.934,0,0,29.9.842,50.007-16.428,11.445,20.374,33.863,41.679,77.628,41.679,0,0,8.873-38.367-17.348-67.083" transform="translate(-24.297 -10.434)"/><path class="g" d="M-765.559,313.469c-16.489-3.95-55.868-17.084-55.868-17.084l-12.815,24.169-11.852-24.169s-44.958,13.364-60.833,19.335c-14.373,5.408-23.175,72.327-28.39,105.178-1.465,9.22,18.118,22.527,18.118,22.527h163.077s22.151-16.206,20.7-24.238c-5.965-32.983-10.786-100.6-32.134-105.717" transform="translate(-17.325 -39.591)"/><path class="h" d="M-834.973,291.05l-15.064,10.7s11.493,5.593,29.184,18.481Z" transform="translate(-30.005 -38.746)"/><path class="h" d="M-800.768,291.05l14.591,10.7s-12.22,5.593-29.184,18.482Z" transform="translate(-36.34 -38.746)"/><path class="g" d="M-902.042,177.289c-.039-1.329-.722-32.8,20.129-54.166,12.168-12.47,29.148-18.793,50.47-18.793,38.881,0,57.312,19.861,65.916,36.52a87.229,87.229,0,0,1,9.393,36.4h-2.886a85.949,85.949,0,0,0-9.121-35.178c-12-23.134-33.294-34.865-63.3-34.865-20.511,0-36.795,6.029-48.4,17.921-20.011,20.506-19.325,51.767-19.315,52.082Z" transform="translate(-22.607 -9.166)"/><path class="i" d="M-741.557,431.1a6.833,6.833,0,0,1-6.817,6.807h-168.2a6.834,6.834,0,0,1-6.817-6.807V339.2a6.834,6.834,0,0,1,6.817-6.808h168.2a6.834,6.834,0,0,1,6.817,6.808Z" transform="translate(-19.226 -45.295)"/><path class="j" d="M-748.376,332.395h-6.5s-15.163,98.7-168.521,98.7a6.833,6.833,0,0,0,6.817,6.806h168.2a6.834,6.834,0,0,0,6.817-6.806V339.2a6.834,6.834,0,0,0-6.817-6.808" transform="translate(-19.226 -45.295)"/><path class="h" d="M-870.835,459.183c0,6.286-1.414,1.8-3.159,1.8h-26.233c-1.745,0-3.159,3.543-3.159-1.8V455.7a3.215,3.215,0,0,1,3.159-3.269h26.233a3.215,3.215,0,0,1,3.159,3.269Z" transform="translate(-22.396 -64.311)"/><path class="h" d="M-732.128,461.049c0,1.794-1.413,1.419-3.159,1.419h-26.234c-1.745,0-3.159.5-3.159-1.293v-5.5a3.2,3.2,0,0,1,3.159-3.249h26.234a3.2,3.2,0,0,1,3.159,3.248h0Z" transform="translate(-44.369 -64.311)"/><path class="i" d="M-741.557,464.361a3.955,3.955,0,0,1-3.978,3.929H-919.414a3.955,3.955,0,0,1-3.978-3.929,3.956,3.956,0,0,1,3.978-3.928h173.878a3.955,3.955,0,0,1,3.978,3.928" transform="translate(-19.226 -65.578)"/><path class="g" d="M-847.053,258.381c-21.416,0-36.929-5.455-46.106-16.213-11.186-13.113-8.692-29.133-8.58-29.806l2.861.468c-.025.152-2.372,15.426,7.953,27.5,8.608,10.063,23.368,15.165,43.872,15.165Z" transform="translate(-22.607 -26.28)"/><path class="k" d="M-894.975,212.757h0a19.1,19.1,0,0,1-19.081-19.127h0v-2.153a19.1,19.1,0,0,1,19.08-19.128h0" transform="translate(-20.705 -19.942)"/><path class="g" d="M-888.86,212.3a4.018,4.018,0,0,1-3.929,4.1,4.019,4.019,0,0,1-3.928-4.1V171.116a4.019,4.019,0,0,1,3.928-4.1,4.019,4.019,0,0,1,3.929,4.1Z" transform="translate(-23.452 -19.097)"/><path class="k" d="M-738.005,172.349h0a19.1,19.1,0,0,1,19.081,19.127h0v2.152A19.1,19.1,0,0,1-738,212.757h0" transform="translate(-48.594 -19.942)"/><path class="l" d="M-728.946,175.017a19.1,19.1,0,0,1,4.238,12.021v2.155a19.146,19.146,0,0,1-13.3,18.248v5.738a19.115,19.115,0,0,0,19.081-19.149v-2.156a19.157,19.157,0,0,0-10.023-16.857" transform="translate(-48.594 -20.364)"/><path class="g" d="M-743.34,171.116a4.019,4.019,0,0,1,3.929-4.1,4.019,4.019,0,0,1,3.929,4.1V212.3a4.019,4.019,0,0,1-3.929,4.1,4.019,4.019,0,0,1-3.929-4.1Z" transform="translate(-47.749 -19.097)"/><path class="g" d="M-826.321,264.231a7.857,7.857,0,0,1-7.857,7.857,7.857,7.857,0,0,1-7.857-7.857,7.857,7.857,0,0,1,7.857-7.857,7.857,7.857,0,0,1,7.857,7.857h0" transform="translate(-32.115 -33.252)"/><g transform="translate(-808.242 46.466)"><path class="a" d="M-763.722,46.466h144.271V178.1H-763.722Z" transform="translate(763.722 -46.466)"/><g transform="translate(0 0)"><g class="m"><g transform="translate(0 0)"><path class="i" d="M-684.455,46.466a64.993,64.993,0,0,0-65,64.982,64.988,64.988,0,0,0,6.163,27.636L-763.722,178.1l39.035-15.623A64.988,64.988,0,0,0-633.414,151.7a64.989,64.989,0,0,0-10.779-91.273,65,65,0,0,0-40.261-13.962" transform="translate(763.722 -46.466)"/></g></g></g></g><path class="j" d="M-628.412,85.658a65.211,65.211,0,0,1-44.087,81,65.208,65.208,0,0,1-58.784-11.3l-33.4,29.073,39.178-15.626a65.269,65.269,0,0,0,91.653-10.952,65.273,65.273,0,0,0,13.966-40.083,64.5,64.5,0,0,0-8.53-32.114" transform="translate(-44.369 -6.209)"/><path class="a" d="M-1044.76,440.956h386.119V46.98H-1044.76Z" transform="translate(0 -0.081)"/></g></svg>