<svg xmlns="http://www.w3.org/2000/svg" xmlns:xlink="http://www.w3.org/1999/xlink" width="1014.589" height="1283.622" viewBox="0 0 1014.589 1283.622">
  <defs>
    <filter id="Caminho_1360" x="0" y="0" width="960.087" height="1283.622" filterUnits="userSpaceOnUse">
      <feOffset dy="3" input="SourceAlpha"/>
      <feGaussianBlur stdDeviation="3" result="blur"/>
      <feFlood flood-opacity="0.161"/>
      <feComposite operator="in" in2="blur"/>
      <feComposite in="SourceGraphic"/>
    </filter>
    <filter id="Caminho_1362" x="55.179" y="42.423" width="251.355" height="251.355" filterUnits="userSpaceOnUse">
      <feOffset dy="3" input="SourceAlpha"/>
      <feGaussianBlur stdDeviation="3" result="blur-2"/>
      <feFlood flood-opacity="0.161"/>
      <feComposite operator="in" in2="blur-2"/>
      <feComposite in="SourceGraphic"/>
    </filter>
  </defs>
  <g id="Grupo_1393" data-name="Grupo 1393" transform="translate(-795.68 270.298)">
    <g transform="matrix(1, 0, 0, 1, 795.68, -270.3)" filter="url(#Caminho_1360)">
      <path id="Caminho_1360-2" data-name="Caminho 1360" d="M1654.963,996.865A183.558,183.558,0,0,0,1717.33,744.88h0c-52.36-86.8-160.918-95.094-251.985-62.367s-199.625,24.441-251.985-62.366a183.559,183.559,0,0,1,62.367-251.985l-.006.023a183.554,183.554,0,0,0,62.37-251.98l0-.005C1285.726,29.388,1177.17,21.1,1086.1,53.833S886.479,78.265,834.116-8.535A183.557,183.557,0,0,1,896.485-260.52" transform="translate(-795.68 270.64)" fill="none" stroke="#e6e6e6" stroke-linecap="round" stroke-miterlimit="10" stroke-width="6"/>
    </g>
    <g id="Grupo_1340" data-name="Grupo 1340" transform="translate(859.858 -221.874)">
      <g id="Grupo_1338" data-name="Grupo 1338">
        <path id="Caminho_1361" data-name="Caminho 1361" d="M868.434-107.119A106.072,106.072,0,0,0,974.17-.712a106.072,106.072,0,0,0,106.407-105.736v-.671H974.5V-213.192A106.191,106.191,0,0,0,868.434-107.119Z" transform="translate(-857.827 223.798)" fill="none"/>
        <g transform="matrix(1, 0, 0, 1, -64.18, -48.42)" filter="url(#Caminho_1362)">
          <path id="Caminho_1362-2" data-name="Caminho 1362" d="M974.848-.7A106.074,106.074,0,0,1,868.793-106.795,106.073,106.073,0,0,1,974.848-212.849v-10.606A116.677,116.677,0,0,0,858.17-106.777,116.678,116.678,0,0,0,974.848,9.9a116.678,116.678,0,0,0,116.678-116.678h-10.6A106.2,106.2,0,0,1,974.848-.7Z" transform="translate(-793.99 271.88)" fill="#b3b3b3"/>
        </g>
        <path id="Caminho_1363" data-name="Caminho 1363" d="M971.07-223.455v10.606a106.2,106.2,0,0,1,106.073,106.073h10.606A116.81,116.81,0,0,0,971.07-223.455Z" transform="translate(-854.392 223.455)" fill="#02293f"/>
      </g>
      <g id="Grupo_1316" data-name="Grupo 1316" transform="translate(34.143 34.156)">
        <circle id="Elipse_439-2" data-name="Elipse 439-2" cx="82.53" cy="82.53" r="82.53" fill="#fff"/>
      </g>
      <g id="Grupo_1339" data-name="Grupo 1339" transform="translate(231.972 103.873)">
        <line id="Linha_66" data-name="Linha 66" x2="92.453" transform="translate(0 12.095)" fill="none" stroke="#02293f" stroke-miterlimit="10" stroke-width="2"/>
        <circle id="Elipse_440" data-name="Elipse 440" cx="12.807" cy="12.807" r="12.807" transform="translate(92.453)" fill="none" stroke="#02293f" stroke-miterlimit="10" stroke-width="2"/>
      </g>
      <text id="_01" data-name="01" transform="translate(84.271 135.677)" fill="#404040" font-size="55" font-family="GalanoGrotesque" font-weight="300" style="isolation: isolate"><tspan x="0" y="0">01</tspan></text>
    </g>
    <g id="Grupo_1343" data-name="Grupo 1343" transform="translate(1079.029 94.014)">
      <path id="Caminho_1364" data-name="Caminho 1364" d="M1080.47,198.542a106.072,106.072,0,1,0,212.143.671v-.671H1186.54V92.469A106.191,106.191,0,0,0,1080.47,198.542Z" transform="translate(-1069.903 -81.863)" fill="none"/>
      <g id="Grupo_1317" data-name="Grupo 1317" transform="translate(34.113 34.156)">
        <circle id="Elipse_441-2" data-name="Elipse 441-2" cx="82.53" cy="82.53" r="82.53" fill="#fff"/>
      </g>
      <g id="Grupo_1341" data-name="Grupo 1341" transform="translate(231.932 103.873)">
        <line id="Linha_67" data-name="Linha 67" x2="92.453" transform="translate(0 12.095)" fill="none" stroke="#02293f" stroke-miterlimit="10" stroke-width="5"/>
        <circle id="Elipse_442" data-name="Elipse 442" cx="12.807" cy="12.807" r="12.807" transform="translate(92.453)" fill="none" stroke="#02293f" stroke-miterlimit="10" stroke-width="4"/>
      </g>
      <text id="_02" data-name="02" transform="translate(78.539 138.677)" fill="#404040" font-size="58" font-family="GalanoGrotesque" font-weight="300" style="isolation: isolate"><tspan x="0" y="0">02</tspan></text>
      <g id="Grupo_1342" data-name="Grupo 1342" transform="translate(0)">
        <path id="Caminho_1365" data-name="Caminho 1365" d="M1080.47,198.542a106.192,106.192,0,0,0,106.07,106.073V92.469A106.191,106.191,0,0,0,1080.47,198.542Z" transform="translate(-1069.903 -81.863)" fill="none"/>
        <path id="Caminho_1366" data-name="Caminho 1366" d="M1080.812,198.886a106.191,106.191,0,0,1,106.07-106.073V82.206a116.678,116.678,0,0,0,0,233.355v-10.6A106.192,106.192,0,0,1,1080.812,198.886Z" transform="translate(-1070.245 -82.206)" fill="#b3b3b3"/>
        <path id="Caminho_1367" data-name="Caminho 1367" d="M1183.106,82.206V92.812a106.073,106.073,0,0,1,0,212.147v10.606a116.678,116.678,0,1,0,0-233.355Z" transform="translate(-1066.469 -82.206)" fill="#02293f"/>
      </g>
    </g>
    <g id="Grupo_1346" data-name="Grupo 1346" transform="translate(1239.1 406.807)">
      <g id="Grupo_1344" data-name="Grupo 1344">
        <path id="Caminho_1368" data-name="Caminho 1368" d="M1235.4,501.208a106.073,106.073,0,1,0,212.146,0H1341.469V395.135A106.2,106.2,0,0,0,1235.4,501.208Z" transform="translate(-1224.79 -384.529)" fill="none"/>
        <path id="Caminho_1369" data-name="Caminho 1369" d="M1341.813,395.478a106.073,106.073,0,0,1,0,212.147h0v10.606a116.678,116.678,0,1,0-116.678-116.678h10.606A106.2,106.2,0,0,1,1341.813,395.478Z" transform="translate(-1225.133 -384.872)" fill="#b3b3b3"/>
        <path id="Caminho_1370" data-name="Caminho 1370" d="M1341.813,384.872v10.606a106.073,106.073,0,1,1-106.073,106.073h-10.606a116.678,116.678,0,1,0,116.677-116.678h0Z" transform="translate(-1225.133 -384.872)" fill="#02293f"/>
      </g>
      <g id="Grupo_1318" data-name="Grupo 1318" transform="translate(34.156 34.145)">
        <circle id="Elipse_443-2" data-name="Elipse 443-2" cx="82.53" cy="82.53" r="82.53" fill="#fff"/>
      </g>
      <g id="Grupo_1345" data-name="Grupo 1345" transform="translate(231.973 103.874)">
        <line id="Linha_68" data-name="Linha 68" x2="92.453" transform="translate(0 12.095)" fill="none" stroke="#02293f" stroke-miterlimit="10" stroke-width="5"/>
        <circle id="Elipse_444" data-name="Elipse 444" cx="12.807" cy="12.807" r="12.807" transform="translate(92.453)" fill="none" stroke="#02293f" stroke-miterlimit="10" stroke-width="4"/>
      </g>
      <text id="_03" data-name="03" transform="translate(78.581 135.678)" fill="#404040" font-size="55" font-family="GalanoGrotesque" font-weight="300" style="isolation: isolate"><tspan x="0" y="0">03</tspan></text>
    </g>
    <g id="Grupo_1349" data-name="Grupo 1349" transform="translate(1458.231 722.696)">
      <path id="Caminho_1371" data-name="Caminho 1371" d="M1447.431,806.87a106.073,106.073,0,1,0,212.146,0H1553.5V700.8A106.2,106.2,0,0,0,1447.431,806.87Z" transform="translate(-1436.827 -690.191)" fill="none"/>
      <g id="Grupo_1319" data-name="Grupo 1319" transform="translate(34.143 34.156)">
        <circle id="Elipse_445-2" data-name="Elipse 445-2" cx="82.53" cy="82.53" r="82.53" fill="#fff"/>
      </g>
      <g id="Grupo_1347" data-name="Grupo 1347" transform="translate(231.971 103.874)">
        <line id="Linha_69" data-name="Linha 69" x2="92.453" transform="translate(0 12.095)" fill="none" stroke="#02293f" stroke-miterlimit="10" stroke-width="5"/>
        <circle id="Elipse_446" data-name="Elipse 446" cx="12.807" cy="12.807" r="12.807" transform="translate(92.453)" fill="none" stroke="#02293f" stroke-miterlimit="10" stroke-width="4"/>
      </g>
      <text id="_04" data-name="04" transform="translate(78.579 135.678)" fill="#404040" font-size="55" font-family="GalanoGrotesque" font-weight="300" style="isolation: isolate"><tspan x="0" y="0">04</tspan></text>
      <g id="Grupo_1348" data-name="Grupo 1348">
        <path id="Caminho_1372" data-name="Caminho 1372" d="M1447.431,806.87A106.2,106.2,0,0,0,1553.5,912.943V700.8A106.2,106.2,0,0,0,1447.431,806.87Z" transform="translate(-1436.827 -690.191)" fill="none"/>
        <path id="Caminho_1373" data-name="Caminho 1373" d="M1553.848,690.534a116.678,116.678,0,1,0,116.677,116.678A116.678,116.678,0,0,0,1553.848,690.534Zm0,222.753a106.073,106.073,0,1,1,106.073-106.073,106.073,106.073,0,0,1-106.073,106.073Z" transform="translate(-1437.17 -690.534)" fill="#02293f"/>
      </g>
    </g>
  </g>
</svg>
