<svg id="Camada_1" data-name="Camada 1" xmlns="http://www.w3.org/2000/svg" viewBox="0 0 710.7 892.84"><defs><style>.cls1-1,.cls2-2,.cls6-6,.cls8-8,.cls9-9{fill:none;}.cls1-1{stroke:#e6e6e6;stroke-linecap:round;stroke-width:6px;}.cls1-1,.cls6-6,.cls8-8,.cls9-9{stroke-miterlimit:10;}.cls3-3{fill:#b3b3b3;}.cls4-4{fill:#0e273b;}.cls5-5{fill:#fff;}.cls6-6,.cls8-8,.cls9-9{stroke:#02293f;}.cls6-6{stroke-width:2px;}.cls7-7{isolation:isolate;}.cls8-8{stroke-width:5px;}.cls9-9{stroke-width:4px;}.cls10-10{fill:#02293f;}</style></defs><path id="Caminho_1360-2" data-name="Caminho 1360-2" class="cls1-1" d="M467.83,623.42a129.47,129.47,0,0,0,44-177.73h0c-36.93-61.22-113.5-67.07-177.73-44s-140.8,17.24-177.73-44a129.47,129.47,0,0,1,44-177.73v0a129.47,129.47,0,0,0,44-177.73h0c-36.93-61.22-113.5-67.07-177.73-44s-140.8,17.23-177.73-44a129.47,129.47,0,0,1,44-177.73" transform="translate(132.74 266.42)"/><g id="Grupo_1340" data-name="Grupo 1340"><g id="Grupo_1338" data-name="Grupo 1338"><path id="Caminho_1361" data-name="Caminho 1361" class="cls2-2" d="M-85.48-154.12A74.81,74.81,0,0,0-10.9-79.07a74.83,74.83,0,0,0,75.05-74.57v-.48H-10.67v-74.81A74.9,74.9,0,0,0-85.48-154.12Z" transform="translate(132.74 266.42)"/><path id="Caminho_1362-2" data-name="Caminho 1362-2" class="cls3-3" d="M-10.67-79.31a74.81,74.81,0,0,1-74.8-74.83,74.82,74.82,0,0,1,74.8-74.8v-7.48A82.3,82.3,0,0,0-93-154.12h0A82.29,82.29,0,0,0-10.67-71.83h0a82.29,82.29,0,0,0,82.29-82.29H64.15A74.9,74.9,0,0,1-10.67-79.31Z" transform="translate(132.74 266.42)"/><path id="Caminho_1363" data-name="Caminho 1363" class="cls4-4" d="M-10.67-236.41v7.48a74.9,74.9,0,0,1,74.82,74.81h7.48A82.39,82.39,0,0,0-10.67-236.41Z" transform="translate(132.74 266.42)"/></g><g id="Grupo_1316" data-name="Grupo 1316"><circle id="Elipse_439-2" data-name="Elipse 439-2" class="cls5-5" cx="122.07" cy="112.3" r="58.21"/></g><g id="Grupo_1339" data-name="Grupo 1339"><line id="Linha_66" data-name="Linha 66" class="cls6-6" x1="203.39" y1="111.8" x2="268.6" y2="111.8"/><circle id="Elipse_440" data-name="Elipse 440" class="cls6-6" cx="277.63" cy="112.3" r="9.03"/></g><g id="_01" data-name=" 01" class="cls7-7"><g class="cls7-7"><path class="cls4-4" d="M-12.51-152.93q0,5.4-1.84,8a6.55,6.55,0,0,1-5.76,2.62,6.6,6.6,0,0,1-5.73-2.56c-1.24-1.71-1.88-4.27-1.92-7.66v-4.1q0-5.34,1.84-7.92c1.23-1.73,3.15-2.59,5.78-2.59s4.51.83,5.74,2.5,1.86,4.23,1.89,7.71Zm-3.07-4.2q0-3.9-1.09-5.68a3.78,3.78,0,0,0-3.47-1.79,3.72,3.72,0,0,0-3.44,1.78,10.93,10.93,0,0,0-1.11,5.46v4.91a11.42,11.42,0,0,0,1.14,5.79,3.76,3.76,0,0,0,3.44,1.87,3.72,3.72,0,0,0,3.38-1.76,11.11,11.11,0,0,0,1.15-5.55Z" transform="translate(132.74 266.42)"/><path class="cls4-4" d="M1.52-142.62H-1.57v-20.47l-6.19,2.28v-2.79L1-166.91h.48Z" transform="translate(132.74 266.42)"/></g></g></g><g id="Grupo_1343" data-name="Grupo 1343"><path id="Caminho_1364" data-name="Caminho 1364" class="cls2-2" d="M69.07,68.68a74.82,74.82,0,0,0,149.63.78v-.78H143.88V-6.13A74.9,74.9,0,0,0,69.07,68.68Z" transform="translate(132.74 266.42)"/><g id="Grupo_1317" data-name="Grupo 1317"><circle id="Elipse_441-2" data-name="Elipse 441-2" class="cls5-5" cx="276.63" cy="335.1" r="58.21"/></g><g id="Grupo_1341" data-name="Grupo 1341"><line id="Linha_67" data-name="Linha 67" class="cls8-8" x1="357.97" y1="334.6" x2="423.18" y2="334.6"/><circle id="Elipse_442" data-name="Elipse 442" class="cls9-9" cx="432.21" cy="335.1" r="9.03"/></g><g id="_02" data-name=" 02" class="cls7-7"><g class="cls7-7"><path class="cls4-4" d="M142.05,70q0,5.4-1.84,8a7.67,7.67,0,0,1-11.49.06c-1.24-1.71-1.88-4.27-1.93-7.66V66.3q0-5.32,1.85-7.91t5.77-2.59c2.61,0,4.52.83,5.75,2.49S142,62.53,142.05,66ZM139,65.79a11.27,11.27,0,0,0-1.1-5.69,3.76,3.76,0,0,0-3.47-1.78A3.7,3.7,0,0,0,131,60.1a10.93,10.93,0,0,0-1.11,5.46v4.91A11.46,11.46,0,0,0,131,76.26a3.78,3.78,0,0,0,3.45,1.86,3.73,3.73,0,0,0,3.38-1.75A11.11,11.11,0,0,0,139,70.82Z" transform="translate(132.74 266.42)"/><path class="cls4-4" d="M161.82,80.3H146V78.09l8.36-9.3a19.7,19.7,0,0,0,2.57-3.42,5.72,5.72,0,0,0,.7-2.73,4.35,4.35,0,0,0-1.14-3.11,4,4,0,0,0-3.06-1.21,4.75,4.75,0,0,0-3.56,1.3,5,5,0,0,0-1.27,3.63h-3.07a7.17,7.17,0,0,1,2.15-5.4,8,8,0,0,1,5.75-2.05,7.68,7.68,0,0,1,5.33,1.76,6,6,0,0,1,2,4.71q0,3.57-4.55,8.5l-6.47,7h12.13Z" transform="translate(132.74 266.42)"/></g></g><g id="Grupo_1342" data-name="Grupo 1342"><path id="Caminho_1365" data-name="Caminho 1365" class="cls2-2" d="M69.07,68.68a74.91,74.91,0,0,0,74.81,74.82V-6.13A74.9,74.9,0,0,0,69.07,68.68Z" transform="translate(132.74 266.42)"/><path id="Caminho_1366" data-name="Caminho 1366" class="cls3-3" d="M69.07,68.68A74.9,74.9,0,0,1,143.89-6.13v-7.48a82.29,82.29,0,1,0,0,164.58V143.5A74.91,74.91,0,0,1,69.07,68.68Z" transform="translate(132.74 266.42)"/><path id="Caminho_1367" data-name="Caminho 1367" class="cls10-10" d="M143.89-13.61v7.48a74.82,74.82,0,0,1,0,149.63V151a82.3,82.3,0,0,0,0-164.59Z" transform="translate(132.74 266.42)"/></g></g><g id="Grupo_1346" data-name="Grupo 1346"><g id="Grupo_1344" data-name="Grupo 1344"><path id="Caminho_1368" data-name="Caminho 1368" class="cls2-2" d="M182,289.3a74.82,74.82,0,0,0,149.63.54v-.54H256.82V214.48A74.91,74.91,0,0,0,182,289.3Z" transform="translate(132.74 266.42)"/><path id="Caminho_1369" data-name="Caminho 1369" class="cls3-3" d="M256.81,214.48a74.82,74.82,0,1,1,.54,149.63h-.54v7.48a82.29,82.29,0,1,0-82.29-82.29H182A74.9,74.9,0,0,1,256.81,214.48Z" transform="translate(132.74 266.42)"/><path id="Caminho_1370" data-name="Caminho 1370" class="cls10-10" d="M256.81,207v7.48A74.82,74.82,0,1,1,182,289.3h-7.48A82.3,82.3,0,1,0,256.81,207Z" transform="translate(132.74 266.42)"/></g><g id="Grupo_1318" data-name="Grupo 1318"><circle id="Elipse_443-2" data-name="Elipse 443-2" class="cls5-5" cx="389.56" cy="555.71" r="58.21"/></g><g id="Grupo_1345" data-name="Grupo 1345"><line id="Linha_68" data-name="Linha 68" class="cls8-8" x1="470.87" y1="555.21" x2="536.08" y2="555.21"/><circle id="Elipse_444" data-name="Elipse 444" class="cls9-9" cx="545.11" cy="555.72" r="9.03"/></g><g id="_03" data-name=" 03" class="cls7-7"><g class="cls7-7"><path class="cls4-4" d="M255,290.49q0,5.4-1.84,8a7.67,7.67,0,0,1-11.49.06q-1.86-2.56-1.92-7.67v-4.1q0-5.32,1.84-7.92c1.23-1.72,3.15-2.59,5.78-2.59s4.51.84,5.74,2.5S255,283,255,286.5Zm-3.07-4.2q0-3.9-1.09-5.69a4.25,4.25,0,0,0-6.91,0,11,11,0,0,0-1.11,5.47V291a11.45,11.45,0,0,0,1.14,5.79,3.75,3.75,0,0,0,3.44,1.86,3.7,3.7,0,0,0,3.38-1.76,10.93,10.93,0,0,0,1.15-5.54Z" transform="translate(132.74 266.42)"/><path class="cls4-4" d="M263.38,287.22h2.31a5.07,5.07,0,0,0,3.42-1.15,3.82,3.82,0,0,0,1.25-3q0-4.24-4.24-4.25a4.43,4.43,0,0,0-3.18,1.14,4,4,0,0,0-1.18,3h-3.07a6.14,6.14,0,0,1,2.1-4.77,8.62,8.62,0,0,1,10.7-.1,6.57,6.57,0,0,1,1.94,5,5.32,5.32,0,0,1-1,3.06,6.23,6.23,0,0,1-2.78,2.21,6,6,0,0,1,3.08,2.09,5.82,5.82,0,0,1,1.08,3.57,6.57,6.57,0,0,1-2.12,5.16,8,8,0,0,1-5.53,1.91,8.18,8.18,0,0,1-5.54-1.84,6.12,6.12,0,0,1-2.13-4.87h3.09a4,4,0,0,0,1.24,3.06,4.77,4.77,0,0,0,3.34,1.14,4.61,4.61,0,0,0,3.4-1.16,4.45,4.45,0,0,0,1.18-3.34,4.06,4.06,0,0,0-1.29-3.23,5.61,5.61,0,0,0-3.74-1.16h-2.31Z" transform="translate(132.74 266.42)"/></g></g></g><g id="Grupo_1349" data-name="Grupo 1349"><path id="Caminho_1371" data-name="Caminho 1371" class="cls2-2" d="M336.55,512.1a74.82,74.82,0,0,0,149.63.54v-.54H411.37V437.29A74.9,74.9,0,0,0,336.55,512.1Z" transform="translate(132.74 266.42)"/><g id="Grupo_1319" data-name="Grupo 1319"><circle id="Elipse_445-2" data-name="Elipse 445-2" class="cls5-5" cx="544.11" cy="778.52" r="58.21"/></g><g id="Grupo_1347" data-name="Grupo 1347"><line id="Linha_69" data-name="Linha 69" class="cls8-8" x1="625.43" y1="778.01" x2="690.64" y2="778.01"/><circle id="Elipse_446" data-name="Elipse 446" class="cls9-9" cx="699.67" cy="778.52" r="9.03"/></g><g id="_04" data-name=" 04" class="cls7-7"><g class="cls7-7"><path class="cls4-4" d="M409.53,513.29c0,3.59-.61,6.27-1.84,8a7.65,7.65,0,0,1-11.49.06q-1.86-2.57-1.93-7.66v-4.1q0-5.33,1.85-7.92a6.61,6.61,0,0,1,5.77-2.59c2.61,0,4.52.83,5.75,2.5s1.86,4.24,1.89,7.71Zm-3.07-4.2a11.27,11.27,0,0,0-1.1-5.69,3.76,3.76,0,0,0-3.47-1.78,3.72,3.72,0,0,0-3.43,1.77,11,11,0,0,0-1.11,5.46v4.92a11.39,11.39,0,0,0,1.13,5.78,4.12,4.12,0,0,0,6.83.11,11,11,0,0,0,1.15-5.54Z" transform="translate(132.74 266.42)"/><path class="cls4-4" d="M426.43,515.48h3.36V518h-3.36v5.62h-3.09V518h-11v-1.81l10.82-16.75h3.27Zm-10.61,0h7.52V503.62l-.36.67Z" transform="translate(132.74 266.42)"/></g></g><g id="Grupo_1348" data-name="Grupo 1348"><path id="Caminho_1372" data-name="Caminho 1372" class="cls2-2" d="M336.55,512.1a74.9,74.9,0,0,0,74.82,74.81V437.29A74.9,74.9,0,0,0,336.55,512.1Z" transform="translate(132.74 266.42)"/><path id="Caminho_1373" data-name="Caminho 1373" class="cls10-10" d="M411.37,429.8a82.3,82.3,0,1,0,82.29,82.3h0A82.3,82.3,0,0,0,411.37,429.8Zm0,157.11a74.82,74.82,0,1,1,74.81-74.81h0A74.81,74.81,0,0,1,411.37,586.91Z" transform="translate(132.74 266.42)"/></g></g></svg>