<svg xmlns="http://www.w3.org/2000/svg" width="360" height="169" viewBox="0 0 360 169">
  <g id="Grupo_1355" data-name="Grupo 1355" transform="translate(0.301 -220.367)">
    <path id="Rectangle" d="M20,0H340a20,20,0,0,1,20,20V169a0,0,0,0,1,0,0H0a0,0,0,0,1,0,0V20A20,20,0,0,1,20,0Z" transform="translate(-0.301 220.367)" fill="#02293f"/>
    <path id="Rectangle-2" data-name="Rectangle" d="M0,8.98S24.543,90.9,113.676,113.747,205.916,38.81,251.256,38.81s83.317,42.573,95.357,38.81c3.7-1.155,9.262-9.786,13.324-20.225-.107.021,0,100.168,0,100.168L1.2,158.12Z" transform="translate(-0.302 230.156)" fill="#5b5b5b" opacity="0.113"/>
    <rect id="Rectangle-3" data-name="Rectangle" width="360" height="25" transform="translate(-0.301 363.367)" fill="#d8d8d8" opacity="0.071"/>
  </g>
</svg>
