<svg xmlns="http://www.w3.org/2000/svg" width="51.3" height="28.957" viewBox="0 0 51.3 28.957"><defs><style>.harv-a{fill:#a0a4a8;}.harv-b{fill:#cacccf;}</style></defs><g transform="translate(0)"><g transform="translate(0 0)"><path class="harv-a" d="M724.27,114.5h6.34c.461,0,.971.307.933.787l-4.263,22.482c-.118.64-.346,1.107-.933,1.107l-6.278.006a.946.946,0,0,1-.933-.786l4.2-22.489C723.411,115.045,723.683,114.5,724.27,114.5Z" transform="translate(-710.26 -114.496)"/><path class="harv-b" d="M650.868,204.109h6.34c.461,0,.971.307.933.786l-3.017,16.03c-.118.64-.346,1.107-.933,1.107h-6.217a.947.947,0,0,1-.933-.786l2.893-16.03C650.009,204.658,650.281,204.109,650.868,204.109Z" transform="translate(-647.042 -193.075)"/></g><g transform="translate(24.379 10.119)"><path class="harv-a" d="M3395.357,2309.276a.257.257,0,0,1,.213.093.26.26,0,0,1,.054.227l-1.5,7.934a.407.407,0,0,1-.144.238.386.386,0,0,1-.254.1h-1a.26.26,0,0,1-.215-.1.279.279,0,0,1-.053-.238l.632-3.272-3.672.022-.658,3.253a.412.412,0,0,1-.146.236.381.381,0,0,1-.251.1h-.984a.261.261,0,0,1-.211-.093.272.272,0,0,1-.047-.242l1.621-7.846a.4.4,0,0,1,.142-.227.385.385,0,0,1,.246-.1l.966-.013a.248.248,0,0,1,.208.092.26.26,0,0,1,.05.225l-.626,3.092,3.66-.031.6-3.111a.4.4,0,0,1,.141-.229.388.388,0,0,1,.249-.1Z" transform="translate(-3387.11 -2309.276)"/><path class="harv-a" d="M3474.11,2333.269a2.124,2.124,0,0,1,.331-.553,2.782,2.782,0,0,1,.606-.554,3.456,3.456,0,0,1,.877-.429,3.671,3.671,0,0,1,1.135-.177,3.392,3.392,0,0,1,1.109.153,1.962,1.962,0,0,1,.792.476,1.667,1.667,0,0,1,.427.8,2.805,2.805,0,0,1,.006,1.12l-.638,3.688a.4.4,0,0,1-.143.24.387.387,0,0,1-.257.1h-.959a.27.27,0,0,1-.221-.1.281.281,0,0,1-.058-.24l.073-.416a2.742,2.742,0,0,1-.871.625,3.013,3.013,0,0,1-1.306.259,2.732,2.732,0,0,1-.935-.145,1.54,1.54,0,0,1-.634-.408,1.42,1.42,0,0,1-.325-.619,1.821,1.821,0,0,1-.008-.779,2.03,2.03,0,0,1,.856-1.343,4.252,4.252,0,0,1,1.742-.665l2.089-.36a.657.657,0,0,0-.209-.714,1.349,1.349,0,0,0-.795-.2,1.234,1.234,0,0,0-.5.09,1.874,1.874,0,0,0-.376.237.938.938,0,0,1-.229.137.607.607,0,0,1-.211.038l-1.148.009a.259.259,0,0,1-.2-.072A.17.17,0,0,1,3474.11,2333.269Zm1.426,3.485a2.421,2.421,0,0,0,.777-.121,2.117,2.117,0,0,0,.614-.321,1.741,1.741,0,0,0,.418-.452,1.43,1.43,0,0,0,.2-.512l.022-.125-1.75.307a2.077,2.077,0,0,0-.781.258.676.676,0,0,0-.307.456.33.33,0,0,0,.2.386A1.322,1.322,0,0,0,3475.536,2336.754Z" transform="translate(-3465.312 -2329.544)"/><path class="harv-a" d="M3548.481,2333.543a1.468,1.468,0,0,0-1.663,1.419l-.547,3.277a.4.4,0,0,1-.142.242.39.39,0,0,1-.259.1h-.967a.276.276,0,0,1-.224-.1.283.283,0,0,1-.06-.241l1-5.821a.424.424,0,0,1,.395-.335l.953-.01a.276.276,0,0,1,.222.1.271.271,0,0,1,.062.233l-.047.284a3.218,3.218,0,0,1,.774-.464,2.729,2.729,0,0,1,1-.171l.569-.006a.281.281,0,0,1,.225.1.275.275,0,0,1,.063.234l-.132.819a.387.387,0,0,1-.139.238.394.394,0,0,1-.257.1Z" transform="translate(-3530.397 -2329.992)"/><path class="harv-a" d="M3610.814,2337.689a.7.7,0,0,1-.11-.218l-1.677-5.8a.259.259,0,0,1,0-.087.385.385,0,0,1,.139-.236.4.4,0,0,1,.257-.1l.955-.01a.308.308,0,0,1,.265.1.774.774,0,0,1,.11.2l1.117,3.885,2.3-3.919a1.2,1.2,0,0,1,.171-.2.422.422,0,0,1,.3-.1l.97-.01a.3.3,0,0,1,.232.1.278.278,0,0,1,.07.237.3.3,0,0,1-.025.088l-3.463,5.869a1.071,1.071,0,0,1-.176.219.418.418,0,0,1-.3.1h-.86A.314.314,0,0,1,3610.814,2337.689Z" transform="translate(-3588.994 -2329.202)"/></g></g></svg>