<svg xmlns="http://www.w3.org/2000/svg" xmlns:xlink="http://www.w3.org/1999/xlink" viewBox="0 0 580.42 477.16"><defs><style>.cls-1,.cls-16,.cls-3,.cls-33,.cls-46{fill:none;}.cls-2{fill:#b0eeff;}.cls-3,.cls-33,.cls-46{stroke:#fff;}.cls-3,.cls-46{stroke-linecap:round;stroke-linejoin:round;}.cls-3{stroke-width:0.89px;}.cls-4{fill:#fcccb1;}.cls-5{fill:#e9f9ff;}.cls-6{fill:#d7f6ff;}.cls-7{fill:#389fe5;}.cls-8{fill:#fff;}.cls-9{fill:#d7ecfa;}.cls-10{fill:#ff9a30;}.cls-11{fill:#fdcf33;}.cls-12{fill:#b7ddf6;}.cls-13{fill:#b9dbef;}.cls-14{fill:#ffbd1d;}.cls-15{fill:#fffae4;}.cls-16{stroke:#e49f05;stroke-width:0.36px;}.cls-16,.cls-33{stroke-miterlimit:10;}.cls-17{fill:#8cc64b;}.cls-18{fill:#3d3d3d;}.cls-19{fill:#e49f05;}.cls-20{fill:#1f3a71;}.cls-21{fill:#ffc8b0;}.cls-22{fill:#f2a181;}.cls-23{fill:#ffbe9d;}.cls-24{fill:#285faf;}.cls-25{fill:#22549b;}.cls-26{fill:#cfeffe;}.cls-27{fill:#67c2ef;}.cls-28{clip-path:url(#clip-path);}.cls-29{fill:#153351;}.cls-30{fill:#fdd622;}.cls-31{fill:#fffdff;}.cls-32{fill:#95e2f9;}.cls-33{stroke-width:0.62px;}.cls-34{fill:#e6ecef;}.cls-35{fill:#4c4051;}.cls-36{fill:#2986c5;}.cls-37{fill:#ffd86c;}.cls-38{fill:#f4bf2a;}.cls-39{fill:#c1ced6;}.cls-40{fill:#b3eaff;}.cls-41{fill:#ed9c80;}.cls-42{fill:#5275a0;}.cls-43{fill:#b0d9ef;}.cls-44{fill:#aabde2;}.cls-45{fill:#e1e8f9;}.cls-46{stroke-width:3px;}</style><clipPath id="clip-path" transform="translate(0 -6.75)"><rect class="cls-1" width="580.42" height="482.58"/></clipPath></defs><g id="Camada_2" data-name="Camada 2"><g id="Camada_1-2" data-name="Camada 1"><path id="Fill_1" data-name="Fill 1" class="cls-2" d="M346.12,391.39c4.8-9.72,12.54-17.76,21.1-24.3,6.91-5.27,14.72-10.39,22.89-13.42,7.25-2.68,8.86,3.63,14.71,5.79,3.74,1.38,7.89-.73,10.83-3.42s5.19-5.84,8.57-7.78c2.5-1.43,6.23-2.14,8.85-.61,3.26,1.9,2.7,6.59,7.1,7.13a10.8,10.8,0,0,0,5.94-1.4,84.79,84.79,0,0,1,13.36-5.47c4.22-1.23,9.7-1.64,12.14,2s.12,8.27-2.7,11.4c-6.79,7.56-16.81,11.64-26.9,13-2.75.36-5.58.56-8.12,1.67s-4.78,3.42-4.89,6.18c-.05,1.49.5,2.94.52,4.43.06,4.14-4,7.23-8.08,8.15-10.4,2.37-17.17-6.74-26.95-8.14-11.09-1.58-28.16.15-35.86,9.45" transform="translate(0 -6.75)"/><path id="Stroke_3" data-name="Stroke 3" class="cls-3" d="M364.76,386.73a72.64,72.64,0,0,1,39.71-18.37c9.24-1.19,18.61-.62,27.89-1.45s18.9-3.32,25.59-9.47" transform="translate(0 -6.75)"/><path id="Fill_5" data-name="Fill 5" class="cls-2" d="M413.2,345.54c5.55-3.23,11.51-7.73,9.94-14.59-.52-2.25-2.17-4.3-1.88-6.59.18-1.51,1.18-2.77,1.91-4.1a12.57,12.57,0,0,0,.64-10.5c-1.43-3.61-4.47-6.33-6.36-9.72a17.21,17.21,0,0,1-2.16-9.16c-5.86.62-10.93,4.35-16.6,6-4.34,1.23-9,1.21-13.27,2.62A21.36,21.36,0,0,0,371.22,318a11.62,11.62,0,0,0-9.94,4.4,15.32,15.32,0,0,0-3,11.49c2.55,16.63,11.05,29.86,21.92,42.19-2.36-2.68,4.9-11,6.3-12.64,6.11-7.06,14.48-11.13,22.49-15.56,1.27-.7,2.73-1.48,4.22-2.35" transform="translate(0 -6.75)"/><g id="Group_23" data-name="Group 23"><path id="Stroke_7" data-name="Stroke 7" class="cls-3" d="M381.65,353.65c-1.38-7.13.46-14.48,2.7-21.39A84.75,84.75,0,0,1,392.94,313a40.92,40.92,0,0,1,15-14.5" transform="translate(0 -6.75)"/><path id="Stroke_9" data-name="Stroke 9" class="cls-3" d="M383.5,305.18a59.27,59.27,0,0,0,3.27,20.27" transform="translate(0 -6.75)"/><path id="Stroke_11" data-name="Stroke 11" class="cls-3" d="M387.74,323c6.8-5.38,17.64-9.27,26.24-9.57" transform="translate(0 -6.75)"/><path id="Stroke_13" data-name="Stroke 13" class="cls-3" d="M370.21,325.88c9,2.91,10.55,15.86,11.11,19.53" transform="translate(0 -6.75)"/><path id="Stroke_15" data-name="Stroke 15" class="cls-3" d="M383,336.94c6.21-5.47,16.89-11.3,24.12-10.16" transform="translate(0 -6.75)"/><path id="Stroke_17" data-name="Stroke 17" class="cls-3" d="M381.63,353c4.94-6.69,18.42-14.87,25.65-13.72" transform="translate(0 -6.75)"/><path id="Stroke_19" data-name="Stroke 19" class="cls-3" d="M397.94,300.47a10.88,10.88,0,0,0-1.61,7.76" transform="translate(0 -6.75)"/><path id="Stroke_21" data-name="Stroke 21" class="cls-3" d="M398.06,306.23a16.38,16.38,0,0,1,11.46-1.92" transform="translate(0 -6.75)"/></g><path id="Fill_24" data-name="Fill 24" class="cls-2" d="M255.6,402.71c-7.56-20.84-26.92-40.29-46-51.39-4.66-2.7-11.44-4.75-13.57,1.71-1.37,4.16-6.18,3.07-8.92,1.15-3.4-2.38-5.39-6.24-8.28-9.15a16,16,0,0,0-8.52-4.66,10.84,10.84,0,0,0-9.15,2.61c-1.81,1.73-2.89,4.17-4.89,5.67-3.35,2.52-8.22,1.58-11.78-.62s-6.37-5.46-9.82-7.83-8.11-3.77-11.79-1.77c-4.86,2.66-5.31,9.74-3.24,14.92,1.27,3.19,3.29,7.83,5.71,10.33a25.83,25.83,0,0,0,13.24,6.87c3.53.7,7.18.68,10.68,1.51,1.26.3,2.72.84,3,2.31.36,2.12-2.24,3.42-3.76,4.19-2.63,1.33-5.23,4.24-4,6.94.77,1.69,2.74,2.44,4.56,2.75,5.46.94,10.88-.65,16.07-2.26,3.15-1,5.92-3,9.16-3.81,1.68-.44,6-.63,5.52,2.23a3.92,3.92,0,0,1-1.46,2.22,15.83,15.83,0,0,0-2,1.8c-2.48,3.05,0,6.63,3.25,7.42,2.51.61,5.12,0,7.63-.63,16.43-3.86,33.65-5.36,50.18-2,3.52.72,7.37,1.93,9.13,5.08" transform="translate(0 -6.75)"/><path id="Stroke_26" data-name="Stroke 26" class="cls-3" d="M237,390.72a81.06,81.06,0,0,0-44.84-21c-10.42-1.33-21-.63-31.44-1.54s-21.32-3.74-28.89-10.78" transform="translate(0 -6.75)"/><path id="Fill_28" data-name="Fill 28" class="cls-4" d="M241,392.06s-29.06-19.17-37.27-38.61a32.06,32.06,0,0,1,13,6.41c4.2,5.89,14.2,14.9,21,20.76,1,3.21,2,7,3.27,11.44" transform="translate(0 -6.75)"/><path id="Fill_30" data-name="Fill 30" class="cls-2" d="M239.62,385.4c-1.07-6.78-4-13.5-5.2-20.39a95.15,95.15,0,0,1-.13-33.11c1.73-9.35,4.6-19.14,1.46-28.6-.84-2.51-2.38-5.23-5.6-5.2a5.28,5.28,0,0,0-3.46,1.39c-2.36,2.11-2.79,5.13-3.18,8l-1.28,9.67c-.42,3.14-5.17,3.52-6.12.46l0-.08a21.45,21.45,0,0,1-.43-7.94c.44-5.77,1.17-11.58.3-17.33-1.06-6.95-4.84-14-12.21-16.61a13.47,13.47,0,0,0-8.14-.28c-7.38,2.12-8.87,9.13-7.39,15,1,4.13,3.35,7.88,5.47,11.65,5.16,9.2,2.37,17.94,3.67,28.22,2.75,21.8,23.88,42.86,42.26,55.11" transform="translate(0 -6.75)"/><path id="Stroke_32" data-name="Stroke 32" class="cls-3" d="M199.69,288.22c15.65,18.66,10,62.74,37.27,86.53" transform="translate(0 -6.75)"/><path id="Stroke_34" data-name="Stroke 34" class="cls-3" d="M230,310.85c1.87,9.49-4.58,20.13-6.08,26s-2.29,15.95-.69,21.88" transform="translate(0 -6.75)"/><path id="Fill_36" data-name="Fill 36" class="cls-5" d="M184.94,403.49c-.66-3.78-11.17-27.33-23.34-21-7.22,3.75-5.92,17.54,5.36,28-2.21-2.15-4.77-4.59-7.8-5.19a6,6,0,0,0-4.85,1.56,5.75,5.75,0,0,0-1.46,4.09A16.11,16.11,0,0,0,160,424.65c-2.5-1.4-4.66-3.15-7.5-3.4a3.5,3.5,0,0,0-2.93,1.28c-.46.9-.43,4.28,5.06,6.8-22.4-4.26-23.7,5.32-15.65,5.32h66" transform="translate(0 -6.75)"/><path id="Fill_38" data-name="Fill 38" class="cls-6" d="M227.48,383.77c-1.07-6-12.26-44-31.9-33.95-11.66,6-9.56,28.07,8.66,44.75-3.58-3.45-7.71-7.35-12.59-8.32a9.81,9.81,0,0,0-7.84,2.5c-1.75,1.62-2.27,4.17-2.35,6.55a25.68,25.68,0,0,0,11.53,22c-4-2.24-7.53-5.05-12.13-5.44-1.49-.13-4,.73-4.72,2.05s-.7,6.85,8.17,10.88c-36.15-6.83-38.26,8.51-25.26,8.51h85.89" transform="translate(0 -6.75)"/><path id="Fill_40" data-name="Fill 40" class="cls-5" d="M420.77,403.49c.66-3.78,11.18-27.33,23.34-21,7.23,3.75,5.93,17.54-5.36,28,2.21-2.15,4.77-4.59,7.8-5.19a6,6,0,0,1,4.85,1.56,5.71,5.71,0,0,1,1.46,4.09,16.08,16.08,0,0,1-7.14,13.76c2.5-1.4,4.66-3.15,7.51-3.4a3.5,3.5,0,0,1,2.92,1.28c.47.9.43,4.28-5.06,6.8,22.4-4.26,23.71,5.32,15.66,5.32H400.7" transform="translate(0 -6.75)"/><path id="Fill_42" data-name="Fill 42" class="cls-6" d="M378.23,383.77c1.07-6,12.26-44,31.9-33.95,11.66,6,9.57,28.07-8.65,44.75,3.57-3.45,7.7-7.35,12.59-8.32a9.77,9.77,0,0,1,7.83,2.5c1.76,1.62,2.28,4.17,2.36,6.55a25.71,25.71,0,0,1-11.53,22c4-2.24,7.52-5,12.12-5.43,1.49-.13,4,.72,4.72,2s.7,6.85-8.17,10.88c36.16-6.83,38.27,8.51,25.27,8.51h-85.9" transform="translate(0 -6.75)"/><path id="Fill_44" data-name="Fill 44" class="cls-7" d="M317.19,305.89c-9.93-2.74-17.49-11.18-18.08-21.48,0-.5,0-1,0-1.49a2.13,2.13,0,0,1,0-.44,2.26,2.26,0,0,1,0-.45c0-.49,0-1,0-1.48.59-10.3,8.15-18.75,18.08-21.49a88.73,88.73,0,0,0,64.88-85.49,87.31,87.31,0,0,0-1.46-16.06c-.16-.89-.33-1.77-.52-2.64-.14-.64-.28-1.28-.44-1.92a.36.36,0,0,0,0-.11c-.08-.34-.16-.67-.25-1-.15-.64-.31-1.25-.49-1.88-.26-1-.54-1.91-.83-2.86h-3c.1.31.2.62.28.93a.44.44,0,0,1,.06.16c.17.54.33,1.07.48,1.61.1.35.2.7.28,1,.16.56.31,1.11.45,1.67.09.35.18.7.25,1,.15.57.27,1.13.39,1.7,0,.19.09.38.12.58s0,.15,0,.23c.13.65.26,1.3.37,1.95a85.89,85.89,0,0,1-61.34,98.24c-11.44,3.16-19.55,12.84-20.19,24.11,0,.55-.05,1.1-.05,1.65a3.24,3.24,0,0,0,0,.44,3.46,3.46,0,0,0,0,.45c0,.54,0,1.1.05,1.64.64,11.27,8.75,21,20.19,24.11a85.9,85.9,0,0,1,61.34,98.25,83.5,83.5,0,0,1-6.64,20.85H216a84.35,84.35,0,0,1-6.65-20.85,86,86,0,0,1,61.36-98.25c11.43-3.15,19.53-12.83,20.18-24.1,0-.55.05-1.1.05-1.65,0-.13,0-.3,0-.44s0-.3,0-.45c0-.55,0-1.1-.05-1.64-.65-11.28-8.75-20.95-20.18-24.11A86,86,0,0,1,209.3,158c.16-.9.34-1.8.53-2.7,0,0,0,0,0-.07.2-.87.39-1.73.6-2.6a.54.54,0,0,0,0-.15c.17-.66.34-1.33.53-2a1,1,0,0,0,.05-.16c.06-.25.14-.52.22-.77.12-.48.27-1,.42-1.41a.44.44,0,0,1,.06-.16c.08-.32.18-.63.28-.93h-3c-.3.94-.57,1.89-.83,2.85-.18.63-.34,1.25-.49,1.88-.09.34-.17.67-.25,1a.43.43,0,0,0,0,.11c-.16.64-.3,1.28-.44,1.92-.19.87-.36,1.75-.52,2.64A87.39,87.39,0,0,0,205,173.57a88.72,88.72,0,0,0,64.88,85.49c9.92,2.74,17.49,11.18,18.07,21.49,0,.5,0,1,0,1.48,0,.15,0,.31,0,.45s0,.31,0,.44c0,.49,0,1,0,1.49-.58,10.3-8.15,18.74-18.07,21.48a88.83,88.83,0,0,0-55.75,124.77h158.8a88.83,88.83,0,0,0-55.75-124.77" transform="translate(0 -6.75)"/><path id="Fill_46" data-name="Fill 46" class="cls-8" d="M379.4,391.76a84.65,84.65,0,0,1-1.4,15.48A83.6,83.6,0,0,1,371.39,428H217a83.83,83.83,0,0,1-6.62-20.77,85.68,85.68,0,0,1,61-97.86c11.38-3.14,19.44-12.79,20.08-24,0-.55.05-1.1.05-1.64,0-.14,0-.3,0-.45s0-.3,0-.44c0-.55,0-1.09-.05-1.64-.64-11.23-8.71-20.86-20.08-24a85.67,85.67,0,0,1-61-97.85c.16-.9.34-1.79.53-2.69,0,0,0,0,0-.07.19-.86.39-1.73.6-2.59a.66.66,0,0,0,0-.15c.18-.72.36-1.42.58-2.14s.4-1.46.63-2.17c.12-.36.23-.73.34-1.08H375.28c.11.35.22.72.34,1.08.17.53.32,1.07.47,1.6.1.35.2.69.29,1,.15.55.3,1.1.44,1.66.09.35.18.7.25,1,.14.57.27,1.13.38,1.7.06.26.12.53.17.81.14.65.26,1.29.38,1.94a85.61,85.61,0,0,1-61,97.86c-11.38,3.15-19.45,12.78-20.09,24,0,.55,0,1.09,0,1.64,0,.15,0,.31,0,.44s0,.31,0,.45c0,.54,0,1.09,0,1.63.64,11.23,8.71,20.88,20.09,24a85.67,85.67,0,0,1,62.43,82.39" transform="translate(0 -6.75)"/><path id="Fill_48" data-name="Fill 48" class="cls-9" d="M379.4,391.76a84.65,84.65,0,0,1-1.4,15.48A83.6,83.6,0,0,1,371.39,428H217a83.83,83.83,0,0,1-6.62-20.77c-.93-5-2.64-10.26-2.64-15.5,0-38.3,26.23-73.33,63-83.53,11.37-3.14,19.18-12.17,19.82-23.4a9.73,9.73,0,0,0,0-1.08c0-.14,0-.3,0-.45s0-.3,0-.44c0-.55,0-1.09,0-1.64a25.91,25.91,0,0,0-19.13-24c-23.7-6.58-43.71-22.63-54.36-43.88-5.75-11.48-8.08-24.91-8.08-38.5a86.26,86.26,0,0,1,1.4-15.47c.16-.9.34-1.79.53-2.69,0,0,0,0,0-.07.18-.86.39-1.73.6-2.59,0,0,0-.09,0-.15.18-.72.36-1.42.58-2.14s.4-1.46.63-2.17c.12-.36.23-.73.34-1.08H375.28c.11.35.23.72.34,1.08.17.53.33,1.07.47,1.6.1.35.65.7.73,1,.16.56.11,1.17.25,1.73.09.35.32.52.38.86.15.57.44,1.22.55,1.79.06.26-.06.72,0,1,.13.65-.11,1.13,0,1.78a85.61,85.61,0,0,1-61,97.86c-11.37,3.15-19.45,12.78-20.08,24,0,.55-.05,1.09-.05,1.64,0,.15,0,.31,0,.44s0,.31,0,.45c0,.54,0,1.09.05,1.63.63,11.23,9.34,19.75,20.72,22.89,36.75,10.2,61.8,45.22,61.8,83.51" transform="translate(0 -6.75)"/><path id="Fill_50" data-name="Fill 50" class="cls-10" d="M223.65,224.08s13.46,22.21,45.73,32.44c8.27,2.45,11.05,4.25,15.81,8.67s6.38,12.19,6.2,18.33c-.06,4.76,1.63,74.38,1.63,83.05,0,8.18,1.42,2.13,1.18.37.84-49.27,2.49-85.52,2.49-85.52s2.92-15.49,7.45-17.63,20.94-9.82,27.66-11.71,23-16.81,23-16.81,20.62-29.62,21.88-33.42-9.33-4.16-9.33-4.16Z" transform="translate(0 -6.75)"/><path id="Fill_52" data-name="Fill 52" class="cls-11" d="M376.7,196.53c1.4,9.08-32.6,22-76,28.91s-79.64,5.12-81-3.95,32.6-22,75.95-28.92,79.64-5.12,81.05,4" transform="translate(0 -6.75)"/><g id="Group_58" data-name="Group 58"><path id="Fill_54" data-name="Fill 54" class="cls-8" d="M270,245.22a8.57,8.57,0,0,1-2.8-.47,81.67,81.67,0,0,1-17-8.08,8.69,8.69,0,0,1-2.71-11.95A8.59,8.59,0,0,1,259.3,222l.05,0a64.32,64.32,0,0,0,13.44,6.36,8.68,8.68,0,0,1-2.8,16.87" transform="translate(0 -6.75)"/><path id="Fill_56" data-name="Fill 56" class="cls-8" d="M236.27,219.65a8.6,8.6,0,0,1-7.28-4c-15-23.75-11.17-50.42-11-51.54a8.62,8.62,0,0,1,17,2.61h0c0,.35-2.94,21.57,8.5,39.63a8.69,8.69,0,0,1-2.65,12,8.51,8.51,0,0,1-4.62,1.36" transform="translate(0 -6.75)"/></g><g id="Group_63" data-name="Group 63"><path id="Fill_59" data-name="Fill 59" class="cls-8" d="M270,318.37a8.32,8.32,0,0,0-2.8.48,81.71,81.71,0,0,0-17,8.09,8.72,8.72,0,0,0-2.71,12,8.58,8.58,0,0,0,11.82,2.78l.07,0a64.39,64.39,0,0,1,13.44-6.38,8.7,8.7,0,0,0-2.8-16.9" transform="translate(0 -6.75)"/><path id="Fill_61" data-name="Fill 61" class="cls-8" d="M236.27,344a8.58,8.58,0,0,0-7.28,4c-15,23.8-11.17,50.52-11,51.65a8.62,8.62,0,1,0,17.07-2.47.59.59,0,0,0,0-.14c0-.36-2.94-21.62,8.49-39.72A8.67,8.67,0,0,0,236.27,344" transform="translate(0 -6.75)"/></g><path id="Fill_64" data-name="Fill 64" class="cls-12" d="M317.19,305.89c-9.93-2.74-17.49-11.18-18.08-21.48,0-.5,0-1,0-1.49a2.13,2.13,0,0,1,0-.44,2.26,2.26,0,0,1,0-.45c0-.49,0-1,0-1.48.59-10.3,8.15-18.75,18.08-21.49a88.73,88.73,0,0,0,64.88-85.49,87.31,87.31,0,0,0-1.46-16.06c-.16-.89-.33-1.77-.52-2.64-.14-.64-.28-1.28-.44-1.92a.36.36,0,0,0,0-.11c-.08-.34-.16-.67-.25-1-.15-.64-.31-1.25-.49-1.88-.26-1-.54-1.91-.83-2.86h-3c.1.3.19.62.28.93a.44.44,0,0,1,.06.16c.17.54.33,1.07.48,1.61.1.35.2.7.28,1,.16.56.31,1.11.45,1.67.09.35.18.7.25,1,.15.57.27,1.13.39,1.7l.12.58c0,.07,0,.15,0,.23.13.65.26,1.3.37,1.95a85.89,85.89,0,0,1-61.34,98.24c-11.44,3.16-19.55,12.84-20.19,24.11,0,.55-.05,1.1-.05,1.65a3.24,3.24,0,0,0,0,.44,3.46,3.46,0,0,0,0,.45c0,.54,0,1.1.05,1.64.64,11.27,8.75,21,20.19,24.11a85.9,85.9,0,0,1,61.34,98.25,83.5,83.5,0,0,1-6.64,20.85H216a84.35,84.35,0,0,1-6.65-20.85,86,86,0,0,1,61.36-98.25c11.43-3.15,19.53-12.83,20.18-24.1,0-.55.05-1.1.05-1.65,0-.13,0-.3,0-.44s0-.3,0-.45c0-.55,0-1.1-.05-1.64-.65-11.28-8.75-20.95-20.18-24.11A86,86,0,0,1,209.3,158c.16-.9.34-1.8.53-2.7,0,0,0,0,0-.07.2-.87.39-1.73.6-2.6a.54.54,0,0,0,0-.15c.17-.66.34-1.33.53-2a1,1,0,0,0,.05-.16c.07-.25.14-.52.22-.77.12-.48.27-1,.42-1.41a.44.44,0,0,1,.06-.16c.09-.32.18-.63.28-.93h-3c-.3.94-.57,1.89-.83,2.85-.18.63-.34,1.25-.49,1.88-.09.34-.17.67-.25,1a.43.43,0,0,0,0,.11c-.16.64-.3,1.28-.44,1.92-.19.87-.36,1.75-.52,2.64A87.39,87.39,0,0,0,205,173.57a88.72,88.72,0,0,0,64.88,85.49c9.92,2.74,17.49,11.18,18.07,21.49,0,.5,0,1,0,1.48,0,.15,0,.31,0,.45s0,.31,0,.44c0,.49,0,1,0,1.49-.58,10.3-8.15,18.74-18.07,21.48a88.83,88.83,0,0,0-55.75,124.77h158.8a88.83,88.83,0,0,0-55.75-124.77" transform="translate(0 -6.75)"/><path id="Fill_66" data-name="Fill 66" class="cls-7" d="M404.7,426h0a8.52,8.52,0,0,1-8.39,8.65H192.1a8.65,8.65,0,0,1,0-17.3H396.31A8.52,8.52,0,0,1,404.7,426" transform="translate(0 -6.75)"/><path id="Fill_68" data-name="Fill 68" class="cls-10" d="M360.76,200.89c.13.59-1.55,1.42-3.75,1.86s-4.09.32-4.22-.26,1.54-1.43,3.74-1.87,4.1-.32,4.23.27" transform="translate(0 -6.75)"/><path id="Fill_70" data-name="Fill 70" class="cls-10" d="M356.76,207.77c.14.66-.94,1.46-2.4,1.77s-2.76,0-2.9-.63.94-1.45,2.4-1.77,2.76,0,2.9.63" transform="translate(0 -6.75)"/><path id="Fill_72" data-name="Fill 72" class="cls-10" d="M350.1,206.44c.14.66-.94,1.46-2.4,1.77s-2.76,0-2.9-.62.94-1.46,2.4-1.78,2.77,0,2.9.63" transform="translate(0 -6.75)"/><path id="Fill_74" data-name="Fill 74" class="cls-10" d="M304.85,211.38c.07.34-.47.73-1.2.89s-1.38,0-1.45-.31.47-.73,1.2-.89,1.38,0,1.45.31" transform="translate(0 -6.75)"/><path id="Fill_76" data-name="Fill 76" class="cls-10" d="M339.46,200.74c.07.33-.47.72-1.2.88s-1.38,0-1.45-.31.47-.73,1.2-.89,1.38,0,1.45.32" transform="translate(0 -6.75)"/><path id="Fill_78" data-name="Fill 78" class="cls-10" d="M326.15,214.05c.07.33-.47.73-1.2.89s-1.38,0-1.45-.32.47-.73,1.2-.88,1.38,0,1.45.31" transform="translate(0 -6.75)"/><path id="Fill_80" data-name="Fill 80" class="cls-10" d="M310.17,222c.07.33-.47.72-1.2.88s-1.38,0-1.45-.31.47-.73,1.2-.89,1.38,0,1.45.32" transform="translate(0 -6.75)"/><path id="Fill_82" data-name="Fill 82" class="cls-10" d="M294.13,357.67l-.59-.23-.6.23s-5.11,39.72-60,59.68H354.11c-54.87-20-60-59.68-60-59.68" transform="translate(0 -6.75)"/><path id="Fill_84" data-name="Fill 84" class="cls-13" d="M378.07,148.44c0,4.41-37.84,8-84.53,8s-84.53-3.57-84.53-8,37.84-8,84.53-8,84.53,3.58,84.53,8" transform="translate(0 -6.75)"/><path id="Fill_86" data-name="Fill 86" class="cls-7" d="M396.31,135.13H192.1a8.24,8.24,0,0,0-5.94,2.53,8.78,8.78,0,0,0-2.45,6.13,8.52,8.52,0,0,0,8.39,8.64H396.31a8.65,8.65,0,0,0,0-17.3" transform="translate(0 -6.75)"/><path id="Fill_93" data-name="Fill 93" class="cls-14" d="M99.88,270.1a34.1,34.1,0,0,0-.33,8.56l1,.23h0l.74,0,.8-.92.37-5.81-1-3.4-7.18-5.37-1.14-.46Z" transform="translate(0 -6.75)"/><path id="Fill_95" data-name="Fill 95" class="cls-10" d="M93.19,286l3,7.17v0l8.7,0h1a30.17,30.17,0,0,0,5.41,5.93L111,309.5l7.24,3,6.58-6.65.23-.23a30.18,30.18,0,0,0,8.11.34l0,0,7.1,7.57,6.76-2.82.45-.19-.05-9.7a29.63,29.63,0,0,0,6-5.45h0l10.16.34h.23l3-7.24-6.88-6.81a30.16,30.16,0,0,0,.33-8.16l0,0,7.58-7-3-7.22h0l-9.7.06a29.49,29.49,0,0,0-5.34-5.87v-.2l.24-10.27-7.22-3,0,0-6.78,6.85a30,30,0,0,0-8-.34l-.64-.68L120.7,239l-.06,0-7.15,3,.05,9.7a30.06,30.06,0,0,0-6,5.46l-10.37-.36-3,7.23,6.88,6.81a29.81,29.81,0,0,0-.33,8.11l0,0,0,0Z" transform="translate(0 -6.75)"/><path id="Fill_97" data-name="Fill 97" class="cls-10" d="M104,279.52a26.62,26.62,0,1,0,23.14-29.7A26.63,26.63,0,0,0,104,279.52h0" transform="translate(0 -6.75)"/><path id="Fill_99" data-name="Fill 99" class="cls-15" d="M109.32,278.11a20.63,20.63,0,1,0,17.93-23,20.64,20.64,0,0,0-17.93,23" transform="translate(0 -6.75)"/><path id="Stroke_101" data-name="Stroke 101" class="cls-16" d="M129.8,254.94v2.66" transform="translate(0 -6.75)"/><path id="Stroke_103" data-name="Stroke 103" class="cls-16" d="M143.77,261.59l-1.33,1.33" transform="translate(0 -6.75)"/><path id="Stroke_105" data-name="Stroke 105" class="cls-16" d="M150.43,275.57h-2.66" transform="translate(0 -6.75)"/><path id="Stroke_107" data-name="Stroke 107" class="cls-16" d="M143.77,289.55l-1.33-1.33" transform="translate(0 -6.75)"/><path id="Stroke_109" data-name="Stroke 109" class="cls-16" d="M129.8,296.2v-2.66" transform="translate(0 -6.75)"/><path id="Stroke_111" data-name="Stroke 111" class="cls-16" d="M115.82,289.55l1.33-1.33" transform="translate(0 -6.75)"/><path id="Stroke_113" data-name="Stroke 113" class="cls-16" d="M111.82,275.57h-2.66" transform="translate(0 -6.75)"/><path id="Stroke_115" data-name="Stroke 115" class="cls-16" d="M115.82,261.59l1.33,1.33" transform="translate(0 -6.75)"/><path id="Stroke_117" data-name="Stroke 117" class="cls-16" d="M138.15,256.27l-.73,1.33" transform="translate(0 -6.75)"/><path id="Stroke_119" data-name="Stroke 119" class="cls-16" d="M149.1,267.22l-1.33.73" transform="translate(0 -6.75)"/><path id="Stroke_121" data-name="Stroke 121" class="cls-16" d="M149.1,283.92l-1.33-.73" transform="translate(0 -6.75)"/><path id="Stroke_123" data-name="Stroke 123" class="cls-16" d="M138.15,294.87l-.73-1.33" transform="translate(0 -6.75)"/><path id="Stroke_125" data-name="Stroke 125" class="cls-16" d="M122.78,294.87l.72-1.33" transform="translate(0 -6.75)"/><path id="Stroke_127" data-name="Stroke 127" class="cls-16" d="M110.49,283.92l1.33-.73" transform="translate(0 -6.75)"/><path id="Stroke_129" data-name="Stroke 129" class="cls-16" d="M110.49,267.22l1.33.73" transform="translate(0 -6.75)"/><path id="Stroke_131" data-name="Stroke 131" class="cls-16" d="M121.45,256.27l.72,1.33" transform="translate(0 -6.75)"/><path id="Fill_133" data-name="Fill 133" class="cls-17" d="M129.13,274.91a1.33,1.33,0,1,0,1.33-1.33,1.34,1.34,0,0,0-1.33,1.33h0" transform="translate(0 -6.75)"/><path id="Fill_135" data-name="Fill 135" class="cls-18" d="M129.13,276a1.94,1.94,0,0,0,1.88,2l.25,0,5.1,9,2.69,1.26a.53.53,0,0,0,.69-.27.62.62,0,0,0,0-.33l-.56-3,0,0-7.08-7a1.52,1.52,0,0,0,.8-1.51,1.93,1.93,0,0,0-1.72-1.95l1.2-9.8-.84-2.32a.45.45,0,0,0-.56-.28.48.48,0,0,0-.27.27l-.93,2.24v0l.86,9.8a1.84,1.84,0,0,0-1.51,2" transform="translate(0 -6.75)"/><path id="Fill_137" data-name="Fill 137" class="cls-10" d="M131,261.87l.8,1.82a.36.36,0,0,1,0,.2l-1.43,9.68-1.23-9.75a.32.32,0,0,1,0-.21l.88-1.76a.52.52,0,0,1,.91,0" transform="translate(0 -6.75)"/><path id="Fill_139" data-name="Fill 139" class="cls-10" d="M139,286.84l-2.42-1a.48.48,0,0,1-.24-.2l-5.91-9.38,8.65,7.33a.5.5,0,0,1,.16.28l.5,2.45a.53.53,0,0,1-.44.59.52.52,0,0,1-.3-.05" transform="translate(0 -6.75)"/><path id="Fill_141" data-name="Fill 141" class="cls-19" d="M127.8,275.58a2,2,0,1,0,2-2,2,2,0,0,0-2,2" transform="translate(0 -6.75)"/><path id="Fill_143" data-name="Fill 143" class="cls-10" d="M127.8,275.58a2,2,0,1,0,2-2,2,2,0,0,0-2,2" transform="translate(0 -6.75)"/><path id="Fill_145" data-name="Fill 145" class="cls-20" d="M102.53,247s10.61.31,5,12.57-5-12.57-5-12.57" transform="translate(0 -6.75)"/><path id="Fill_147" data-name="Fill 147" class="cls-21" d="M106.15,251.23s3,1.8,2.92,11.51c0,.34,1.2,3.21,1.31,3.55.42,1.3-.41,1.38-1.54,1.94-.45,7.33-1.56,7.19-2.54,7.84s-9.64-1-15.11-3.69-7.33-10.68-5-15.59,13.58-9.8,20-5.56" transform="translate(0 -6.75)"/><path id="Fill_149" data-name="Fill 149" class="cls-20" d="M81.38,259c-.86,4.56,1.36,11.53,10.24,14.55,0,0,.79-2.76,1.36-5.45s8.09-5.79,11.36-8.74c.16-.15.31-.29.45-.44a6.86,6.86,0,0,0,.08-9c-1.83-2.27-5.87-6-13.11-3.55-6.47,2.21-9.33,7-10.38,12.6" transform="translate(0 -6.75)"/><path id="Fill_151" data-name="Fill 151" class="cls-21" d="M103.33,269.21c-1.43,1.57-1.71,4.75-1.59,7.78,0,.52.07,1,.1,1.53a49.51,49.51,0,0,0,.82,5.7L92.12,284a66,66,0,0,0-.26-10.23s14.87-8.23,11.47-4.52" transform="translate(0 -6.75)"/><path id="Fill_153" data-name="Fill 153" class="cls-22" d="M101.17,277.57a28.57,28.57,0,0,1-6.65-4c2.81,1.08,6.56,2.27,6.56,2.27,0,.58.06,1.16.09,1.72" transform="translate(0 -6.75)"/><path id="Fill_155" data-name="Fill 155" class="cls-23" d="M109.16,351,92.69,333.48s-10,10.42-8.12,21.86c.91,5.62,2.56,8.56,3.1,11.24.51,2.51,1.8,37.27,1.08,39.72s-4.55,9.05-6.6,16.25c-2.46,8.66-5,21.2-7,28.69s1.3,17.5,2,15c6.09-21.63,22-46.51,24.64-57.38s4.61-31.1,7.33-57.8" transform="translate(0 -6.75)"/><path id="Fill_157" data-name="Fill 157" class="cls-23" d="M82.54,450.63s-4.93,14-4.54,15.75c.24,1.09,1.34,4.74,1.59,5.26.1.21,3.63,3,1.28,2.95s-7.81-7.35-8.62-7.9a3.47,3.47,0,0,1-1.62-3.6c.48-2.14,1.93-3.79,3-5.29S75.53,452,75.53,452Z" transform="translate(0 -6.75)"/><path id="Fill_161" data-name="Fill 161" class="cls-23" d="M122.21,473.77c-.36-.46-4.52-1.53-6.43-2.54a11.34,11.34,0,0,1-4.22-4.8c-.35-1.12.24-6.55.5-8.83,1.82-15.71,7.38-37.69,8.63-46.86,2.18-15.95,1.59-32.66-2.27-58.92L97,332.15s-7.52,11.36-6.39,23c.65,6.73,6.07,8.25,6.77,10.91s10.86,45.42,10.86,45.42A78,78,0,0,0,103.7,430c-.89,8.38,1.47,17.82,1.3,27.53-.08,1.89-.16,6.43-.85,7.82-.84,1.7-2.77,3.61-2.88,5.84a3.43,3.43,0,0,0,2.34,3.25c1.58.65,2.58-.21,3.14-.18,3.25.16,4,2.46,9.54,3a8.9,8.9,0,0,0,5.77-1.8,1.17,1.17,0,0,0,.14-1.65" transform="translate(0 -6.75)"/><path id="Fill_165" data-name="Fill 165" class="cls-21" d="M75.88,310.19s1.07,5.6,1.75,7.91,4,17,7.14,16.71,20.4-14.93,20.4-14.93l-2.44-5-15.19,7.37S86.17,305.52,85,301.53Z" transform="translate(0 -6.75)"/><path id="Fill_167" data-name="Fill 167" class="cls-22" d="M79.87,309.78c1.68,6,4.9,15.21,6.13,16.94.56.78,11.16-3.1,11.18-7.26l-11-12.6Z" transform="translate(0 -6.75)"/><path id="Fill_169" data-name="Fill 169" class="cls-7" d="M90.52,282.89a18.51,18.51,0,0,0-9.37,3.21c-6.69,5-5.29,24-5.29,24s-.14,1,4.3.75a31.7,31.7,0,0,0,8-1.53l-1.28-15.19Z" transform="translate(0 -6.75)"/><path id="Fill_171" data-name="Fill 171" class="cls-7" d="M78.62,294.87s-.59,10.62,1.46,16a19.45,19.45,0,0,0,3.79-.47Z" transform="translate(0 -6.75)"/><path id="Fill_173" data-name="Fill 173" class="cls-7" d="M89.19,284.5c.18-1.36.5-2.93,1.63-3.47a3,3,0,0,1,1-.23c3.42-.43,3-.62,6.47-.56a8.71,8.71,0,0,1,4.17.83c2,1.12,3.1,3.55,4.06,5.82Z" transform="translate(0 -6.75)"/><path id="Fill_175" data-name="Fill 175" class="cls-7" d="M89.19,284.5c.18-1.36.5-2.93,1.63-3.47a3,3,0,0,1,1-.23c3.42-.43,3-.62,6.47-.56a8.71,8.71,0,0,1,4.17.83c2,1.12,3.1,3.55,4.06,5.82Z" transform="translate(0 -6.75)"/><path id="Fill_177" data-name="Fill 177" class="cls-24" d="M75.79,448.71c1.35-6,4.47-21.5,6.93-28.09.64-1.71.47-1.67,2-5.25s4-8.3,4-9.09a66.53,66.53,0,0,0,0-9.15.3.3,0,0,1,0-.15c0-.75-3.59-28.14-4.78-32.29a34.92,34.92,0,0,1-2.18-14c.41-7.5,6.32-16.44,7.93-18.07l27.31-.45s4.71,11.25,5.17,18.21c.95,14.67-.23,45.35-.23,45.35v.47s-.25,6.92-.88,11.61c-.13,1-.21,3.18-.72,6.28-.76,3.39-1.81,8.75-2.92,13.9-.59,2.74-1.14,5.06-1.7,8.29-2.4,13.72-4.16,27.54-4.16,27.54a14.89,14.89,0,0,1-7.45-.84,5.45,5.45,0,0,0,.06-1.07c.31-6-2.38-25.07,0-36.74S107.48,411,107.48,411l-2.6-12.75c0-.21-.1-.73-.17-.73a100.65,100.65,0,0,1-1.86,12.2c-1.24,4.66-15.4,29.92-20.13,41.21a83.61,83.61,0,0,0-2.92,8.41s-4.08-.23-5.7-2.77c0,0,.18-1.7,1.39-7.08" transform="translate(0 -6.75)"/><path id="Fill_179" data-name="Fill 179" class="cls-7" d="M116.49,327.52c-1-1.91-1.84-10-1.5-12.06s2.32-3.4,3.21-8.32a18.15,18.15,0,0,0-2.93-13.39c-2.06-3-4.89-9.05-5.48-9.22-8.62-2.62-10-1.37-15.81-1.12a38,38,0,0,0-7.52.87c-3.12.68-6.86,1.71-7.5,5.93a42.33,42.33,0,0,0,1.83,19.28c1.32,4.1,9.19,18.27,7.24,21a9.49,9.49,0,0,0-1.7,2.6c-.49,2.87,4.15,3.57,8.78,4.1a73.38,73.38,0,0,0,13.34-.08c13.09-.88,8.45-8.8,8-9.6" transform="translate(0 -6.75)"/><path id="Fill_181" data-name="Fill 181" class="cls-20" d="M79.87,292.53c5,2.92,11.23,2.58,15.52,1.79-.2-3.32.1-10.09.1-10.09A84.68,84.68,0,0,0,96.9,294a29.84,29.84,0,0,0,3.69-1.06s-3.38-16.06-3.38-23.11c0-6.07,6.63-10.23,6.63-10.23l-11.21-14a17.34,17.34,0,0,0-11.32,12.69c-1.25,5.12-1.44,34.22-1.44,34.22" transform="translate(0 -6.75)"/><path id="Fill_183" data-name="Fill 183" class="cls-25" d="M90.52,356.11a23.5,23.5,0,0,0,3.87,8.55l10,36.15s.17-1.48.36-3.22c-2.95-12.88-7.5-30.62-7.93-32.31-.62-2.42-5-3.89-6.26-9.17" transform="translate(0 -6.75)"/><path id="Fill_185" data-name="Fill 185" class="cls-21" d="M113.15,305.28s12.65,20.21,17.12,20.21c3.26,0,21.49-21.69,21.49-21.69l-6.18-1.65-14.9,10.22-9-14.83Z" transform="translate(0 -6.75)"/><path id="Fill_187" data-name="Fill 187" class="cls-21" d="M159.62,296.69a10.69,10.69,0,0,1,.06-1.13c.14-.8.72-1.5.92-2.29a11.2,11.2,0,0,0,.13-1.92c.05-.73.52-2-.1-2,.12-.46.31-1,.42-1.44s0-1-.38-1c-.64.08-1.34.89-1.76,1.26s-1.38,1.81-1.86,2.37a7,7,0,0,1-2.37,1.77s.31-.51.08-.77-1.53.31-2.82.48c-.66.09-2.29,2-2.83,2.52s-1.05,3.87-1.21,4.55c-.38,1.81-2.8,3.87-2.8,3.87l5.54,2.58c.13.06.74-.69.82-.78a3.71,3.71,0,0,1,1.24-.95c1.71-1.57,4.24-2.34,5.7-4.17a5.21,5.21,0,0,0,1.22-2.88v-.05" transform="translate(0 -6.75)"/><path id="Fill_189" data-name="Fill 189" class="cls-22" d="M155.4,290.94a7.1,7.1,0,0,1-2.38,1.55c-.59.35-.61.68-1.26,1,.93.2.92-.44,2.34-1a2.63,2.63,0,0,0,1.63-1.27c.1-.24-.14-.46-.33-.29" transform="translate(0 -6.75)"/><path id="Fill_191" data-name="Fill 191" class="cls-7" d="M101.17,282.89c2.8.14,11.79.73,17.3,8.52,3.09,4.35,6.47,9.48,8,13.53-.74,2.41-5.46,7.29-9.8,7.24-.21-.15-6.6-7.67-7.83-13.81Z" transform="translate(0 -6.75)"/><path id="Fill_193" data-name="Fill 193" class="cls-26" d="M73.22,246.34l5.32,3.27-2.66-8" transform="translate(0 -6.75)"/><path id="Fill_195" data-name="Fill 195" class="cls-26" d="M54.58,235.63A12.65,12.65,0,1,0,67.23,223a12.65,12.65,0,0,0-12.65,12.64h0" transform="translate(0 -6.75)"/><path id="Fill_197" data-name="Fill 197" class="cls-27" d="M65.81,239.82h0l-3.17-4.9a5.06,5.06,0,0,1-.9-2.39,5.33,5.33,0,0,1,5-5.68h0l.5,0A5.67,5.67,0,0,1,71,228.2a5.13,5.13,0,0,1,1.78,3.4,5,5,0,0,1-.44,2.5l-2.21,5.36-2.14.18-2.14.18Zm1.43-12.29h-.42a4.62,4.62,0,0,0-4.35,4.87v.06a4.44,4.44,0,0,0,.78,2.07l.67,1,2.27,3.58,1.69-.14,1.7-.14,1.59-3.91.45-1.07a4.27,4.27,0,0,0,.39-2.17A4.73,4.73,0,0,0,67.24,227.53Z" transform="translate(0 -6.75)"/><path id="Fill_199" data-name="Fill 199" class="cls-27" d="M68.11,244.31h0a2,2,0,0,1-2.1-1.94v-.05l-.13-1.6,3.86-.39.13,1.6a2.14,2.14,0,0,1-1.76,2.38" transform="translate(0 -6.75)"/><path id="Fill_201" data-name="Fill 201" class="cls-27" d="M64.91,233.65a.38.38,0,0,1-.36-.38.41.41,0,0,1,.33-.45l4.6-.47a.39.39,0,0,1,.39.38h0a.4.4,0,0,1-.32.45l-4.6.47h0" transform="translate(0 -6.75)"/><path id="Fill_203" data-name="Fill 203" class="cls-27" d="M68.18,240.32a.36.36,0,0,1-.36-.34l-.61-7.23a.38.38,0,0,1,.33-.41.35.35,0,0,1,.39.33v0l.61,7.22a.37.37,0,0,1-.33.41h0" transform="translate(0 -6.75)"/><path id="Fill_205" data-name="Fill 205" class="cls-10" d="M410,395.27l4.77,4.77s5.9-4.22,5.88-5.13-4.3-5.55-5.5-5.52-5.15,5.88-5.15,5.88" transform="translate(0 -6.75)"/><path id="Fill_207" data-name="Fill 207" class="cls-10" d="M391.38,395.27,386.61,400s-5.9-4.22-5.88-5.14,4.31-5.54,5.51-5.51,5.14,5.88,5.14,5.88" transform="translate(0 -6.75)"/><path id="Clip_210-2" data-name="Clip 210-2" class="cls-1" d="M0,482.58H580.42V7.33H0Z" transform="translate(0 -6.75)"/><g class="cls-28"><g id="Grupo_de_máscara_2" data-name="Grupo de máscara 2"><path id="Fill_209" data-name="Fill 209" class="cls-29" d="M399.37,390.72h4v-4h-4Z" transform="translate(0 -6.75)"/><path id="Fill_211" data-name="Fill 211" class="cls-10" d="M380.73,410a20.64,20.64,0,1,0,20.64-20.64h0A20.64,20.64,0,0,0,380.73,410" transform="translate(0 -6.75)"/><path id="Fill_212" data-name="Fill 212" class="cls-10" d="M419,411.25a21.1,21.1,0,0,1-10,18.08,21,21,0,0,0,11.67-19c0-11.58-9.1-21-20.33-21a19.76,19.76,0,0,0-10.29,2.88,19.68,19.68,0,0,1,8.65-2c11.23,0,20.34,9.38,20.34,21" transform="translate(0 -6.75)"/><path id="Fill_213" data-name="Fill 213" class="cls-30" d="M380.73,410A20.45,20.45,0,0,0,401,430.66a19.85,19.85,0,0,0,11.7-3.8,20.39,20.39,0,0,1-9.5,2.32,20,20,0,0,1-20.24-19.83h0a20,20,0,0,1,20.24-19.82,18,18,0,0,0-2.2-.13A20.45,20.45,0,0,0,380.73,410" transform="translate(0 -6.75)"/><path id="Fill_214" data-name="Fill 214" class="cls-29" d="M386.06,410a15.31,15.31,0,1,0,15.31-15.31A15.32,15.32,0,0,0,386.06,410h0" transform="translate(0 -6.75)"/><path id="Fill_215" data-name="Fill 215" class="cls-31" d="M387.39,410a14,14,0,1,0,14-14h0a14,14,0,0,0-14,14" transform="translate(0 -6.75)"/><path id="Fill_216" data-name="Fill 216" class="cls-10" d="M397.47,388.06H404s1.14-2.28.5-2.48a39.47,39.47,0,0,0-7.53,0c-.8.28.5,2.48.5,2.48" transform="translate(0 -6.75)"/><path id="Fill_217" data-name="Fill 217" class="cls-29" d="M401.24,410.67l.5-.22a.47.47,0,0,0,.25-.63l-3.87-9.46a.47.47,0,0,0-.6-.27h0l-.5.22a.5.5,0,0,0-.25.64l3.88,9.46a.47.47,0,0,0,.6.26h0" transform="translate(0 -6.75)"/><path id="Fill_218" data-name="Fill 218" class="cls-29" d="M399.37,410a2,2,0,1,0,2-2,2,2,0,0,0-2,2" transform="translate(0 -6.75)"/><path id="Fill_219" data-name="Fill 219" class="cls-30" d="M402,429.52h0a.13.13,0,0,1-.11,0,.14.14,0,0,1,0-.1.16.16,0,0,1,.14-.16h.28a3.85,3.85,0,0,1,1.17.12l0,0a.05.05,0,0,1,0,0,3.48,3.48,0,0,1-1.06.11H402Zm-1.61-.19a1.62,1.62,0,0,1-.54-.1.14.14,0,0,1,0-.27l.07,0a3,3,0,0,0,.5.17l.23.07a.05.05,0,0,1,0,0s0,0,0,0A1,1,0,0,1,400.36,429.33Zm-15.49-25.18a.32.32,0,0,1-.22-.1.25.25,0,0,1-.06-.22,3,3,0,0,1,.35-1.05l.06-.12c.11-.21.24-.46.46-.53h0a1,1,0,0,1-.1.54,1.83,1.83,0,0,0-.08.25c-.07.3-.15.67-.21,1a.21.21,0,0,1-.22.19Zm1.36-3A.27.27,0,0,1,386,401a.21.21,0,0,1,0-.23,7.94,7.94,0,0,1,1.06-1.56.15.15,0,0,1,.14-.07.21.21,0,0,1,.18.12.26.26,0,0,1,0,.24,7.34,7.34,0,0,0-.94,1.51A.2.2,0,0,1,386.23,401.12Zm5.2-5.08a.45.45,0,0,1-.39-.32.46.46,0,0,1,.18-.52,12.25,12.25,0,0,1,2.75-1.39l.09,0a.27.27,0,0,1,.24.21.28.28,0,0,1-.12.3c-.77.45-1.52.94-2.24,1.46l-.28.2a.4.4,0,0,1-.23.08Z" transform="translate(0 -6.75)"/><path id="Fill_220" data-name="Fill 220" class="cls-32" d="M343,448.4a18.27,18.27,0,0,1-.92-15.26,18.76,18.76,0,0,1,5.38-7.57,20.42,20.42,0,0,1,7.31-3.57,18,18,0,0,1,13.6,1.57,19.35,19.35,0,0,1,7.47,8.73c1.59,3.44,2.25,7.71,5.67,9.92,1,.64,2.6.9,3.08,2.08.57,1.4-.47,2.8-1,4l-2,4.35c-.47,1-.92,2.84-2.17,3.22s-2.47-.61-3.59-.92c-2.95-.82-6.16.34-8.85,1.52-3.08,1.36-8.14.65-11.53.35-6.27-.55-9.62-2.83-12.45-8.43" transform="translate(0 -6.75)"/><path id="Stroke_221" data-name="Stroke 221" class="cls-33" d="M383.4,449.65s-9.23-4.6-13.64-7.11a20.26,20.26,0,0,1-4-2.77c-1-.93-3.13-3.13-1.79-4.58,1.59-1.71,3.45,1.08,3.44,2.64a5.93,5.93,0,0,1-2.16,3.92c-1.85,1.33-4.7,1-6.47-.1a1.5,1.5,0,0,1-.46-2.06,1.52,1.52,0,0,1,1.37-.69c1.43.1,5.46,3.14,4.53,5.59a5.51,5.51,0,0,1-2.75,2.91c-2.2,1.09-5.06-1.74-2-2.75,2.2-.71,5,.06,7.09.87,5.65,2.22,10,4.12,15.65,6.44" transform="translate(0 -6.75)"/><path id="Fill_222" data-name="Fill 222" class="cls-7" d="M381.7,456l4.36-10.2-1-.45-4.37,10.2Z" transform="translate(0 -6.75)"/><path id="Fill_223" data-name="Fill 223" class="cls-27" d="M384.23,456.55c-.13-.26-.5.64-.77.74l-.13-.65c-.26.09-.56.63-.7.38l-.08-.15a.63.63,0,0,0-.76-.29.63.63,0,0,1-.76-.27l-.23-.41a.58.58,0,0,1,0-.5l4.38-9.66a.59.59,0,0,1,.39-.32l.47-.1a.64.64,0,0,1,.71.37.62.62,0,0,0,.72.38l.17-.05a.64.64,0,0,1,.71.35l0,.09a.63.63,0,0,0,.72.34l.13,0a.64.64,0,0,1,.73.36l0,.06a1.1,1.1,0,0,1,0,.87l-3.94,8.7c-.12.26-.13-.36-.43-.25l-.53-1.12c-.28.1-.34,1.63-.47,1.37Z" transform="translate(0 -6.75)"/><path id="Fill_224" data-name="Fill 224" class="cls-7" d="M382.27,456l-.08,0a.19.19,0,0,1-.11-.25h0l2.26-4.95a.2.2,0,0,1,.26-.1.19.19,0,0,1,.11.25h0l-2.27,4.95a.21.21,0,0,1-.17.12" transform="translate(0 -6.75)"/><path id="Fill_225" data-name="Fill 225" class="cls-7" d="M384.89,449.3l-.07,0a.16.16,0,0,1-.08-.21l1-2.33a.16.16,0,0,1,.2-.09h0a.17.17,0,0,1,.08.22l-1,2.33a.15.15,0,0,1-.14.1" transform="translate(0 -6.75)"/><path id="Fill_226" data-name="Fill 226" class="cls-7" d="M384.87,453.29h-.06a.19.19,0,0,1-.07-.22l2.38-6.32a.14.14,0,0,1,.17-.1h0a.19.19,0,0,1,.07.22L385,453.19a.14.14,0,0,1-.13.1" transform="translate(0 -6.75)"/><path id="Fill_227" data-name="Fill 227" class="cls-7" d="M383.59,457.28h-.08a.21.21,0,0,1-.1-.27l.95-2.26a.2.2,0,0,1,.25-.1h0a.2.2,0,0,1,.1.27l-.95,2.25a.17.17,0,0,1-.17.12" transform="translate(0 -6.75)"/><path id="Fill_228" data-name="Fill 228" class="cls-7" d="M387.51,452h-.05a.24.24,0,0,1-.06-.24l1.09-3.64c0-.09.1-.13.16-.09a.22.22,0,0,1,.06.24l-1.09,3.63c0,.07-.06.11-.11.11" transform="translate(0 -6.75)"/><path id="Fill_229" data-name="Fill 229" class="cls-7" d="M385,454.62h-.09c-.1,0-.14-.11-.1-.17l.74-1.07a.25.25,0,0,1,.26-.07c.1,0,.15.11.1.18l-.73,1.06a.18.18,0,0,1-.18.08" transform="translate(0 -6.75)"/><path id="Fill_230" data-name="Fill 230" class="cls-7" d="M385.26,450.46l-.08,0a.19.19,0,0,1-.1-.26h0l.26-.58a.21.21,0,0,1,.27-.11.2.2,0,0,1,.1.27l-.26.59a.22.22,0,0,1-.19.12" transform="translate(0 -6.75)"/><path id="Fill_231" data-name="Fill 231" class="cls-32" d="M343,448.58a17.57,17.57,0,0,1-.92-14.95c.24-.55.5-1.1.78-1.64a16.41,16.41,0,0,0,9,20.83c6.94,2.8,13.32,1.66,19.4-3.82a4.47,4.47,0,0,1,4.46-1.24c1.63.46,3,1.62,4.63,2a1.44,1.44,0,0,0,.77,0,1.54,1.54,0,0,0,.57-.41,11.08,11.08,0,0,0,2.72-5.09,1.23,1.23,0,0,1,.17.32c.57,1.37-.46,2.74-1,3.93q-1,2.13-2,4.26c-.47,1-.93,2.78-2.17,3.16s-2.47-.6-3.59-.9c-3-.8-6.16.33-8.85,1.49-3.08,1.33-8.15.64-11.53.34-6.28-.54-9.62-2.77-12.45-8.26" transform="translate(0 -6.75)"/><path id="Fill_232" data-name="Fill 232" class="cls-34" d="M335.47,477.92c0,3.31,48.28,6,107.83,6s107.83-2.68,107.83-6-48.27-6-107.83-6-107.83,2.68-107.83,6" transform="translate(0 -6.75)"/><path id="Fill_233" data-name="Fill 233" class="cls-23" d="M471.37,460s-.3,8.63.1,10.6c.32,1.55,4.7,1.71,5.23.88s1.22-10.83,1.22-10.83" transform="translate(0 -6.75)"/><path id="Fill_234" data-name="Fill 234" class="cls-35" d="M477.81,472.93c0,1.08.52,4.32-.76,4.32H463.48c-3.47,0-5.43-.45-5.53-1.08-.35-2.58,11.76-6.91,12.92-6.9a.4.4,0,0,1,.15,0,1.66,1.66,0,0,1,.85.78,3.14,3.14,0,0,0,4,1.36,3,3,0,0,0,.82-.6,2.11,2.11,0,0,1,1.08,2.09" transform="translate(0 -6.75)"/><path id="Fill_235" data-name="Fill 235" class="cls-23" d="M520.52,462.22s1.59,3.92,2.29,5.22,5.44-.3,5.68-1.2-3.61-7.62-3.61-7.62" transform="translate(0 -6.75)"/><path id="Fill_236" data-name="Fill 236" class="cls-35" d="M530.18,466.79c1.42,2.8,1.08,4.1.63,4.37L527,473.39l0,0c-.12.06-1.73.86-3,1.61a17.3,17.3,0,0,1-4.2,1.73c-3.87.87-6.86.46-7.16-.07-1.25-2.11,8.32-10.24,9.41-10.67a.41.41,0,0,1,.16,0,1.72,1.72,0,0,1,1.1.41,2.86,2.86,0,0,0,3.28.39,3.3,3.3,0,0,0,1.4-1.51,2.89,2.89,0,0,1,2.15,1.52" transform="translate(0 -6.75)"/><path id="Fill_237" data-name="Fill 237" class="cls-24" d="M526.76,459.7c.1.24-.08.26-.3.42-3.35,2.39-5.22,2.6-5.22,2.6h-.51c-.78-1.23-24.79-39.75-29.49-47.2l-.27-.45s-.05,0-.05-.07a8.71,8.71,0,0,1-.76-1.49c0-.1-.09-.19-.12-.27a4.14,4.14,0,0,1-.25-.8l-.09-.48s0,0,0-.07c-.66-3.32-2.22-9-4.12-15.61-1.07-3.75-2.24-7.79-3.42-11.87-.93-3.2-1.85-6.37-2.7-9.4l-6.83-26.38a.56.56,0,0,1,.41-.69h.1l5.48-.36c7-.47,15.45-4,17.26-4.73a.57.57,0,0,1,.63.13c8,7.93,6.46,17.86,5.49,22.83,0,0,0,0,0,0a26.39,26.39,0,0,0-.39,6.93c.55,7.15,1.62,20.5,1.72,29.79v0c0,.26.41,5.79,5.72,12.34a28.43,28.43,0,0,1,2.83,3.55c7.93,11.9,10.4,30.54,14.81,41" transform="translate(0 -6.75)"/><path id="Fill_238" data-name="Fill 238" class="cls-25" d="M520.52,462.61c-.76-1.22-24.73-39.59-29.29-47-.09-.16-.19-.31-.27-.44s0,0,0-.08a9.29,9.29,0,0,1-.74-1.48l-.11-.27a3.53,3.53,0,0,1-.24-.8,3.7,3.7,0,0,1-.09-.48s0,0,0-.07c-.64-3.28-2.22-8.69-4-15.23a.6.6,0,0,1,0-.35l10.88-29.25a.55.55,0,0,1,.52-.37h2.78a.57.57,0,0,1,.56.57.55.55,0,0,1,0,.17c-.94,2.92-4.45,13.8-6,19.12-1.81,6.14-2.31,15.77-2.47,19.3-.35,7.74,9,20.89,11.64,25.67,2.85,5.13,15.9,28.88,17,31" transform="translate(0 -6.75)"/><path id="Fill_239" data-name="Fill 239" class="cls-24" d="M495.58,372.35c.83-.37,4.16-2.21,6.26-8a.56.56,0,0,0-.23-.67c-3.21-2-25.59-15.72-30.94-14-1.64.52-4.75,51.54-4.73,52.63,0,.54,0,6.07,0,6.71.35,8.69,4.89,52.07,5.24,56.87a.55.55,0,0,0,.47.51,28.72,28.72,0,0,0,5.32.35l.52-.46c1.4-11.61,6.88-33.56,3.81-47.26,0-.17-.06-.34-.09-.5s0-.63-.11-1.09c-.74-6.05-.76-4.29.93-11.93,0,0,0-.05,0-.08,3.78-9.54,10.91-27,13.26-32.71a.55.55,0,0,1,.27-.29" transform="translate(0 -6.75)"/><path id="Fill_240" data-name="Fill 240" class="cls-7" d="M504.53,311.87c0,2.94-.2,5.87-.42,8.68-.3,3.46-.72,6.75-1.14,9.73-1,7.12-2.13,12.4-2,13.68a7,7,0,0,0,.7,2.27,1.53,1.53,0,0,1-.33,1.76c-.47.2-.94.4-1.43.59-12.16,4.54-30,.67-30,.67-.74.06-1.49-.54-1.19-2a72.91,72.91,0,0,0,1.3-7.47c0-1,.25-4.53.82-9.36q.3-2.58.72-5.6c.22-1.7.49-3.48.77-5.33.33-2.14.61-4.24.89-6.29.3-2.31.6-4.56.91-6.78a90.64,90.64,0,0,1,2.26-11.08,46.69,46.69,0,0,1,3.3-8.63c3.39-6.66,11.58-7.7,13-7.84a.48.48,0,0,1,.37.1c6.12,4.17,9.24,11.35,10.62,19.48a75.06,75.06,0,0,1,.91,13.39" transform="translate(0 -6.75)"/><path id="Fill_241" data-name="Fill 241" class="cls-36" d="M492.56,294.53c-.48,6.2-2.71,26.16-12,35a.58.58,0,0,1-.12.1c-.48.26-3.35,1.69-8.73.95a.57.57,0,0,1-.49-.63c.36-3,.82-6.5,1.38-10.22a.66.66,0,0,1,.11-.26l2.32-16.74s2.35-8.1,5.51-11.36c2-2.07,11,2.75,11,2.75a.55.55,0,0,1,.77-.12.56.56,0,0,1,.22.5" transform="translate(0 -6.75)"/><path id="Fill_242" data-name="Fill 242" class="cls-22" d="M445.76,356.11s-2.8,1.06-3.79,2.66h4" transform="translate(0 -6.75)"/><path id="Fill_243" data-name="Fill 243" class="cls-11" d="M423.29,417.35l0,37.23-38.61,0V417.39Z" transform="translate(0 -6.75)"/><path id="Fill_244" data-name="Fill 244" class="cls-37" d="M386.06,417.35v37.26h-9.28l0-37.26Z" transform="translate(0 -6.75)"/><path id="Fill_245" data-name="Fill 245" class="cls-38" d="M428.66,426.67h-39l-4.94-9.32h39Z" transform="translate(0 -6.75)"/><path id="Fill_246" data-name="Fill 246" class="cls-39" d="M347.46,457.29h88.78a5.22,5.22,0,0,0,5.2-5.21V362.74a1.28,1.28,0,0,1,1.28-1.29h15.22a1.34,1.34,0,0,0,0-2.68H442.72a4,4,0,0,0-4,4v89.34a2.54,2.54,0,0,1-2.52,2.53H347.46a1.34,1.34,0,1,0,0,2.67" transform="translate(0 -6.75)"/><path id="Fill_247" data-name="Fill 247" class="cls-40" d="M414,467.27a10,10,0,1,0,10-10,10,10,0,0,0-10,10h0" transform="translate(0 -6.75)"/><path id="Fill_248" data-name="Fill 248" class="cls-8" d="M419.34,467.27a4.66,4.66,0,1,0,4.66-4.66,4.66,4.66,0,0,0-4.66,4.66h0" transform="translate(0 -6.75)"/><path id="Fill_249" data-name="Fill 249" class="cls-40" d="M351.45,467.27a10,10,0,1,0,10-10,10,10,0,0,0-10,10h0" transform="translate(0 -6.75)"/><path id="Fill_250" data-name="Fill 250" class="cls-8" d="M356.77,467.27a4.66,4.66,0,1,0,4.66-4.66,4.66,4.66,0,0,0-4.66,4.66h0" transform="translate(0 -6.75)"/><path id="Fill_251" data-name="Fill 251" class="cls-23" d="M490.58,298.34a25.58,25.58,0,0,0,.64-4.86c-.53-5-5.75-4.05-6.7-3.45s-3.83,2.81-6.9,12c-2.11,6.29-3.37,11.15-4.15,14.18-.26.91-.6,2-.88,2.92l6.29,9.07c5.17-3.26,10-20.91,11.7-29.82" transform="translate(0 -6.75)"/><path id="Fill_252" data-name="Fill 252" class="cls-23" d="M468.93,326.73c-2.8,4-12.95,19.65-17.56,25.3l3.45,2.75c.15-.24.3-.49.48-.74,0,0,1.56-1,1.59-1.05,3.09-3.36,6.56-6.18,11.51-11.16,5.13-5.16,9.86-10.58,11.78-13.91a59.11,59.11,0,0,0,2.87-5.46l-10-4.95a36.27,36.27,0,0,1-4.1,9.22" transform="translate(0 -6.75)"/><path id="Fill_253" data-name="Fill 253" class="cls-23" d="M451.39,352a4.47,4.47,0,0,1-1.67,1.5c-1.08.55-2.67,1.7-3.75,2.14s-3.21,5.47-2.54,6.09,4.8,1.68,7.29.48,1.48-2.7,2.07-3.63a67,67,0,0,1,4.21-5.7l-1.2-1Z" transform="translate(0 -6.75)"/><path id="Fill_254" data-name="Fill 254" class="cls-23" d="M493.89,279.11a4.89,4.89,0,0,1-.94,1.18l0,0c-2.25,2.11-6.26,2.5-8,2.57a.56.56,0,0,1-.59-.52.76.76,0,0,1,0-.15,7.77,7.77,0,0,0-.42-3.88.57.57,0,0,0-.74-.36h0c-2.91,1-5.67,1.55-7.42.89a.62.62,0,0,1-.25-.17,19.3,19.3,0,0,1-3.15-4.54.57.57,0,0,0-.58-.3c-.82.11-2,.14-2.22-.52-.32-.84.28-3.82.52-4.94l0-.12a8.4,8.4,0,0,0,0-2.83c-.08-.27-.68-.59-.83-.8a16,16,0,0,1-2-5.47.53.53,0,0,1,.23-.53c1.24-.86,6.21-4.32,6.61-4.39s11.9-2.14,12.29-2,6.18,6.74,6.93,13.9a10,10,0,0,1-1.22,6.35h0s-.11,5,1.77,6.58" transform="translate(0 -6.75)"/><path id="Fill_255" data-name="Fill 255" class="cls-7" d="M476.58,304.07c2,2.46,9.83,5.21,13.1,5.45,1.82-4.9,7.79-20.73,1.15-23.48-7.32-3-11.72,8.72-14.25,18" transform="translate(0 -6.75)"/><path id="Fill_256" data-name="Fill 256" class="cls-23" d="M492.56,280.19c-2.32,2.22-6.44,2.63-8.2,2.7a.57.57,0,0,1-.61-.55.38.38,0,0,1,0-.15,8.64,8.64,0,0,0-.49-4.27.58.58,0,0,1,.19-.64,20.14,20.14,0,0,0,2.35-2.17.6.6,0,0,1,.84-.05.64.64,0,0,1,.19.46l-.25,5.3a.59.59,0,0,0,.54.61c1.13.08,3.72.11,5.42-1.24" transform="translate(0 -6.75)"/><path id="Fill_257" data-name="Fill 257" class="cls-29" d="M468.94,261.4c4.05,2.29,10.88,0,12.59,1s2.35,5.16,3.14,5.29.64-1.11.55-2.64-.35-3.25,2.35-2.75c1.2.22,1.91,3.65,2.78,6.34a9.72,9.72,0,0,0,1.55,3.4.57.57,0,0,0,.8,0,1.13,1.13,0,0,0,.1-.13c4.37-7.52,3.49-24.15-8.12-24a.5.5,0,0,1-.33-.12,10.55,10.55,0,0,0-7.16-2.14h-.08c-3.3.34-13.1,3.59-14.79,6.82-2,3.8,4.53,7.72,6.62,8.91" transform="translate(0 -6.75)"/><g id="Group_260" data-name="Group 260"><path id="Fill_258" data-name="Fill 258" class="cls-7" d="M500.2,243.54l-4.91,2.62,2.46-6.38" transform="translate(0 -6.75)"/><path id="Fill_259" data-name="Fill 259" class="cls-7" d="M515.43,235.39A10.37,10.37,0,1,1,505.06,225a10.38,10.38,0,0,1,10.37,10.37" transform="translate(0 -6.75)"/></g><path id="Fill_261" data-name="Fill 261" class="cls-8" d="M504.76,241.12a5.37,5.37,0,0,1-1.32-.17l.1-.94a4.79,4.79,0,0,1-1.34-.57l-.59.73a5.17,5.17,0,0,1-1.8-1.83l.74-.59a5,5,0,0,1-.54-1.35l-.94.11a5.2,5.2,0,0,1,0-2.57l.94.11a4.83,4.83,0,0,1,.57-1.34l-.74-.59a5.71,5.71,0,0,1,.77-1,5.14,5.14,0,0,1,1.06-.81l.6.74a5.09,5.09,0,0,1,1.35-.54l-.11-.94a5.19,5.19,0,0,1,1.24-.15,5.45,5.45,0,0,1,1.33.17l-.11,1a4.78,4.78,0,0,1,1,.4l.05,0,.11.06.07,0,.07,0,.6-.75a4.07,4.07,0,0,1,.48.33l.11.09a5.08,5.08,0,0,1,1.2,1.41l-.74.6a4.6,4.6,0,0,1,.54,1.34l.94-.1a5.2,5.2,0,0,1,0,2.57l-.94-.11a4.67,4.67,0,0,1-.57,1.34l.73.59a5.15,5.15,0,0,1-.76,1,5.57,5.57,0,0,1-1.06.82l-.59-.74a4.72,4.72,0,0,1-1.36.54l.1.94A5.59,5.59,0,0,1,504.76,241.12Zm0-8.84h-.1a3,3,0,0,0,.1,6h.1a3,3,0,0,0-.1-6Z" transform="translate(0 -6.75)"/><path id="Fill_262" data-name="Fill 262" class="cls-29" d="M221.07,30.67a3.64,3.64,0,0,0-2.25,2.69A3.53,3.53,0,0,0,220,36.62a2,2,0,0,0-1.68,2.22v0a4.92,4.92,0,0,0,1.59,2.65,4.8,4.8,0,0,0,3.12,1.75,3.63,3.63,0,0,0,2.4-1,4.18,4.18,0,0,0,1.12-1.48,6.61,6.61,0,0,0,.4-2.06c.22-2.44.43-4.89.65-7.34a1.74,1.74,0,0,0-.3-1.42" transform="translate(0 -6.75)"/><path id="Fill_263" data-name="Fill 263" class="cls-23" d="M241.88,47.26c.16,3.16-.07,8.65.87,9.47s7.52.78,7.52.78S235.9,70.59,234.94,69.86,221.2,59.1,224.07,58.58s5.68-.41,5.6-1.84-.17-2.87-.25-4.3" transform="translate(0 -6.75)"/><path id="Fill_264" data-name="Fill 264" class="cls-23" d="M241.88,47.26c.16,3.16-.07,8.65.87,9.47s7.52.78,7.52.78S235.9,70.59,234.94,69.86,221.2,59.1,224.07,58.58s5.68-.41,5.6-1.84-.17-2.87-.25-4.3" transform="translate(0 -6.75)"/><path id="Fill_265" data-name="Fill 265" class="cls-2" d="M263.59,94.88l-6.37,20.78-2.2,2.39s-19.08,2.15-24.9,2.41l-.7,0c-4.79.1-4.55-2.37-4.55-2.37,0-1.11-.12-2.55-.23-4.16-.4-6-1.11-14.28-1.9-17.56-.92-3.91-1.33-5.34-2.14-9-1.79-8.24-1.71-9.8-3.61-20l12.43-9.9s1.29,3.79,6.5,3.85c7,.09,9.13-4.75,9.13-4.75L262,67.75Z" transform="translate(0 -6.75)"/><path id="Fill_266" data-name="Fill 266" class="cls-23" d="M242.21,43.83a36.4,36.4,0,0,1-1.43,4.7c-1.08,2.81-2.67,3.82-5.63,3.89l-6.24.15c-1.6,0-3.59.09-4.88-1s-1.31-3-1.59-4.54c-.36-2-.66-4-.89-6A89.41,89.41,0,0,1,221,29.25a9.66,9.66,0,0,1,.14-1.62,1.18,1.18,0,0,1,.27-.59,1.25,1.25,0,0,1,.75-.29A63.83,63.83,0,0,1,234,26c2.79.08,5.74.41,7.95,2.12s3.28,4.52,4.23,7.17c.15.43.26,1-.1,1.26" transform="translate(0 -6.75)"/><path id="Fill_267" data-name="Fill 267" class="cls-41" d="M197,187.78a62.87,62.87,0,0,0,1.22,6.52c.54,1.66,5.1.13,5.4-1s-1.43-9-1.43-9" transform="translate(0 -6.75)"/><path id="Fill_268" data-name="Fill 268" class="cls-20" d="M205.49,194c.38,1.5.85,4.38.85,4.38l-4.35,2-.72-.7a8,8,0,0,1-2.41,2,17.66,17.66,0,0,1-4.21,1.22c-3.8.43-6.6-.32-6.83-.87-.94-2.3,4.1-2.92,5.1-3.2a6.87,6.87,0,0,0,4.78-5c.22-1.21-.06-1.42.58-1.38a1.49,1.49,0,0,1,1.09.53,2.66,2.66,0,0,0,3.09.75,3.36,3.36,0,0,0,1.55-1.34,1.94,1.94,0,0,1,1.48,1.62" transform="translate(0 -6.75)"/><path id="Fill_269" data-name="Fill 269" class="cls-24" d="M229,120.35l-12.45,15.3c-.49.1-1,.19-1.49.27a67.23,67.23,0,0,1-10.22.87,73.32,73.32,0,0,1-10.68-.6c1,2.82,3.35,6.44,4.25,10.41,3,13.12,4,30.74,4.79,41.64,0,0-1.44,2.79-6,.66-6.87-17.22-18.86-52.14-18.74-59.7a6.7,6.7,0,0,1,2.67-4.91c.09-.09.18-.16.27-.24a27.08,27.08,0,0,1,8-4.2l.3-.1c8.13-2.9,20-4.85,33.05-5.85l.3,0,.6,0h0c.1,1.61.18,3,.22,4.15,0,0-.23,2.49,4.45,2.38l.68,0" transform="translate(0 -6.75)"/><path id="Fill_270" data-name="Fill 270" class="cls-42" d="M229,120.24l-12.43,15.09c-.5.1-1,.19-1.49.27a60.21,60.21,0,0,1-10.21.85,8.32,8.32,0,0,1-.86-2.22c-.22-1-.1-2.12-.29-3.16a7.32,7.32,0,0,0-3.56-4.82,16.32,16.32,0,0,0-5.83-1.9c-4.57-.72-12.36-.28-13.18-.22h-.07a4.15,4.15,0,0,1,.34-.24,35.31,35.31,0,0,1,8-4.14l.3-.1c10.8-4,24.89-5.22,33-5.77l.3,0,.6,0c.1,1.6.18,3,.22,4.1,0,0-.23,2.45,4.45,2.35l.67,0" transform="translate(0 -6.75)"/><path id="Fill_271" data-name="Fill 271" class="cls-41" d="M209,197.26s0,4.84.23,6.56,4.52,1.16,4.93.19-.1-9-.1-9" transform="translate(0 -6.75)"/><path id="Fill_272" data-name="Fill 272" class="cls-20" d="M215.55,204.47c.12,1.48.11,4.28.11,4.28l-4.55,1.12-.58-.79a7.94,7.94,0,0,1-2.68,1.49,17.29,17.29,0,0,1-4.3.42c-3.76-.25-6.36-1.45-6.48-2-.55-2.35,4.45-2,5.47-2.14a6.62,6.62,0,0,0,5.47-3.91c.41-1.1.17-1.35.79-1.2a1.53,1.53,0,0,1,1,.7,2.7,2.7,0,0,0,2.88,1.25,3.31,3.31,0,0,0,1.72-1,1.91,1.91,0,0,1,1.18,1.8" transform="translate(0 -6.75)"/><path id="Fill_273" data-name="Fill 273" class="cls-24" d="M260.11,116.49c1.86,4.27,3.08,12,1.22,15.32-1.64,2.9-2.42,4.7-5.21,5.61-11.93,3.9-23.24,2.3-36.37.57,5.56,14.84-2.5,46.62-3.75,60.09-5.05,2.21-7.9-.14-7.9-.14.57-27.43-5.62-65.73-1.88-72.28,2.28-4,29.46-9.24,30-9.17" transform="translate(0 -6.75)"/><path id="Fill_274" data-name="Fill 274" class="cls-29" d="M239.13,39.84c.23-1,1.73-1,2.4-.32a4.22,4.22,0,0,1,.8,2.79,6.61,6.61,0,0,1-1.2,3.51c-.65,1-1.61,1.64-2.5.79a3.21,3.21,0,0,0,2.62,3.31,2.91,2.91,0,0,0,2.87-2c5.41,2,7.12-5.84,7.45-9.75a16.06,16.06,0,0,0-2.44-9.38,6.61,6.61,0,0,0-3.92-2.95,6.32,6.32,0,0,0-3.35-4.68,16.17,16.17,0,0,0-5.25-1.83c-1.21-.24-4.5.64-5.12,1.87-2.3-1.32-4.34,0-6.17.17s-3.85,1.9-3.07,3.56c-2.86-.87-6,2.39-5.11,5.26s5,4,7.3,2.06a5.52,5.52,0,0,0,5,2.93,10.65,10.65,0,0,0,5.73-2A4.34,4.34,0,0,0,235,37c.56,1.23,1,2.14,2.85,1.77,0,0-.16,2.84.48,2.57s.8-1.47.8-1.47" transform="translate(0 -6.75)"/><path id="Fill_275" data-name="Fill 275" class="cls-2" d="M202.52,108.5c7.31-10.26,11.22-18.35,17.58-29.19L229,57.91l-3.57.21A28.18,28.18,0,0,0,218,59.48c-3.39,1.22-6.89,3.47-8.54,6.7-1.47,2.88-2.37,6-3.62,9-1.39,3.32-2.87,6.6-4.35,9.88-3,6.52-6,13-8.47,19.7" transform="translate(0 -6.75)"/><path id="Fill_276" data-name="Fill 276" class="cls-43" d="M218.32,81.05l-1.11-7.16L209,93.15l2.71.71Z" transform="translate(0 -6.75)"/><path id="Fill_277" data-name="Fill 277" d="M260.86,67.65a246,246,0,0,1,0,25.62c-.46,8.55-1.87,17-2.63,25.46a.42.42,0,0,0,.83.12c2-8.09,2.45-16.75,2.88-25a215.43,215.43,0,0,0-.25-26.16c0-.55-.89-.56-.86,0" transform="translate(0 -6.75)"/><path id="Fill_278" data-name="Fill 278" class="cls-44" d="M182.38,120.48h66.56v-2.66H182.38Z" transform="translate(0 -6.75)"/><path id="Fill_279" data-name="Fill 279" class="cls-44" d="M171.88,120.48H225l-9.52-31.67a4.09,4.09,0,0,0-3.9-2.94h-46.5a2.68,2.68,0,0,0-2.65,2.73,2.42,2.42,0,0,0,.12.76Z" transform="translate(0 -6.75)"/><path id="Fill_280" data-name="Fill 280" class="cls-45" d="M170,120.48h52.3L212.8,88.81a4.09,4.09,0,0,0-3.9-2.94H162.4a2.68,2.68,0,0,0-2.65,2.73,2.42,2.42,0,0,0,.12.76L169,119.7a1.07,1.07,0,0,0,1,.78" transform="translate(0 -6.75)"/><path id="Fill_281" data-name="Fill 281" class="cls-44" d="M194.36,103.18A5.33,5.33,0,1,1,189,97.85h0a5.33,5.33,0,0,1,5.32,5.33" transform="translate(0 -6.75)"/><path id="Fill_282" data-name="Fill 282" class="cls-43" d="M253.24,73c-2.72,12.37-3.58,26.64-4.34,35.49-10.2.76-13.06,4.7-22.4,8.88,0,0-7.38-1.23-8.16,1.57-.44,1.62,8.64,2.9,8.64,2.9,8.66,0,29.64-4,31.19-4.47s7.9-31.93,8.08-47.78c0-2.26-.05-4.7-1.45-6.46A8.47,8.47,0,0,0,262,61c-6.1-3.13-10.61-4-17.44-4.42" transform="translate(0 -6.75)"/><path id="Fill_283" data-name="Fill 283" class="cls-41" d="M226.82,119.41c-1-1.42-2.87-1.63-4.51-1.59a31.22,31.22,0,0,0-3.61.32c-.55.09-1.17.23-1.23.89s2.65,0,4.07.46a66.82,66.82,0,0,1-8.37.25,2.1,2.1,0,0,0-1,.11.88.88,0,0,0-.54.81,1.09,1.09,0,0,0,.38.71,5.34,5.34,0,0,0,2.88,1.29,20.06,20.06,0,0,0,12.71-1.25" transform="translate(0 -6.75)"/><path id="Fill_284" data-name="Fill 284" class="cls-2" d="M253.18,73c-.22,13.22-2.11,25.22-1.85,38.45-10.25.75-15.46,2.74-24.84,6.93a5,5,0,0,0,.31,3.44c.71.26,30.65-1,33.11-3.27,2.21-2.05,6.15-33.1,6.33-49,0-2.25-.05-4.69-1.45-6.44A8.34,8.34,0,0,0,262,61c-6.13-3.14-10.66-4-17.52-4.43" transform="translate(0 -6.75)"/><path id="Fill_285" data-name="Fill 285" class="cls-23" d="M222.22,39.28s-3,5.61-2.52,6.33,4,0,4,0" transform="translate(0 -6.75)"/><g id="Group_288" data-name="Group 288"><path id="Fill_286" data-name="Fill 286" class="cls-7" d="M205.84,22.37,210,24.58l-2.07-5.38" transform="translate(0 -6.75)"/><path id="Fill_287" data-name="Fill 287" class="cls-7" d="M210,15.5a8.75,8.75,0,1,1-8.75-8.75A8.74,8.74,0,0,1,210,15.5h0" transform="translate(0 -6.75)"/></g><path id="Stroke_289" data-name="Stroke 289" class="cls-46" d="M198.35,14.42l2.4,3.56L205,12.65" transform="translate(0 -6.75)"/></g></g></g></g></svg>