<svg xmlns="http://www.w3.org/2000/svg" xmlns:xlink="http://www.w3.org/1999/xlink" viewBox="0 0 884.05 726.77"><defs><style>.cls-1,.cls-17,.cls-3,.cls-34,.cls-46{fill:none;}.cls-2{fill:#b0eeff;}.cls-3,.cls-34,.cls-46{stroke:#fff;}.cls-3,.cls-46{stroke-linecap:round;stroke-linejoin:round;}.cls-3{stroke-width:0.89px;}.cls-4{fill:#fcccb1;}.cls-5{fill:#e9f9ff;}.cls-6{fill:#d7f6ff;}.cls-7{fill:#389fe5;}.cls-8{fill:#fff;}.cls-9{fill:#d7ecfa;}.cls-10{fill:#ff9a30;}.cls-11{fill:#fdcf33;}.cls-12{fill:#b7ddf6;}.cls-13{fill:#b9dbef;}.cls-14{fill:#e6ecef;}.cls-15{fill:#ffbd1d;}.cls-16{fill:#fffae4;}.cls-17{stroke:#e49f05;stroke-width:0.36px;}.cls-17,.cls-34{stroke-miterlimit:10;}.cls-18{fill:#8cc64b;}.cls-19{fill:#3d3d3d;}.cls-20{fill:#e49f05;}.cls-21{fill:#1f3a71;}.cls-22{fill:#ffc8b0;}.cls-23{fill:#f2a181;}.cls-24{fill:#ffbe9d;}.cls-25{fill:#285faf;}.cls-26{fill:#22549b;}.cls-27{fill:#cfeffe;}.cls-28{fill:#67c2ef;}.cls-29{clip-path:url(#clip-path);}.cls-30{fill:#153351;}.cls-31{fill:#fdd622;}.cls-32{fill:#fffdff;}.cls-33{fill:#95e2f9;}.cls-34{stroke-width:0.62px;}.cls-35{fill:#4c4051;}.cls-36{fill:#2986c5;}.cls-37{fill:#ffd86c;}.cls-38{fill:#f4bf2a;}.cls-39{fill:#c1ced6;}.cls-40{fill:#b3eaff;}.cls-41{fill:#ed9c80;}.cls-42{fill:#5275a0;}.cls-43{fill:#b0d9ef;}.cls-44{fill:#aabde2;}.cls-45{fill:#e1e8f9;}.cls-46{stroke-width:3px;}</style><clipPath id="clip-path" transform="translate(0 -10.28)"><rect class="cls-1" width="884.05" height="735.02"/></clipPath></defs><g id="Camada_2" data-name="Camada 2"><g id="Camada_1-2" data-name="Camada 1"><g id="Group_290" data-name="Group 290"><path id="Fill_1" data-name="Fill 1" class="cls-2" d="M527.18,596.13c7.31-14.8,19.1-27.06,32.15-37,10.51-8,22.4-15.84,34.85-20.45,11.05-4.09,13.5,5.53,22.41,8.82,5.7,2.1,12-1.11,16.5-5.2,4.32-3.95,7.9-8.9,13-11.85,3.8-2.18,9.49-3.27,13.48-.93,5,2.9,4.11,10,10.81,10.85,3.12.38,6.22-.74,9.05-2.12a127.57,127.57,0,0,1,20.34-8.33c6.44-1.89,14.78-2.51,18.49,3.05,3.57,5.35.18,12.59-4.11,17.37-10.33,11.52-25.61,17.73-41,19.77-4.19.55-8.5.85-12.37,2.55s-7.29,5.2-7.44,9.41c-.09,2.27.76,4.48.8,6.75.08,6.29-6.16,11-12.31,12.4-15.85,3.61-26.16-10.26-41.06-12.38-16.89-2.42-42.89.21-54.62,14.39" transform="translate(0 -10.28)"/><path id="Stroke_3" data-name="Stroke 3" class="cls-3" d="M555.57,589a110.6,110.6,0,0,1,60.48-28c14.08-1.82,28.35-.95,42.48-2.22s28.79-5.06,39-14.41" transform="translate(0 -10.28)"/><path id="Fill_5" data-name="Fill 5" class="cls-2" d="M629.34,526.29c8.46-4.92,17.54-11.77,15.14-22.22-.78-3.43-3.3-6.55-2.86-10,.28-2.3,1.8-4.22,2.91-6.25a19.1,19.1,0,0,0,1-16c-2.18-5.5-6.8-9.65-9.69-14.81A26.21,26.21,0,0,1,632.53,443c-8.93.95-16.64,6.62-25.29,9.08-6.61,1.87-13.67,1.84-20.2,4a32.5,32.5,0,0,0-21.62,28.22,17.75,17.75,0,0,0-15.15,6.71,23.38,23.38,0,0,0-4.59,17.5c3.89,25.33,16.83,45.48,33.4,64.26-3.6-4.08,7.46-16.78,9.6-19.26,9.3-10.75,22.05-16.94,34.24-23.68,1.94-1.08,4.17-2.26,6.43-3.58" transform="translate(0 -10.28)"/><g id="Group_23" data-name="Group 23"><path id="Stroke_7" data-name="Stroke 7" class="cls-3" d="M581.29,538.65c-2.09-10.87.7-22.06,4.12-32.58,3.34-10.24,7.33-20.35,13.09-29.42s13.39-17.09,22.81-22.08" transform="translate(0 -10.28)"/><path id="Stroke_9" data-name="Stroke 9" class="cls-3" d="M584.12,464.82a90.3,90.3,0,0,0,5,30.87" transform="translate(0 -10.28)"/><path id="Stroke_11" data-name="Stroke 11" class="cls-3" d="M590.58,492c10.34-8.19,26.86-14.11,40-14.57" transform="translate(0 -10.28)"/><path id="Stroke_13" data-name="Stroke 13" class="cls-3" d="M563.87,496.35c13.74,4.44,16.07,24.16,16.93,29.75" transform="translate(0 -10.28)"/><path id="Stroke_15" data-name="Stroke 15" class="cls-3" d="M583.27,513.19C592.73,504.87,609,496,620,497.73" transform="translate(0 -10.28)"/><path id="Stroke_17" data-name="Stroke 17" class="cls-3" d="M581.27,537.64c7.52-10.19,28.05-22.64,39.06-20.89" transform="translate(0 -10.28)"/><path id="Stroke_19" data-name="Stroke 19" class="cls-3" d="M606.11,457.65a16.53,16.53,0,0,0-2.46,11.82" transform="translate(0 -10.28)"/><path id="Stroke_21" data-name="Stroke 21" class="cls-3" d="M606.28,466.42c4.45-2.87,10.64-4,17.47-2.93" transform="translate(0 -10.28)"/></g><path id="Fill_24" data-name="Fill 24" class="cls-2" d="M389.3,613.36c-11.5-31.73-41-61.35-70.05-78.26-7.08-4.12-17.42-7.24-20.66,2.6-2.09,6.33-9.41,4.68-13.59,1.76-5.19-3.63-8.21-9.51-12.61-13.94a24.14,24.14,0,0,0-13-7.1,16.54,16.54,0,0,0-13.94,4c-2.75,2.64-4.4,6.35-7.44,8.64-5.1,3.83-12.52,2.4-17.94-.95s-9.7-8.31-15-11.92-12.35-5.75-17.95-2.7c-7.41,4-8.09,14.84-4.94,22.72,1.94,4.87,5,11.93,8.7,15.74,5.25,5.42,12.87,9,20.17,10.46,5.37,1.06,10.93,1,16.26,2.3,1.93.46,4.14,1.28,4.52,3.52.56,3.23-3.4,5.2-5.72,6.38-4,2-8,6.46-6.1,10.56,1.18,2.58,4.17,3.73,7,4.2,8.32,1.43,16.58-1,24.48-3.44,4.8-1.5,9-4.52,13.94-5.8,2.56-.67,9.12-1,8.42,3.4a6,6,0,0,1-2.23,3.38,22.94,22.94,0,0,0-3.08,2.74c-3.79,4.63,0,10.1,4.94,11.3,3.82.92,7.81-.07,11.63-1,25-5.88,51.24-8.16,76.42-3,5.37,1.1,11.23,2.94,13.92,7.74" transform="translate(0 -10.28)"/><path id="Stroke_26" data-name="Stroke 26" class="cls-3" d="M360.92,595.12a123.51,123.51,0,0,0-68.3-31.93c-15.88-2-32-1-47.9-2.35s-32.46-5.69-44-16.41" transform="translate(0 -10.28)"/><path id="Fill_28" data-name="Fill 28" class="cls-4" d="M367,597.14s-44.27-29.19-56.77-58.8c8.44,2.27,13.9,5,19.83,9.77,6.4,9,21.62,22.7,31.95,31.62,1.47,4.89,3.13,10.63,5,17.41" transform="translate(0 -10.28)"/><path id="Fill_30" data-name="Fill 30" class="cls-2" d="M365,587c-1.63-10.32-6.14-20.57-7.91-31.06-2.84-16.81-3.28-33.72-.2-50.43,2.62-14.24,7-29.15,2.21-43.56-1.27-3.83-3.61-8-8.54-7.92a8.09,8.09,0,0,0-5.26,2.12c-3.59,3.2-4.25,7.81-4.84,12.22l-1.95,14.73c-.63,4.78-7.87,5.36-9.32.7l0-.12c-1.19-3.92-1-8.05-.66-12.09.68-8.79,1.79-17.64.46-26.39-1.61-10.59-7.37-21.33-18.6-25.3a20.36,20.36,0,0,0-12.4-.43c-11.23,3.23-13.51,13.91-11.25,22.86,1.59,6.3,5.11,12,8.33,17.74,7.86,14,3.61,27.33,5.59,43C304.78,536.27,337,568.35,365,587" transform="translate(0 -10.28)"/><path id="Stroke_32" data-name="Stroke 32" class="cls-3" d="M304.14,439c23.84,28.43,15.23,95.56,56.78,131.8" transform="translate(0 -10.28)"/><path id="Stroke_34" data-name="Stroke 34" class="cls-3" d="M350.26,473.46c2.86,14.45-7,30.67-9.26,39.66s-3.49,24.3-1,33.33" transform="translate(0 -10.28)"/><path id="Fill_36" data-name="Fill 36" class="cls-5" d="M281.69,614.57c-1-5.76-17-41.63-35.55-32-11,5.7-9,26.71,8.17,42.58-3.38-3.27-7.27-7-11.88-7.9a9.14,9.14,0,0,0-7.39,2.38c-1.66,1.53-2.15,4-2.23,6.22a24.57,24.57,0,0,0,10.88,21c-3.8-2.13-7.1-4.8-11.43-5.18-1.42-.12-3.8.69-4.46,2s-.66,6.52,7.71,10.35c-34.12-6.5-36.11,8.1-23.85,8.1H312.25" transform="translate(0 -10.28)"/><path id="Fill_38" data-name="Fill 38" class="cls-6" d="M346.48,584.53c-1.63-9.21-18.67-67.09-48.58-51.72C280.13,542,283.32,575.56,311.08,601c-5.45-5.24-11.74-11.18-19.17-12.65-4-.79-8.93,1-11.94,3.81-2.67,2.46-3.46,6.34-3.59,10a39.17,39.17,0,0,0,17.56,33.55c-6.14-3.42-11.46-7.69-18.46-8.29-2.28-.19-6.14,1.1-7.19,3.12-1.15,2.2-1.07,10.43,12.45,16.57-55.08-10.39-58.29,13-38.5,13H373.08" transform="translate(0 -10.28)"/><path id="Fill_40" data-name="Fill 40" class="cls-5" d="M640.88,614.57c1-5.76,17-41.63,35.55-32,11,5.7,9,26.71-8.16,42.58,3.37-3.27,7.27-7,11.87-7.9a9.11,9.11,0,0,1,7.39,2.38c1.66,1.53,2.15,4,2.23,6.22a24.57,24.57,0,0,1-10.88,21c3.8-2.13,7.1-4.8,11.44-5.18,1.41-.12,3.8.69,4.45,2s.66,6.52-7.71,10.36c34.12-6.5,36.11,8.1,23.85,8.1H610.32" transform="translate(0 -10.28)"/><path id="Fill_42" data-name="Fill 42" class="cls-6" d="M576.09,584.53c1.63-9.21,18.67-67.09,48.59-51.72,17.76,9.14,14.57,42.75-13.19,68.15,5.45-5.24,11.74-11.18,19.17-12.65,4-.79,8.93,1,11.94,3.81,2.68,2.46,3.46,6.34,3.59,10a39.17,39.17,0,0,1-17.56,33.55c6.14-3.42,11.46-7.69,18.46-8.29,2.27-.19,6.13,1.1,7.19,3.12,1.14,2.2,1.06,10.43-12.45,16.57,55.08-10.39,58.29,13,38.49,13H549.49" transform="translate(0 -10.28)"/><path id="Fill_44" data-name="Fill 44" class="cls-7" d="M483.11,465.9c-15.12-4.17-26.63-17-27.54-32.72,0-.76-.06-1.51-.06-2.26a3.91,3.91,0,0,1,0-.68,3.76,3.76,0,0,1,0-.67c0-.75,0-1.5.06-2.26.9-15.7,12.42-28.55,27.54-32.73a135.28,135.28,0,0,0,96.6-154.68c-.25-1.36-.5-2.7-.8-4-.21-1-.42-1.95-.66-2.92a.85.85,0,0,0,0-.17c-.12-.5-.24-1-.38-1.52-.22-1-.47-1.91-.75-2.87-.4-1.46-.81-2.9-1.26-4.34h-4.6c.15.46.31.93.43,1.4a1.06,1.06,0,0,1,.09.25c.26.82.5,1.63.73,2.45.15.54.31,1.06.43,1.6.24.85.47,1.69.68,2.54.14.54.28,1.08.38,1.6.23.87.42,1.72.59,2.59.07.3.14.59.19.89,0,.1,0,.23.07.35q.32,1.49.57,3a130.4,130.4,0,0,1,2.16,23.66c0,58.57-39.33,110.37-95.59,126-17.42,4.81-29.78,19.55-30.75,36.71-.05.84-.07,1.67-.07,2.5,0,.23,0,.47,0,.68s0,.47,0,.68c0,.84,0,1.67.07,2.5,1,17.17,13.33,31.92,30.75,36.72,56.26,15.6,95.59,67.43,95.59,126a130.62,130.62,0,0,1-2.16,23.68,127.29,127.29,0,0,1-10.12,31.74H328.92a128.23,128.23,0,0,1-10.14-31.75,130.29,130.29,0,0,1-2.13-23.66c0-58.55,39.32-110.37,95.59-126,17.41-4.8,29.76-19.56,30.75-36.72.05-.84.07-1.67.07-2.5,0-.21,0-.46,0-.68s0-.46,0-.68c0-.84,0-1.67-.07-2.5-1-17.17-13.34-31.9-30.75-36.72-56.27-15.61-95.59-67.42-95.59-126a130.46,130.46,0,0,1,2.13-23.66c.25-1.37.52-2.72.82-4.1,0,0,0-.07,0-.1.3-1.32.59-2.64.92-4,0-.07,0-.13,0-.22.26-1,.52-2,.81-3,0-.09.06-.16.07-.24.09-.39.21-.79.33-1.17.19-.73.42-1.44.65-2.16a2.25,2.25,0,0,1,.08-.24c.13-.47.28-.94.44-1.41h-4.6c-.45,1.44-.87,2.89-1.27,4.35-.28,1-.52,1.9-.75,2.87-.14.5-.26,1-.38,1.51a.51.51,0,0,0,0,.17c-.25,1-.46,1.95-.66,2.93-.3,1.32-.56,2.66-.8,4a133,133,0,0,0-2.22,24.46,135.12,135.12,0,0,0,98.82,130.22c15.1,4.18,26.63,17,27.51,32.72.06.77.07,1.52.07,2.26,0,.23,0,.47,0,.68s0,.47,0,.68c0,.75,0,1.5-.07,2.26-.88,15.69-12.41,28.55-27.51,32.72a135.32,135.32,0,0,0-84.92,190H568a135.3,135.3,0,0,0-84.91-190" transform="translate(0 -10.28)"/><path id="Fill_46" data-name="Fill 46" class="cls-8" d="M577.87,596.69a129.51,129.51,0,0,1-2.14,23.58,127,127,0,0,1-10.07,31.62H330.55a127.45,127.45,0,0,1-10.09-31.64,130.17,130.17,0,0,1-2.12-23.56c0-58.32,39.12-109.94,95.1-125.48,17.32-4.78,29.6-19.48,30.59-36.58.05-.83.07-1.66.07-2.5,0-.21,0-.45,0-.67s0-.46,0-.68c0-.83,0-1.66-.07-2.5-1-17.1-13.27-31.78-30.59-36.58-56-15.53-95.1-67.13-95.1-125.47a130.17,130.17,0,0,1,2.12-23.56c.24-1.37.52-2.72.81-4.09,0,0,0-.07,0-.1.28-1.32.59-2.63.92-3.95a2.25,2.25,0,0,1,.05-.22c.27-1.1.55-2.17.88-3.26s.62-2.22,1-3.31c.17-.56.34-1.12.52-1.65h247c.17.53.34,1.09.52,1.64.26.82.5,1.63.72,2.45.16.53.31,1,.43,1.59.25.85.47,1.68.68,2.53.14.54.27,1.07.38,1.59.22.87.41,1.72.58,2.59.09.4.18.81.26,1.23.21,1,.4,2,.57,3a130.2,130.2,0,0,1,2.15,23.56c0,58.34-39.12,109.94-95.1,125.48-17.33,4.8-29.62,19.48-30.59,36.58-.05.83-.07,1.66-.07,2.5,0,.22,0,.47,0,.68s0,.46,0,.67c0,.83,0,1.66.07,2.5,1,17.1,13.26,31.8,30.59,36.58,56,15.54,95.1,67.16,95.1,125.48" transform="translate(0 -10.28)"/><path id="Fill_48" data-name="Fill 48" class="cls-9" d="M577.87,596.69a129.51,129.51,0,0,1-2.14,23.58,127,127,0,0,1-10.07,31.62H330.55a127.45,127.45,0,0,1-10.09-31.64c-1.42-7.64-4-15.62-4-23.61,0-58.32,40-111.68,95.94-127.22,17.32-4.78,29.21-18.54,30.2-35.64.05-.83,0-.81,0-1.64,0-.21,0-.46,0-.68s0-.45,0-.68c0-.83.05-1.66,0-2.5-1-17.1-11.81-31.77-29.14-36.57-36.1-10-66.58-34.46-82.79-66.83-8.76-17.49-12.3-37.94-12.3-58.65a130.17,130.17,0,0,1,2.12-23.56c.24-1.37.52-2.72.81-4.09,0,0,0-.07,0-.1.27-1.32.58-2.63.91-3.95a1.42,1.42,0,0,0,.05-.22c.28-1.1.56-2.17.89-3.26s.62-2.22,1-3.31c.18-.56.35-1.12.53-1.65h247c.17.53.34,1.09.52,1.64.25.82.5,1.63.72,2.45.16.53,1,1.06,1.11,1.6.24.85.17,1.77.38,2.62.13.54.48.8.58,1.32.23.86.66,1.86.83,2.72.09.4-.08,1.1,0,1.52.21,1-.17,1.72,0,2.7a129.4,129.4,0,0,1,2.14,23.57c0,58.34-39.12,109.94-95.1,125.48-17.32,4.8-29.62,19.47-30.58,36.57-.06.84-.07,1.67-.07,2.5,0,.23,0,.47,0,.68s0,.47,0,.68c0,.83,0,1.66.07,2.5,1,17.1,14.23,30.08,31.55,34.86,56,15.54,94.13,68.87,94.13,127.19" transform="translate(0 -10.28)"/><path id="Fill_50" data-name="Fill 50" class="cls-10" d="M340.64,341.29s20.5,33.85,69.66,49.41c12.59,3.73,16.83,6.48,24.08,13.21s9.72,18.57,9.44,27.93c-.1,7.24,2.48,113.28,2.48,126.49,0,12.46,2.16,3.24,1.8.57,1.28-75,3.78-130.26,3.78-130.26s4.46-23.59,11.35-26.85,31.9-15,42.14-17.84,35-25.6,35-25.6,31.42-45.13,33.33-50.91-14.2-6.33-14.2-6.33Z" transform="translate(0 -10.28)"/><path id="Fill_52" data-name="Fill 52" class="cls-11" d="M573.76,299.34c2.14,13.82-49.66,33.54-115.69,44s-121.31,7.79-123.45-6,49.66-33.53,115.69-44,121.3-7.8,123.44,6" transform="translate(0 -10.28)"/><g id="Group_58" data-name="Group 58"><path id="Fill_54" data-name="Fill 54" class="cls-8" d="M411.22,373.49a13,13,0,0,1-4.27-.72A124.5,124.5,0,0,1,381,360.47a13.24,13.24,0,0,1-4.13-18.2,13.09,13.09,0,0,1,18-4.2l.07.05a99.18,99.18,0,0,0,20.48,9.69,13.21,13.21,0,0,1-4.27,25.68" transform="translate(0 -10.28)"/><path id="Fill_56" data-name="Fill 56" class="cls-8" d="M359.86,334.55a13.11,13.11,0,0,1-11.09-6.12c-22.9-36.17-17-76.79-16.74-78.5a13.13,13.13,0,1,1,26,4c-.07.54-4.47,32.86,12.94,60.36a13.26,13.26,0,0,1-4,18.23,13.09,13.09,0,0,1-7,2.06" transform="translate(0 -10.28)"/></g><g id="Group_63" data-name="Group 63"><path id="Fill_59" data-name="Fill 59" class="cls-8" d="M411.22,484.92a13,13,0,0,0-4.27.72A124.37,124.37,0,0,0,381,498a13.28,13.28,0,0,0-4.13,18.24,13.06,13.06,0,0,0,18,4.22l.1-.06a98.74,98.74,0,0,1,20.48-9.71,13.24,13.24,0,0,0-4.27-25.74" transform="translate(0 -10.28)"/><path id="Fill_61" data-name="Fill 61" class="cls-8" d="M359.86,523.94a13.12,13.12,0,0,0-11.09,6.14c-22.9,36.24-17,76.95-16.74,78.66a13.13,13.13,0,1,0,26-3.85.51.51,0,0,0,0-.13c-.07-.54-4.47-32.92,12.94-60.49a13.27,13.27,0,0,0-4-18.25,13,13,0,0,0-7-2.08" transform="translate(0 -10.28)"/></g><path id="Fill_64" data-name="Fill 64" class="cls-12" d="M483.11,465.9c-15.12-4.17-26.63-17-27.54-32.72,0-.76-.06-1.51-.06-2.26a3.91,3.91,0,0,1,0-.68,3.76,3.76,0,0,1,0-.67c0-.75,0-1.5.06-2.26.9-15.7,12.42-28.55,27.54-32.73a135.28,135.28,0,0,0,96.6-154.68c-.25-1.36-.5-2.7-.8-4-.21-1-.42-1.95-.66-2.92a.85.85,0,0,0,0-.17c-.12-.5-.24-1-.38-1.52-.22-1-.47-1.91-.75-2.87-.4-1.46-.81-2.9-1.26-4.34h-4.6c.15.45.3.93.43,1.4a1.06,1.06,0,0,1,.09.25c.26.82.5,1.63.73,2.45.15.54.31,1.06.43,1.6.24.85.47,1.69.68,2.54.14.54.28,1.08.38,1.6.23.87.42,1.72.59,2.59.07.3.12.59.19.89,0,.1,0,.23.07.35q.32,1.49.57,3a130.4,130.4,0,0,1,2.16,23.66c0,58.57-39.33,110.37-95.59,126-17.42,4.81-29.78,19.55-30.75,36.71-.05.84-.07,1.67-.07,2.5,0,.23,0,.47,0,.68s0,.47,0,.68c0,.84,0,1.67.07,2.5,1,17.17,13.33,31.92,30.75,36.72,56.26,15.6,95.59,67.43,95.59,126a130.62,130.62,0,0,1-2.16,23.68,127.29,127.29,0,0,1-10.12,31.74H328.92a128.23,128.23,0,0,1-10.14-31.75,130.29,130.29,0,0,1-2.13-23.66c0-58.55,39.32-110.37,95.59-126,17.41-4.8,29.76-19.56,30.75-36.72.05-.84.07-1.67.07-2.5,0-.21,0-.46,0-.68s0-.46,0-.68c0-.84,0-1.67-.07-2.5-1-17.17-13.34-31.9-30.75-36.72-56.27-15.61-95.59-67.42-95.59-126a130.46,130.46,0,0,1,2.13-23.66c.25-1.37.52-2.74.82-4.1,0,0,0-.07,0-.1.3-1.32.59-2.64.92-4,0-.07,0-.13,0-.22.26-1,.52-2,.81-3,0-.09.06-.16.07-.24.1-.39.21-.79.33-1.17.19-.73.42-1.44.65-2.16a2.25,2.25,0,0,1,.08-.24c.14-.47.28-1,.44-1.41h-4.6c-.45,1.44-.87,2.89-1.27,4.35-.28,1-.52,1.9-.75,2.87-.14.5-.26,1-.38,1.51a.51.51,0,0,0,0,.17c-.25,1-.46,1.95-.66,2.93-.3,1.32-.56,2.66-.8,4a133,133,0,0,0-2.22,24.46,135.12,135.12,0,0,0,98.82,130.22c15.1,4.18,26.63,17,27.51,32.72.06.77.07,1.52.07,2.26,0,.23,0,.47,0,.68s0,.47,0,.68c0,.75,0,1.5-.07,2.26-.88,15.69-12.41,28.55-27.51,32.72a135.32,135.32,0,0,0-84.92,190H568a135.3,135.3,0,0,0-84.91-190" transform="translate(0 -10.28)"/><path id="Fill_66" data-name="Fill 66" class="cls-7" d="M616.4,648.85h0A13,13,0,0,1,603.63,662h-311a13.19,13.19,0,0,1,0-26.36H603.63a13,13,0,0,1,12.77,13.18" transform="translate(0 -10.28)"/><path id="Fill_68" data-name="Fill 68" class="cls-10" d="M549.48,306c.2.9-2.36,2.17-5.71,2.84s-6.24.49-6.44-.41,2.36-2.17,5.71-2.84,6.24-.49,6.44.41" transform="translate(0 -10.28)"/><path id="Fill_70" data-name="Fill 70" class="cls-10" d="M543.39,316.46c.21,1-1.43,2.22-3.66,2.7s-4.21.06-4.42-1,1.43-2.22,3.66-2.7,4.21-.05,4.42,1" transform="translate(0 -10.28)"/><path id="Fill_72" data-name="Fill 72" class="cls-10" d="M533.25,314.43c.21,1-1.43,2.22-3.66,2.7s-4.21.06-4.42-.95,1.43-2.22,3.66-2.7,4.21-.06,4.42.95" transform="translate(0 -10.28)"/><path id="Fill_74" data-name="Fill 74" class="cls-10" d="M464.32,322c.1.51-.72,1.11-1.83,1.36s-2.1,0-2.21-.48.72-1.11,1.83-1.35,2.1,0,2.21.47" transform="translate(0 -10.28)"/><path id="Fill_76" data-name="Fill 76" class="cls-10" d="M517,305.74c.1.5-.72,1.11-1.83,1.36s-2.1,0-2.21-.48.71-1.11,1.83-1.35,2.1,0,2.21.47" transform="translate(0 -10.28)"/><path id="Fill_78" data-name="Fill 78" class="cls-10" d="M496.76,326c.1.5-.72,1.11-1.83,1.35s-2.1,0-2.21-.48.72-1.11,1.83-1.35,2.1,0,2.21.48" transform="translate(0 -10.28)"/><path id="Fill_80" data-name="Fill 80" class="cls-10" d="M472.43,338.18c.1.5-.72,1.11-1.83,1.36s-2.1,0-2.21-.48.71-1.11,1.83-1.35,2.1,0,2.21.47" transform="translate(0 -10.28)"/><path id="Fill_82" data-name="Fill 82" class="cls-10" d="M448,544.78l-.9-.35-.9.35s-7.79,60.49-91.36,90.89H539.35C455.78,605.27,448,544.78,448,544.78" transform="translate(0 -10.28)"/><path id="Fill_84" data-name="Fill 84" class="cls-13" d="M575.85,226.09c0,6.72-57.65,12.16-128.76,12.16s-128.75-5.44-128.75-12.16S376,213.92,447.09,213.92s128.76,5.45,128.76,12.17" transform="translate(0 -10.28)"/><path id="Fill_86" data-name="Fill 86" class="cls-7" d="M603.62,205.81h-311a12.58,12.58,0,0,0-9,3.86,13.41,13.41,0,0,0-3.74,9.33,13,13,0,0,0,12.78,13.17h311a13.19,13.19,0,0,0,0-26.36" transform="translate(0 -10.28)"/><path id="Fill_91" data-name="Fill 91" class="cls-14" d="M44.61,725.9c0,5,47.2,9.12,105.43,9.12s105.44-4.08,105.44-9.12-47.2-9.13-105.44-9.13S44.61,720.86,44.61,725.9" transform="translate(0 -10.28)"/><path id="Fill_93" data-name="Fill 93" class="cls-15" d="M152.12,411.4a51.68,51.68,0,0,0-.5,13l1.52.35.08,0,1.13,0,1.21-1.4.57-8.85-1.53-5.17-10.93-8.19-1.74-.69Z" transform="translate(0 -10.28)"/><path id="Fill_95" data-name="Fill 95" class="cls-10" d="M141.93,435.6l4.58,10.93,0,.06,13.26-.07h1.51a45.66,45.66,0,0,0,8.25,9l-.48,15.86,11,4.52,10-10.14.34-.34a45.64,45.64,0,0,0,12.35.51l-.05,0,10.81,11.53,10.29-4.3.7-.28-.08-14.78a45.2,45.2,0,0,0,9.06-8.3h0l15.46.51.35,0,4.53-11L243.4,429a45.5,45.5,0,0,0,.51-12.44l0,0,11.54-10.71-4.59-11h0l-14.77.08A45.68,45.68,0,0,0,228,386v-.31l.36-15.64-11-4.52,0,0L207,376a45.82,45.82,0,0,0-12.15-.52l-1-1-10-10.52-.09,0-10.89,4.56.07,14.78a45.43,45.43,0,0,0-9.08,8.32l-15.8-.56-4.52,11L154,412.49a45.73,45.73,0,0,0-.51,12.36l0-.06,0,0Z" transform="translate(0 -10.28)"/><path id="Fill_97" data-name="Fill 97" class="cls-10" d="M158.47,425.74a40.55,40.55,0,1,0,35.24-45.24,40.55,40.55,0,0,0-35.24,45.24h0" transform="translate(0 -10.28)"/><path id="Fill_99" data-name="Fill 99" class="cls-16" d="M166.51,423.6a31.42,31.42,0,1,0,27.31-35.06h0a31.43,31.43,0,0,0-27.31,35.06" transform="translate(0 -10.28)"/><path id="Stroke_101" data-name="Stroke 101" class="cls-17" d="M197.69,388.3v4.05" transform="translate(0 -10.28)"/><path id="Stroke_103" data-name="Stroke 103" class="cls-17" d="M219,398.44l-2,2" transform="translate(0 -10.28)"/><path id="Stroke_105" data-name="Stroke 105" class="cls-17" d="M229.12,419.73h-4.05" transform="translate(0 -10.28)"/><path id="Stroke_107" data-name="Stroke 107" class="cls-17" d="M219,441l-2-2" transform="translate(0 -10.28)"/><path id="Stroke_109" data-name="Stroke 109" class="cls-17" d="M197.69,451.15v-4" transform="translate(0 -10.28)"/><path id="Stroke_111" data-name="Stroke 111" class="cls-17" d="M176.4,441l2-2" transform="translate(0 -10.28)"/><path id="Stroke_113" data-name="Stroke 113" class="cls-17" d="M170.32,419.73h-4" transform="translate(0 -10.28)"/><path id="Stroke_115" data-name="Stroke 115" class="cls-17" d="M176.4,398.44l2,2" transform="translate(0 -10.28)"/><path id="Stroke_117" data-name="Stroke 117" class="cls-17" d="M210.41,390.33l-1.1,2" transform="translate(0 -10.28)"/><path id="Stroke_119" data-name="Stroke 119" class="cls-17" d="M227.1,407l-2,1.1" transform="translate(0 -10.28)"/><path id="Stroke_121" data-name="Stroke 121" class="cls-17" d="M227.1,432.45l-2-1.11" transform="translate(0 -10.28)"/><path id="Stroke_123" data-name="Stroke 123" class="cls-17" d="M210.41,449.13l-1.1-2" transform="translate(0 -10.28)"/><path id="Stroke_125" data-name="Stroke 125" class="cls-17" d="M187,449.13l1.11-2" transform="translate(0 -10.28)"/><path id="Stroke_127" data-name="Stroke 127" class="cls-17" d="M168.29,432.45l2-1.11" transform="translate(0 -10.28)"/><path id="Stroke_129" data-name="Stroke 129" class="cls-17" d="M168.29,407l2,1.1" transform="translate(0 -10.28)"/><path id="Stroke_131" data-name="Stroke 131" class="cls-17" d="M185,390.33l1.1,2" transform="translate(0 -10.28)"/><path id="Fill_133" data-name="Fill 133" class="cls-18" d="M196.68,418.71a2,2,0,1,0,2-2h0a2,2,0,0,0-2,2" transform="translate(0 -10.28)"/><path id="Fill_135" data-name="Fill 135" class="cls-19" d="M196.68,420.32a2.93,2.93,0,0,0,2.87,3,2.21,2.21,0,0,0,.37,0L207.69,437l4.1,1.91a.78.78,0,0,0,1.05-.41.75.75,0,0,0,0-.49L212,433.4l-.06,0L201.2,422.62a2.32,2.32,0,0,0,1.22-2.3,3,3,0,0,0-2.62-3l1.83-14.93-1.28-3.52a.66.66,0,0,0-.85-.43.65.65,0,0,0-.41.4l-1.42,3.42v.06L199,417.28a2.82,2.82,0,0,0-2.31,3" transform="translate(0 -10.28)"/><path id="Fill_137" data-name="Fill 137" class="cls-10" d="M199.47,398.85l1.22,2.79a.54.54,0,0,1,0,.31l-2.18,14.73-1.87-14.84a.61.61,0,0,1,.06-.33l1.34-2.68a.8.8,0,0,1,1.1-.28.83.83,0,0,1,.29.3" transform="translate(0 -10.28)"/><path id="Fill_139" data-name="Fill 139" class="cls-10" d="M211.76,436.89l-3.69-1.55a.8.8,0,0,1-.37-.31l-9-14.29,13.16,11.18a.68.68,0,0,1,.25.41l.77,3.73a.81.81,0,0,1-.69.9.84.84,0,0,1-.44-.07" transform="translate(0 -10.28)"/><path id="Fill_141" data-name="Fill 141" class="cls-20" d="M194.65,419.73a3,3,0,1,0,3-3,3,3,0,0,0-3,3h0" transform="translate(0 -10.28)"/><path id="Fill_143" data-name="Fill 143" class="cls-10" d="M194.65,419.73a3,3,0,1,0,3-3,3,3,0,0,0-3,3h0" transform="translate(0 -10.28)"/><path id="Fill_145" data-name="Fill 145" class="cls-21" d="M156.16,376.13s16.17.47,7.6,19.15-7.6-19.15-7.6-19.15" transform="translate(0 -10.28)"/><path id="Fill_147" data-name="Fill 147" class="cls-22" d="M161.68,382.65s4.51,2.74,4.45,17.54c0,.51,1.83,4.88,2,5.4.63,2-.63,2.11-2.34,3-.7,11.16-2.4,11-3.88,11.94-1.7,1.12-14.68-1.52-23-5.61s-11.17-16.27-7.65-23.75,20.68-14.92,30.43-8.47" transform="translate(0 -10.28)"/><path id="Fill_149" data-name="Fill 149" class="cls-21" d="M123.94,394.53c-1.3,7,2.08,17.56,15.6,22.16,0,0,1.2-4.2,2.07-8.3s12.33-8.82,17.3-13.3c.25-.23.48-.46.7-.68,3.53-3.76,3.36-9.64.12-13.65-2.79-3.47-8.95-9.19-20-5.42-9.84,3.36-14.2,10.61-15.81,19.19" transform="translate(0 -10.28)"/><path id="Fill_151" data-name="Fill 151" class="cls-22" d="M157.39,410c-2.19,2.39-2.6,7.23-2.42,11.85.05.79.1,1.57.14,2.33a74.85,74.85,0,0,0,1.26,8.69l-16.06-.41c.6-5.84-.4-15.58-.4-15.58s22.65-12.54,17.48-6.88" transform="translate(0 -10.28)"/><path id="Fill_153" data-name="Fill 153" class="cls-23" d="M154.1,422.77A43.67,43.67,0,0,1,144,416.69c4.28,1.64,10,3.47,10,3.47,0,.88.1,1.75.14,2.61" transform="translate(0 -10.28)"/><path id="Fill_155" data-name="Fill 155" class="cls-24" d="M166.26,534.64l-25.08-26.71S126,523.79,128.81,541.22c1.38,8.57,3.9,13,4.73,17.13.77,3.81,2.74,56.76,1.64,60.48s-6.93,13.8-10.05,24.76c-3.75,13.19-7.56,32.29-10.61,43.7s2,26.65,3,22.79c9.27-33,33.55-70.85,37.52-87.4s7-47.37,11.17-88" transform="translate(0 -10.28)"/><path id="Fill_157" data-name="Fill 157" class="cls-24" d="M125.71,686.36s-7.51,21.29-6.9,24c.36,1.66,2,7.22,2.41,8,.15.31,5.53,4.59,2,4.5s-11.9-11.2-13.14-12.05a5.28,5.28,0,0,1-2.47-5.47c.74-3.27,2.94-5.77,4.56-8.06s2.91-8.79,2.91-8.79Z" transform="translate(0 -10.28)"/><path id="Fill_159" data-name="Fill 159" class="cls-21" d="M129.15,723.41c-1.4-2.22-5.84-4.79-5.84-4.79h0c-.67-.87-1.21-1.43-.94-.87.46.94-2,1.42-3.13.42-4.14-3.42-5.33-8.5-7.37-10.92-2.92-3.43-.87-8-.56-8.72-1-.08-4.91,1.94-6,2.74a11.32,11.32,0,0,0-3.16,3.62,48.57,48.57,0,0,1-2.84,6.64l3.93,3.21,3.81-3.54,1,1.14a9.37,9.37,0,0,1,2,4.25,25.14,25.14,0,0,0,1,3.16,9.85,9.85,0,0,0,2.9,4.13l1.67,1.4a6.86,6.86,0,0,0,4.43,1.63h7.79a1.81,1.81,0,0,0,1.83-1.78,1.79,1.79,0,0,0,0-.23,3.81,3.81,0,0,0-.59-1.48" transform="translate(0 -10.28)"/><path id="Fill_161" data-name="Fill 161" class="cls-24" d="M186.13,721.61c-.53-.71-6.88-2.34-9.78-3.87a17.36,17.36,0,0,1-6.44-7.32c-.53-1.7.38-10,.78-13.45,2.76-23.92,11.23-57.4,13.14-71.37,3.32-24.29,2.42-49.75-3.45-89.74l-32.59-30s-11.45,17.31-9.74,35c1,10.26,9.25,12.57,10.3,16.62S164.9,626.7,164.9,626.7A119.62,119.62,0,0,0,158,655c-1.35,12.77,2.23,27.15,2,41.94-.13,2.88-.25,9.8-1.3,11.9-1.28,2.59-4.21,5.5-4.38,8.9a5.23,5.23,0,0,0,3.56,5c2.41,1,3.93-.32,4.78-.28,5,.24,6,3.75,14.54,4.51a13.53,13.53,0,0,0,8.78-2.74,1.81,1.81,0,0,0,.22-2.53" transform="translate(0 -10.28)"/><path id="Fill_163" data-name="Fill 163" class="cls-21" d="M187.06,725.05a6.5,6.5,0,0,1-1.79,2,8.92,8.92,0,0,1-5.56,1.8h-4.24a9.42,9.42,0,0,1-4.88-1.35,21.89,21.89,0,0,1-2.75-1.83,9,9,0,0,0-4.28-2,11.87,11.87,0,0,0-2.73-.07l-.3,5.27h-5.84c.18-1.82-1.21-6.71-1.48-7.53-.4-1.2.11-3.41.41-4.61a21.85,21.85,0,0,1,3.76-6.11c.24.82,1.47,5.76,5.94,6.53,3.11.56,7.25,3.8,12.66,3.74,1.56,0,3.16-2,2.21-2.41s1.73.06,3.43.69a50.73,50.73,0,0,1,5.5,2.8c.59.35.51,2-.06,3.07" transform="translate(0 -10.28)"/><path id="Fill_165" data-name="Fill 165" class="cls-22" d="M115.57,472.45s1.64,8.54,2.66,12.05,6.09,25.84,10.89,25.45,31.06-22.74,31.06-22.74l-3.72-7.59-23.12,11.24s-2.09-25.52-3.92-31.6Z" transform="translate(0 -10.28)"/><path id="Fill_167" data-name="Fill 167" class="cls-23" d="M121.66,471.83c2.55,9.12,7.46,23.17,9.33,25.81.84,1.18,17-4.72,17-11.06l-16.74-19.2Z" transform="translate(0 -10.28)"/><path id="Fill_169" data-name="Fill 169" class="cls-7" d="M137.88,430.88s-8.12.26-14.29,4.88c-10.18,7.64-8,36.49-8,36.49s-.21,1.53,6.56,1.15a48.31,48.31,0,0,0,12.2-2.33l-2-23.14Z" transform="translate(0 -10.28)"/><path id="Fill_171" data-name="Fill 171" class="cls-7" d="M119.75,449.13s-.9,16.17,2.22,24.33a30.25,30.25,0,0,0,5.77-.71Z" transform="translate(0 -10.28)"/><path id="Fill_173" data-name="Fill 173" class="cls-7" d="M135.85,433.32c.27-2.06.77-4.46,2.47-5.28a4.89,4.89,0,0,1,1.5-.35c5.21-.65,4.61-.94,9.85-.85A13.13,13.13,0,0,1,156,428.1c3,1.71,4.72,5.41,6.19,8.86Z" transform="translate(0 -10.28)"/><path id="Fill_175" data-name="Fill 175" class="cls-7" d="M135.85,433.32c.27-2.06.77-4.46,2.47-5.28a4.89,4.89,0,0,1,1.5-.35c5.21-.65,4.61-.94,9.85-.85A13.13,13.13,0,0,1,156,428.1c3,1.71,4.72,5.41,6.19,8.86Z" transform="translate(0 -10.28)"/><path id="Fill_177" data-name="Fill 177" class="cls-25" d="M115.43,683.43c2.06-9.16,6.81-32.73,10.56-42.78,1-2.61.72-2.54,3-8s6-12.63,6.18-13.84a104.59,104.59,0,0,0,0-13.94.3.3,0,0,1-.07-.23c0-1.13-5.47-42.85-7.29-49.18a53.35,53.35,0,0,1-3.32-21.34c.63-11.43,9.62-25.06,12.08-27.54l41.6-.68s7.17,17.14,7.87,27.74c1.45,22.34-.35,69.07-.35,69.07v.71s-.38,10.55-1.34,17.69c-.2,1.48-.32,4.84-1.1,9.57-1.16,5.16-2.75,13.32-4.44,21.17-.9,4.17-1.74,7.69-2.6,12.61-3.65,20.91-6.34,41.95-6.34,41.95s-6.32,1-11.34-1.27a8.07,8.07,0,0,0,.09-1.63c.47-9.13-3.62-38.18,0-56s5.07-21.6,5.07-21.6l-3.95-19.42c-.06-.33-.14-1.12-.26-1.12C159,610,158,619.13,156.66,624c-1.9,7.1-23.45,45.58-30.67,62.76a133.08,133.08,0,0,0-4.45,12.82s-6.2-.36-8.67-4.22c0,0,.28-2.59,2.11-10.78" transform="translate(0 -10.28)"/><path id="Fill_179" data-name="Fill 179" class="cls-7" d="M177.42,498.86c-1.49-2.93-2.8-15.23-2.28-18.38.55-3.37,3.54-5.18,4.89-12.68a27.69,27.69,0,0,0-4.46-20.39c-3.14-4.54-7.45-13.78-8.34-14.05-13.13-4-15.27-2.08-24.09-1.69A58,58,0,0,0,131.69,433c-4.75,1-10.45,2.62-11.42,9a64.51,64.51,0,0,0,2.78,29.38c2,6.23,14,27.82,11,32-.67,1-2.37,2.76-2.58,4-.75,4.37,6.32,5.44,13.38,6.25,6.42.73,13.07.36,20.31-.13,19.94-1.34,12.86-13.39,12.24-14.61" transform="translate(0 -10.28)"/><path id="Fill_181" data-name="Fill 181" class="cls-21" d="M121.66,445.56c7.66,4.44,17.09,3.93,23.63,2.73-.3-5.06.15-15.37.15-15.37.06,3.69,1.71,12.64,2.14,14.9a45.81,45.81,0,0,0,5.63-1.62s-5.15-24.46-5.15-35.21c0-9.24,10.1-15.59,10.1-15.59l-17.07-21.3a26.44,26.44,0,0,0-17.24,19.33c-1.91,7.8-2.19,52.13-2.19,52.13" transform="translate(0 -10.28)"/><path id="Fill_183" data-name="Fill 183" class="cls-26" d="M137.88,542.4a35.65,35.65,0,0,0,5.89,13l15.17,55.06s.26-2.26.54-4.91C155,586,148.06,558.94,147.4,556.36c-.93-3.69-7.56-5.92-9.52-14" transform="translate(0 -10.28)"/><path id="Fill_185" data-name="Fill 185" class="cls-22" d="M172.35,465s19.25,30.78,26.07,30.78c5,0,32.73-33,32.73-33l-9.41-2.52-22.69,15.56-13.78-22.59Z" transform="translate(0 -10.28)"/><path id="Fill_187" data-name="Fill 187" class="cls-22" d="M243.12,451.89a12.17,12.17,0,0,1,.09-1.71c.22-1.23,1.1-2.28,1.41-3.5a15.81,15.81,0,0,0,.18-2.92c.08-1.11.8-3-.15-3.1.19-.7.48-1.5.64-2.2.12-.54.09-1.58-.57-1.49-1,.12-2.05,1.36-2.67,1.93-.83.76-2.1,2.76-2.84,3.6a10.9,10.9,0,0,1-3.61,2.7s.47-.78.12-1.18c-.55-.61-2.33.48-4.29.74-1,.14-3.49,3-4.32,3.83s-1.6,5.89-1.83,6.94c-.6,2.74-4.27,5.89-4.27,5.89l8.43,3.92c.2.09,1.12-1,1.25-1.19a5.63,5.63,0,0,1,1.9-1.45c2.6-2.39,6.45-3.56,8.68-6.34a7.93,7.93,0,0,0,1.85-4.39v-.08" transform="translate(0 -10.28)"/><path id="Fill_189" data-name="Fill 189" class="cls-23" d="M236.69,443.14c-1.31,1.45-2.47,1.69-3.62,2.36-.91.52-.94,1-1.92,1.54,1.42.3,1.4-.66,3.56-1.54a4,4,0,0,0,2.49-1.93c.15-.36-.22-.7-.51-.43" transform="translate(0 -10.28)"/><path id="Fill_191" data-name="Fill 191" class="cls-7" d="M154.1,430.88c4.26.21,18,1.11,26.35,13,4.71,6.64,9.85,14.45,12.18,20.62-1.12,3.66-8.31,11.11-14.92,11-.33-.24-10.06-11.69-11.92-21Z" transform="translate(0 -10.28)"/><path id="Fill_193" data-name="Fill 193" class="cls-27" d="M111.52,375.2l8.11,5-4-12.17" transform="translate(0 -10.28)"/><path id="Fill_195" data-name="Fill 195" class="cls-27" d="M83.13,358.9a19.27,19.27,0,1,0,19.27-19.27A19.26,19.26,0,0,0,83.13,358.9" transform="translate(0 -10.28)"/><path id="Fill_197" data-name="Fill 197" class="cls-28" d="M100.23,365.28h0l-4.83-7.47A7.75,7.75,0,0,1,94,354.16a8.12,8.12,0,0,1,7.56-8.64h.08l.75,0a8.64,8.64,0,0,1,5.66,2.08,7.82,7.82,0,0,1,2.71,5.19,7.58,7.58,0,0,1-.67,3.81l-3.37,8.16-3.26.27-3.26.28Zm2.18-18.73-.64,0A7,7,0,0,0,95.14,354v.08a6.47,6.47,0,0,0,1.19,3.16l1,1.48,3.46,5.46,2.57-.22,2.58-.22,2.43-6,.69-1.63a6.56,6.56,0,0,0,.59-3.3A7.2,7.2,0,0,0,102.41,346.55Z" transform="translate(0 -10.28)"/><path id="Fill_199" data-name="Fill 199" class="cls-28" d="M103.74,372.11h0a3.07,3.07,0,0,1-3.2-3v-.08l-.2-2.43,5.88-.6.19,2.44a3.24,3.24,0,0,1-2.67,3.63" transform="translate(0 -10.28)"/><path id="Fill_201" data-name="Fill 201" class="cls-28" d="M98.87,355.88a.58.58,0,0,1-.55-.58.6.6,0,0,1,.5-.68l7-.72a.6.6,0,0,1,.6.57h0a.62.62,0,0,1-.5.68l-7,.71h0" transform="translate(0 -10.28)"/><path id="Fill_203" data-name="Fill 203" class="cls-28" d="M103.85,366a.57.57,0,0,1-.55-.53l-.93-11a.58.58,0,0,1,.5-.63.55.55,0,0,1,.6.5v0l.93,11a.58.58,0,0,1-.5.64h-.05" transform="translate(0 -10.28)"/><path id="Fill_205" data-name="Fill 205" class="cls-10" d="M624.51,602l7.26,7.27s9-6.44,9-7.83-6.56-8.44-8.39-8.39-7.83,8.95-7.83,8.95" transform="translate(0 -10.28)"/><path id="Fill_207" data-name="Fill 207" class="cls-10" d="M596.12,602l-7.26,7.27s-9-6.44-9-7.83,6.56-8.44,8.39-8.39,7.83,8.95,7.83,8.95" transform="translate(0 -10.28)"/><path id="Clip_210-2" data-name="Clip 210-2" class="cls-1" d="M0,735H884.05V11.16H0Z" transform="translate(0 -10.28)"/><g class="cls-29"><g id="Grupo_de_máscara_2" data-name="Grupo de máscara 2"><path id="Fill_209" data-name="Fill 209" class="cls-30" d="M608.29,595.12h6.08V589h-6.08Z" transform="translate(0 -10.28)"/><path id="Fill_211" data-name="Fill 211" class="cls-10" d="M579.9,624.52a31.43,31.43,0,1,0,31.43-31.43h0a31.43,31.43,0,0,0-31.43,31.43" transform="translate(0 -10.28)"/><path id="Fill_212" data-name="Fill 212" class="cls-10" d="M638.24,626.37A32.11,32.11,0,0,1,623,653.92,32,32,0,0,0,640.73,625c0-17.63-13.87-31.93-31-31.93a30.11,30.11,0,0,0-15.67,4.38,30.07,30.07,0,0,1,13.17-3c17.11,0,31,14.29,31,31.92" transform="translate(0 -10.28)"/><path id="Fill_213" data-name="Fill 213" class="cls-31" d="M579.9,624.51c0,17.37,13.8,31.43,30.83,31.43a30.21,30.21,0,0,0,17.83-5.79,31.14,31.14,0,0,1-14.47,3.54c-17,0-30.83-13.53-30.83-30.21s13.81-30.21,30.83-30.21a31.24,31.24,0,0,0-3.36-.18c-17,0-30.83,14.07-30.83,31.42" transform="translate(0 -10.28)"/><path id="Fill_214" data-name="Fill 214" class="cls-30" d="M588,624.52a23.32,23.32,0,1,0,23.32-23.32h0A23.32,23.32,0,0,0,588,624.51h0" transform="translate(0 -10.28)"/><path id="Fill_215" data-name="Fill 215" class="cls-32" d="M590,624.52a21.29,21.29,0,1,0,21.29-21.29h0A21.29,21.29,0,0,0,590,624.52h0" transform="translate(0 -10.28)"/><path id="Fill_216" data-name="Fill 216" class="cls-10" d="M605.39,591.06h9.94s1.75-3.47.77-3.78-10.26-.42-11.47,0,.76,3.78.76,3.78" transform="translate(0 -10.28)"/><path id="Fill_217" data-name="Fill 217" class="cls-30" d="M611.14,625.5l.77-.34a.75.75,0,0,0,.38-1l-5.91-14.41a.7.7,0,0,0-.92-.4h0l-.76.33a.74.74,0,0,0-.38,1l5.91,14.41a.71.71,0,0,0,.92.4h0" transform="translate(0 -10.28)"/><path id="Fill_218" data-name="Fill 218" class="cls-30" d="M608.29,624.52a3,3,0,1,0,3-3,3,3,0,0,0-3,3h0" transform="translate(0 -10.28)"/><path id="Fill_219" data-name="Fill 219" class="cls-31" d="M612.24,654.2h0a.2.2,0,0,1-.17-.07A.28.28,0,0,1,612,654a.21.21,0,0,1,.2-.23h.43a5.93,5.93,0,0,1,1.78.18.05.05,0,0,1,0,.1,5.46,5.46,0,0,1-1.61.18h-.58Zm-2.45-.28a2.66,2.66,0,0,1-.83-.16.21.21,0,0,1-.14-.23.22.22,0,0,1,.2-.18.29.29,0,0,1,.1,0,5.41,5.41,0,0,0,.77.27l.35.1a0,0,0,0,1,0,.06.05.05,0,0,1,0,.05,1.74,1.74,0,0,1-.45.06Zm-23.58-38.36a.46.46,0,0,1-.34-.16.39.39,0,0,1-.09-.33,4.79,4.79,0,0,1,.53-1.6l.09-.17c.17-.33.37-.7.7-.81h0l0,0a1.61,1.61,0,0,1-.16.81c-.05.13-.09.25-.13.38-.11.47-.23,1-.32,1.58A.31.31,0,0,1,586.21,615.56Zm2.06-4.61a.44.44,0,0,1-.34-.2.34.34,0,0,1,0-.35,11.76,11.76,0,0,1,1.62-2.38.28.28,0,0,1,.21-.1.33.33,0,0,1,.23.54,11.68,11.68,0,0,0-1.44,2.3A.29.29,0,0,1,588.27,611Zm7.92-7.74a.66.66,0,0,1-.59-.49.7.7,0,0,1,.26-.8,19.44,19.44,0,0,1,4.2-2.11.35.35,0,0,1,.14,0,.43.43,0,0,1,.36.32.42.42,0,0,1-.18.47c-1.18.68-2.32,1.42-3.42,2.21l-.42.3a.65.65,0,0,1-.35.13Z" transform="translate(0 -10.28)"/><path id="Fill_220" data-name="Fill 220" class="cls-33" d="M522.39,683c-3.61-7.13-4.58-15.75-1.39-23.24,1.85-4.34,4.44-8.61,8.19-11.54a31.19,31.19,0,0,1,11.14-5.44c6.89-1.82,14.55-1.22,20.71,2.4a29.47,29.47,0,0,1,11.37,13.3c2.42,5.24,3.43,11.74,8.64,15.11,1.48,1,4,1.37,4.68,3.16.87,2.14-.71,4.27-1.56,6.12l-3,6.62c-.71,1.59-1.41,4.32-3.3,4.9s-3.77-.93-5.47-1.4c-4.5-1.24-9.38.52-13.48,2.32-4.7,2.07-12.41,1-17.57.54-9.55-.84-14.64-4.32-19-12.84" transform="translate(0 -10.28)"/><path id="Stroke_221" data-name="Stroke 221" class="cls-34" d="M584,684.88s-14.06-7-20.77-10.83a30.06,30.06,0,0,1-6.07-4.24c-1.58-1.41-4.77-4.76-2.72-7,2.41-2.61,5.25,1.64,5.23,4a9.06,9.06,0,0,1-3.28,6c-2.82,2-7.16,1.5-9.85-.17a2.27,2.27,0,0,1,1.39-4.18c2.18.14,8.31,4.78,6.9,8.51a8.4,8.4,0,0,1-4.19,4.43c-3.36,1.66-7.72-2.65-3-4.18,3.36-1.09,7.65.08,10.8,1.32,8.62,3.38,15.29,6.27,23.84,9.81" transform="translate(0 -10.28)"/><path id="Fill_222" data-name="Fill 222" class="cls-7" d="M581.37,694.47,588,678.94l-1.46-.69-6.65,15.53Z" transform="translate(0 -10.28)"/><path id="Fill_223" data-name="Fill 223" class="cls-28" d="M585.22,695.37c-.2-.4-.75,1-1.17,1.13l-.18-1c-.41.14-.87,1-1.07.58l-.13-.24a1,1,0,0,0-1.16-.43,1,1,0,0,1-1.15-.41l-.35-.64a.83.83,0,0,1,0-.75l6.67-14.72a.84.84,0,0,1,.59-.48l.71-.16a1,1,0,0,1,1.08.57.94.94,0,0,0,1.1.57l.26-.06a.94.94,0,0,1,1.08.52l.06.14a1,1,0,0,0,1.1.51l.2,0a1,1,0,0,1,1.11.54l0,.09a1.73,1.73,0,0,1,0,1.34l-6,13.24c-.19.4-.21-.55-.67-.38l-.8-1.7c-.42.15-.52,2.48-.72,2.08Z" transform="translate(0 -10.28)"/><path id="Fill_224" data-name="Fill 224" class="cls-7" d="M582.23,694.47l-.12,0a.29.29,0,0,1-.16-.38h0l3.47-7.53a.31.31,0,0,1,.4-.15.3.3,0,0,1,.14.39l-3.46,7.53a.31.31,0,0,1-.27.17" transform="translate(0 -10.28)"/><path id="Fill_225" data-name="Fill 225" class="cls-7" d="M586.22,684.33l-.1,0A.26.26,0,0,1,586,684l1.55-3.56a.24.24,0,0,1,.31-.13h0a.25.25,0,0,1,.12.33l-1.55,3.56a.24.24,0,0,1-.22.14" transform="translate(0 -10.28)"/><path id="Fill_226" data-name="Fill 226" class="cls-7" d="M586.2,690.41a.15.15,0,0,1-.09,0,.28.28,0,0,1-.11-.34l3.63-9.62a.21.21,0,0,1,.24-.15l0,0a.27.27,0,0,1,.11.34l-3.62,9.62a.24.24,0,0,1-.2.16" transform="translate(0 -10.28)"/><path id="Fill_227" data-name="Fill 227" class="cls-7" d="M584.25,696.5l-.12,0a.33.33,0,0,1-.15-.41l1.45-3.43a.29.29,0,0,1,.37-.17h0a.33.33,0,0,1,.15.41l-1.45,3.43a.28.28,0,0,1-.26.19" transform="translate(0 -10.28)"/><path id="Fill_228" data-name="Fill 228" class="cls-7" d="M590.22,688.39a.11.11,0,0,1-.07,0,.35.35,0,0,1-.1-.36l1.67-5.53c0-.14.15-.2.24-.14a.32.32,0,0,1,.09.36l-1.66,5.53c0,.1-.1.17-.17.17" transform="translate(0 -10.28)"/><path id="Fill_229" data-name="Fill 229" class="cls-7" d="M586.44,692.44a.32.32,0,0,1-.13,0c-.15,0-.22-.16-.15-.26l1.12-1.63a.37.37,0,0,1,.4-.1c.16.05.23.17.16.27l-1.12,1.62a.31.31,0,0,1-.28.12" transform="translate(0 -10.28)"/><path id="Fill_230" data-name="Fill 230" class="cls-7" d="M586.8,686.1a.28.28,0,0,1-.13,0,.3.3,0,0,1-.15-.4l.4-.9a.31.31,0,0,1,.41-.16.31.31,0,0,1,.15.41l-.4.9a.31.31,0,0,1-.28.18" transform="translate(0 -10.28)"/><path id="Fill_231" data-name="Fill 231" class="cls-33" d="M522.39,683.24c-3.61-7-4.58-15.43-1.39-22.77.37-.84.76-1.67,1.18-2.5-4.58,12,1.13,26.64,13.7,31.72,10.58,4.28,20.29,2.54,29.57-5.81,1.94-1.75,4.1-2.66,6.78-1.89,2.48.71,4.51,2.47,7,3a2.21,2.21,0,0,0,1.17,0,2.32,2.32,0,0,0,.87-.64,16.65,16.65,0,0,0,4.14-7.74,2,2,0,0,1,.27.48c.87,2.09-.71,4.17-1.55,6q-1.51,3.24-3,6.49c-.72,1.55-1.42,4.23-3.31,4.8s-3.77-.92-5.47-1.38c-4.5-1.21-9.38.51-13.48,2.27-4.7,2-12.4,1-17.57.53-9.56-.82-14.64-4.23-19-12.58" transform="translate(0 -10.28)"/><path id="Fill_232" data-name="Fill 232" class="cls-14" d="M511,727.93c0,5,73.54,9.12,164.24,9.12s164.24-4.08,164.24-9.12-73.53-9.13-164.24-9.13S511,722.89,511,727.93" transform="translate(0 -10.28)"/><path id="Fill_233" data-name="Fill 233" class="cls-24" d="M718,700.55s-.47,13.14.16,16.15c.48,2.37,7.15,2.6,8,1.35s1.85-16.51,1.85-16.51" transform="translate(0 -10.28)"/><path id="Fill_234" data-name="Fill 234" class="cls-35" d="M727.76,720.32c0,1.65.8,6.59-1.16,6.59H705.94c-5.29,0-8.29-.69-8.42-1.65-.55-3.92,17.91-10.53,19.67-10.51a.54.54,0,0,1,.22,0,2.58,2.58,0,0,1,1.3,1.18,4.79,4.79,0,0,0,6.16,2.07,4.42,4.42,0,0,0,1.23-.91,3.22,3.22,0,0,1,1.66,3.18" transform="translate(0 -10.28)"/><path id="Fill_235" data-name="Fill 235" class="cls-24" d="M792.8,704s2.43,6,3.49,8,8.29-.46,8.66-1.83-5.5-11.61-5.5-11.61" transform="translate(0 -10.28)"/><path id="Fill_236" data-name="Fill 236" class="cls-35" d="M807.52,711c2.16,4.26,1.64,6.25,1,6.65l-5.76,3.4,0,0c-.19.09-2.65,1.31-4.52,2.45a25.05,25.05,0,0,1-6.4,2.64c-5.89,1.33-10.44.7-10.91-.1-1.89-3.22,12.69-15.6,14.35-16.26a.67.67,0,0,1,.24,0,2.51,2.51,0,0,1,1.67.63,4.36,4.36,0,0,0,5,.58,5,5,0,0,0,2.13-2.29,4.39,4.39,0,0,1,3.27,2.32" transform="translate(0 -10.28)"/><path id="Fill_237" data-name="Fill 237" class="cls-25" d="M802.31,700.17c.16.37-.12.4-.44.64-5.12,3.64-8,4-8,4s-.76,0-.78,0c-1.19-1.86-37.76-60.54-44.91-71.88-.15-.25-.29-.48-.42-.68,0,0-.08-.06-.08-.12a14.16,14.16,0,0,1-1.16-2.26c0-.14-.13-.29-.17-.4a5.67,5.67,0,0,1-.38-1.21c-.06-.24-.1-.47-.14-.73,0,0,0-.08,0-.12-1-5-3.38-13.69-6.27-23.77-1.64-5.71-3.42-11.86-5.21-18.07-1.42-4.87-2.83-9.72-4.12-14.32L719.84,531a.86.86,0,0,1,.62-1,.76.76,0,0,1,.16,0l8.34-.55c10.6-.71,23.53-6,26.29-7.19a.88.88,0,0,1,1,.19c12.15,12.07,9.84,27.2,8.36,34.78,0,0,0,0,0,.05a40.31,40.31,0,0,0-.59,10.57c.85,10.89,2.47,31.23,2.63,45.36v0c0,.39.62,8.82,8.71,18.8a42.44,42.44,0,0,1,4.31,5.41c12.08,18.12,15.85,46.51,22.56,62.38" transform="translate(0 -10.28)"/><path id="Fill_238" data-name="Fill 238" class="cls-26" d="M792.8,704.61c-1.15-1.86-37.65-60.3-44.61-71.63-.14-.25-.28-.48-.4-.68,0,0-.07-.06-.07-.11a13.25,13.25,0,0,1-1.13-2.26c-.06-.15-.13-.29-.17-.4a5.91,5.91,0,0,1-.37-1.22c-.06-.24-.1-.47-.14-.73,0,0,0-.07,0-.12-1-5-3.37-13.23-6.15-23.18a.9.9,0,0,1,0-.54l16.56-44.56a.84.84,0,0,1,.79-.56h4.25a.84.84,0,0,1,.84.86.75.75,0,0,1,0,.26c-1.44,4.46-6.78,21-9.16,29.12-2.75,9.36-3.51,24-3.75,29.41-.54,11.79,13.65,31.81,17.72,39.1,4.34,7.81,24.22,44,25.84,47.24" transform="translate(0 -10.28)"/><path id="Fill_239" data-name="Fill 239" class="cls-25" d="M754.83,567.14c1.26-.58,6.32-3.37,9.53-12.25a.86.86,0,0,0-.35-1c-4.89-3-39-23.93-47.13-21.38-2.5.79-7.24,78.51-7.2,80.16,0,.82,0,9.24,0,10.23.54,13.23,7.45,79.31,8,86.61a.83.83,0,0,0,.71.78,43.09,43.09,0,0,0,8.1.53c.34-.29.45-.41.79-.7,2.13-17.69,10.49-51.12,5.81-72-.06-.26-.09-.51-.14-.77,0-.41-.08-1-.17-1.65-1.12-9.22-1.15-6.53,1.42-18.16a.5.5,0,0,1,0-.13c5.76-14.54,16.61-41,20.18-49.83a.8.8,0,0,1,.42-.43" transform="translate(0 -10.28)"/><path id="Fill_240" data-name="Fill 240" class="cls-7" d="M768.46,475c0,4.48-.3,8.94-.65,13.23-.46,5.26-1.09,10.28-1.73,14.82-1.54,10.84-3.24,18.89-3.08,20.82a10.85,10.85,0,0,0,1.07,3.47,2.32,2.32,0,0,1-.5,2.68c-.7.31-1.43.6-2.18.89-18.51,6.92-45.74,1-45.74,1-1.13.09-2.27-.82-1.82-3,.34-1.65,2-9.68,2-11.37s.38-6.9,1.25-14.26c.3-2.62.67-5.47,1.09-8.52.35-2.59.75-5.31,1.17-8.12.5-3.26.93-6.45,1.36-9.57.46-3.53.91-7,1.39-10.34a138.29,138.29,0,0,1,3.43-16.88,71.9,71.9,0,0,1,5-13.15c5.16-10.13,17.64-11.72,19.81-11.93a.74.74,0,0,1,.56.14c9.32,6.36,14.06,17.3,16.17,29.68A116,116,0,0,1,768.46,475" transform="translate(0 -10.28)"/><path id="Fill_241" data-name="Fill 241" class="cls-36" d="M750.22,448.6C749.49,458,746.09,488.45,732,502a.9.9,0,0,1-.19.15c-.73.4-5.09,2.57-13.29,1.44a.86.86,0,0,1-.74-1c.55-4.59,1.25-9.9,2.1-15.56a.84.84,0,0,1,.17-.4l3.52-25.49s3.59-12.34,8.4-17.31c3-3.15,16.74,4.19,16.74,4.19a.84.84,0,0,1,1.17-.18.85.85,0,0,1,.33.76" transform="translate(0 -10.28)"/><path id="Fill_242" data-name="Fill 242" class="cls-23" d="M678.94,542.4s-4.26,1.61-5.77,4.05h6.09" transform="translate(0 -10.28)"/><path id="Fill_243" data-name="Fill 243" class="cls-11" d="M644.72,635.67l.06,56.71-58.8.06V635.73Z" transform="translate(0 -10.28)"/><path id="Fill_244" data-name="Fill 244" class="cls-37" d="M588,635.67v56.76H573.87l0-56.76Z" transform="translate(0 -10.28)"/><path id="Fill_245" data-name="Fill 245" class="cls-38" d="M652.9,649.86H593.51L586,635.67h59.39Z" transform="translate(0 -10.28)"/><path id="Fill_246" data-name="Fill 246" class="cls-39" d="M529.22,696.5H664.44a8,8,0,0,0,7.92-7.93V552.49a2,2,0,0,1,1.95-2H697.5a2,2,0,0,0,0-4.09H674.31a6,6,0,0,0-6,6V688.57a3.86,3.86,0,0,1-3.84,3.85H529.22a2,2,0,0,0,0,4.08" transform="translate(0 -10.28)"/><path id="Fill_247" data-name="Fill 247" class="cls-40" d="M630.59,711.7a15.21,15.21,0,1,0,15.21-15.2,15.21,15.21,0,0,0-15.21,15.2h0" transform="translate(0 -10.28)"/><path id="Fill_248" data-name="Fill 248" class="cls-8" d="M638.7,711.71a7.1,7.1,0,1,0,7.1-7.1h0a7.1,7.1,0,0,0-7.1,7.1" transform="translate(0 -10.28)"/><path id="Fill_249" data-name="Fill 249" class="cls-40" d="M535.29,711.7a15.21,15.21,0,1,0,15.21-15.2,15.21,15.21,0,0,0-15.21,15.2h0" transform="translate(0 -10.28)"/><path id="Fill_250" data-name="Fill 250" class="cls-8" d="M543.41,711.71a7.1,7.1,0,1,0,7.1-7.1h0a7.1,7.1,0,0,0-7.1,7.1" transform="translate(0 -10.28)"/><path id="Fill_251" data-name="Fill 251" class="cls-24" d="M747.21,454.41a40.11,40.11,0,0,0,1-7.4c-.81-7.56-8.76-6.18-10.2-5.26-1.66,1-5.83,4.28-10.5,18.21-3.22,9.59-5.14,17-6.34,21.6-.38,1.38-.91,3.05-1.33,4.45l9.57,13.81c7.88-5,15.26-31.85,17.83-45.41" transform="translate(0 -10.28)"/><path id="Fill_252" data-name="Fill 252" class="cls-24" d="M714.23,497.64c-4.27,6.11-19.72,29.93-26.75,38.54l5.27,4.19c.22-.37.46-.75.72-1.13,0,0,2.37-1.56,2.43-1.6,4.71-5.11,10-9.42,17.53-17,7.81-7.86,15-16.1,17.93-21.18.34-.59,4.32-7.53,4.38-8.31l-15.27-7.55c.22.31-3.14,9.61-6.24,14" transform="translate(0 -10.28)"/><path id="Fill_253" data-name="Fill 253" class="cls-24" d="M687.52,536.16a7,7,0,0,1-2.54,2.28c-1.64.84-4.07,2.59-5.71,3.26s-4.89,8.33-3.88,9.27,7.32,2.55,11.1.74c3.61-1.74,2.27-4.12,3.15-5.54a103,103,0,0,1,6.43-8.68L694.24,536Z" transform="translate(0 -10.28)"/><path id="Fill_254" data-name="Fill 254" class="cls-24" d="M752.25,425.12a7.32,7.32,0,0,1-1.43,1.8.08.08,0,0,0,0,0c-3.44,3.22-9.54,3.82-12.16,3.92a.85.85,0,0,1-.9-.79.87.87,0,0,1,0-.23,11.82,11.82,0,0,0-.63-5.92.9.9,0,0,0-1.14-.54h0c-4.43,1.6-8.63,2.36-11.3,1.35a1,1,0,0,1-.37-.25,29.48,29.48,0,0,1-4.8-6.91.85.85,0,0,0-.88-.46c-1.24.16-3,.21-3.39-.79-.48-1.3.43-5.83.8-7.53l-.06-.19a12.73,12.73,0,0,0,0-4.31c-.11-.42-1-.9-1.26-1.22a24.12,24.12,0,0,1-3-8.32.82.82,0,0,1,.34-.81c1.89-1.31,9.47-6.57,10.07-6.69s18.12-3.26,18.72-3,9.41,10.25,10.56,21.17a15.2,15.2,0,0,1-1.86,9.66h0s-.17,7.67,2.69,10" transform="translate(0 -10.28)"/><path id="Fill_255" data-name="Fill 255" class="cls-7" d="M725.89,463.13c3,3.76,15,7.95,20,8.3,2.78-7.45,11.86-31.57,1.75-35.75-11.15-4.62-17.86,13.26-21.7,27.45" transform="translate(0 -10.28)"/><path id="Fill_256" data-name="Fill 256" class="cls-24" d="M750.22,426.76c-3.53,3.38-9.8,4-12.49,4.12a.89.89,0,0,1-.93-.84.65.65,0,0,1,0-.24,13.07,13.07,0,0,0-.75-6.49.9.9,0,0,1,.29-1A31.31,31.31,0,0,0,740,419a.9.9,0,0,1,1.27-.07.89.89,0,0,1,.3.7l-.38,8.07a.88.88,0,0,0,.82.93c1.73.14,5.67.18,8.26-1.88" transform="translate(0 -10.28)"/><path id="Fill_257" data-name="Fill 257" class="cls-30" d="M714.25,398.14c6.16,3.5,16.57.05,19.18,1.57s3.57,7.86,4.77,8.06,1-1.7.84-4-.53-4.95,3.59-4.18c1.83.32,2.9,5.56,4.22,9.66,1,3.11,1.8,4.54,2.37,5.17a.85.85,0,0,0,1.21,0,.74.74,0,0,0,.16-.19c6.65-11.45,5.32-36.78-12.37-36.61a.87.87,0,0,1-.51-.17,16,16,0,0,0-10.91-3.27h-.11c-5,.51-20,5.47-22.53,10.38-3,5.79,6.91,11.75,10.09,13.57" transform="translate(0 -10.28)"/><g id="Group_260" data-name="Group 260"><path id="Fill_258" data-name="Fill 258" class="cls-7" d="M761.86,370.94l-7.47,4,3.74-9.72" transform="translate(0 -10.28)"/><path id="Fill_259" data-name="Fill 259" class="cls-7" d="M785.05,358.52a15.8,15.8,0,1,1-15.8-15.8h0a15.8,15.8,0,0,1,15.8,15.8h0" transform="translate(0 -10.28)"/></g><path id="Fill_261" data-name="Fill 261" class="cls-8" d="M768.81,367.26a7.68,7.68,0,0,1-2-.27l.16-1.42a7.54,7.54,0,0,1-2-.88l-.9,1.12a8,8,0,0,1-2.74-2.79l1.13-.9a7.24,7.24,0,0,1-.83-2.06l-1.43.16a7.92,7.92,0,0,1,0-3.9l1.44.16a7.24,7.24,0,0,1,.88-2l-1.13-.9a7.69,7.69,0,0,1,1.17-1.49,7.44,7.44,0,0,1,1.61-1.24l.9,1.13a7.42,7.42,0,0,1,2.07-.83l-.17-1.43a7.52,7.52,0,0,1,1.89-.23,8.11,8.11,0,0,1,2,.26l-.16,1.44a8,8,0,0,1,1.56.61l.08,0a1,1,0,0,1,.17.1l.11.07.11.06.91-1.13a6.76,6.76,0,0,1,.73.5l.16.12a7.94,7.94,0,0,1,1.84,2.16l-1.13.91a7.48,7.48,0,0,1,.83,2.05l1.43-.16a7.85,7.85,0,0,1,0,3.91l-1.43-.16a7.65,7.65,0,0,1-.87,2l1.11.89a7.39,7.39,0,0,1-1.17,1.5,7.77,7.77,0,0,1-1.61,1.24l-.9-1.12a7.3,7.3,0,0,1-2.07.83l.16,1.42A7.87,7.87,0,0,1,768.81,367.26Zm0-13.48h-.15a4.58,4.58,0,0,0,.15,9.16H769a4.58,4.58,0,0,0-.15-9.16Z" transform="translate(0 -10.28)"/><path id="Fill_262" data-name="Fill 262" class="cls-30" d="M336.72,46.71a5.58,5.58,0,0,0-3.44,4.1,5.41,5.41,0,0,0,1.82,5c-1.64,0-2.74,1.86-2.55,3.43a7.53,7.53,0,0,0,2.43,4c1.29,1.32,2.87,2.63,4.76,2.66a5.48,5.48,0,0,0,3.65-1.53,6.4,6.4,0,0,0,1.7-2.26,10.18,10.18,0,0,0,.62-3.13q.5-5.59,1-11.19a2.61,2.61,0,0,0-.46-2.16" transform="translate(0 -10.28)"/><path id="Fill_263" data-name="Fill 263" class="cls-24" d="M368.41,72c.25,4.8-.1,13.17,1.32,14.41s11.46,1.19,11.46,1.19-21.88,19.93-23.35,18.82S336.91,90,341.28,89.22s8.65-.62,8.53-2.8-.25-4.37-.37-6.55" transform="translate(0 -10.28)"/><path id="Fill_264" data-name="Fill 264" class="cls-24" d="M368.41,72c.25,4.8-.1,13.17,1.32,14.41s11.46,1.19,11.46,1.19-21.88,19.93-23.35,18.82S336.91,90,341.28,89.22s8.65-.62,8.53-2.8-.25-4.37-.37-6.55" transform="translate(0 -10.28)"/><path id="Fill_265" data-name="Fill 265" class="cls-2" d="M401.47,144.51l-9.7,31.66-3.35,3.63s-29.05,3.27-37.93,3.67l-1.05,0c-7.3.16-6.93-3.61-6.93-3.61-.07-1.69-.2-3.88-.36-6.33-.61-9.06-1.7-21.76-2.89-26.75-1.4-5.95-2-8.14-3.26-13.78-2.72-12.54-2.6-14.92-5.5-30.4l18.93-15.08s2,5.78,9.9,5.87c10.61.13,13.91-7.24,13.91-7.24l25.81,17Z" transform="translate(0 -10.28)"/><path id="Fill_266" data-name="Fill 266" class="cls-24" d="M368.92,66.76a54.26,54.26,0,0,1-2.19,7.16c-1.64,4.28-4.06,5.82-8.57,5.93l-9.51.23c-2.43,0-5.46.14-7.43-1.58s-2-4.55-2.42-6.91q-.82-4.52-1.35-9.09a134.61,134.61,0,0,1-.84-18,14.42,14.42,0,0,1,.21-2.46,1.82,1.82,0,0,1,.41-.9,2,2,0,0,1,1.15-.45,96.52,96.52,0,0,1,18-1.15c4.25.12,8.75.61,12.1,3.22s5,6.89,6.44,10.93c.23.65.4,1.52-.16,1.91" transform="translate(0 -10.28)"/><path id="Fill_267" data-name="Fill 267" class="cls-41" d="M300.09,286a92.66,92.66,0,0,0,1.86,9.92c.82,2.53,7.77.2,8.22-1.43S308,280.83,308,280.83" transform="translate(0 -10.28)"/><path id="Fill_268" data-name="Fill 268" class="cls-21" d="M313,295.47c.58,2.29,1.3,6.67,1.3,6.67l-6.63,3-1.09-1.07a12.33,12.33,0,0,1-3.67,3.07,26.7,26.7,0,0,1-6.42,1.87c-5.79.65-10.05-.49-10.4-1.33-1.43-3.51,6.25-4.45,7.77-4.87a10.47,10.47,0,0,0,7.28-7.63c.34-1.84-.1-2.17.88-2.11a2.29,2.29,0,0,1,1.66.81,4.06,4.06,0,0,0,4.71,1.15,5.09,5.09,0,0,0,2.35-2.05,2.93,2.93,0,0,1,2.26,2.47" transform="translate(0 -10.28)"/><path id="Fill_269" data-name="Fill 269" class="cls-25" d="M348.75,183.31l-19,23.3c-.76.16-1.51.3-2.27.42A104.09,104.09,0,0,1,312,208.36a110.59,110.59,0,0,1-16.27-.93c1.48,4.31,5.1,9.82,6.47,15.86,4.55,20,6.13,46.83,7.3,63.43,0,0-2.2,4.25-9.2,1-10.46-26.23-28.72-79.42-28.55-90.94,0-2.72,1.48-5.21,4.07-7.48.14-.14.27-.24.41-.37a41.72,41.72,0,0,1,12.26-6.4,3.26,3.26,0,0,0,.44-.15c12.4-4.41,30.4-7.37,50.35-8.91l.46,0c.29,0,.6-.05.91-.07v0c.15,2.45.27,4.63.34,6.32,0,0-.36,3.79,6.78,3.63l1,0" transform="translate(0 -10.28)"/><path id="Fill_270" data-name="Fill 270" class="cls-42" d="M348.75,183.15l-18.94,23c-.75.15-1.51.29-2.26.41A91.09,91.09,0,0,1,312,207.84a12.84,12.84,0,0,1-1.32-3.39c-.33-1.58-.16-3.23-.43-4.81a11.11,11.11,0,0,0-5.44-7.33,24.23,24.23,0,0,0-8.88-2.89c-7-1.12-18.82-.45-20.07-.36h-.1c.17-.12.34-.26.51-.36a53.53,53.53,0,0,1,12.24-6.3l.45-.16c16.45-6.1,37.92-8,50.28-8.78l.46,0,.91,0c.15,2.42.27,4.57.34,6.24,0,0-.36,3.73,6.77,3.57l1,0" transform="translate(0 -10.28)"/><path id="Fill_271" data-name="Fill 271" class="cls-41" d="M318.34,300.45s0,7.37.35,10,6.89,1.77,7.52.28-.16-13.67-.16-13.67" transform="translate(0 -10.28)"/><path id="Fill_272" data-name="Fill 272" class="cls-21" d="M328.3,311.42c.19,2.26.17,6.53.17,6.53l-6.93,1.7-.89-1.2a11.93,11.93,0,0,1-4.07,2.27,26.72,26.72,0,0,1-6.55.64c-5.73-.39-9.68-2.21-9.88-3.07-.82-3.57,6.8-3.12,8.35-3.25a10.06,10.06,0,0,0,8.31-6c.63-1.68.26-2.06,1.21-1.84a2.31,2.31,0,0,1,1.48,1.07,4.1,4.1,0,0,0,4.39,1.9,4.94,4.94,0,0,0,2.62-1.53,2.9,2.9,0,0,1,1.79,2.74" transform="translate(0 -10.28)"/><path id="Fill_273" data-name="Fill 273" class="cls-25" d="M396.17,177.42c2.84,6.52,4.7,18.29,1.86,23.33-2.5,4.43-3.68,7.16-7.94,8.55-18.17,5.95-35.39,3.5-55.38.88,8.46,22.6-3.81,71-5.72,91.51-7.69,3.37-12-.21-12-.21.87-41.77-8.56-100.11-2.85-110.09,3.47-6.07,44.87-14.07,45.69-14" transform="translate(0 -10.28)"/><path id="Fill_274" data-name="Fill 274" class="cls-30" d="M364.22,60.67c.36-1.46,2.63-1.57,3.66-.47s1.15,2.74,1.21,4.24a10,10,0,0,1-1.84,5.35c-1,1.58-2.45,2.5-3.8,1.2-.11,2.72,2.09,4.92,4,5a4.41,4.41,0,0,0,4.37-3c8.24,3,10.84-8.89,11.35-14.85a24.52,24.52,0,0,0-3.71-14.28,10.12,10.12,0,0,0-6-4.5c-.26-3-2.47-5.61-5.11-7.12a24.77,24.77,0,0,0-8-2.8c-1.84-.36-6.84,1-7.78,2.86-3.5-2-6.62-.08-9.4.25s-5.88,2.9-4.69,5.43c-4.36-1.33-9.09,3.64-7.79,8s7.63,6,11.12,3.13c1.28,2.85,4.53,4.46,7.66,4.48a16.41,16.41,0,0,0,8.75-3,6.56,6.56,0,0,0-.31,5.7c.85,1.88,1.55,3.27,4.33,2.7,0,0-.24,4.33.74,3.92s1.22-2.25,1.22-2.25" transform="translate(0 -10.28)"/><path id="Fill_275" data-name="Fill 275" class="cls-2" d="M308.47,165.26c11.13-15.63,17.08-27.95,26.77-44.46l13.51-32.59s-4.55.24-5.44.31a43.05,43.05,0,0,0-11.25,2.08c-5.17,1.86-10.5,5.28-13,10.2-2.24,4.38-3.61,9.14-5.51,13.67-2.12,5.06-4.37,10.06-6.63,15.06-4.49,9.91-9.1,19.81-12.89,30" transform="translate(0 -10.28)"/><path id="Fill_276" data-name="Fill 276" class="cls-43" d="M332.53,123.45l-1.7-10.91-12.49,29.34,4.14,1.07Z" transform="translate(0 -10.28)"/><path id="Fill_277" data-name="Fill 277" d="M397.32,103a373.43,373.43,0,0,1,0,39c-.69,13-2.85,25.82-4,38.78-.07.74,1.09.88,1.27.18,3-12.31,3.73-25.51,4.38-38.13a329.11,329.11,0,0,0-.38-39.85c-.05-.84-1.35-.86-1.31,0" transform="translate(0 -10.28)"/><path id="Fill_278" data-name="Fill 278" class="cls-44" d="M277.79,183.51H379.17v-4.06H277.79Z" transform="translate(0 -10.28)"/><path id="Fill_279" data-name="Fill 279" class="cls-44" d="M261.8,183.51h80.87l-14.5-48.24a6.23,6.23,0,0,0-5.94-4.48H251.41a4.09,4.09,0,0,0-4,4.16,3.85,3.85,0,0,0,.18,1.16Z" transform="translate(0 -10.28)"/><path id="Fill_280" data-name="Fill 280" class="cls-45" d="M259,183.51h79.66l-14.5-48.24a6.25,6.25,0,0,0-5.95-4.48H247.35a4.09,4.09,0,0,0-4,4.16,4.2,4.2,0,0,0,.19,1.16l13.89,46.21a1.65,1.65,0,0,0,1.57,1.19" transform="translate(0 -10.28)"/><path id="Fill_281" data-name="Fill 281" class="cls-44" d="M296,157.15a8.11,8.11,0,1,1-8.11-8.11h0a8.11,8.11,0,0,1,8.11,8.11h0" transform="translate(0 -10.28)"/><path id="Fill_282" data-name="Fill 282" class="cls-43" d="M385.72,111.14c-4.15,18.84-5.45,40.58-6.62,54.06-15.54,1.15-19.89,7.15-34.13,13.53,0,0-11.23-1.88-12.41,2.38-.68,2.46,13.15,4.42,13.15,4.42,13.19.07,45.15-6.15,47.51-6.8s12-48.63,12.3-72.78c0-3.43-.08-7.16-2.21-9.83a12.75,12.75,0,0,0-4.3-3.19c-9.28-4.78-16.15-6.09-26.55-6.75" transform="translate(0 -10.28)"/><path id="Fill_283" data-name="Fill 283" class="cls-41" d="M345.47,181.88c-1.55-2.18-4.38-2.49-6.86-2.42a46,46,0,0,0-5.5.49c-.84.12-1.79.34-1.88,1.34s4,0,6.2.7a96.8,96.8,0,0,1-12.74.39,3.19,3.19,0,0,0-1.47.17,1.34,1.34,0,0,0-.83,1.24,1.76,1.76,0,0,0,.59,1.08,8.12,8.12,0,0,0,4.38,2c6.5,1.27,13.33,1,19.37-1.9" transform="translate(0 -10.28)"/><path id="Fill_284" data-name="Fill 284" class="cls-2" d="M385.62,111.12c-.34,20.14-3.21,38.42-2.82,58.56-15.6,1.15-23.54,4.19-37.83,10.56a7.53,7.53,0,0,0,.47,5.24c1.09.4,46.68-1.53,50.43-5,3.37-3.11,9.37-50.42,9.65-74.55,0-3.43-.08-7.15-2.22-9.83A13,13,0,0,0,399,92.92c-9.33-4.77-16.23-6.08-26.68-6.74" transform="translate(0 -10.28)"/><path id="Fill_285" data-name="Fill 285" class="cls-24" d="M338.46,59.82s-4.52,8.56-3.83,9.65,6,0,6,0" transform="translate(0 -10.28)"/><g id="Group_288" data-name="Group 288"><path id="Fill_286" data-name="Fill 286" class="cls-7" d="M313.52,34.08l6.3,3.36-3.15-8.19" transform="translate(0 -10.28)"/><path id="Fill_287" data-name="Fill 287" class="cls-7" d="M319.82,23.6A13.32,13.32,0,1,1,306.5,10.28,13.32,13.32,0,0,1,319.82,23.6h0" transform="translate(0 -10.28)"/></g><path id="Stroke_289" data-name="Stroke 289" class="cls-46" d="M302.12,22l3.65,5.42,6.49-8.11" transform="translate(0 -10.28)"/></g></g></g></g></g></svg>