<svg xmlns="http://www.w3.org/2000/svg" width="186.85" height="56.707" viewBox="0 0 186.85 56.707">
  <g id="Grupo_1356" data-name="Grupo 1356" transform="translate(-1011.657 -501.079)">
    <g id="Grupo_1358" data-name="Grupo 1358" transform="translate(1011.657 501.079)">
      <path id="Caminho_1347" data-name="Caminho 1347" d="M1038.709,508.857l-12.028-7.472a2.052,2.052,0,0,0-2.166.008L1012.7,508.86a2.028,2.028,0,0,0-.95,1.724v13.649a2.027,2.027,0,0,0,.961,1.731l11.814,7.365c.04.025.081.049.122.07v7.629a.952.952,0,0,0,1.9,0V533.4c.04-.021.08-.043.119-.068l12.028-7.37a2.052,2.052,0,0,0,.974-1.739V510.59A2.028,2.028,0,0,0,1038.709,508.857Zm-.94,15.37a.136.136,0,0,1-.065.116l-11.152,6.834V518.265a2.345,2.345,0,1,0-1.9,0v12.9l-10.93-6.813a.135.135,0,0,1-.064-.115V510.584a.134.134,0,0,1,.063-.114L1025.532,503a.136.136,0,0,1,.144,0l12.028,7.472a.136.136,0,0,1,.064.116Z" transform="translate(-1011.714 -501.079)" fill="#fff"/>
      <path id="Caminho_1348" data-name="Caminho 1348" d="M1025.63,602.78a2.038,2.038,0,0,1-1.122-.337l-11.933-7.855a2.035,2.035,0,0,1-.918-1.7V577.151a2.04,2.04,0,0,1,3.1-1.741l6.7,4.088a2.052,2.052,0,0,1,.978,1.741v6.567a.136.136,0,0,0,.061.113l3.057,2.03a.137.137,0,0,0,.154,0l3.067-2.2a.136.136,0,0,0,.057-.111v-6.591a2.052,2.052,0,0,1,.977-1.741l6.7-4.088a2.04,2.04,0,0,1,3.1,1.741V592.7a2.037,2.037,0,0,1-.9,1.692l-11.946,8.038h0A2.038,2.038,0,0,1,1025.63,602.78Zm.607-1.138h0ZM1013.7,577.013a.135.135,0,0,0-.068.019.126.126,0,0,0-.069.118v15.733a.135.135,0,0,0,.061.114l11.933,7.855a.136.136,0,0,0,.151,0h0l11.946-8.039a.135.135,0,0,0,.06-.112V576.96a.136.136,0,0,0-.207-.116l-6.7,4.088a.137.137,0,0,0-.065.116v6.591a2.044,2.044,0,0,1-.853,1.658l-3.067,2.2a2.05,2.05,0,0,1-2.316.041l-3.057-2.03a2.035,2.035,0,0,1-.911-1.7v-6.567a.137.137,0,0,0-.065-.116l-6.7-4.088A.132.132,0,0,0,1013.7,577.013Z" transform="translate(-1011.657 -546.073)" fill="#fff"/>
    </g>
    <text id="Badico_Cloud" data-name="Badico Cloud" transform="translate(1060.507 537.591)" fill="#fff" font-size="20" font-family="Roboto"><tspan x="0" y="0">Badico </tspan><tspan y="0" font-size="20">Cloud</tspan></text>
  </g>
</svg>
