<svg xmlns="http://www.w3.org/2000/svg" width="212.732" height="46.55" viewBox="0 0 212.732 46.55">
  <g id="Grupo_364" data-name="Grupo 364" transform="translate(0)">
    <g id="Grupo_358" data-name="Grupo 358" transform="translate(60.732)">
      <text id="Badico_cloud" data-name="Badico cloud" transform="translate(0 30)" fill="#fff" font-size="16" font-family="GalanoGrotesqueAlt, GalanoGrotesqueAlt ☞" font-weight="500"><tspan x="0" y="0">Badico cloud</tspan></text>
    </g>
    <g id="Grupo_363" data-name="Grupo 363">
      <path id="Caminho_152" data-name="Caminho 152" d="M950.178,523.7a12.162,12.162,0,0,1-8.347-3.321,12.216,12.216,0,1,1-11.271-20.8,12.167,12.167,0,0,1,18.7-5.493,12.361,12.361,0,0,1,4.149,5.574,12.26,12.26,0,0,1,5.39,20.456A12.082,12.082,0,0,1,950.178,523.7Zm-8.347-5.963h0a1.077,1.077,0,0,1,.811.369,10.02,10.02,0,0,0,17.564-6.644,10.115,10.115,0,0,0-7.863-9.833,1.081,1.081,0,0,1-.8-.736,10.02,10.02,0,0,0-19.134-.056,1.081,1.081,0,0,1-.826.736,10.067,10.067,0,1,0,9.436,16.533A1.078,1.078,0,0,1,941.832,517.735Z" transform="translate(-921.296 -491.655)" fill="#fff"/>
      <path id="Retângulo_191" data-name="Retângulo 191" d="M1.079,0h0A1.079,1.079,0,0,1,2.159,1.079V14.571A1.079,1.079,0,0,1,1.079,15.65h0A1.079,1.079,0,0,1,0,14.571V1.079A1.079,1.079,0,0,1,1.079,0Z" transform="translate(19.572 26.213)" fill="#fff"/>
      <path id="Caminho_153" data-name="Caminho 153" d="M1253.955,1263.025a3.043,3.043,0,1,1,3.031-3.043A3.041,3.041,0,0,1,1253.955,1263.025Zm0-3.919a.876.876,0,1,0,.872.875A.875.875,0,0,0,1253.955,1259.106Z" transform="translate(-1233.567 -1216.474)" fill="#fff"/>
      <path id="Caminho_154" data-name="Caminho 154" d="M1080.227,1263.025a3.043,3.043,0,1,1,3.031-3.043A3.04,3.04,0,0,1,1080.227,1263.025Zm0-3.919a.876.876,0,1,0,.872.875A.875.875,0,0,0,1080.227,1259.106Z" transform="translate(-1068.987 -1216.474)" fill="#fff"/>
      <path id="Caminho_155" data-name="Caminho 155" d="M1429.02,1263.025a3.043,3.043,0,1,1,3.031-3.043A3.041,3.041,0,0,1,1429.02,1263.025Zm0-3.919a.876.876,0,1,0,.872.875A.874.874,0,0,0,1429.02,1259.106Z" transform="translate(-1399.414 -1216.474)" fill="#fff"/>
      <path id="Caminho_156" data-name="Caminho 156" d="M1133.536,1157.513a1.081,1.081,0,0,1-1.079-1.084v-4.406h-16.272v4.128a1.079,1.079,0,1,1-2.159,0v-5.212a1.082,1.082,0,0,1,1.079-1.084h18.431a1.082,1.082,0,0,1,1.08,1.084v5.49A1.082,1.082,0,0,1,1133.536,1157.513Z" transform="translate(-1103.877 -1115.053)" fill="#fff"/>
    </g>
  </g>
</svg>
