<svg xmlns="http://www.w3.org/2000/svg" width="25.796" height="18.63" viewBox="0 0 25.796 18.63"><defs><style>.a{fill:#fff;}</style></defs><path class="a" d="M24.721,124.818H1.075a1.075,1.075,0,0,1,0-2.15H24.721a1.075,1.075,0,0,1,0,2.15Zm0,0" transform="translate(0 -114.428)"/><path class="a" d="M24.721,2.15H1.075a1.075,1.075,0,0,1,0-2.15H24.721a1.075,1.075,0,0,1,0,2.15Zm0,0"/><path class="a" d="M24.721,247.482H1.075a1.075,1.075,0,0,1,0-2.15H24.721a1.075,1.075,0,0,1,0,2.15Zm0,0" transform="translate(0 -228.851)"/></svg>