<svg xmlns="http://www.w3.org/2000/svg" xmlns:xlink="http://www.w3.org/1999/xlink" width="135.967" height="101.977" viewBox="0 0 135.967 101.977">
  <defs>
    <filter id="Caminho_1362" x="0" y="0" width="101.977" height="101.977" filterUnits="userSpaceOnUse">
      <feOffset dy="3" input="SourceAlpha"/>
      <feGaussianBlur stdDeviation="3" result="blur"/>
      <feFlood flood-opacity="0.161"/>
      <feComposite operator="in" in2="blur"/>
      <feComposite in="SourceGraphic"/>
    </filter>
  </defs>
  <g id="Grupo_1334" data-name="Grupo 1334" transform="translate(9 6)">
    <g id="Grupo_1340" data-name="Grupo 1340" transform="translate(0 0)">
      <g id="Grupo_1338" data-name="Grupo 1338">
        <path id="Caminho_1361" data-name="Caminho 1361" d="M868.434-175.02a38.172,38.172,0,0,0,38.051,38.292,38.172,38.172,0,0,0,38.293-38.051v-.241H906.6v-38.172A38.215,38.215,0,0,0,868.434-175.02Z" transform="translate(-864.617 217.009)" fill="none"/>
        <g transform="matrix(1, 0, 0, 1, -9, -6)" filter="url(#Caminho_1362)">
          <path id="Caminho_1362-2" data-name="Caminho 1362" d="M900.158-143.294a38.173,38.173,0,0,1-38.166-38.179,38.172,38.172,0,0,1,38.166-38.165v-3.817a41.989,41.989,0,0,0-41.989,41.988,41.989,41.989,0,0,0,41.989,41.988,41.988,41.988,0,0,0,41.989-41.988h-3.816A38.216,38.216,0,0,1,900.158-143.294Z" transform="translate(-849.17 229.45)" fill="#b3b3b3"/>
        </g>
        <path id="Caminho_1363" data-name="Caminho 1363" d="M971.07-223.455v3.817a38.216,38.216,0,0,1,38.172,38.172h3.817A42.036,42.036,0,0,0,971.07-223.455Z" transform="translate(-929.081 223.455)" fill="#02293f"/>
      </g>
      <g id="Grupo_1316" data-name="Grupo 1316" transform="translate(12.287 12.291)">
        <ellipse id="Elipse_439-2" data-name="Elipse 439-2" cx="29.7" cy="29.7" rx="29.7" ry="29.7" fill="#fff"/>
      </g>
      <g id="Grupo_1339" data-name="Grupo 1339" transform="translate(83.479 37.38)">
        <line id="Linha_66" data-name="Linha 66" x2="33.271" transform="translate(0 4.352)" fill="none" stroke="#02293f" stroke-miterlimit="10" stroke-width="2"/>
        <ellipse id="Elipse_440" data-name="Elipse 440" cx="4.609" cy="4.609" rx="4.609" ry="4.609" transform="translate(33.271)" fill="none" stroke="#02293f" stroke-miterlimit="10" stroke-width="2"/>
      </g>
      <text id="_01" data-name="01" transform="translate(29.597 49.688)" fill="#404040" font-size="24" font-family="GalanoGrotesque" font-weight="500" style="isolation: isolate"><tspan x="0" y="0">01</tspan></text>
    </g>
    <g id="Grupo_1350" data-name="Grupo 1350" transform="translate(83.479 37.38)">
      <line id="Linha_70" data-name="Linha 70" x2="33.271" transform="translate(0 4.352)" fill="none" stroke="#02293f" stroke-miterlimit="10" stroke-width="3"/>
      <ellipse id="Elipse_447" data-name="Elipse 447" cx="4.609" cy="4.609" rx="4.609" ry="4.609" transform="translate(33.271)" fill="none" stroke="#02293f" stroke-miterlimit="10" stroke-width="2"/>
    </g>
  </g>
</svg>
