<svg xmlns="http://www.w3.org/2000/svg" width="127.47" height="83.98" viewBox="0 0 127.47 83.98">
  <g id="Grupo_1346" data-name="Grupo 1346" transform="translate(0)">
    <g id="Grupo_1344" data-name="Grupo 1344" transform="translate(0)">
      <path id="Caminho_1368" data-name="Caminho 1368" d="M1235.4,433.308a38.173,38.173,0,1,0,76.346,0h-38.173V395.135A38.217,38.217,0,0,0,1235.4,433.308Z" transform="translate(-1231.579 -391.318)" fill="none"/>
      <path id="Caminho_1369" data-name="Caminho 1369" d="M1267.124,388.691a38.173,38.173,0,0,1,0,76.346h0v3.817a41.989,41.989,0,1,0-41.989-41.989h3.817A38.217,38.217,0,0,1,1267.124,388.691Z" transform="translate(-1225.134 -384.875)" fill="#b3b3b3"/>
      <path id="Caminho_1370" data-name="Caminho 1370" d="M1267.123,384.872v3.817a38.173,38.173,0,1,1-38.173,38.173h-3.817a41.989,41.989,0,1,0,41.989-41.989h0Z" transform="translate(-1225.133 -384.872)" fill="#02293f"/>
    </g>
    <g id="Grupo_1318" data-name="Grupo 1318" transform="translate(12.292 12.288)">
      <ellipse id="Elipse_443-2" data-name="Elipse 443-2" cx="29.7" cy="29.7" rx="29.7" ry="29.7" fill="#fff"/>
    </g>
    <g id="Grupo_1345" data-name="Grupo 1345" transform="translate(83.481 37.382)">
      <line id="Linha_68" data-name="Linha 68" x2="33.271" transform="translate(0 4.353)" fill="none" stroke="#02293f" stroke-miterlimit="10" stroke-width="3"/>
      <ellipse id="Elipse_444" data-name="Elipse 444" cx="4.609" cy="4.609" rx="4.609" ry="4.609" transform="translate(33.271)" fill="none" stroke="#02293f" stroke-miterlimit="10" stroke-width="3"/>
    </g>
    <text id="_03" data-name="03" transform="translate(27.08 48.219)" fill="#404040" font-size="23" font-family="GalanoGrotesque" font-weight="500" style="isolation: isolate"><tspan x="0" y="0">03</tspan></text>
  </g>
</svg>
