<svg xmlns="http://www.w3.org/2000/svg" width="127.47" height="83.98" viewBox="0 0 127.47 83.98"><defs><style>.a2,.e2{fill:none;}.b2{fill:#b3b3b3;}.c2{fill:#02293f;}.d2{fill:#fff;}.e2{stroke:#02293f;stroke-miterlimit:10;stroke-width:3px;}.f2{fill:#0e273b;font-size:20px;font-family:Roboto-Medium, Roboto;font-weight:500;letter-spacing:0em;isolation:isolate;}</style></defs><g transform="translate(0)"><g transform="translate(0)"><path class="a2" d="M1235.4,433.308a38.173,38.173,0,1,0,76.346,0h-38.173V395.135A38.217,38.217,0,0,0,1235.4,433.308Z" transform="translate(-1231.579 -391.318)"/><path class="b2" d="M1267.124,388.691a38.173,38.173,0,0,1,0,76.346h0v3.817a41.989,41.989,0,1,0-41.989-41.989h3.817A38.217,38.217,0,0,1,1267.124,388.691Z" transform="translate(-1225.134 -384.875)"/><path class="c2" d="M1267.123,384.872v3.817a38.173,38.173,0,1,1-38.173,38.173h-3.817a41.989,41.989,0,1,0,41.989-41.989h0Z" transform="translate(-1225.133 -384.872)"/></g><g transform="translate(12.292 12.288)"><ellipse class="d2" cx="29.7" cy="29.7" rx="29.7" ry="29.7"/></g><g transform="translate(83.481 37.382)"><line class="e2" x2="33.271" transform="translate(0 4.353)"/><ellipse class="e2" cx="4.609" cy="4.609" rx="4.609" ry="4.609" transform="translate(33.271)"/></g><text class="f2" transform="translate(30.08 49.219)"><tspan x="0" y="0">03</tspan></text></g></svg>