<svg xmlns="http://www.w3.org/2000/svg" width="126.97" height="83.98" viewBox="0 0 126.97 83.98">
  <g id="Grupo_1349" data-name="Grupo 1349" transform="translate(1)">
    <path id="Caminho_1371" data-name="Caminho 1371" d="M1523.778,738.971a38.173,38.173,0,1,1-76.346,0H1485.6V700.8A38.218,38.218,0,0,1,1523.778,738.971Z" transform="translate(-1401.623 -696.98)" fill="none"/>
    <g id="Grupo_1319" data-name="Grupo 1319" transform="translate(54.282 12.292)">
      <ellipse id="Elipse_445-2" data-name="Elipse 445-2" cx="29.7" cy="29.701" rx="29.7" ry="29.701" fill="#fff"/>
    </g>
    <g id="Grupo_1347" data-name="Grupo 1347" transform="translate(0 37.382)">
      <line id="Linha_69" data-name="Linha 69" x1="33.272" transform="translate(9.218 4.353)" fill="none" stroke="#02293f" stroke-miterlimit="10" stroke-width="3"/>
      <ellipse id="Elipse_446" data-name="Elipse 446" cx="4.609" cy="4.609" rx="4.609" ry="4.609" transform="translate(0)" fill="none" stroke="#02293f" stroke-miterlimit="10" stroke-width="2"/>
    </g>
    <text id="_04" data-name="04" transform="translate(68.76 49.581)" fill="#404040" font-size="24" font-family="GalanoGrotesque" font-weight="500" style="isolation: isolate"><tspan x="0" y="0">04</tspan></text>
    <g id="Grupo_1348" data-name="Grupo 1348" transform="translate(41.991)">
      <path id="Caminho_1372" data-name="Caminho 1372" d="M1485.6,738.971a38.217,38.217,0,0,1-38.173,38.174V700.8A38.217,38.217,0,0,1,1485.6,738.971Z" transform="translate(-1405.442 -696.98)" fill="none"/>
      <path id="Caminho_1373" data-name="Caminho 1373" d="M1479.16,690.534a41.99,41.99,0,1,1-41.99,41.99A41.99,41.99,0,0,1,1479.16,690.534Zm0,80.165a38.174,38.174,0,1,0-38.174-38.174A38.174,38.174,0,0,0,1479.16,770.7Z" transform="translate(-1437.17 -690.534)" fill="#02293f"/>
    </g>
  </g>
</svg>
