<svg xmlns="http://www.w3.org/2000/svg" width="126.97" height="83.98" viewBox="0 0 126.97 83.98"><defs><style>.a3,.c3,.d3{fill:none;}.b3{fill:#fff;}.c3,.d3{stroke:#02293f;stroke-miterlimit:10;}.c3{stroke-width:3px;}.d3{stroke-width:2px;}.e3{fill:#0e273b;font-size:20px;font-family:Roboto-Medium, Roboto;font-weight:500;letter-spacing:0em;isolation:isolate;}.f3{fill:#02293f;}</style></defs><g transform="translate(1)"><path class="a3" d="M1523.778,738.971a38.173,38.173,0,1,1-76.346,0H1485.6V700.8A38.218,38.218,0,0,1,1523.778,738.971Z" transform="translate(-1401.623 -696.98)"/><g transform="translate(54.282 12.292)"><ellipse class="b3" cx="29.7" cy="29.701" rx="29.7" ry="29.701"/></g><g transform="translate(0 37.382)"><line class="c3" x1="33.272" transform="translate(9.218 4.353)"/><ellipse class="d3" cx="4.609" cy="4.609" rx="4.609" ry="4.609" transform="translate(0)"/></g><text class="e3" transform="translate(72.76 48.581)"><tspan x="0" y="0">04</tspan></text><g transform="translate(41.991)"><path class="a3" d="M1485.6,738.971a38.217,38.217,0,0,1-38.173,38.174V700.8A38.217,38.217,0,0,1,1485.6,738.971Z" transform="translate(-1405.442 -696.98)"/><path class="f3" d="M1479.16,690.534a41.99,41.99,0,1,1-41.99,41.99A41.99,41.99,0,0,1,1479.16,690.534Zm0,80.165a38.174,38.174,0,1,0-38.174-38.174A38.174,38.174,0,0,0,1479.16,770.7Z" transform="translate(-1437.17 -690.534)"/></g></g></svg>