<svg xmlns="http://www.w3.org/2000/svg" xmlns:xlink="http://www.w3.org/1999/xlink" width="135.967" height="101.977" viewBox="0 0 135.967 101.977"><defs><style>.a0,.e0,.g0{fill:none;}.b0{fill:#b3b3b3;}.c0{fill:#02293f;}.d0{fill:#fff;}.e0,.g0{stroke:#02293f;stroke-miterlimit:10;}.e0{stroke-width:2px;}.f0{fill:#0e273b;font-size:20px;font-family:Roboto-Medium, Roboto;font-weight:500;letter-spacing:0em;isolation:isolate;}.g0{stroke-width:3px;}.0h{filter:url(#a);}</style><filter id="a" x="0" y="0" width="101.977" height="101.977" filterUnits="userSpaceOnUse"><feOffset dy="3" input="SourceAlpha"/><feGaussianBlur stdDeviation="3" result="b"/><feFlood flood-opacity="0.161"/><feComposite operator="in" in2="b"/><feComposite in="SourceGraphic"/></filter></defs><g transform="translate(9 6)"><g transform="translate(0 0)"><path class="a0" d="M868.434-175.02a38.172,38.172,0,0,0,38.051,38.292,38.172,38.172,0,0,0,38.293-38.051v-.241H906.6v-38.172A38.215,38.215,0,0,0,868.434-175.02Z" transform="translate(-864.617 217.009)"/><g class="h0" transform="matrix(1, 0, 0, 1, -9, -6)"><path class="b0" d="M900.158-143.294a38.173,38.173,0,0,1-38.166-38.179,38.172,38.172,0,0,1,38.166-38.165v-3.817a41.989,41.989,0,0,0-41.989,41.988,41.989,41.989,0,0,0,41.989,41.988,41.988,41.988,0,0,0,41.989-41.988h-3.816A38.216,38.216,0,0,1,900.158-143.294Z" transform="translate(-849.17 229.45)"/></g><path class="c0" d="M971.07-223.455v3.817a38.216,38.216,0,0,1,38.172,38.172h3.817A42.036,42.036,0,0,0,971.07-223.455Z" transform="translate(-929.081 223.455)"/><g transform="translate(12.287 12.291)"><ellipse class="d0" cx="29.7" cy="29.7" rx="29.7" ry="29.7"/></g><g transform="translate(83.479 37.38)"><line class="e0" x2="33.271" transform="translate(0 4.352)"/><ellipse class="e0" cx="4.609" cy="4.609" rx="4.609" ry="4.609" transform="translate(33.271)"/></g><text class="f0" transform="translate(30.597 48.688)"><tspan x="0" y="0">01</tspan></text></g><g transform="translate(83.479 37.38)"><line class="g0" x2="33.271" transform="translate(0 4.352)"/><ellipse class="e0" cx="4.609" cy="4.609" rx="4.609" ry="4.609" transform="translate(33.271)"/></g></g></svg>