<svg xmlns="http://www.w3.org/2000/svg" xmlns:xlink="http://www.w3.org/1999/xlink" width="115.55" height="115.55" viewBox="0 0 115.55 115.55">
  <defs>
    <filter id="Elipse_449-2" x="0" y="0" width="115.55" height="115.55" filterUnits="userSpaceOnUse">
      <feOffset dy="3" input="SourceAlpha"/>
      <feGaussianBlur stdDeviation="3" result="blur"/>
      <feFlood flood-opacity="0.239"/>
      <feComposite operator="in" in2="blur"/>
      <feComposite in="SourceGraphic"/>
    </filter>
  </defs>
  <g id="Componente_76_1" data-name="Componente 76 – 1" transform="translate(9 6)">
    <g id="Grupo_1323" data-name="Grupo 1323">
      <g transform="matrix(1, 0, 0, 1, -9, -6)" filter="url(#Elipse_449-2)">
        <circle id="Elipse_449-2-2" data-name="Elipse 449-2" cx="48.775" cy="48.775" r="48.775" transform="translate(9 6)" fill="#02293f"/>
      </g>
    </g>
    <g id="Grupo_1353" data-name="Grupo 1353" transform="translate(23.275 22.739)">
      <path id="Caminho_1376" data-name="Caminho 1376" d="M1909.067,90.076l-3.776-2.18a.656.656,0,0,1-.322-.631c.065-.663.1-1.334.1-2.015a21.091,21.091,0,0,0-.339-3.765.645.645,0,0,1,.31-.68l3.176-1.835a2.712,2.712,0,0,0,.99-3.7l-4.341-7.525a2.713,2.713,0,0,0-3.7-.99l-3.461,2a.655.655,0,0,1-.723-.054,20.934,20.934,0,0,0-5.425-3.045.648.648,0,0,1-.424-.607V61.926a2.713,2.713,0,0,0-2.712-2.712h-8.688a2.712,2.712,0,0,0-2.712,2.712v3.119a.649.649,0,0,1-.424.607,20.952,20.952,0,0,0-6.084,3.6.654.654,0,0,1-.751.071l-1.938-1.118a2.711,2.711,0,0,0-3.7.99l-4.341,7.525a2.714,2.714,0,0,0,.99,3.7l2.214,1.275a.656.656,0,0,1,.318.666,20.286,20.286,0,0,0-.222,2.883,20.826,20.826,0,0,0,.529,4.591.655.655,0,0,1-.31.714l-1.693.977a2.711,2.711,0,0,0-.99,3.7l4.341,7.525a2.71,2.71,0,0,0,3.7.994h0l2.53-1.46a.64.64,0,0,1,.706.037,20.853,20.853,0,0,0,6.327,3.068.651.651,0,0,1,.479.626v2.556a2.709,2.709,0,0,0,2.708,2.71h8.69a2.712,2.712,0,0,0,2.712-2.71h0v-3.841a.646.646,0,0,1,.37-.584,21.068,21.068,0,0,0,5.112-3.469.647.647,0,0,1,.768-.088l2.948,1.7a2.71,2.71,0,0,0,3.7-.991v0l4.341-7.525a2.708,2.708,0,0,0-.982-3.7Zm-24.147,5.461a10.288,10.288,0,1,1,10.288-10.288,10.288,10.288,0,0,1-10.288,10.288Z" transform="translate(-1859.419 -59.214)" fill="#fff"/>
    </g>
  </g>
</svg>
