<svg xmlns="http://www.w3.org/2000/svg" width="38.868" height="9.554" viewBox="0 0 38.868 9.554"><defs><style>.tailor-a{fill:#a0a4a8;}.tailor-b{fill:#cacccf;}</style></defs><g transform="translate(0)"><g transform="translate(8.671 0)"><path class="tailor-a" d="M339.967,140.668a6.975,6.975,0,0,0,.046.788,1.606,1.606,0,0,0,.269.736h-2.655a1.645,1.645,0,0,1-.079-.322,1.364,1.364,0,0,1-.013-.322h-.026a2.124,2.124,0,0,1-.992.644,4.181,4.181,0,0,1-1.2.171,3.527,3.527,0,0,1-.933-.118,2.138,2.138,0,0,1-.762-.374,1.822,1.822,0,0,1-.519-.644,2.079,2.079,0,0,1-.191-.926,1.914,1.914,0,0,1,.191-.9,1.8,1.8,0,0,1,.512-.605,2.451,2.451,0,0,1,.729-.374,6.679,6.679,0,0,1,.834-.21q.427-.079.841-.125t.743-.112a1.916,1.916,0,0,0,.486-.164.445.445,0,0,0,.224-.44.508.508,0,0,0-.269-.486,1.219,1.219,0,0,0-.585-.144,1.476,1.476,0,0,0-.486.066.832.832,0,0,0-.3.171.538.538,0,0,0-.151.23.767.767,0,0,0-.04.23h-2.418a2.024,2.024,0,0,1,.355-1.163,2.183,2.183,0,0,1,.828-.677,3.68,3.68,0,0,1,1.11-.315,9.5,9.5,0,0,1,1.216-.079,5.95,5.95,0,0,1,1.879.23,2.058,2.058,0,0,1,.959.61,1.606,1.606,0,0,1,.348.861q.046.48.046.966Zm-2.5-1.537a2.724,2.724,0,0,1-.5.191q-.263.072-.526.138a2.187,2.187,0,0,0-.657.25.534.534,0,0,0-.223.486.569.569,0,0,0,.23.433.867.867,0,0,0,.585.2,1.126,1.126,0,0,0,.756-.263,1.07,1.07,0,0,0,.335-.8Z" transform="translate(-332.909 -132.81)"/><rect class="tailor-a" width="2.602" height="6.82" transform="translate(8.489 2.562)"/><path class="tailor-a" d="M396.011,123.256h2.6v9.382h-2.6Z" transform="translate(-383.382 -123.256)"/><path class="tailor-a" d="M422.2,140.136a3.2,3.2,0,0,1-.677,1.143,3.257,3.257,0,0,1-1.157.789,4.822,4.822,0,0,1-3.325,0,3.256,3.256,0,0,1-1.156-.789,3.2,3.2,0,0,1-.677-1.143,4.154,4.154,0,0,1-.223-1.36,4.1,4.1,0,0,1,.223-1.353,3.213,3.213,0,0,1,.677-1.137,3.258,3.258,0,0,1,1.156-.789,4.822,4.822,0,0,1,3.325,0,3.262,3.262,0,0,1,1.156.789,3.215,3.215,0,0,1,.677,1.137,4.1,4.1,0,0,1,.224,1.353A4.158,4.158,0,0,1,422.2,140.136Zm-2.411-1.932a1.636,1.636,0,0,0-.151-.539,1.1,1.1,0,0,0-.342-.407,1.147,1.147,0,0,0-1.183,0,1.094,1.094,0,0,0-.342.407,1.637,1.637,0,0,0-.151.539,4.965,4.965,0,0,0,0,1.143,1.7,1.7,0,0,0,.151.545,1.079,1.079,0,0,0,.342.414,1.146,1.146,0,0,0,1.183,0,1.082,1.082,0,0,0,.342-.414,1.7,1.7,0,0,0,.151-.545,5,5,0,0,0,0-1.143Z" transform="translate(-398.56 -132.811)"/><path class="tailor-a" d="M457.8,135.376h2.5v1.091h.026a2.566,2.566,0,0,1,.762-.94,1.933,1.933,0,0,1,1.156-.322,2.961,2.961,0,0,1,.762.105v2.3q-.2-.066-.414-.118a2.735,2.735,0,0,0-.611-.053,1.445,1.445,0,0,0-1.176.48,2.476,2.476,0,0,0-.4,1.583V142.2h-2.6Z" transform="translate(-432.802 -132.814)"/></g><g transform="translate(0 0.17)"><path class="tailor-a" d="M292.21,126.506h-2.625v-2.4h8.138v2.4H295.1v6.97H292.21Z" transform="translate(-289.585 -124.104)"/><rect class="tailor-b" width="2.625" height="1.827" transform="translate(17.136)"/></g></g></svg>