<svg xmlns="http://www.w3.org/2000/svg" width="48" height="48" viewBox="0 0 48 48"><defs><style>.usa-a{fill:none;}.usa-b{fill:#f5f5f5;}.usa-c{fill:#ff4b55;}.usa-d{fill:#41479b;}</style></defs><rect class="usa-a" width="48" height="48"/><g transform="translate(12 16)"><path class="usa-b" d="M23.9,104.212H.419A.419.419,0,0,1,0,103.792V88.7a.419.419,0,0,1,.419-.419H23.9a.419.419,0,0,1,.419.419v15.1A.419.419,0,0,1,23.9,104.212Z" transform="translate(0 -88.276)"/><path class="usa-c" d="M24.323,89.5H0V88.7a.419.419,0,0,1,.419-.419H23.9a.419.419,0,0,1,.419.419V89.5Z" transform="translate(0 -88.276)"/><rect class="usa-c" width="24.323" height="1.226" transform="translate(0 4.903)"/><rect class="usa-c" width="24.323" height="1.226" transform="translate(0 2.452)"/><path class="usa-c" d="M24.323,244.324H.419A.419.419,0,0,1,0,243.9V243.1H24.323Z" transform="translate(0 -235.743)"/><rect class="usa-c" width="24.323" height="1.226" transform="translate(0 12.259)"/><path class="usa-c" d="M23.9,399.147H.419A.419.419,0,0,1,0,398.727v-.806H24.323v.806A.419.419,0,0,1,23.9,399.147Z" transform="translate(0 -383.211)"/><rect class="usa-c" width="24.323" height="1.226" transform="translate(0 9.807)"/><path class="usa-d" d="M10.9,88.277H.419A.419.419,0,0,0,0,88.7v7.742a.419.419,0,0,0,.419.419H10.9a.419.419,0,0,0,.419-.419V88.7A.419.419,0,0,0,10.9,88.277Z" transform="translate(0 -88.277)"/><g transform="translate(0.677 0.936)"><path class="usa-b" d="M14.753,108l.093.278.293,0a.04.04,0,0,1,.023.071l-.236.174.089.28a.04.04,0,0,1-.061.044l-.239-.171-.239.171a.04.04,0,0,1-.061-.044l.089-.28-.236-.174a.04.04,0,0,1,.023-.071l.293,0,.093-.278A.039.039,0,0,1,14.753,108Z" transform="translate(-14.253 -107.969)"/><path class="usa-b" d="M14.753,138.651l.093.278.293,0a.04.04,0,0,1,.023.071l-.236.174.089.28a.04.04,0,0,1-.061.044l-.239-.171-.239.171a.04.04,0,0,1-.061-.044l.089-.28L14.269,139a.04.04,0,0,1,.023-.071l.293,0,.093-.278A.04.04,0,0,1,14.753,138.651Z" transform="translate(-14.253 -137.167)"/><path class="usa-b" d="M14.753,169.3l.093.278.293,0a.04.04,0,0,1,.023.071l-.236.174.089.28a.04.04,0,0,1-.061.044l-.239-.171-.239.171a.04.04,0,0,1-.061-.044l.089-.28-.236-.174a.04.04,0,0,1,.023-.071l.293,0,.093-.278A.04.04,0,0,1,14.753,169.3Z" transform="translate(-14.253 -166.365)"/><path class="usa-b" d="M14.753,199.959l.093.278.293,0a.04.04,0,0,1,.023.071l-.236.174.089.28a.04.04,0,0,1-.061.044l-.239-.171-.239.171a.04.04,0,0,1-.061-.044l.089-.28-.236-.174a.04.04,0,0,1,.023-.071l.293,0,.093-.278A.039.039,0,0,1,14.753,199.959Z" transform="translate(-14.253 -195.563)"/><path class="usa-b" d="M14.753,230.612l.093.278.293,0a.04.04,0,0,1,.023.071l-.236.174.089.28a.04.04,0,0,1-.061.044l-.239-.171-.239.171a.04.04,0,0,1-.061-.044l.089-.28-.236-.174a.04.04,0,0,1,.023-.071l.293,0,.093-.278A.039.039,0,0,1,14.753,230.612Z" transform="translate(-14.253 -224.76)"/><path class="usa-b" d="M38.546,123.025l.093.278.293,0a.04.04,0,0,1,.023.071l-.236.174.089.28a.04.04,0,0,1-.061.044l-.239-.171-.239.171a.04.04,0,0,1-.061-.044l.089-.28-.236-.174a.04.04,0,0,1,.023-.071l.293,0,.093-.278A.04.04,0,0,1,38.546,123.025Z" transform="translate(-36.915 -122.285)"/><path class="usa-b" d="M38.546,153.68l.093.278.293,0a.04.04,0,0,1,.023.071l-.236.174.089.28a.04.04,0,0,1-.061.044l-.239-.171-.239.171a.04.04,0,0,1-.061-.044l.089-.28-.236-.174a.04.04,0,0,1,.023-.071l.293,0,.093-.278A.039.039,0,0,1,38.546,153.68Z" transform="translate(-36.915 -151.483)"/><path class="usa-b" d="M38.546,184.334l.093.278.293,0a.04.04,0,0,1,.023.071l-.236.174.089.28a.04.04,0,0,1-.061.044l-.239-.171-.239.171a.04.04,0,0,1-.061-.044l.089-.28-.236-.174a.04.04,0,0,1,.023-.071l.293,0,.093-.278A.039.039,0,0,1,38.546,184.334Z" transform="translate(-36.915 -180.68)"/><path class="usa-b" d="M38.546,214.989l.093.278.293,0a.04.04,0,0,1,.023.071l-.236.174.089.28a.04.04,0,0,1-.061.044l-.239-.171-.239.171a.04.04,0,0,1-.061-.044l.089-.28-.236-.174a.04.04,0,0,1,.023-.071l.293,0,.093-.278A.04.04,0,0,1,38.546,214.989Z" transform="translate(-36.915 -209.879)"/><path class="usa-b" d="M62.339,108l.093.278.293,0a.04.04,0,0,1,.023.071l-.236.174.089.28a.04.04,0,0,1-.061.044l-.239-.171-.239.171A.04.04,0,0,1,62,108.8l.089-.28-.236-.174a.04.04,0,0,1,.023-.071l.293,0,.093-.278A.039.039,0,0,1,62.339,108Z" transform="translate(-59.578 -107.969)"/><path class="usa-b" d="M62.339,138.651l.093.278.293,0a.04.04,0,0,1,.023.071l-.236.174.089.28a.04.04,0,0,1-.061.044l-.239-.171-.239.171a.04.04,0,0,1-.061-.044l.089-.28L61.855,139a.04.04,0,0,1,.023-.071l.293,0,.093-.278A.04.04,0,0,1,62.339,138.651Z" transform="translate(-59.578 -137.167)"/><path class="usa-b" d="M62.339,169.3l.093.278.293,0a.04.04,0,0,1,.023.071l-.236.174.089.28a.04.04,0,0,1-.061.044l-.239-.171-.239.171a.04.04,0,0,1-.061-.044l.089-.28-.236-.174a.04.04,0,0,1,.023-.071l.293,0,.093-.278A.04.04,0,0,1,62.339,169.3Z" transform="translate(-59.578 -166.365)"/><path class="usa-b" d="M62.339,199.959l.093.278.293,0a.04.04,0,0,1,.023.071l-.236.174.089.28a.04.04,0,0,1-.061.044l-.239-.171-.239.171a.04.04,0,0,1-.061-.044l.089-.28-.236-.174a.04.04,0,0,1,.023-.071l.293,0,.093-.278A.039.039,0,0,1,62.339,199.959Z" transform="translate(-59.578 -195.563)"/><path class="usa-b" d="M62.339,230.612l.093.278.293,0a.04.04,0,0,1,.023.071l-.236.174.089.28a.04.04,0,0,1-.061.044l-.239-.171-.239.171a.04.04,0,0,1-.061-.044l.089-.28-.236-.174a.04.04,0,0,1,.023-.071l.293,0,.093-.278A.039.039,0,0,1,62.339,230.612Z" transform="translate(-59.578 -224.76)"/><path class="usa-b" d="M86.133,123.025l.093.278.293,0a.04.04,0,0,1,.023.071l-.236.174.089.28a.04.04,0,0,1-.061.044l-.239-.171-.239.171a.04.04,0,0,1-.061-.044l.089-.28-.236-.174a.04.04,0,0,1,.023-.071l.293,0,.093-.278A.04.04,0,0,1,86.133,123.025Z" transform="translate(-82.242 -122.285)"/><path class="usa-b" d="M86.133,153.68l.093.278.293,0a.04.04,0,0,1,.023.071l-.236.174.089.28a.04.04,0,0,1-.061.044l-.239-.171-.239.171a.04.04,0,0,1-.061-.044l.089-.28-.236-.174a.04.04,0,0,1,.023-.071l.293,0,.093-.278A.039.039,0,0,1,86.133,153.68Z" transform="translate(-82.242 -151.483)"/><path class="usa-b" d="M86.133,184.334l.093.278.293,0a.04.04,0,0,1,.023.071l-.236.174.089.28a.04.04,0,0,1-.061.044l-.239-.171-.239.171a.04.04,0,0,1-.061-.044l.089-.28-.236-.174a.04.04,0,0,1,.023-.071l.293,0,.093-.278A.039.039,0,0,1,86.133,184.334Z" transform="translate(-82.242 -180.68)"/><path class="usa-b" d="M86.133,214.989l.093.278.293,0a.04.04,0,0,1,.023.071l-.236.174.089.28a.04.04,0,0,1-.061.044l-.239-.171-.239.171a.04.04,0,0,1-.061-.044l.089-.28-.236-.174a.04.04,0,0,1,.023-.071l.293,0,.093-.278A.04.04,0,0,1,86.133,214.989Z" transform="translate(-82.242 -209.879)"/><path class="usa-b" d="M109.925,108l.093.278.293,0a.04.04,0,0,1,.023.071l-.236.174.089.28a.04.04,0,0,1-.061.044l-.239-.171-.239.171a.04.04,0,0,1-.061-.044l.089-.28-.236-.174a.04.04,0,0,1,.023-.071l.293,0,.093-.278A.04.04,0,0,1,109.925,108Z" transform="translate(-104.903 -107.969)"/><path class="usa-b" d="M109.925,138.651l.093.278.293,0a.04.04,0,0,1,.023.071l-.236.174.089.28a.04.04,0,0,1-.061.044l-.239-.171-.239.171a.04.04,0,0,1-.061-.044l.089-.28-.236-.174a.04.04,0,0,1,.023-.071l.293,0,.093-.278A.04.04,0,0,1,109.925,138.651Z" transform="translate(-104.903 -137.167)"/><path class="usa-b" d="M109.925,169.3l.093.278.293,0a.04.04,0,0,1,.023.071l-.236.174.089.28a.04.04,0,0,1-.061.044l-.239-.171-.239.171a.04.04,0,0,1-.061-.044l.089-.28-.236-.174a.04.04,0,0,1,.023-.071l.293,0,.093-.278A.04.04,0,0,1,109.925,169.3Z" transform="translate(-104.903 -166.365)"/><path class="usa-b" d="M109.925,199.959l.093.278.293,0a.04.04,0,0,1,.023.071l-.236.174.089.28a.04.04,0,0,1-.061.044l-.239-.171-.239.171a.04.04,0,0,1-.061-.044l.089-.28-.236-.174a.04.04,0,0,1,.023-.071l.293,0,.093-.278A.04.04,0,0,1,109.925,199.959Z" transform="translate(-104.903 -195.563)"/><path class="usa-b" d="M109.925,230.612l.093.278.293,0a.04.04,0,0,1,.023.071l-.236.174.089.28a.04.04,0,0,1-.061.044l-.239-.171-.239.171a.04.04,0,0,1-.061-.044l.089-.28-.236-.174a.04.04,0,0,1,.023-.071l.293,0,.093-.278A.04.04,0,0,1,109.925,230.612Z" transform="translate(-104.903 -224.76)"/><path class="usa-b" d="M133.719,123.025l.093.278.293,0a.04.04,0,0,1,.023.071l-.236.174.089.28a.04.04,0,0,1-.061.044l-.239-.171-.239.171a.04.04,0,0,1-.061-.044l.089-.28-.236-.174a.04.04,0,0,1,.023-.071l.293,0,.093-.278A.04.04,0,0,1,133.719,123.025Z" transform="translate(-127.567 -122.285)"/><path class="usa-b" d="M133.719,153.68l.093.278.293,0a.04.04,0,0,1,.023.071l-.236.174.089.28a.04.04,0,0,1-.061.044l-.239-.171-.239.171a.04.04,0,0,1-.061-.044l.089-.28-.236-.174a.04.04,0,0,1,.023-.071l.293,0,.093-.278A.039.039,0,0,1,133.719,153.68Z" transform="translate(-127.567 -151.483)"/><path class="usa-b" d="M133.719,184.334l.093.278.293,0a.04.04,0,0,1,.023.071l-.236.174.089.28a.04.04,0,0,1-.061.044l-.239-.171-.239.171a.04.04,0,0,1-.061-.044l.089-.28-.236-.174a.04.04,0,0,1,.023-.071l.293,0,.093-.278A.039.039,0,0,1,133.719,184.334Z" transform="translate(-127.567 -180.68)"/><path class="usa-b" d="M133.719,214.989l.093.278.293,0a.04.04,0,0,1,.023.071l-.236.174.089.28a.04.04,0,0,1-.061.044l-.239-.171-.239.171a.04.04,0,0,1-.061-.044l.089-.28-.236-.174a.04.04,0,0,1,.023-.071l.293,0,.093-.278A.04.04,0,0,1,133.719,214.989Z" transform="translate(-127.567 -209.879)"/><path class="usa-b" d="M157.513,108l.093.278.293,0a.04.04,0,0,1,.023.071l-.236.174.089.28a.04.04,0,0,1-.061.044l-.239-.171-.239.171a.04.04,0,0,1-.061-.044l.089-.28-.236-.174a.04.04,0,0,1,.023-.071l.293,0,.093-.278A.04.04,0,0,1,157.513,108Z" transform="translate(-150.231 -107.969)"/><path class="usa-b" d="M157.513,138.651l.093.278.293,0a.04.04,0,0,1,.023.071l-.236.174.089.28a.04.04,0,0,1-.061.044l-.239-.171-.239.171a.04.04,0,0,1-.061-.044l.089-.28-.236-.174a.04.04,0,0,1,.023-.071l.293,0,.093-.278A.04.04,0,0,1,157.513,138.651Z" transform="translate(-150.231 -137.167)"/><path class="usa-b" d="M157.513,169.3l.093.278.293,0a.04.04,0,0,1,.023.071l-.236.174.089.28a.04.04,0,0,1-.061.044l-.239-.171-.239.171a.04.04,0,0,1-.061-.044l.089-.28-.236-.174a.04.04,0,0,1,.023-.071l.293,0,.093-.278A.04.04,0,0,1,157.513,169.3Z" transform="translate(-150.231 -166.365)"/><path class="usa-b" d="M157.513,199.959l.093.278.293,0a.04.04,0,0,1,.023.071l-.236.174.089.28a.04.04,0,0,1-.061.044l-.239-.171-.239.171a.04.04,0,0,1-.061-.044l.089-.28-.236-.174a.04.04,0,0,1,.023-.071l.293,0,.093-.278A.04.04,0,0,1,157.513,199.959Z" transform="translate(-150.231 -195.563)"/><path class="usa-b" d="M157.513,230.612l.093.278.293,0a.04.04,0,0,1,.023.071l-.236.174.089.28a.04.04,0,0,1-.061.044l-.239-.171-.239.171a.04.04,0,0,1-.061-.044l.089-.28-.236-.174a.04.04,0,0,1,.023-.071l.293,0,.093-.278A.039.039,0,0,1,157.513,230.612Z" transform="translate(-150.231 -224.76)"/><path class="usa-b" d="M181.306,123.025l.093.278.293,0a.04.04,0,0,1,.023.071l-.236.174.089.28a.04.04,0,0,1-.061.044l-.239-.171-.239.171a.04.04,0,0,1-.061-.044l.089-.28-.236-.174a.04.04,0,0,1,.023-.071l.293,0,.093-.278A.04.04,0,0,1,181.306,123.025Z" transform="translate(-172.894 -122.285)"/><path class="usa-b" d="M181.306,153.68l.093.278.293,0a.04.04,0,0,1,.023.071l-.236.174.089.28a.04.04,0,0,1-.061.044l-.239-.171-.239.171a.04.04,0,0,1-.061-.044l.089-.28-.236-.174a.04.04,0,0,1,.023-.071l.293,0,.093-.278A.039.039,0,0,1,181.306,153.68Z" transform="translate(-172.894 -151.483)"/><path class="usa-b" d="M181.306,184.334l.093.278.293,0a.04.04,0,0,1,.023.071l-.236.174.089.28a.04.04,0,0,1-.061.044l-.239-.171-.239.171a.04.04,0,0,1-.061-.044l.089-.28-.236-.174a.04.04,0,0,1,.023-.071l.293,0,.093-.278A.039.039,0,0,1,181.306,184.334Z" transform="translate(-172.894 -180.68)"/><path class="usa-b" d="M181.306,214.989l.093.278.293,0a.04.04,0,0,1,.023.071l-.236.174.089.28a.04.04,0,0,1-.061.044l-.239-.171-.239.171a.04.04,0,0,1-.061-.044l.089-.28-.236-.174a.04.04,0,0,1,.023-.071l.293,0,.093-.278A.04.04,0,0,1,181.306,214.989Z" transform="translate(-172.894 -209.879)"/><path class="usa-b" d="M205.1,108l.093.278.293,0a.04.04,0,0,1,.023.071l-.236.174.089.28a.04.04,0,0,1-.061.044l-.239-.171-.239.171a.04.04,0,0,1-.061-.044l.089-.28-.236-.174a.04.04,0,0,1,.023-.071l.293,0,.093-.278A.039.039,0,0,1,205.1,108Z" transform="translate(-195.557 -107.969)"/><path class="usa-b" d="M205.1,138.651l.093.278.293,0a.04.04,0,0,1,.023.071l-.236.174.089.28a.04.04,0,0,1-.061.044l-.239-.171-.239.171a.04.04,0,0,1-.061-.044l.089-.28-.236-.174a.04.04,0,0,1,.023-.071l.293,0,.093-.278A.04.04,0,0,1,205.1,138.651Z" transform="translate(-195.557 -137.167)"/><path class="usa-b" d="M205.1,169.3l.093.278.293,0a.04.04,0,0,1,.023.071l-.236.174.089.28a.04.04,0,0,1-.061.044l-.239-.171-.239.171a.04.04,0,0,1-.061-.044l.089-.28-.236-.174a.04.04,0,0,1,.023-.071l.293,0,.093-.278A.04.04,0,0,1,205.1,169.3Z" transform="translate(-195.557 -166.365)"/><path class="usa-b" d="M205.1,199.959l.093.278.293,0a.04.04,0,0,1,.023.071l-.236.174.089.28a.04.04,0,0,1-.061.044l-.239-.171-.239.171a.04.04,0,0,1-.061-.044l.089-.28-.236-.174a.04.04,0,0,1,.023-.071l.293,0,.093-.278A.039.039,0,0,1,205.1,199.959Z" transform="translate(-195.557 -195.563)"/><path class="usa-b" d="M205.1,230.612l.093.278.293,0a.04.04,0,0,1,.023.071l-.236.174.089.28a.04.04,0,0,1-.061.044l-.239-.171-.239.171a.04.04,0,0,1-.061-.044l.089-.28-.236-.174a.04.04,0,0,1,.023-.071l.293,0,.093-.278A.039.039,0,0,1,205.1,230.612Z" transform="translate(-195.557 -224.76)"/></g></g></svg>