<svg xmlns="http://www.w3.org/2000/svg" width="37.314" height="14.048" viewBox="0 0 37.314 14.048"><defs><style>.zemo-a{fill:#a0a4a8;}.b{fill:#cacccf;}</style></defs><g transform="translate(0)"><g transform="translate(0 0)"><path class="zemo-a" d="M84.95,188.74h3.178v2.225H80.5l3.56-5.34H80.945V183.4h7.564Z" transform="translate(-80.5 -180.158)"/><path class="b" d="M84.6,199.052h2.8l-.572-2.352H85.172Z" transform="translate(-81.994 -185.004)"/><path class="b" d="M87.4,178.3H84.6l.572,2.352h1.653Z" transform="translate(-81.994 -178.3)"/><path class="zemo-a" d="M97.523,189.139a2.059,2.059,0,0,0,1.462-.572l1.843,1.081a4.3,4.3,0,0,1-7.628-2.479,3.941,3.941,0,0,1,4.068-4.068,3.862,3.862,0,0,1,3.878,4.068c0,.318-.064.636-.064.953H95.616A2.038,2.038,0,0,0,97.523,189.139Zm1.4-2.861a1.6,1.6,0,0,0-1.653-1.208,1.549,1.549,0,0,0-1.653,1.208Z" transform="translate(-85.127 -180.049)"/><path class="zemo-a" d="M118.542,186.142v4.7h-2.288v-4.513c0-.763-.381-1.271-1.081-1.271-.763,0-1.208.509-1.208,1.462v4.323h-2.288v-4.513c0-.763-.381-1.271-1.081-1.271-.763,0-1.208.509-1.208,1.462v4.323H107.1v-7.692h2.288v.7a2.593,2.593,0,0,1,4.068.064,2.507,2.507,0,0,1,2.225-1.017A2.953,2.953,0,0,1,118.542,186.142Z" transform="translate(-90.191 -179.976)"/><path class="zemo-a" d="M130.332,191.064a4.132,4.132,0,1,1,4.132-4.132A4.207,4.207,0,0,1,130.332,191.064ZM132.048,187a1.716,1.716,0,1,0-1.716,1.716A1.709,1.709,0,0,0,132.048,187Z" transform="translate(-97.15 -179.94)"/></g></g></svg>