<svg xmlns="http://www.w3.org/2000/svg" width="48" height="48.08" viewBox="0 0 48 48.08"><defs><style>.badicoD{fill:#0e273b;}.badicoE{fill:none;}.badicoF{fill:#fff;}</style></defs><g transform="translate(-999 -2791.92)"><circle class="badicoD" cx="24" cy="24" r="24" transform="translate(999 2792)"/><g transform="translate(999 2791.92)"><rect class="badicoE" width="48" height="48"/><path class="badicoF" d="M519.56,298.53l-13.92,13.92a1.153,1.153,0,0,1-.92.32,1.331,1.331,0,0,1-.95-.39l-7.5-7.5a1.328,1.328,0,0,1,0-1.88l.06-.06a1.328,1.328,0,0,1,1.88,0l6.53,6.52,12.88-12.88h.01a1.157,1.157,0,0,1,.82-.33,1.444,1.444,0,0,1,1.01.43h.01A1.315,1.315,0,0,1,519.56,298.53Z" transform="translate(-483.88 -281.25)"/></g></g></svg>