<svg xmlns="http://www.w3.org/2000/svg" width="110.129" height="109.458" viewBox="0 0 110.129 109.458"><defs><style>.codera{opacity:0.15;}.coderb{fill:#5ae4a7;}.coderc,.codere,.h{fill:#fff;}.c{opacity:0.5;}.coderd{fill:#699ea0;}.f{fill:#163d52;}.g,.h{opacity:0.2;}</style></defs><g transform="translate(-66.791 -78.746)"><g class="codera" transform="translate(66.791 165.779)"><ellipse class="coderb" cx="55.064" cy="11.213" rx="55.064" ry="11.213"/><ellipse class="coderc" cx="55.064" cy="11.213" rx="55.064" ry="11.213"/></g><g transform="translate(90.055 78.746)"><path class="coderd" d="M414.949,491.858s-12.149,3.484-13.845,4.085c-1.544.546-5.726,2.01-8.864,1.558a6.8,6.8,0,0,1-.9-.194c-3.179-.947-4.608-1.83-5.023-3.831s1.165-3.471,2.69-4.413,9.8-1.927,9.8-1.927l2,.587h0Z" transform="translate(-386.086 -394.422)"/><path class="codere" d="M392.24,497.5a6.8,6.8,0,0,1-.9-.194c-3.179-.947-4.608-1.83-5.023-3.831s1.165-3.471,2.69-4.413,9.8-1.927,9.8-1.927l2,.587c-1.807.832-8.545,1.294-10.014,2.14s-2.182,2.44-1.313,4.594A8.368,8.368,0,0,0,392.24,497.5Z" transform="translate(-386.086 -394.422)"/><path class="f" d="M393.679,497.787c-2.658,0-5.185-.638-6.5-2.3a4.1,4.1,0,0,1-.939-4.012,4.555,4.555,0,0,1,3.241-2.757c2.522-.611,7.515-1.545,10.233-1.168a.231.231,0,0,1-.064.458c-2.647-.368-7.57.555-10.06,1.16a4.081,4.081,0,0,0-2.914,2.459,3.727,3.727,0,0,0,.866,3.575c2.273,2.885,8.933,2.454,12.709.876,3.592-1.5,12.683-3.864,12.774-3.888a.231.231,0,0,1,.115.448c-.09.023-9.149,2.377-12.711,3.866A18.473,18.473,0,0,1,393.679,497.787Z" transform="translate(-386.052 -394.479)"/><path class="f" d="M392.952,497.64a.233.233,0,0,1-.111-.028c-.048-.026-4.809-2.69-3.2-6.408.751-1.736,3.476-2.161,6.111-2.572a17.677,17.677,0,0,0,4.4-1.047.231.231,0,1,1,.2.418,17.929,17.929,0,0,1-4.527,1.085c-2.511.392-5.109.8-5.758,2.3-1.439,3.333,2.956,5.795,3,5.82a.231.231,0,0,1-.112.433Z" transform="translate(-386.616 -394.497)"/><path class="coderd" d="M460.413,498.016a3.853,3.853,0,0,1-1.821,3.175,7.122,7.122,0,0,1-3.735.771c-4.261-.055-12.269-3.1-12.269-3.1l-7.5-4.145,3.9-6.174,1.067-1.692,2.759.619s2.284,1.294,4.58,2.325,7.87,1.248,9.835,2.837S460.625,495.945,460.413,498.016Z" transform="translate(-394.546 -394.373)"/><path class="codere" d="M461.23,498.016a3.853,3.853,0,0,1-1.821,3.175,5.618,5.618,0,0,0-.213-3.744c-.832-1.881-3.563-3.54-7.149-3.817a19.257,19.257,0,0,1-7.768-2.7c-1.123-.582-3.489-1.853-4.474-2.384l1.067-1.692,2.759.619s2.284,1.294,4.58,2.325,7.87,1.248,9.834,2.837S461.443,495.945,461.23,498.016Z" transform="translate(-395.363 -394.373)"/><path class="f" d="M455.7,502.666a10.682,10.682,0,0,1-1.283-.088,47.349,47.349,0,0,1-17.643-6.026.231.231,0,0,1,.23-.4,46.9,46.9,0,0,0,17.468,5.968c1.255.15,2.806.2,3.666-.764a2.616,2.616,0,0,0,.572-1.969c-.168-1.955-1.877-3.36-3.42-4.023a18.267,18.267,0,0,0-3.906-1.023c-.551-.1-1.12-.208-1.677-.332a22.424,22.424,0,0,1-5.462-2c-.292-.152-.582-.312-.872-.471a12.151,12.151,0,0,0-3.232-1.391,3.637,3.637,0,0,0-3.831,1.267.231.231,0,0,1-.394-.241,4.045,4.045,0,0,1,4.321-1.477,12.491,12.491,0,0,1,3.359,1.438c.288.158.575.316.864.467a21.951,21.951,0,0,0,5.35,1.956c.547.123,1.113.228,1.659.329a18.574,18.574,0,0,1,4,1.053c1.667.716,3.514,2.25,3.7,4.408a3.081,3.081,0,0,1-.688,2.317A3.575,3.575,0,0,1,455.7,502.666Z" transform="translate(-394.683 -394.847)"/><path class="f" d="M458.616,501.871a.231.231,0,0,1-.106-.437,4.773,4.773,0,0,0,2.621-3.372A5.038,5.038,0,0,0,459,493.524a12.173,12.173,0,0,0-4.979-1.971c-.408-.085-.817-.164-1.226-.241a23.5,23.5,0,0,1-4.155-1.062c-.708-.276-1.42-.628-2.108-.968-1.943-.959-3.777-1.866-5.7-1.356a.228.228,0,0,1-.282-.164.231.231,0,0,1,.164-.283c2.086-.552,4.086.433,6.019,1.388.68.336,1.383.682,2.072.952a23.254,23.254,0,0,0,4.074,1.038c.412.078.823.157,1.233.243a12.574,12.574,0,0,1,5.167,2.057,5.506,5.506,0,0,1,2.306,4.973,5.242,5.242,0,0,1-2.867,3.715A.235.235,0,0,1,458.616,501.871Z" transform="translate(-395.492 -394.454)"/><path class="coderd" d="M437.82,417.125,425.13,412.3l-.157-.06s.046-.337.083-.828c.079-1.012.12-2.661-.356-3.221-.707-.827-2.713-.134-4.667-1.03s-5.573.707-5.573.707-2.611-.48-3.762,1.4a10.223,10.223,0,0,0-.384,3.785s-.083.032-.241.088c-1.511.563-9.737,3.66-11.48,4.9-1.922,1.363-4.048,15.343-4.732,19.447s-1.9,7.8-1.28,9.219,9.456,8.216,14.539,9.973,23.121,1.243,23.121,1.243.3-.078.818-.245c3.05-.98,13.873-5.014,19.613-14.53C450.672,443.153,445.113,424.917,437.82,417.125Zm-34.286,23.514c-.933.661-.435,3.226-.435,3.226l-1.59-1.4,3.988-9.806,1.7,7.528S404.468,439.982,403.534,440.639Zm31.906,6.23c-.439.227,1.262-4.488.453-5.555s-3.231-.966-3.231-.966l.208-1.29c.027-.143,1.437-7.371,1.437-7.371l.476-.569s4.936,8.462,5.818,11.443C440.6,442.561,435.223,446.869,435.441,446.869Z" transform="translate(-387.154 -380.521)"/><path class="codere" d="M416.85,382.275l-6.55,6.954s-.9.8-.544,2.816,1.195,3.75,1.826,3.884a8.933,8.933,0,0,0,1.516.136,27.076,27.076,0,0,0,2.4,4.238,53.283,53.283,0,0,1,.162,6,10.477,10.477,0,0,0,4.57,2.317c2.217.261,5.641-3.134,5.641-3.134l.848-4.157a23.368,23.368,0,0,0,2.146-3.863c.137-.812,1.056-.6,1.507-1a7.651,7.651,0,0,0,1.668-3.885c.173-1.692.184-3.637-1.782-3.066-1.7-.458-.637-4.059-.637-4.059l-2.993-2.642Z" transform="translate(-390.144 -376.258)"/><path class="coderc" d="M428.83,412.3a6.679,6.679,0,0,1-.337.757c-1.081,2.038-5.791,5.921-5.791,5.921l-1.423-4.377-.781,4.377c-1.571-.685-6.364-4.839-6.364-4.839s-.162-.388-.36-.993c.157-.056.241-.088.241-.088a10.224,10.224,0,0,1,.384-3.785c1.151-1.885,3.762-1.4,3.762-1.4s3.618-1.6,5.573-.707,3.96.2,4.667,1.03.273,4.049.273,4.049Z" transform="translate(-390.854 -380.521)"/><path class="g" d="M444.211,418.073l-12.69-4.829-.157-.06s.046-.337.083-.828L431.184,414l-1.876,2.551a51.4,51.4,0,0,1,5.855,2.581,5.141,5.141,0,0,1,2.69,5.129l-2.339,20-.957,11.359,2.893,3c3.05-.98,13.873-5.014,19.613-14.53C457.064,444.1,451.5,425.865,444.211,418.073Zm-2.379,29.743c-.439.227,1.262-4.488.453-5.555s-3.231-.966-3.231-.966l.208-1.29c.027-.143,1.437-7.371,1.437-7.371l.476-.569s4.936,8.462,5.818,11.443C446.994,443.509,441.615,447.816,441.832,447.816Z" transform="translate(-393.545 -381.469)"/><path class="g" d="M408.631,443.994l-1.974-6.594s-3.538-12.068-5.964-15.043l.638,8.486s-2.082,10.139-4.009,13.152-2.343,3.762,0,3.762,8.041,4.543,8.041,4.543l-.439-3.79Zm-4.959,2.551-1.59-1.4,3.988-9.806,1.7,7.528s-2.731-.2-3.664.453S403.672,446.545,403.672,446.545Z" transform="translate(-387.726 -383.201)"/><path class="f" d="M416.669,409.443a.215.215,0,0,1-.05-.006.231.231,0,0,1-.175-.276,23.146,23.146,0,0,0,0-5.106.231.231,0,0,1,.46-.047,23.052,23.052,0,0,1,0,5.255A.231.231,0,0,1,416.669,409.443Z" transform="translate(-391.315 -379.987)"/><path class="f" d="M429.652,409.24a.232.232,0,0,1-.232-.229,15.32,15.32,0,0,1,.4-3.455.231.231,0,1,1,.448.112,15.144,15.144,0,0,0-.389,3.339.231.231,0,0,1-.228.234Z" transform="translate(-393.564 -380.261)"/><path class="f" d="M421.521,405.333a3.778,3.778,0,0,1-2.841-1.09,43.749,43.749,0,0,1-3.917-4.914l-.3-.409c-1.687-2.3-1.329-7.175-1.313-7.382a.228.228,0,0,1,.248-.212.23.23,0,0,1,.212.248c0,.049-.36,4.906,1.224,7.072l.3.409a43.465,43.465,0,0,0,3.87,4.86c1.162,1.162,2.739,1.1,4.751.655,1.832-.408,5.665-5.214,5.611-7.548-.047-2.069.071-4.176.175-6.035l.046-.823c.1-1.929-1.97-4.561-1.992-4.588a.231.231,0,1,1,.362-.288c.089.113,2.2,2.8,2.091,4.9l-.046.825c-.1,1.85-.222,3.947-.175,6,.06,2.542-3.969,7.564-5.973,8.01A11.018,11.018,0,0,1,421.521,405.333Z" transform="translate(-390.739 -376.765)"/><path class="f" d="M424.294,401.335a.229.229,0,0,1-.174-.079.231.231,0,0,1,.022-.326,2.409,2.409,0,0,1,.516-.322c.1-.05.2-.1.287-.159.172-.111.364-.31.337-.508-.022-.162-.174-.293-.35-.446-.074-.064-.148-.128-.214-.2a2.78,2.78,0,0,1-.618-1.916,11.415,11.415,0,0,1,.171-2.3.231.231,0,0,1,.456.08,10.992,10.992,0,0,0-.165,2.2,2.378,2.378,0,0,0,.486,1.606c.057.058.121.114.186.17a1.218,1.218,0,0,1,.506.734,1.018,1.018,0,0,1-.547.957c-.1.067-.214.124-.325.181a2.117,2.117,0,0,0-.423.26A.23.23,0,0,1,424.294,401.335Z" transform="translate(-392.636 -378.444)"/><path class="f" d="M422.808,404.843l-.036,0a2.809,2.809,0,0,1-2.592-2.132.231.231,0,0,1,.457-.072,2.368,2.368,0,0,0,2.206,1.747.231.231,0,0,1-.036.46Z" transform="translate(-391.963 -379.751)"/><path class="f" d="M420.54,396.479c0,.464-.2.839-.447.839s-.448-.375-.448-.839.2-.839.448-.839S420.54,396.016,420.54,396.479Z" transform="translate(-391.871 -378.573)"/><path class="f" d="M428.3,396.723c0,.463-.2.839-.447.839s-.447-.376-.447-.839.2-.839.447-.839S428.3,396.26,428.3,396.723Z" transform="translate(-393.215 -378.616)"/><path class="f" d="M430.674,394.868a.461.461,0,0,1-.369-.183,2.02,2.02,0,0,0-1.43-.914,2.6,2.6,0,0,0-1.726.722.462.462,0,0,1-.653-.655,3.507,3.507,0,0,1,2.437-.989,2.89,2.89,0,0,1,2.108,1.277.462.462,0,0,1-.368.742Z" transform="translate(-393.035 -378.089)"/><path class="f" d="M417.365,394.719a.462.462,0,0,1-.269-.838,2.941,2.941,0,0,1,4.022.069.462.462,0,0,1-.688.618c-.112-.121-1.122-1.125-2.8.066A.461.461,0,0,1,417.365,394.719Z" transform="translate(-391.396 -378.14)"/><path class="f" d="M416.879,406.034s1.277,3.521,4.13,4.519,6.641-4.183,6.641-4.183l-.2-.674s-2.482,3.224-5.243,2.675-5.491-4.29-5.491-4.29Z" transform="translate(-391.364 -380.035)"/><path class="f" d="M412.233,397.643a1.852,1.852,0,0,1-.811-.168,1.4,1.4,0,0,1-.725-.848c-.057-.166-.131-.368-.216-.6-.623-1.687-1.668-4.511-.362-5.63a1.2,1.2,0,0,1,1.106-.314c1.011.246,1.678,1.869,1.7,1.938a.231.231,0,0,1-.428.173c-.165-.408-.738-1.5-1.387-1.663a.768.768,0,0,0-.7.217c-1.062.909-.049,3.648.5,5.119.085.232.161.437.219.607a.947.947,0,0,0,.489.582,2.052,2.052,0,0,0,1.367,0,.231.231,0,0,1,.154.437A3.018,3.018,0,0,1,412.233,397.643Z" transform="translate(-390.112 -377.606)"/><path class="f" d="M433.408,398.36a2.309,2.309,0,0,1-.451-.042.231.231,0,0,1-.181-.272.226.226,0,0,1,.272-.181c.056.012,1.388.26,1.768-.855.058-.17.134-.376.22-.607.544-1.471,1.556-4.209.494-5.119a.758.758,0,0,0-.7-.217c-.65.158-1.22,1.253-1.386,1.663a.231.231,0,0,1-.429-.174c.028-.069.695-1.692,1.706-1.938a1.209,1.209,0,0,1,1.106.314c1.306,1.119.262,3.943-.362,5.63-.084.227-.159.428-.216.6A1.829,1.829,0,0,1,433.408,398.36Z" transform="translate(-394.145 -377.698)"/><path class="f" d="M412.376,392.9a2.357,2.357,0,0,0,1.492-.881,3.709,3.709,0,0,0,.433-1.338,16.005,16.005,0,0,0,.236-2.7,3.626,3.626,0,0,1,.1-1.05A2.7,2.7,0,0,1,415.2,386c.594-.7,1.308-1.283,1.872-2a3.341,3.341,0,0,0,.827-2.532,11.5,11.5,0,0,0,9.415,2.435c2.993-.586,5.865-3.213,5.515-6.513a2.67,2.67,0,0,0-2.108-2.3c-1.48-.368-2.809.421-4.15.926-2.443.922-4.834-.661-7.3-.927-2.112-.227-4.7.036-5.8,2.135,0,0-3.792.445-5.453,3.56s1.5,7.427,1.5,7.427,1.271-1.539,2.9,1.576Z" transform="translate(-389.773 -374.997)"/><path class="f" d="M431.1,384.242s-.981,5.11,1.578,7.585a5.326,5.326,0,0,1,1.128-1.912,5.923,5.923,0,0,0-.448-5.673C431.489,381.268,431.1,384.242,431.1,384.242Z" transform="translate(-393.824 -376.37)"/><path class="h" d="M412.822,385.589h-.016a.231.231,0,0,1-.215-.246,5.939,5.939,0,0,1,2.168-4,6.091,6.091,0,0,1,4.4-1.558,30.192,30.192,0,0,1,3.195.516c2.485.494,4.832.96,7.257-.028a4.567,4.567,0,0,0,2.785-2.894.231.231,0,1,1,.446.12,5.028,5.028,0,0,1-3.057,3.2c-2.554,1.04-5.08.538-7.522.053a29.751,29.751,0,0,0-3.146-.508,5.7,5.7,0,0,0-4.055,1.449,5.473,5.473,0,0,0-2.008,3.682A.231.231,0,0,1,412.822,385.589Z" transform="translate(-390.649 -375.38)"/><path class="h" d="M410.153,385.15h0a.231.231,0,0,1-.226-.236,6.454,6.454,0,0,1,3.928-5.69.231.231,0,1,1,.174.428,5.98,5.98,0,0,0-3.639,5.272A.232.232,0,0,1,410.153,385.15Z" transform="translate(-390.187 -375.727)"/><path class="f" d="M421.21,413.651a.227.227,0,0,1-.082-.015,16.276,16.276,0,0,1-5.622-3.846.231.231,0,1,1,.342-.311,16.149,16.149,0,0,0,5.369,3.7c.566-.179,4.284-1.435,6.223-4.091a.231.231,0,1,1,.374.273c-2.187,2.995-6.364,4.233-6.54,4.284A.247.247,0,0,1,421.21,413.651Z" transform="translate(-391.144 -380.886)"/><path class="f" d="M418.242,399.813a3.995,3.995,0,1,1,3.995-4A4,4,0,0,1,418.242,399.813Zm0-7.527a3.532,3.532,0,1,0,3.533,3.532A3.536,3.536,0,0,0,418.242,392.286Z" transform="translate(-390.936 -377.912)"/><path class="f" d="M428.412,399.813a3.995,3.995,0,1,1,3.994-4A4,4,0,0,1,428.412,399.813Zm0-7.527a3.532,3.532,0,1,0,3.532,3.532A3.536,3.536,0,0,0,428.412,392.286Z" transform="translate(-392.698 -377.912)"/><path class="f" d="M422.7,419.36a.234.234,0,0,1-.078-.014.23.23,0,0,1-.145-.156l-1.069-3.873-.685,3.853a.231.231,0,0,1-.122.166.233.233,0,0,1-.207,0,30.781,30.781,0,0,1-6.427-4.881.233.233,0,0,1-.068-.14c-.017-.154-.4-3.78.293-5a3.17,3.17,0,0,1,1.965-1.516.231.231,0,1,1,.093.453,2.753,2.753,0,0,0-1.656,1.291c-.5.885-.353,3.573-.244,4.643a31.63,31.63,0,0,0,5.973,4.6l.809-4.551a.232.232,0,0,1,.217-.19.222.222,0,0,1,.234.169l1.251,4.535c.98-.728,4.373-3.358,5.431-5.6a12.892,12.892,0,0,0,.01-4.049,1.208,1.208,0,0,0-1.129-.844.254.254,0,0,1-.24-.222.229.229,0,0,1,.218-.24,1.664,1.664,0,0,1,1.58,1.135c.427,1.081.031,4.182.015,4.313a.247.247,0,0,1-.02.068c-1.267,2.735-5.679,5.876-5.866,6.008A.232.232,0,0,1,422.7,419.36Z" transform="translate(-390.856 -380.678)"/><path class="f" d="M409.5,444.887a.231.231,0,0,1-.228-.2c-.013-.089-1.358-9.012-3.111-12.612a.231.231,0,0,1,.416-.2c1.784,3.664,3.1,12.378,3.152,12.746a.231.231,0,0,1-.2.262A.161.161,0,0,1,409.5,444.887Z" transform="translate(-389.531 -384.827)"/><path class="f" d="M404.47,427.193a.232.232,0,0,1-.209-.131,36.559,36.559,0,0,0-2.761-4.62.231.231,0,1,1,.376-.268,37.035,37.035,0,0,1,2.8,4.689.231.231,0,0,1-.109.308A.225.225,0,0,1,404.47,427.193Z" transform="translate(-388.72 -383.153)"/><path class="f" d="M444.408,429.749a.242.242,0,0,1-.059-.007.231.231,0,0,1-.165-.282,25.921,25.921,0,0,1,1.494-4.439.231.231,0,0,1,.415.2,25.472,25.472,0,0,0-1.462,4.352A.232.232,0,0,1,444.408,429.749Z" transform="translate(-396.121 -383.64)"/><path class="f" d="M441.048,445.184a.173.173,0,0,1-.036,0,.231.231,0,0,1-.193-.264c.01-.062.984-6.24,2.126-11.276a.231.231,0,0,1,.451.1c-1.139,5.023-2.111,11.185-2.121,11.246A.232.232,0,0,1,441.048,445.184Z" transform="translate(-395.539 -385.124)"/><path class="f" d="M443.037,436.527a.231.231,0,0,1-.185-.37,7.314,7.314,0,0,1,3.869-2.646.231.231,0,1,1,.124.445,6.85,6.85,0,0,0-3.624,2.478A.231.231,0,0,1,443.037,436.527Z" transform="translate(-395.883 -385.132)"/><path class="f" d="M439.765,457.99a.231.231,0,0,1-.064-.454c10.792-3.06,16.858-12.332,17.49-13.34-6.284-19.049-12.223-25.3-12.721-25.8-4.988-1.755-12.73-4.846-12.808-4.876a.231.231,0,0,1,.172-.429c.078.031,7.862,3.138,12.839,4.887a.238.238,0,0,1,.082.05c.062.059,6.319,6.1,12.908,26.124a.226.226,0,0,1-.021.19c-.061.1-6.274,10.364-17.815,13.638A.235.235,0,0,1,439.765,457.99Z" transform="translate(-393.928 -381.594)"/><path class="f" d="M443.879,454.63a.231.231,0,0,1-.148-.408l5.6-4.674c.134-.1,3.123-2.327,6.293-.741a.231.231,0,1,1-.207.413c-2.911-1.455-5.769.666-5.8.689l-5.59,4.667A.227.227,0,0,1,443.879,454.63Z" transform="translate(-396.029 -387.685)"/><path class="f" d="M449.431,447.822a.231.231,0,0,1-.223-.174c-1.162-4.528-5.737-11.3-5.783-11.368a.231.231,0,1,1,.383-.26c.046.069,4.667,6.908,5.848,11.514a.231.231,0,0,1-.224.289Z" transform="translate(-395.983 -385.55)"/><path class="f" d="M403.922,451.771a.234.234,0,0,1-.16-.064l-1.584-1.511a7.669,7.669,0,0,0-4.952,1.394.231.231,0,1,1-.257-.384,7.847,7.847,0,0,1,5.353-1.457.227.227,0,0,1,.12.06l1.639,1.562a.23.23,0,0,1,.007.327A.227.227,0,0,1,403.922,451.771Z" transform="translate(-387.925 -387.938)"/><path class="f" d="M403.37,448.1a.239.239,0,0,1-.067-.01.232.232,0,0,1-.154-.289c.021-.068,2.066-6.75,4.064-10.183a.231.231,0,1,1,.4.231c-1.97,3.388-4,10.02-4.021,10.086A.232.232,0,0,1,403.37,448.1Z" transform="translate(-389.012 -385.824)"/><path class="f" d="M405.541,457.584a.237.237,0,0,1-.107-.026c-3.433-1.815-13.207-7.605-13.1-10.328.1-2.37,4.228-26.274,5.456-27.642,1.126-1.255,11.963-5.331,12.424-5.5a.231.231,0,0,1,.163.432c-3.11,1.167-11.371,4.408-12.243,5.38-1.033,1.15-5.236,24.85-5.339,27.353-.084,2.076,7.617,7.135,12.85,9.9a.231.231,0,0,1-.108.436Z" transform="translate(-387.141 -381.765)"/><g transform="translate(48.056 15.536)"><rect class="codere" width="18.272" height="12.982" rx="5.921" transform="translate(0.231 0.231)"/><path class="f" d="M459.944,407.232h-12.8a2.971,2.971,0,0,1-2.967-2.967v-7.51a2.971,2.971,0,0,1,2.967-2.967h12.8a2.971,2.971,0,0,1,2.967,2.967v7.51A2.971,2.971,0,0,1,459.944,407.232Zm-12.8-12.982a2.508,2.508,0,0,0-2.505,2.505v7.51a2.508,2.508,0,0,0,2.505,2.505h12.8a2.508,2.508,0,0,0,2.505-2.505v-7.51a2.508,2.508,0,0,0-2.505-2.505Z" transform="translate(-444.177 -393.788)"/></g><path class="f" d="M450.549,404.071a.229.229,0,0,1-.154-.059l-3.261-2.892a.233.233,0,0,1,.031-.369l3.515-2.206a.231.231,0,0,1,.246.392l-3.253,2.042,3.03,2.687a.231.231,0,0,1-.153.4Z" transform="translate(-396.62 -379.071)"/><path class="f" d="M459.18,404.329a.232.232,0,0,1-.15-.408l2.923-2.49-3.387-2.221a.231.231,0,1,1,.254-.386l3.644,2.389a.231.231,0,0,1,.023.37l-3.157,2.691A.229.229,0,0,1,459.18,404.329Z" transform="translate(-398.595 -379.118)"/><path class="f" d="M453.6,405.691a.24.24,0,0,1-.071-.011.232.232,0,0,1-.15-.29l2.594-8.133a.231.231,0,1,1,.441.141l-2.594,8.133A.232.232,0,0,1,453.6,405.691Z" transform="translate(-397.714 -378.825)"/><path class="f" d="M423.912,423.825a.739.739,0,1,1-.738-.739A.738.738,0,0,1,423.912,423.825Z" transform="translate(-392.355 -383.328)"/><g transform="translate(15.391 59.597)"><path class="f" d="M434.461,471.472H408.9a.6.6,0,0,1-.6-.6h0a.6.6,0,0,1,.6-.6h25.563a.6.6,0,0,1,.6.6h0A.6.6,0,0,1,434.461,471.472Z" transform="translate(-405.296 -451.098)"/><path class="codere" d="M434.775,465.516l3.425-16.087a1.712,1.712,0,0,0-1.674-2.069H406.659a1.712,1.712,0,0,0-1.679,2.044l3.071,15.552a1.713,1.713,0,0,0,1.64,1.38l23.37.536A1.714,1.714,0,0,0,434.775,465.516Z" transform="translate(-404.716 -447.129)"/><path class="f" d="M433.053,467.054h-.045l-23.37-.535a1.932,1.932,0,0,1-1.862-1.567L404.7,449.4a1.944,1.944,0,0,1,1.907-2.319h29.867a1.944,1.944,0,0,1,1.9,2.348l-3.426,16.087A1.944,1.944,0,0,1,433.053,467.054Zm-26.442-19.511a1.48,1.48,0,0,0-1.453,1.768l3.071,15.552a1.472,1.472,0,0,0,1.419,1.194l23.37.535a1.482,1.482,0,0,0,1.482-1.172h0l3.426-16.087a1.48,1.48,0,0,0-1.449-1.789Z" transform="translate(-404.667 -447.081)"/><path class="f" d="M426.843,458.074a2.385,2.385,0,1,1-2.385-2.384A2.385,2.385,0,0,1,426.843,458.074Z" transform="translate(-407.682 -448.572)"/><path class="f" d="M437.01,449.389h-3.549a.231.231,0,1,1,0-.462h3.549a.231.231,0,0,1,0,.462Z" transform="translate(-409.615 -447.401)"/><path class="f" d="M426.435,449.389h-13.47a.231.231,0,0,1,0-.462h13.47a.231.231,0,1,1,0,.462Z" transform="translate(-406.065 -447.401)"/></g><path class="f" d="M431.992,485.437l-2.723,7.147s-6.942-1.75-15.839-3.573c-9.3-1.907-19.018-4.374-24.058-13.215a5.011,5.011,0,0,1-.736-3.559c.728-3.054,4.7-3.882,7.319-4.188a48.643,48.643,0,0,1,4.956-.279c.843-.012,3.625-.454,4.3.041a19.733,19.733,0,0,0,3.233,1.916c1.487.632,23.2-.567,23.2-.567a7.742,7.742,0,0,0,.683-2.606c3.412-1.735,11.314-3.2,14.653-2.555,5.251,1.021,8.313,4.083,7.73,7.292S442.534,483.1,431.992,485.437Z" transform="translate(-386.483 -390.387)"/><path class="codere" d="M434.944,487.523a.206.206,0,0,1-.059-.008,45.8,45.8,0,0,1-12.071-5.429c-.87-.587-1.716-1.2-2.534-1.783-4.227-3.036-8.218-5.9-14.44-5.179a.231.231,0,1,1-.053-.46c6.4-.74,10.461,2.174,14.762,5.262.816.586,1.659,1.192,2.524,1.776A45.322,45.322,0,0,0,435,487.069a.231.231,0,0,1-.06.454Z" transform="translate(-389.435 -392.242)"/><path class="codere" d="M425.033,480.192a.231.231,0,0,1-.065-.453c2.947-.848,5.193-2.613,7.57-4.483.331-.26.663-.521,1-.78a59.315,59.315,0,0,1,9.293-6.1.231.231,0,1,1,.208.412,58.966,58.966,0,0,0-9.219,6.059c-.335.259-.666.519-.995.778-2.414,1.9-4.694,3.691-7.728,4.565A.242.242,0,0,1,425.033,480.192Z" transform="translate(-392.764 -391.168)"/><path class="f" d="M424.583,397.558h-1a.231.231,0,0,1,0-.462h1a.231.231,0,0,1,0,.462Z" transform="translate(-392.513 -378.825)"/></g></g></svg>