<svg xmlns="http://www.w3.org/2000/svg" width="485.5" height="300.872" viewBox="0 0 485.5 300.872"><defs><style>.a{fill:#263238;}.a,.b,.f{opacity:0.2;}.c,.g,.j,.o,.p{fill:#fff;}.c,.h,.j,.k,.l,.m,.n{stroke:#1d3c50;}.c,.d{stroke-miterlimit:10;}.d,.i{fill:#1d3c50;}.d{stroke:#fff;}.e,.h{fill:#7cb6b4;}.h,.j,.k,.l,.m,.n{stroke-linecap:round;stroke-linejoin:round;}.k{fill:none;}.l{fill:#757575;}.m{fill:#999;}.n{fill:silver;}.o{opacity:0.5;}.p{opacity:0.1;}</style></defs><g transform="translate(-34.925 -113.932)"><g transform="translate(34.925 220.732)"><path class="a" d="M32.15,262.27c-.215-.139-.161-.236,0,0Z" transform="translate(-28.519 -184.214)"/><path class="b" d="M132.326,258.089a19.664,19.664,0,0,1-13.489,15.528l-2.661.869c-9.572,13.553-26.355,19.337-40.659,10.935l-4.185-2.457L59.613,269.035l-.14.032c-3.713.773-7.909.2-10.656-2.414a3.65,3.65,0,1,1-5.913-3.487c-2.361,2.082-6.009,1.127-8.284-1.148a71.578,71.578,0,0,1,2.093-18.554,74.818,74.818,0,0,1,3.7-11,77.485,77.485,0,0,1,3.852-7.876c.107-.215.236-.44.365-.655a94.3,94.3,0,0,1,7.136-10.752l1.352-1.223c1.019-.934,2.05-1.846,3.09-2.769.064-.054.129-.118.193-.172q2.495-2.189,5.054-4.325c2.629-2.2,5.3-4.357,7.995-6.5.086-.075.182-.139.268-.215,2.307-1.824,4.636-3.638,6.954-5.441,1.17-.9,2.329-1.8,3.5-2.7a9.594,9.594,0,0,1,2.06.483c2.865,1,3.359,3.627,5.344,5.43,2.64,2.414,5.172-1.642,9.239-1.513,12.5.386,7.651,13.21,13.757,11.6,26.366-6.954,21.934,26.774,10.473,34.178C127.808,245.609,133.635,249.311,132.326,258.089Z" transform="translate(-28.329 -189.498)"/><g transform="translate(2.835 12.814)"><ellipse class="c" cx="44.468" cy="43.917" rx="44.468" ry="43.917"/><ellipse class="d" cx="40.545" cy="40.043" rx="40.545" ry="40.043" transform="translate(3.922 2.096)"/></g><path class="e" d="M32.49,260.26c-2.553,1.585-3.284,6.924-1.271,9.235s5.857.524,6.644-3.078a1.2,1.2,0,0,0,2.169.3,2.475,2.475,0,0,0,.148-2.258c-.192-.162-.122-.279,0,0,1.306,1.038,3.558-.093,3.872-2.312-.956,5.9,4.407,11.05,8.359,8.049-1.166,2.507.362,5.805,2.406,6.439s4.23-.57,6.184-1.908,3.95-2.863,6.085-2.956c1.863-.09,3.588.96,5.36,1.585,5.644,1.965,12.25-.638,16.569-6.557,2.853,4.883,9.883,3.085,11.768-2.995.4,2.847,2.345,5.013,4.517,5.042s4.365-2.082,5.109-4.91v.036c.048,2.695,2.451,4.013,4.168,2.28,2.194-2.209,3.555-6.269,2.475-9.52,2.925-.117,5.755-3.509,6.2-7.438s-1.532-7.87-4.354-8.642c4.841-2.012,8.635-8.606,8.817-15.339s-3.279-12.97-8.035-14.543a5.064,5.064,0,0,0-5.459,1.142c-.563-3.83-2.3-7.252-4.863-8.972-4.081-2.757-9.758-.868-12.794,4.263a10.092,10.092,0,0,0,.233-9c-1.348-2.5-4.028-3.506-6.3-2.323-.49-4.108-3.662-7.032-6.766-6.233s-5.6,5.188-5.335,9.348c-.29-3.35-4.241-4.176-5.666-1.368.122.253-.06.1,0,0-1.97-4.141-5.986-6.269-9.71-5.059-3.961,1.3-7.286,6.273-7.795,11.7a7.01,7.01,0,0,0-9.652.267c-2.933,2.64-4.623,7.664-4.111,12.156-3.082-3.042-8.267-1.382-10.38,3.319s-.656,11.36,2.913,13.328c-2.463.375-4.627,3.639-4.629,6.944s2.177,6.141,4.644,6.052c-2.489.215-4.832,3.154-5.2,6.494S30.107,259.524,32.49,260.26Z" transform="translate(-28.757 -189.521)"/><g class="f" transform="translate(9.139 16.335)"><g transform="translate(27.805 34.171)"><path class="g" d="M70.854,241.431a4.622,4.622,0,0,0-4.344-1.07,5.147,5.147,0,0,0-3.253,3.988c-.346,1.94.552,4.084,2.039,4.453,1.809.449,3.666-1.575,5.514-1.354a13.216,13.216,0,0,1,1.9.621c2.646.745,5.327-1.635,7.575-3.872a10.411,10.411,0,0,0,2.139-2.674,4.351,4.351,0,0,0,.288-3.529c-.654-1.445-2.261-1.566-3.607-1.288a14.414,14.414,0,0,0-7.475,4.4q.119-.813.237-1.627Z" transform="translate(-63.184 -236.586)"/></g><g transform="translate(69.117 32.249)"><path class="g" d="M106.8,236.276a5.97,5.97,0,0,0-2.3-1.419,2.214,2.214,0,0,0-2.426,1.011,3.534,3.534,0,0,0,.6,4.035,5.626,5.626,0,0,0,3.366,1.258c1.223.166,2.77.129,3.4-1.29a3.091,3.091,0,0,0-.516-3.092,5.208,5.208,0,0,0-2.385-1.37Z" transform="translate(-101.682 -234.796)"/></g><path class="g" d="M50.261,216.105a11.727,11.727,0,0,0-5.082,7.85c-.192,1.015-.191,2.276.488,2.767a1.8,1.8,0,0,0,1.669-.048l7.126-2.58a10.732,10.732,0,0,0-3.232,2.356,5.367,5.367,0,0,0-1.289,4.2,3.091,3.091,0,0,0,3.231,2.615,6.96,6.96,0,0,0,3.941-2.223,7.24,7.24,0,0,0,2.548-4.78c.059-1.937-1.82-3.615-3.009-2.3a26.44,26.44,0,0,0,7.688-4.883,9.186,9.186,0,0,0,2.248-2.759,4.719,4.719,0,0,0,.292-3.7c-2.32-5.462-5.531,2.955-7.034,3.779C56.994,217.964,53.882,213.974,50.261,216.105Z" transform="translate(-36.703 -204.301)"/><path class="g" d="M39.378,239.12a3.414,3.414,0,0,0,.564,3.095,1.4,1.4,0,0,0,2.274-.732A8.65,8.65,0,0,0,37.9,244.8c-1.017,1.758-.827,4.713.735,5.273.975.349,2.037-.331,2.955-1.018a61.22,61.22,0,0,0,7.433-6.6,3.4,3.4,0,0,0,2.667,4.443c1.76.084,3.429-1.231,4.962-2.495,1.88-1.55,4.047-3.874,3.608-6.539a3.211,3.211,0,0,0-4.538-2.416c-1.821.8-3.217,2.744-4.518,4.606,1.028-1.907-.334-4.561-2.068-4.754-1.686-.189-3.4,1.228-4.479,2.88,1.994-1.5,2.5-5.121-.129-5.375C42.82,232.634,39.827,237.27,39.378,239.12Z" transform="translate(-37.273 -202.693)"/><path class="g" d="M90.125,228.1c-1.474-.618-3.362.731-3.8,2.716s.677,4.153,2.242,4.364a4.716,4.716,0,0,0-3.039,2.179,3.714,3.714,0,0,0-.673,2.293,2.093,2.093,0,0,0,2.08,1.928,5.7,5.7,0,0,0,2.776-1.155,4.693,4.693,0,0,0-2.732,1.168c-.768.793-1.125,2.394-.463,3.211.554.684,1.488.507,2.263.185a12.226,12.226,0,0,0,4.7-3.616c.958,1.328,2.4,2.241,3.849,1.85a3.727,3.727,0,0,0,2.3-4.182,2.694,2.694,0,0,0-2.362-2.082,6.173,6.173,0,0,0-3.088.8,7.909,7.909,0,0,0,2.536-3.624c.4-1.543-.368-3.536-1.618-3.337-1.4.225-2.164,2.7-3.286,3.644C90.475,232.891,93.093,229.338,90.125,228.1Z" transform="translate(-33.796 -203.047)"/><g transform="translate(29.058 18.34)"><path class="g" d="M66.511,222.657c-1.619,1.474-2.22,4.222-2.155,6.666.073,2.7.985,5.53,2.912,6.5,2.535,1.272,5.785-1.642,6.319-5.185a8.677,8.677,0,0,0-3.659-8.5A3.072,3.072,0,0,0,66.511,222.657Z" transform="translate(-64.352 -221.834)"/></g><g transform="translate(44.113 12.17)"><path class="g" d="M83.424,219.063l.646.686a2.822,2.822,0,0,0-4.662-.185,5.116,5.116,0,0,0-.124,5.974c1.253,1.447,3.552,1.095,4.68-.717a4.286,4.286,0,0,0,5.612-1.675c1.337-2.082,1.106-5.552-.643-6.726s-4.481.915-4.341,3.492q-.375-.522-.749-1.045Z" transform="translate(-78.382 -216.084)"/></g><g transform="translate(65.517 17.779)"><path class="g" d="M101.633,221.535a14.774,14.774,0,0,0-3.147,5.66c-.5,2.216.211,4.952,1.923,5.405s3.356-1.449,4.366-3.383c.911-1.747,1.623-3.9,1.15-5.794s-2.627-2.9-3.742-1.352Z" transform="translate(-98.328 -221.311)"/></g><path class="g" d="M75.5,211.279a2.479,2.479,0,0,0-4-1.166,5.49,5.49,0,0,0-1.345,5.4,4.226,4.226,0,0,0,3.593,3.127,3.962,3.962,0,0,0,3.874-4.387,3.45,3.45,0,0,0,3.684,1.563,9.51,9.51,0,0,0,3.89-2.087c1.651-1.294,3.422-3.249,3.294-5.625a3.426,3.426,0,0,0-3.006-3.353,5.513,5.513,0,0,0-4.134,2.2c-.913,1.029-1.678,2.276-2.661,3.189s-2.308,1.451-3.332.8Z" transform="translate(-34.885 -204.743)"/></g></g><g transform="translate(160.398 308.999)"><g transform="translate(0 0)"><g transform="translate(0 1.057)"><rect class="h" width="247.528" height="104.248"/><g transform="translate(5.172 6.308)"><rect class="c" width="23.29" height="12.892"/><rect class="c" width="36.682" height="12.892" transform="translate(199.948 62.845)"/><rect class="c" width="22.642" height="12.892" transform="translate(213.988 16.1)"/><rect class="c" width="23.29" height="12.892" transform="translate(0 46.949)"/><rect class="c" width="18.853" height="12.892" transform="translate(0 31.422)"/><g transform="translate(0 15.711)"><rect class="c" width="12.892" height="12.892"/><rect class="c" width="12.892" height="12.892" transform="translate(16.454)"/><rect class="c" width="12.892" height="12.892" transform="translate(32.909)"/><rect class="c" width="12.892" height="12.892" transform="translate(49.363)"/><rect class="c" width="12.892" height="12.892" transform="translate(65.818)"/><rect class="c" width="12.892" height="12.892" transform="translate(82.272)"/><rect class="c" width="12.892" height="12.892" transform="translate(98.726)"/><rect class="c" width="12.892" height="12.892" transform="translate(115.181)"/><rect class="c" width="12.892" height="12.892" transform="translate(131.635)"/><rect class="c" width="12.892" height="12.892" transform="translate(148.089)"/><rect class="c" width="12.892" height="12.892" transform="translate(164.544)"/><rect class="c" width="12.892" height="12.892" transform="translate(180.998)"/><rect class="c" width="12.892" height="12.892" transform="translate(197.453)"/></g><g transform="translate(0 78.741)"><rect class="c" width="12.892" height="12.892"/><rect class="c" width="12.892" height="12.892" transform="translate(16.454)"/><rect class="c" width="12.892" height="12.892" transform="translate(32.909)"/><rect class="c" width="15.73" height="12.892" transform="translate(49.363)"/><rect class="c" width="78.71" height="12.892" transform="translate(68.655)"/><rect class="c" width="12.892" height="12.892" transform="translate(173.828)"/><rect class="c" width="12.892" height="12.892" transform="translate(190.282)"/><rect class="c" width="12.892" height="12.892" transform="translate(206.764)"/><rect class="c" width="20.017" height="12.892" transform="translate(150.584)"/><rect class="c" width="12.892" height="12.892" transform="translate(223.738)"/></g><g transform="translate(22.512 31.422)"><rect class="c" width="12.892" height="12.892"/><rect class="c" width="12.892" height="12.892" transform="translate(16.454)"/><rect class="c" width="12.892" height="12.892" transform="translate(32.909)"/><rect class="c" width="12.892" height="12.892" transform="translate(49.363)"/><rect class="c" width="12.892" height="12.892" transform="translate(65.818)"/><rect class="c" width="12.892" height="12.892" transform="translate(82.272)"/><rect class="c" width="12.892" height="12.892" transform="translate(98.726)"/><rect class="c" width="12.892" height="12.892" transform="translate(115.181)"/><rect class="c" width="12.892" height="12.892" transform="translate(131.635)"/><rect class="c" width="12.892" height="12.892" transform="translate(148.09)"/><rect class="c" width="12.892" height="12.892" transform="translate(164.544)"/><rect class="c" width="12.892" height="12.892" transform="translate(180.998)"/><path class="c" d="M372.15,307.924v28.6H359.261V320.813h-3.78V307.924Z" transform="translate(-158.032 -307.921)"/></g><g transform="translate(26.285 47.134)"><rect class="c" width="12.892" height="12.892"/><rect class="c" width="12.892" height="12.892" transform="translate(16.454)"/><rect class="c" width="12.892" height="12.892" transform="translate(32.909)"/><rect class="c" width="12.892" height="12.892" transform="translate(49.363)"/><rect class="c" width="12.892" height="12.892" transform="translate(65.817)"/><rect class="c" width="12.892" height="12.892" transform="translate(82.272)"/><rect class="c" width="12.892" height="12.892" transform="translate(98.726)"/><rect class="c" width="12.892" height="12.892" transform="translate(115.18)"/><rect class="c" width="12.892" height="12.892" transform="translate(131.635)"/><rect class="c" width="12.892" height="12.892" transform="translate(148.089)"/><rect class="c" width="12.892" height="12.892" transform="translate(164.544)"/><rect class="c" width="12.892" height="12.892" transform="translate(180.998)"/></g><g transform="translate(19.292 62.845)"><rect class="c" width="12.892" height="12.892"/><rect class="c" width="12.892" height="12.892" transform="translate(16.454)"/><rect class="c" width="12.892" height="12.892" transform="translate(32.909)"/><rect class="c" width="12.892" height="12.892" transform="translate(49.363)"/><rect class="c" width="12.892" height="12.892" transform="translate(65.818)"/><rect class="c" width="12.892" height="12.892" transform="translate(82.272)"/><rect class="c" width="12.892" height="12.892" transform="translate(98.726)"/><rect class="c" width="12.892" height="12.892" transform="translate(115.181)"/><rect class="c" width="12.892" height="12.892" transform="translate(131.635)"/><rect class="c" width="12.892" height="12.892" transform="translate(148.09)"/><rect class="c" width="12.892" height="12.892" transform="translate(164.544)"/></g><g transform="translate(26.285 0.778)"><rect class="c" width="12.892" height="12.892"/><rect class="c" width="12.892" height="12.892" transform="translate(16.454)"/><rect class="c" width="12.892" height="12.892" transform="translate(32.909)"/><rect class="c" width="12.892" height="12.892" transform="translate(49.363)"/><rect class="c" width="12.892" height="12.892" transform="translate(65.817)"/><rect class="c" width="12.892" height="12.892" transform="translate(82.272)"/><rect class="c" width="12.892" height="12.892" transform="translate(98.726)"/><rect class="c" width="12.892" height="12.892" transform="translate(115.18)"/><rect class="c" width="12.892" height="12.892" transform="translate(131.635)"/><rect class="c" width="12.892" height="12.892" transform="translate(148.089)"/><rect class="c" width="12.892" height="12.892" transform="translate(164.544)"/><rect class="c" width="12.892" height="12.892" transform="translate(180.998)"/><rect class="c" width="12.892" height="12.892" transform="translate(197.452)"/></g><rect class="c" width="15.619" height="12.892" transform="translate(0 62.845)"/></g></g><path class="i" d="M145.683,273.5l5.172-1.725H389.849l3.406,1.7Z" transform="translate(-145.683 -271.776)"/></g></g><g transform="translate(413.975 204.726)"><g transform="translate(0 0)"><circle class="j" cx="44.476" cy="44.476" r="44.476" transform="translate(0 13.243)"/><g transform="translate(11.816)"><g transform="translate(0 18.389)"><g transform="translate(12.752)"><path class="b" d="M475.146,232.235c-9.483,15.554-12.856,13.453-45.2,28.95-16.42,7.866-32.29-17.424-21.555-43.38.525-1.267,5.164-7.673,5.164-7.673a23.695,23.695,0,0,1,41.4-9.787,25.585,25.585,0,0,1,22.728-5.43c.376,1.095,2.092-1.052,2.435,0,.129.408,2.82-.408,2.938,0,.408,1.256,2.081.269,3.061,2.9s1.307,5.287-2.326,8.2-8.694,3.342-12.085,4.995c-2.372,1.159-4.357,3.069-6.825,4.013s-5.881.408-6.825-2.06c1.191,4.958,6.392,3.476,11.391,4.457C477.178,218.942,479.138,225.689,475.146,232.235Z" transform="translate(-404.884 -191.741)"/></g><g transform="translate(0 2.024)"><path class="j" d="M457.519,222.38s7.962-1.08,11.745-.514a7.249,7.249,0,0,1,4.579,2.628,2.524,2.524,0,0,1,.549,1.42l.427,6.222a2.525,2.525,0,0,1-.686,1.928c-1.552,1.617-6.243,4.568-20.124,5.629C434.489,241.186,457.519,222.38,457.519,222.38Z" transform="translate(-389.115 -191.576)"/><path class="j" d="M455.588,208.05a29.706,29.706,0,0,1,6.517,18.919c0,7.415-8.587,32.741-30.576,35.824-23.274,3.263-41.985-16.657-37.989-40.626C396.305,205.587,436.9,184.828,455.588,208.05Z" transform="translate(-393 -193.331)"/><ellipse class="g" cx="33.77" cy="31.964" rx="33.77" ry="31.964" transform="translate(0.379 0)"/><ellipse class="i" cx="27.724" cy="26.24" rx="27.724" ry="26.24" transform="translate(6.356 7.397)"/><path class="k" d="M460.894,225.592c0-17.653-15.12-31.964-33.77-31.964s-33.77,14.311-33.77,31.964" transform="translate(-392.974 -193.628)"/><path class="k" d="M447.99,245.049a30.935,30.935,0,0,0,8.911-21.634" transform="translate(-388.981 -191.451)"/><path class="k" d="M402.779,244.672a34.665,34.665,0,0,0,23.656,9.152,35.152,35.152,0,0,0,15.674-3.644" transform="translate(-392.286 -189.897)"/><path class="k" d="M398.239,239.362q.663.988,1.4,1.927" transform="translate(-392.617 -190.285)"/><path class="k" d="M393.354,223.415a30.434,30.434,0,0,0,3.218,13.636" transform="translate(-392.974 -191.451)"/><path class="j" d="M472.082,231.7s-6.021-4.209-15.788-.393" transform="translate(-388.374 -190.991)"/><path class="j" d="M467.028,234.293a61.984,61.984,0,0,1-12.489,1.963" transform="translate(-388.502 -190.656)"/><path class="j" d="M469.2,233.054a5.739,5.739,0,0,1-1.506.776" transform="translate(-387.541 -190.746)"/></g></g><g transform="translate(27.874)"><path class="g" d="M478.108,200.629c-.118-.408,5.911-2.657,6.916-7.474s1.362-9.22-2.9-13.863-7.94-4.726-11.491-4.643a27.793,27.793,0,0,1-3.366,0c-3.08.311-6.321.7-8.853,2.447-2.543,1.781-4.045,5.441-2.4,8.07,1.61,2.608,5.827,4.056,5.162,7.029-6.878,3.874-15.27,3.423-22.921,5.376a37.328,37.328,0,0,0-12.781,6.031c-.011,0-.011.011-.021.011a39.4,39.4,0,0,0-3.477,2.919,13.75,13.75,0,0,0-1.416,1.524c-.011.011-.011.011-.011.021a5.246,5.246,0,0,0-1.213,2.726c-.268,2.865,2.339,4.818,5.119,6.063a.626.626,0,0,1-.043,1.159,15.991,15.991,0,0,0-5.011,2.9c-.011,0-.021.011-.032.021a1.244,1.244,0,0,0,1.041,2.125c.129-.021.29-.032.429-.043a8.1,8.1,0,0,1,3.241.386c1.642.58,2.79,1.7,2.908,3.069.172,2.178-2.307,4.142-5.526,4.389-.783.075-.182,1.009.966,1.2a17.134,17.134,0,0,0,6.868-.558c2.693-.644,5.569-1.577,7.093-3.885a4.855,4.855,0,0,0,.644-3.412,3.453,3.453,0,0,0-2.854-3.133,93.884,93.884,0,0,0,14.723-2.951h.011l1.513-.461a14.122,14.122,0,0,0,4.153-1.814,5.783,5.783,0,0,0,1.814-2c1.116-2.157-.461-5.569-2.844-5.119,6.921-2.715,14.24-4.3,21.236-6.8C475.9,201.53,477.013,201.1,478.108,200.629Z" transform="translate(-418.976 -174.634)"/></g></g></g></g><g transform="translate(103.982 114.432)"><path class="j" d="M453.1,103.258,93.11,104.9l5.445-8.159a14.115,14.115,0,0,1,11.74-6.28H436.037a14.113,14.113,0,0,1,10.995,5.264Z" transform="translate(-93.11 -90.462)"/><g transform="translate(0 10.493)"><rect class="l" width="93.02" height="93.02" rx="34.152" transform="translate(129.895 56.267)"/><path class="m" d="M229.913,203.337v13.224a7.514,7.514,0,0,0,7.514,7.514h45.355a7.521,7.521,0,0,0,7.513-7.461c.057-5.949.374-13.276.374-13.276Z" transform="translate(-83.111 -92.704)"/><path class="n" d="M405.923,215.292H140.649a6.8,6.8,0,0,1-6.332-4.329L93.4,105.952a4.191,4.191,0,0,1,3.9-5.712H449.269a4.191,4.191,0,0,1,3.9,5.712L412.255,210.963A6.8,6.8,0,0,1,405.923,215.292Z" transform="translate(-93.11 -100.24)"/><path class="i" d="M407.361,205.685H137.511L100.379,106.44H444.318Z" transform="translate(-92.578 -99.787)"/><rect class="i" width="60.159" height="4.118" transform="translate(147.092 114.908)"/><g transform="translate(55.411 12.706)"><path class="e" d="M364.7,201.011H174.143c-1.046,0-2.045-.475-2.23-1.064l-27.105-86.113c-.3-.966.542-1.752,1.891-1.752H392.143c1.349,0,2.195.787,1.89,1.752l-27.1,86.113C366.744,200.536,365.745,201.011,364.7,201.011Z" transform="translate(-144.746 -112.081)"/><path class="i" d="M363.515,198.289H174.365l-23.033-75.665H386.548Z" transform="translate(-144.265 -111.31)"/><g transform="translate(16.194 15.999)"><path class="g" d="M200.625,140.13H164.816c-.884,0-1.465.476-1.3,1.063a1.966,1.966,0,0,0,1.893,1.057h35.6c.879,0,1.508-.472,1.4-1.057S201.509,140.13,200.625,140.13Z" transform="translate(-159.57 -126.03)"/><path class="g" d="M201.377,146.222H170.923c-.868,0-1.447.46-1.293,1.026a1.9,1.9,0,0,0,1.841,1.021h30.282c.864,0,1.482-.456,1.381-1.021S202.245,146.222,201.377,146.222Z" transform="translate(-159.123 -125.585)"/><path class="o" d="M202.734,152.1H168.177c-.854,0-1.419.444-1.263.99a1.89,1.89,0,0,0,1.818.985H203.1c.848,0,1.457-.441,1.36-.985S203.587,152.1,202.734,152.1Z" transform="translate(-159.322 -125.155)"/><path class="g" d="M202.8,157.779h-20.3c-.838,0-1.412.429-1.282.957s.91.951,1.744.951h20.187c.834,0,1.434-.425,1.339-.951S203.643,157.779,202.8,157.779Z" transform="translate(-158.276 -124.74)"/><path class="g" d="M204.7,163.265h-33.39c-.824,0-1.375.414-1.229.925a1.816,1.816,0,0,0,1.747.92h33.21c.82,0,1.411-.411,1.32-.92S205.524,163.265,204.7,163.265Z" transform="translate(-159.09 -124.339)"/><path class="g" d="M205.234,168.568H178.271c-.811,0-1.361.4-1.229.894s.892.891,1.7.891h26.82c.807,0,1.39-.4,1.3-.891S206.045,168.568,205.234,168.568Z" transform="translate(-158.581 -123.952)"/><path class="g" d="M206.144,173.7H179.621c-.8,0-1.34.388-1.213.866s.875.861,1.668.861h26.385c.793,0,1.367-.385,1.282-.861S206.942,173.7,206.144,173.7Z" transform="translate(-158.481 -123.577)"/><path class="g" d="M207.217,178.663H178.279c-.784,0-1.317.377-1.189.838s.863.834,1.644.834h28.79c.781,0,1.347-.372,1.264-.834S208,178.663,207.217,178.663Z" transform="translate(-158.578 -123.214)"/><path class="o" d="M207.4,183.472H188.71c-.772,0-1.308.364-1.2.811s.822.808,1.59.808h18.6c.768,0,1.327-.362,1.247-.808S208.174,183.472,207.4,183.472Z" transform="translate(-157.816 -122.862)"/><path class="o" d="M198.848,133.813H172.161c-.9,0-1.5.495-1.345,1.1a1.951,1.951,0,0,0,1.906,1.1h26.529c.895,0,1.533-.49,1.424-1.1A1.786,1.786,0,0,0,198.848,133.813Z" transform="translate(-159.037 -126.492)"/><path class="g" d="M198.359,127.258H161.2c-.917,0-1.514.514-1.335,1.145a2.057,2.057,0,0,0,1.977,1.139h36.932c.911,0,1.56-.509,1.448-1.139A1.828,1.828,0,0,0,198.359,127.258Z" transform="translate(-159.837 -126.971)"/><path class="g" d="M209.078,188.13h-30.79c-.761,0-1.276.353-1.152.787s.837.783,1.594.783h30.637c.757,0,1.307-.351,1.23-.783S209.838,188.13,209.078,188.13Z" transform="translate(-158.574 -122.522)"/><path class="o" d="M209.844,142.532h6.946l-.348-2.651h-7Z" transform="translate(-156.211 -126.048)"/><path class="o" d="M210.746,148.54h6.824l-.336-2.558h-6.872Z" transform="translate(-156.144 -125.602)"/><path class="o" d="M211.617,154.34h6.705L218,151.87h-6.752Z" transform="translate(-156.08 -125.172)"/><path class="o" d="M212.459,159.941h6.59l-.313-2.386H212.1Z" transform="translate(-156.017 -124.757)"/><path class="o" d="M213.272,165.355h6.48l-.3-2.306h-6.524Z" transform="translate(-155.957 -124.355)"/><path class="o" d="M214.058,170.589h6.373l-.293-2.23h-6.415Z" transform="translate(-155.899 -123.967)"/><path class="o" d="M214.819,175.654h6.269l-.283-2.158h-6.311Z" transform="translate(-155.842 -123.591)"/><path class="o" d="M215.555,180.557h6.169l-.274-2.09h-6.209Z" transform="translate(-155.788 -123.228)"/><path class="o" d="M216.269,185.306h6.072l-.266-2.024h-6.111Z" transform="translate(-155.735 -122.876)"/><path class="o" d="M208.909,136.3h7.074l-.361-2.75H208.5Z" transform="translate(-156.281 -126.511)"/><path class="o" d="M207.938,129.844h7.205l-.374-2.854h-7.26Z" transform="translate(-156.353 -126.991)"/><path class="o" d="M216.96,189.908h5.978l-.257-1.962h-6.016Z" transform="translate(-155.684 -122.535)"/><path class="g" d="M251.046,179.5c-.015-.461.608-.838,1.393-.838H355.261c.784,0,1.311.377,1.176.838s-.876.834-1.656.834h-102.3C251.706,180.335,251.061,179.963,251.046,179.5Z" transform="translate(-153.171 -123.214)"/><path class="g" d="M353.1,175.425H296.164c-.794,0-1.395-.385-1.342-.861s.742-.866,1.54-.866h57.23c.8,0,1.331.388,1.191.866S353.889,175.425,353.1,175.425Z" transform="translate(-149.971 -123.577)"/><path class="o" d="M284.783,175.425H267.072c-.793,0-1.43-.385-1.423-.861s.659-.866,1.457-.866h17.8c.8,0,1.413.388,1.377.866S285.576,175.425,284.783,175.425Z" transform="translate(-152.104 -123.577)"/><path class="g" d="M323.5,170.351H243.186c-.807,0-1.485-.4-1.515-.89s.6-.894,1.413-.894h80.738c.811,0,1.393.4,1.3.894S324.3,170.351,323.5,170.351Z" transform="translate(-153.856 -123.952)"/><path class="o" d="M227.529,168.568h5.724c.811,0,1.5.4,1.544.894s-.577.89-1.384.89h-5.694c-.807,0-1.5-.4-1.559-.89S226.717,168.568,227.529,168.568Z" transform="translate(-154.99 -123.952)"/><path class="g" d="M334.12,164.189c-.108.509-.861.92-1.68.92H256.76c-.821,0-1.493-.411-1.5-.92s.651-.925,1.476-.925h76.09C333.649,163.264,334.229,163.679,334.12,164.189Z" transform="translate(-152.863 -124.339)"/><path class="g" d="M226.964,163.264h21.478c.824,0,1.51.415,1.53.925s-.629.92-1.449.92H227.16c-.82,0-1.53-.411-1.586-.92S226.14,163.264,226.964,163.264Z" transform="translate(-155.033 -124.339)"/><path class="g" d="M226.38,157.778h82.554c.838,0,1.46.429,1.39.957s-.8.952-1.638.952h-82.1c-.834,0-1.558-.425-1.616-.952S225.542,157.778,226.38,157.778Z" transform="translate(-155.077 -124.74)"/><path class="g" d="M276.334,154.077c-.849,0-1.518-.44-1.495-.985s.733-.99,1.587-.99h43.561c.853,0,1.468.444,1.373.99s-.858.985-1.707.985Z" transform="translate(-151.432 -125.155)"/><path class="g" d="M225.777,152.1h37.7c.853,0,1.544.444,1.541.99s-.691.985-1.54.985H225.987c-.849,0-1.585-.44-1.646-.985S224.923,152.1,225.777,152.1Z" transform="translate(-155.123 -125.155)"/><path class="g" d="M364.1,148.268H260.331c-.863,0-1.566-.456-1.57-1.021s.7-1.026,1.566-1.026h104.36c.869,0,1.439.46,1.274,1.026A1.94,1.94,0,0,1,364.1,148.268Z" transform="translate(-152.607 -125.585)"/><path class="g" d="M364.979,142.25H273.667c-.879,0-1.576-.472-1.557-1.057s.752-1.063,1.637-1.063h91.842c.883,0,1.462.476,1.291,1.063A1.983,1.983,0,0,1,364.979,142.25Z" transform="translate(-151.631 -126.03)"/><path class="o" d="M361.842,136.013h-19.12c-.895,0-1.508-.49-1.367-1.1a1.9,1.9,0,0,1,1.885-1.1h19.233c.9,0,1.486.495,1.309,1.1A2.024,2.024,0,0,1,361.842,136.013Z" transform="translate(-146.572 -126.492)"/><path class="g" d="M335.052,136.013H264.84c-.895,0-1.617-.49-1.614-1.1s.737-1.1,1.638-1.1h70.628c.9,0,1.53.495,1.406,1.1A1.828,1.828,0,0,1,335.052,136.013Z" transform="translate(-152.281 -126.492)"/><path class="g" d="M229.113,183.471h64.838c.772,0,1.362.365,1.318.812s-.7.808-1.472.808H229.286c-.768,0-1.432-.362-1.481-.808S228.341,183.471,229.113,183.471Z" transform="translate(-154.87 -122.862)"/><path class="g" d="M229.609,188.13h99.619c.761,0,1.3.353,1.209.787s-.78.783-1.537.783H229.776c-.757,0-1.409-.351-1.457-.783S228.848,188.13,229.609,188.13Z" transform="translate(-154.832 -122.522)"/><path class="g" d="M330.477,129.542H279.762c-.912,0-1.627-.509-1.6-1.139s.8-1.145,1.717-1.145H330.9c.917,0,1.563.514,1.442,1.145A1.839,1.839,0,0,1,330.477,129.542Z" transform="translate(-151.189 -126.971)"/><path class="o" d="M269.51,129.542H223.377c-.912,0-1.707-.509-1.777-1.139s.616-1.145,1.533-1.145h46.41c.917,0,1.651.514,1.64,1.145S270.422,129.542,269.51,129.542Z" transform="translate(-155.323 -126.971)"/><path class="o" d="M303.3,183.471c.773,0,1.346.365,1.281.812s-.739.808-1.508.808h-5.012c-.768,0-1.348-.362-1.294-.808s.723-.812,1.5-.812Z" transform="translate(-149.829 -122.862)"/><path class="o" d="M246.2,179.5c.024.461-.59.834-1.37.834H238c-.78,0-1.443-.372-1.481-.834s.569-.838,1.353-.838h6.863C245.518,178.663,246.174,179.04,246.2,179.5Z" transform="translate(-154.233 -123.214)"/><path class="o" d="M323.045,158.735c-.1.527-.856.952-1.691.952h-7.981c-.834,0-1.443-.425-1.361-.952s.831-.957,1.67-.957h8.026C322.546,157.778,323.145,158.207,323.045,158.735Z" transform="translate(-148.715 -124.74)"/><path class="o" d="M346.055,163.264c.824,0,1.381.415,1.244.925s-.912.92-1.732.92H339.2c-.82,0-1.385-.411-1.263-.92s.893-.925,1.717-.925Z" transform="translate(-146.821 -124.339)"/><path class="o" d="M248.62,148.268c-.864,0-1.583-.456-1.606-1.021s.662-1.026,1.53-1.026h6.773c.869,0,1.58.46,1.587,1.026s-.686,1.021-1.55,1.021Z" transform="translate(-153.466 -125.585)"/></g><g transform="translate(12.483 2.399)"><path class="g" d="M163.025,117.559a2.287,2.287,0,0,1-2.259,3.167,4.765,4.765,0,0,1-4.225-3.167,2.3,2.3,0,0,1,2.235-3.242A4.754,4.754,0,0,1,163.025,117.559Z" transform="translate(-156.379 -114.317)"/><path class="g" d="M171.162,117.608a2.36,2.36,0,0,1-2.36,3.166,4.572,4.572,0,0,1-4.123-3.166,2.367,2.367,0,0,1,2.339-3.241A4.56,4.56,0,0,1,171.162,117.608Z" transform="translate(-155.782 -114.313)"/><path class="g" d="M179.393,117.559a2.441,2.441,0,0,1-2.464,3.167,4.387,4.387,0,0,1-4.02-3.167,2.446,2.446,0,0,1,2.446-3.242A4.376,4.376,0,0,1,179.393,117.559Z" transform="translate(-155.178 -114.317)"/></g></g><g transform="translate(7.8 6.165)"><path class="p" d="M100.379,106.44,129.3,183.732l34.886-77.293Z" transform="translate(-100.379 -105.952)"/><path class="p" d="M145.847,205.685l57.871-99.246H264.3l-85.171,99.246Z" transform="translate(-97.055 -105.952)"/><path class="p" d="M286.7,105.985l-90.2,99.733h13.889l93.438-99.246Z" transform="translate(-93.353 -105.985)"/><path class="p" d="M297.157,205.685l99.136-99.246h13.989l-102.21,99.246Z" transform="translate(-85.996 -105.952)"/></g></g></g><g transform="translate(119.186 257.989)"><g transform="translate(0 0)"><g transform="translate(41.388 15.91)"><path class="j" d="M173.806,239.067H151.168a5.321,5.321,0,0,0-5.321,5.321V255.4a5.322,5.322,0,0,0,5.321,5.321h5.917l4.483,10.162,6.321-10.162h5.917a5.322,5.322,0,0,0,5.321-5.321V244.388A5.321,5.321,0,0,0,173.806,239.067Z" transform="translate(-145.847 -239.067)"/><g transform="translate(13.494 5.266)"><path class="i" d="M158.422,245.008a1.05,1.05,0,0,1,1.1-1.034,1.025,1.025,0,0,1,1.1.993,1.1,1.1,0,0,1-2.205.042Zm.235,2.247h1.723v7.362h-1.723Z" transform="translate(-158.422 -243.974)"/><path class="i" d="M164.32,246.848v.441h2.027v1.379h-1.971V254.6h-1.723v-5.929h-1.214v-1.379h1.214v-.469a2.379,2.379,0,0,1,2.633-2.55,2.76,2.76,0,0,1,1.558.4l-.483,1.3a1.7,1.7,0,0,0-.952-.3C164.693,245.662,164.32,246.062,164.32,246.848Z" transform="translate(-158.201 -243.952)"/></g></g><g transform="translate(130.252 17.452)"><path class="j" d="M238.022,240.5H215.384a5.321,5.321,0,0,0-5.321,5.321V256.84a5.321,5.321,0,0,0,5.321,5.321H221.3l4.483,10.162,6.321-10.162h5.917a5.321,5.321,0,0,0,5.321-5.321V245.825A5.321,5.321,0,0,0,238.022,240.5Z" transform="translate(-210.063 -240.504)"/><g transform="translate(2.58 5.68)"><path class="i" d="M219.967,252.708H214.19a2.229,2.229,0,0,0,2.384,1.765,2.635,2.635,0,0,0,2-.8l.924,1.062a4.135,4.135,0,0,1-7.031-2.58,3.661,3.661,0,0,1,3.805-3.763,3.59,3.59,0,0,1,3.721,3.806C219.994,252.335,219.981,252.543,219.967,252.708Zm-5.79-1.144h4.178a2,2,0,0,0-2.082-1.793A2.034,2.034,0,0,0,214.176,251.564Z" transform="translate(-212.467 -245.607)"/><path class="i" d="M221.019,245.8h1.723v10.23h-1.723Z" transform="translate(-211.842 -245.797)"/><path class="i" d="M223.946,255.106l.661-1.309a4.957,4.957,0,0,0,2.565.73c1.089,0,1.544-.3,1.544-.812,0-1.407-4.55-.084-4.55-3.02,0-1.393,1.254-2.3,3.24-2.3a5.87,5.87,0,0,1,2.758.634l-.662,1.31a4.022,4.022,0,0,0-2.109-.552c-1.048,0-1.544.344-1.544.827,0,1.489,4.549.165,4.549,3.047,0,1.379-1.268,2.275-3.336,2.275A5.845,5.845,0,0,1,223.946,255.106Z" transform="translate(-211.628 -245.607)"/><path class="i" d="M238.278,252.708H232.5a2.229,2.229,0,0,0,2.385,1.765,2.637,2.637,0,0,0,2-.8l.924,1.062a4.135,4.135,0,0,1-7.032-2.58,3.661,3.661,0,0,1,3.805-3.763A3.59,3.59,0,0,1,238.3,252.2C238.3,252.335,238.291,252.543,238.278,252.708Zm-5.79-1.144h4.176a2,2,0,0,0-2.082-1.793A2.033,2.033,0,0,0,232.488,251.564Z" transform="translate(-211.129 -245.607)"/></g></g><g transform="translate(211.483 16.798)"><path class="j" d="M300.282,239.9H277.645a5.321,5.321,0,0,0-5.322,5.321v11.014a5.321,5.321,0,0,0,5.322,5.321h5.917l4.483,10.162,6.32-10.162h5.917a5.321,5.321,0,0,0,5.321-5.321V245.217A5.321,5.321,0,0,0,300.282,239.9Z" transform="translate(-272.323 -239.895)"/><g transform="translate(7.632 5.584)"><path class="i" d="M282.316,247.677v.441h2.027V249.5h-1.971v5.929h-1.724V249.5h-1.213v-1.379h1.213v-.468a2.379,2.379,0,0,1,2.633-2.551,2.761,2.761,0,0,1,1.559.4l-.484,1.3a1.689,1.689,0,0,0-.95-.3C282.69,246.491,282.316,246.891,282.316,247.677Z" transform="translate(-279.435 -245.099)"/><path class="i" d="M284.418,251.547a3.925,3.925,0,1,1,3.915,3.777A3.706,3.706,0,0,1,284.418,251.547Zm6.107,0a2.188,2.188,0,1,0-2.192,2.3A2.144,2.144,0,0,0,290.525,251.547Z" transform="translate(-279.071 -244.903)"/><path class="i" d="M297.524,247.784v1.641a2.158,2.158,0,0,0-.4-.042,2.008,2.008,0,0,0-2.138,2.276v3.57h-1.722v-7.362h1.64v1.075A2.9,2.9,0,0,1,297.524,247.784Z" transform="translate(-278.424 -244.903)"/></g></g><g transform="translate(89.636 3.162)"><path class="j" d="M205.962,227.188H183.324A5.321,5.321,0,0,0,178,232.509v11.014a5.321,5.321,0,0,0,5.321,5.321h5.917l4.483,10.162,6.321-10.162h5.917a5.321,5.321,0,0,0,5.321-5.321V232.509A5.321,5.321,0,0,0,205.962,227.188Z" transform="translate(-178.003 -227.188)"/><g transform="translate(11.315 4.578)"><path class="i" d="M188.547,231.454h3.3v1.379H190.27V242.98h1.572v1.379h-3.3Z" transform="translate(-188.547 -231.454)"/><path class="i" d="M195.6,244.359V242.98h1.558V232.833H195.6v-1.379h3.282v12.9Z" transform="translate(-188.032 -231.454)"/></g></g><g transform="translate(170.867 2.037)"><path class="j" d="M268.683,226.139H246.045a5.321,5.321,0,0,0-5.321,5.321v11.014a5.321,5.321,0,0,0,5.321,5.321h5.917l4.483,10.162,6.321-10.162h5.917A5.321,5.321,0,0,0,274,242.475V231.461A5.321,5.321,0,0,0,268.683,226.139Z" transform="translate(-240.724 -226.139)"/><g transform="translate(10.047 4.532)"><path class="i" d="M252.072,236.815c.552.179.813.552.813,1.406v2.62a.925.925,0,0,0,1.02,1.047h.29v1.379h-.69a2.046,2.046,0,0,1-2.343-2.247v-2.84c0-.455-.235-.662-.62-.662h-.456v-1.406h.456c.385,0,.62-.207.62-.662V232.61a2.047,2.047,0,0,1,2.343-2.248h.69v1.379h-.29a.926.926,0,0,0-1.02,1.047v2.621C252.886,236.263,252.624,236.635,252.072,236.815Z" transform="translate(-250.087 -230.362)"/><path class="i" d="M262.016,236.112v1.406h-.468c-.372,0-.607.207-.607.662v2.84a2.057,2.057,0,0,1-2.358,2.247h-.689v-1.379h.29a.929.929,0,0,0,1.034-1.047v-2.62c0-.854.247-1.227.8-1.406-.553-.179-.8-.552-.8-1.406v-2.621a.93.93,0,0,0-1.034-1.047h-.29v-1.379h.689a2.058,2.058,0,0,1,2.358,2.248v2.839c0,.455.235.662.607.662Z" transform="translate(-249.516 -230.362)"/></g></g><g transform="translate(248.794 0)"><path class="j" d="M330.739,224.059H308.1a5.321,5.321,0,0,0-5.321,5.321v11.014a5.322,5.322,0,0,0,5.321,5.321h5.917l4.483,10.162,6.32-10.162h5.917a5.322,5.322,0,0,0,5.321-5.321V229.38A5.321,5.321,0,0,0,330.739,224.059Z" transform="translate(-302.78 -224.059)"/><g transform="translate(15.74 7.007)"><path class="i" d="M317.448,231.734a1.131,1.131,0,1,1,2.262,0,1.131,1.131,0,1,1-2.262,0Zm2.262,5.253a3.122,3.122,0,0,1-.318,1.186l-.7,1.943h-1.116l.552-2.109a1.06,1.06,0,0,1-.647-1.021,1.117,1.117,0,1,1,2.233,0Z" transform="translate(-317.448 -230.589)"/></g></g><g transform="translate(0 80.334)"><path class="j" d="M112.6,330.921h22.638a5.321,5.321,0,0,0,5.321-5.321V314.586a5.321,5.321,0,0,0-5.321-5.32H129.32l1.289-10.162-12.093,10.162H112.6a5.321,5.321,0,0,0-5.321,5.32V325.6A5.321,5.321,0,0,0,112.6,330.921Z" transform="translate(-107.278 -299.103)"/><g transform="translate(12.033 16.162)"><path class="i" d="M118.491,322.836a1.067,1.067,0,0,1,1.117-1.061,1.05,1.05,0,0,1,1.088,1.061,1.061,1.061,0,0,1-1.088,1.075A1.078,1.078,0,0,1,118.491,322.836Zm.1-8.672h2.04l-.344,6.453h-1.365Z" transform="translate(-118.491 -314.164)"/><path class="i" d="M122.138,316.464h6.355v1.378h-6.355Zm0,3.335h6.355v1.379h-6.355Z" transform="translate(-118.224 -313.996)"/></g></g></g></g></g></svg>