<svg xmlns="http://www.w3.org/2000/svg" width="57.103" height="72.13" viewBox="0 0 57.103 72.13"><defs><style>.a{fill:#0e273b;}</style></defs><g transform="translate(-592.131 -242.385)"><path class="a" d="M639.066,314.273a3.948,3.948,0,1,1,3.947-3.947,3.948,3.948,0,0,1-3.947,3.947Zm0-5.449a1.5,1.5,0,1,0,1.5,1.5,1.5,1.5,0,0,0-1.5-1.5h0Z" transform="translate(-18.384 -27.368)"/><path class="a" d="M639.382,289.028h-2.646a1.324,1.324,0,0,1-1.3-1.062l-2.646-13.23a1.323,1.323,0,0,1,1.036-1.558,1.3,1.3,0,0,1,.262-.026h7.938a1.323,1.323,0,0,1,1.3,1.583l-2.647,13.232A1.323,1.323,0,0,1,639.382,289.028Zm-1.594-1.928h.541l2.4-12.019h-5.35Z" transform="translate(-17.378 -13.158)"/><path class="a" d="M644.1,296.483H597.26A5.129,5.129,0,0,1,592.7,289l22.261-43.129a6.436,6.436,0,0,1,11.438,0L648.662,289a5.13,5.13,0,0,1-4.559,7.483ZM620.682,244.8a3.5,3.5,0,0,0-3.124,1.9l-22.81,44.194a2.177,2.177,0,0,0,1.935,3.176h48a2.177,2.177,0,0,0,1.936-3.175L623.8,246.7a3.5,3.5,0,0,0-3.124-1.905Z" transform="translate(0)"/><path class="a" d="M635.278,357.185a1.5,1.5,0,0,1-1.154-.541l-7.513-9.016a1.5,1.5,0,0,1,1.154-2.464h1.5v-3.006h2.425v4.508a1.5,1.5,0,0,1-1.31,1.488l4.895,6.129,4.923-6.129a1.5,1.5,0,0,1-1.31-1.488v-4.508h2.4v3.005h1.5a1.5,1.5,0,0,1,1.154,2.464l-7.512,9.016A1.5,1.5,0,0,1,635.278,357.185Z" transform="translate(-14.597 -42.67)"/></g></svg>