<svg xmlns="http://www.w3.org/2000/svg" width="24" height="24" viewBox="0 0 24 24"><defs><style>.badicoAa{fill:#52575c;}</style></defs><path class="badicoAa" d="M12,0A12.155,12.155,0,0,0,0,12.3,12.283,12.283,0,0,0,8.208,23.979c.6.113.819-.267.819-.593,0-.293-.01-1.066-.017-2.093-3.338.743-4.043-1.65-4.043-1.65a3.232,3.232,0,0,0-1.332-1.8c-1.09-.763.081-.748.081-.748a2.527,2.527,0,0,1,1.837,1.268,2.52,2.52,0,0,0,3.493,1.022,2.648,2.648,0,0,1,.762-1.645c-2.664-.311-5.466-1.366-5.466-6.08a4.826,4.826,0,0,1,1.236-3.3A4.521,4.521,0,0,1,5.7,5.1S6.7,4.772,9,6.363a11.1,11.1,0,0,1,6.009,0C17.3,4.773,18.3,5.1,18.3,5.1a4.528,4.528,0,0,1,.12,3.255,4.817,4.817,0,0,1,1.233,3.3c0,4.726-2.8,5.766-5.478,6.071a2.977,2.977,0,0,1,.815,2.278c0,1.645-.015,2.972-.015,3.375,0,.329.216.712.825.591A12.285,12.285,0,0,0,24,12.3,12.155,12.155,0,0,0,12,0Z"/></svg>