<svg xmlns="http://www.w3.org/2000/svg" width="49.537" height="72.129" viewBox="0 0 49.537 72.129"><defs><style>.a{fill:#0e273b;}</style></defs><g transform="translate(-80.186 0)"><path class="a" d="M143.039,204.7a18.523,18.523,0,1,1-18.523,18.523A18.544,18.544,0,0,1,143.039,204.7Zm0,34.933a16.41,16.41,0,1,0-16.41-16.41A16.429,16.429,0,0,0,143.039,239.635Z" transform="translate(-38.085 -198.457)"/><path class="a" d="M218.746,275.634a6.654,6.654,0,0,0,3.681,1.274v1.261a1.057,1.057,0,1,0,2.113,0v-1.343a5.4,5.4,0,0,0,4.286-4.439,4.738,4.738,0,0,0-3.262-5.421c-.336-.119-.68-.244-1.023-.374v-5.446a6.051,6.051,0,0,1,2.2.715,1.057,1.057,0,0,0,1.123-1.79,8.073,8.073,0,0,0-3.327-1.051v-1.083a1.057,1.057,0,1,0-2.113,0v1.208c-.18.038-.362.084-.546.139a4.481,4.481,0,0,0-3.069,3.516,3.939,3.939,0,0,0,1.287,3.881,10.772,10.772,0,0,0,2.328,1.328v6.782a4.614,4.614,0,0,1-2.524-.927,1.057,1.057,0,1,0-1.157,1.768Zm2.657-10.615a1.853,1.853,0,0,1-.514-1.827,2.4,2.4,0,0,1,1.538-1.862v4.335A6.95,6.95,0,0,1,221.4,265.019Zm3.456,3.939a2.655,2.655,0,0,1,1.882,3.078,3.329,3.329,0,0,1-2.2,2.607v-5.8Z" transform="translate(-118.63 -243.284)"/><path class="a" d="M140.308,95.8l1.326,1.06V90.141a1.057,1.057,0,0,1,2.113,0V96.86l1.326-1.06a1.057,1.057,0,1,1,1.319,1.651l-3.043,2.431a1.056,1.056,0,0,1-1.319,0l-3.043-2.431a1.057,1.057,0,1,1,1.319-1.651Z" transform="translate(-50.178 -40.534)"/><path class="a" d="M315.444,95.967a1.057,1.057,0,0,1,1.485-.166l1.326,1.06V90.142a1.057,1.057,0,1,1,2.113,0v6.719l1.326-1.06a1.057,1.057,0,1,1,1.319,1.651l-3.043,2.431a1.056,1.056,0,0,1-1.319,0l-3.043-2.431A1.056,1.056,0,0,1,315.444,95.967Z" transform="translate(-201.917 -40.535)"/><path class="a" d="M104.954,209.907a24.767,24.767,0,0,1-18.029-41.749,1.057,1.057,0,0,1,1.538,1.449,22.628,22.628,0,1,0,3.023-2.686l-3.023,2.686-.493-1.134-1.045-.359,3.3-2.891a24.769,24.769,0,1,1,14.726,44.685Z" transform="translate(0 -160.37)"/><path class="a" d="M231.195,16.681l1.948,1.927,5.531-5.472h-1a1.9,1.9,0,0,1-1.9-1.9V1.056a1.057,1.057,0,1,1,2.113,0v9.967h3.358a1.057,1.057,0,0,1,.743,1.808l-8.1,8.015a1.056,1.056,0,0,1-1.486,0l-2.691-2.662a1.057,1.057,0,1,1,1.486-1.5Z" transform="translate(-128.189 50.978)"/><path class="a" d="M192.05,44.229h3.358V34.263a1.057,1.057,0,1,1,2.113,0V44.442a1.9,1.9,0,0,1-1.9,1.9h-1l.58.574,3.92,3.925-1.6-.16v1.485l-3.807-3.747-2.407-2.381a1.057,1.057,0,0,1,.743-1.808Z" transform="translate(-95.197 17.771)"/></g></svg>