<svg xmlns="http://www.w3.org/2000/svg" width="23.996" height="24" viewBox="0 0 23.996 24"><defs><style>.badicoAa{fill:#52575c;}</style></defs><path class="badicoAa" d="M12,24c-3.236,0-3.663-.014-4.947-.071a8.831,8.831,0,0,1-2.911-.557,5.923,5.923,0,0,1-2.124-1.383A5.906,5.906,0,0,1,.628,19.86a8.8,8.8,0,0,1-.557-2.913C.014,15.665,0,15.239,0,12c0-3.272.013-3.66.076-4.949A8.853,8.853,0,0,1,.633,4.14,5.968,5.968,0,0,1,2.016,2.016,5.83,5.83,0,0,1,4.145.628,8.766,8.766,0,0,1,7.055.071C8.339.014,8.766,0,12,0c3.262,0,3.651.014,4.952.076a8.831,8.831,0,0,1,2.911.557A5.923,5.923,0,0,1,21.99,2.016a5.827,5.827,0,0,1,1.387,2.129,8.787,8.787,0,0,1,.557,2.91C23.992,8.338,24,8.707,24,12c0,3.238-.014,3.664-.071,4.945a8.84,8.84,0,0,1-.557,2.913,6.146,6.146,0,0,1-3.511,3.512,8.773,8.773,0,0,1-2.913.557C15.661,23.986,15.235,24,12,24ZM12,5.838A6.165,6.165,0,1,0,18.167,12,6.172,6.172,0,0,0,12,5.838Zm6.408-1.685a1.439,1.439,0,1,0,1.44,1.44A1.441,1.441,0,0,0,18.411,4.153ZM12,16a4,4,0,1,1,4-4A4,4,0,0,1,12,16Z"/></svg>