<svg xmlns="http://www.w3.org/2000/svg" width="198.473" height="64.005" viewBox="0 0 198.473 64.005"><defs><style>.a{fill:#0e273b;}.b{isolation:isolate;}</style></defs><g transform="translate(-322.175 -338.602)"><path class="a" d="M352.644,347.381l-13.575-8.434a2.315,2.315,0,0,0-2.445.009l-13.335,8.428a2.286,2.286,0,0,0-1.072,1.946v15.4a2.287,2.287,0,0,0,1.084,1.953L336.636,375c.045.028.091.055.138.079v8.611a1.075,1.075,0,0,0,2.149,0v-8.6c.046-.024.09-.049.134-.076l13.576-8.319a2.317,2.317,0,0,0,1.1-1.963v-15.4A2.292,2.292,0,0,0,352.644,347.381Zm-1.061,17.348a.157.157,0,0,1-.074.13l-12.587,7.714V358a2.647,2.647,0,1,0-2.149,0v14.558l-12.336-7.69a.15.15,0,0,1-.072-.13V349.33a.149.149,0,0,1,.071-.129l13.334-8.428a.154.154,0,0,1,.163,0l13.576,8.434a.15.15,0,0,1,.073.131Z"/><path class="a" d="M337.946,402.607a2.3,2.3,0,0,1-1.266-.381l-13.468-8.865a2.3,2.3,0,0,1-1.037-1.923V373.68a2.3,2.3,0,0,1,3.5-1.965l7.564,4.615a2.316,2.316,0,0,1,1.1,1.965v7.412a.154.154,0,0,0,.068.128l3.45,2.292a.154.154,0,0,0,.174,0l3.462-2.479a.155.155,0,0,0,.064-.125v-7.439a2.315,2.315,0,0,1,1.1-1.965l7.564-4.615a2.3,2.3,0,0,1,3.5,1.965v17.766a2.3,2.3,0,0,1-1.017,1.91l-13.483,9.073h0A2.308,2.308,0,0,1,337.946,402.607Zm.685-1.285-14.153-27.8a.146.146,0,0,0-.076.022.142.142,0,0,0-.078.134v17.764a.152.152,0,0,0,.069.128l13.468,8.866a.154.154,0,0,0,.17,0h0l13.487-9.079a.153.153,0,0,0,.068-.127V373.465a.154.154,0,0,0-.155-.153.147.147,0,0,0-.079.022l-7.564,4.615a.153.153,0,0,0-.073.131v7.439a2.309,2.309,0,0,1-.962,1.872l-3.462,2.479a2.314,2.314,0,0,1-2.614.046l-3.451-2.292a2.3,2.3,0,0,1-1.029-1.918v-7.412a.155.155,0,0,0-.073-.131l-7.564-4.614a.147.147,0,0,0-.081-.024Z"/><g class="b"><g class="b"><path class="a" d="M385.8,368.671c2.864.386,4.429,2.037,4.429,4.47,0,2.947-2.3,4.783-6.032,4.783H379.54V361.283h3.926c3.3,0,5.331,1.488,5.331,3.951a3.362,3.362,0,0,1-3,3.438Zm-4.129-5.694v4.9h1.9c1.88,0,3.021-.972,3.021-2.55,0-1.528-1.062-2.348-2.943-2.348Zm6.323,10.013c-.006-1.991-1.52-3.174-3.974-3.174h-2.349v6.414H384.1C386.539,376.23,387.989,374.981,387.995,372.99Z"/><path class="a" d="M404.25,366.213v11.71h-1.677l-.281-1.769a4.934,4.934,0,0,1-4.181,2.083c-3.069,0-5.493-2.359-5.493-6.168s2.424-6.168,5.493-6.168a4.934,4.934,0,0,1,4.187,2.092l.276-1.779Zm-1.787,5.856c0-2.479-1.528-4.414-3.923-4.414-2.332,0-3.82,1.935-3.82,4.414s1.488,4.413,3.82,4.413C400.935,376.482,402.463,374.548,402.463,372.069Z"/><path class="a" d="M418.652,360.243v17.681h-1.677l-.276-1.776a4.935,4.935,0,0,1-4.186,2.089c-3.069,0-5.493-2.359-5.493-6.168s2.424-6.168,5.493-6.168a4.94,4.94,0,0,1,4.09,1.96v-7.618Zm-1.787,11.826c0-2.479-1.528-4.414-3.923-4.414-2.333,0-3.82,1.935-3.82,4.414s1.487,4.414,3.82,4.414C415.337,376.483,416.865,374.549,416.865,372.069Z"/><path class="a" d="M421.885,362.28a1.448,1.448,0,1,1,1.448,1.447A1.447,1.447,0,0,1,421.885,362.28Zm.45,3.927h1.991v11.717h-1.991Z"/><path class="a" d="M427.093,372.069a5.947,5.947,0,0,1,6.058-6.169,6.188,6.188,0,0,1,3.953,1.337l-1.232,1.437a3.9,3.9,0,0,0-2.716-1.017c-2.482,0-3.962,1.936-3.962,4.412s1.48,4.412,3.962,4.412a3.9,3.9,0,0,0,2.716-1.017L437.1,376.9a6.189,6.189,0,0,1-3.953,1.336A5.947,5.947,0,0,1,427.093,372.069Z"/><path class="a" d="M438.507,372.069a6.166,6.166,0,1,1,6.165,6.168A6.011,6.011,0,0,1,438.507,372.069Zm10.178,0a4.029,4.029,0,1,0-4.013,4.389A4.1,4.1,0,0,0,448.685,372.069Z"/><path class="a" d="M459.982,369.564a8.393,8.393,0,0,1,8.665-8.672,8.822,8.822,0,0,1,5.14,1.553l-1.155,1.715a6.267,6.267,0,0,0-3.983-1.351c-3.941,0-6.43,3.089-6.43,6.755s2.489,6.756,6.43,6.756a6.265,6.265,0,0,0,3.983-1.348l1.155,1.712a8.822,8.822,0,0,1-5.14,1.553A8.392,8.392,0,0,1,459.982,369.564Z"/><path class="a" d="M476.544,360.243h2.049v17.681h-2.049Z"/><path class="a" d="M481.354,372.069a6.165,6.165,0,1,1,6.165,6.168A6.01,6.01,0,0,1,481.354,372.069Zm10.178,0a4.029,4.029,0,1,0-4.013,4.389A4.1,4.1,0,0,0,491.532,372.069Z"/><path class="a" d="M496.329,373.054v-6.84h2.049v6.844c0,2.114,1.081,3.4,2.979,3.4s2.98-1.284,2.98-3.4v-6.844h2.049v6.84c0,4.014-2.609,5.182-5.029,5.182S496.329,377.068,496.329,373.054Z"/><path class="a" d="M520.648,360.243v17.681h-1.676l-.277-1.776a4.934,4.934,0,0,1-4.185,2.089c-3.07,0-5.494-2.359-5.494-6.168s2.424-6.168,5.493-6.168a4.94,4.94,0,0,1,4.09,1.96v-7.618Zm-1.787,11.826c0-2.479-1.528-4.414-3.923-4.414-2.333,0-3.82,1.935-3.82,4.414s1.487,4.414,3.82,4.414C517.333,376.483,518.861,374.549,518.861,372.069Z"/></g></g></g></svg>