<svg id="Menu" xmlns="http://www.w3.org/2000/svg" width="48" height="48" viewBox="0 0 48 48">
  <path id="Caminho_27" data-name="Caminho 27" d="M-115.477,19.087h21.333a1.333,1.333,0,0,0,1.333-1.333h0a1.332,1.332,0,0,0-1.333-1.333h-21.333a1.333,1.333,0,0,0-1.333,1.333h0A1.334,1.334,0,0,0-115.477,19.087Zm0-6.667h21.333a1.333,1.333,0,0,0,1.333-1.333h0a1.332,1.332,0,0,0-1.333-1.333h-21.333a1.333,1.333,0,0,0-1.333,1.333h0A1.334,1.334,0,0,0-115.477,12.42Zm-1.333-8h0a1.334,1.334,0,0,0,1.333,1.333h21.333A1.333,1.333,0,0,0-92.81,4.42h0a1.332,1.332,0,0,0-1.333-1.333h-21.333A1.333,1.333,0,0,0-116.81,4.42Z" transform="translate(128.81 12.913)" fill="#0e273b"/>
  <rect id="Retângulo_2370" data-name="Retângulo 2370" width="48" height="48" fill="none"/>
</svg>
