<svg xmlns="http://www.w3.org/2000/svg" width="161.64" height="161.642" viewBox="0 0 161.64 161.642">
  <g id="blueprint" transform="translate(-0.004 0)">
    <path id="Caminho_1399" data-name="Caminho 1399" d="M232.647,170.668a10.776,10.776,0,1,0,10.776,10.776A10.776,10.776,0,0,0,232.647,170.668Zm0,16.164a5.388,5.388,0,1,1,5.388-5.388A5.388,5.388,0,0,1,232.647,186.832Zm0,0" transform="translate(-151.823 -116.788)" fill="#02293f"/>
    <path id="Caminho_1400" data-name="Caminho 1400" d="M209.774,120.873h-.035l-4.951,0a27.409,27.409,0,0,0-3-5.2l2.49-4.32a5.421,5.421,0,0,0-2.009-7.331l-9.3-5.363a5.322,5.322,0,0,0-4.073-.565,5.416,5.416,0,0,0-3.3,2.5l-2.494,4.3a26.661,26.661,0,0,0-6.007,0l-2.478-4.294a5.4,5.4,0,0,0-7.361-1.972l-9.331,5.388a5.4,5.4,0,0,0-1.974,7.36l2.48,4.293a26.831,26.831,0,0,0-3.007,5.2l-4.977.007a5.42,5.42,0,0,0-3.813,1.607,5.3,5.3,0,0,0-1.546,3.781l-.006,10.756a5.427,5.427,0,0,0,5.378,5.416l4.953,0a27.427,27.427,0,0,0,3,5.2l-2.492,4.322a5.421,5.421,0,0,0,2.013,7.328l9.3,5.361a5.323,5.323,0,0,0,4.076.567,5.418,5.418,0,0,0,3.3-2.5l2.492-4.3a26.6,26.6,0,0,0,6.008,0l2.476,4.294a5.355,5.355,0,0,0,3.273,2.507,5.423,5.423,0,0,0,1.407.186,5.342,5.342,0,0,0,2.681-.721l9.331-5.388a5.4,5.4,0,0,0,1.974-7.36l-2.478-4.293a26.782,26.782,0,0,0,3-5.2l4.977-.006a5.412,5.412,0,0,0,3.813-1.608,5.3,5.3,0,0,0,1.548-3.78l0-10.756a5.422,5.422,0,0,0-5.344-5.418Zm-6.842,16.182a2.7,2.7,0,0,0-2.54,1.813,21.214,21.214,0,0,1-3.918,6.78,2.7,2.7,0,0,0-.287,3.1l3.394,5.879-9.332,5.389-3.394-5.88a2.7,2.7,0,0,0-2.829-1.3,21.31,21.31,0,0,1-7.833,0,2.686,2.686,0,0,0-2.838,1.295l-3.407,5.874-9.345-5.379,3.39-5.876a2.693,2.693,0,0,0-.291-3.1,21.655,21.655,0,0,1-3.915-6.785,2.694,2.694,0,0,0-2.542-1.8l-6.775-.02-.012-10.77,6.807-.01a2.692,2.692,0,0,0,2.542-1.813,21.181,21.181,0,0,1,3.917-6.779,2.7,2.7,0,0,0,.289-3.1l-3.4-5.879,9.332-5.389,3.4,5.88a2.683,2.683,0,0,0,2.828,1.3,21.177,21.177,0,0,1,7.833,0,2.691,2.691,0,0,0,2.839-1.294l3.407-5.876,9.343,5.382-3.39,5.876a2.7,2.7,0,0,0,.291,3.1,21.652,21.652,0,0,1,3.919,6.785,2.7,2.7,0,0,0,2.542,1.8l6.775,0,.01,10.786Zm0,0" transform="translate(-99.274 -67.003)" fill="#02293f"/>
    <path id="Caminho_1401" data-name="Caminho 1401" d="M161.634,29.048A16.121,16.121,0,0,0,145.48,13.47H37.721V5.388A5.393,5.393,0,0,0,32.333,0H16.168A16.122,16.122,0,0,0,0,16.164V132.015a16.721,16.721,0,0,0,15.949,16.109c.074.006.139.044.215.044h1.86l3.987,8.74a8.06,8.06,0,0,0,.715,1.237c.086.126.183.24.275.361a7.981,7.981,0,0,0,.649.736c.113.115.222.229.343.337a8.108,8.108,0,0,0,1.064.811c.083.053.175.09.261.139a7.89,7.89,0,0,0,1.01.495c.072.03.134.074.206.1.09.033.183.046.273.075a8.07,8.07,0,0,0,.8.218c.166.038.329.081.5.109a8.065,8.065,0,0,0,1.033.092c.079,0,.158.021.237.021a8.047,8.047,0,0,0,3.348-.733l27.932-12.74h63.276v8.083a5.393,5.393,0,0,0,5.388,5.388H145.48a16.182,16.182,0,0,0,16.164-16.164V29.634c0-.032-.017-.058-.019-.09,0-.165.014-.329.009-.5ZM8.526,8.542a10.813,10.813,0,0,1,7.642-3.155H32.333V115.842H16.168a16.156,16.156,0,0,0-10.776,4.124V16.163A10.8,10.8,0,0,1,8.526,8.542ZM98.613,123.6l-5.7-12.507,17.247-1.137.545,1.444Zm-11.108-11.37,2.236,4.9-17.158,7.826a2.694,2.694,0,1,0,2.236,4.9l17.158-7.827,2.236,4.9L59.029,142.989l-.049.022L45.191,149.3l-2.237-4.9,19.611-8.944a2.694,2.694,0,0,0-2.236-4.9L40.72,139.5l-2.236-4.9Zm-57.02,43.773a2.694,2.694,0,0,1-3.568-1.332l-4.473-9.805a2.7,2.7,0,0,1,1.332-3.57l9.807-4.473,3.352,7.351v0l0,0,3.352,7.35Zm41.98-13.226L98.9,130.724a2.481,2.481,0,0,0,.381-.276,2.6,2.6,0,0,0,.416-.279l14.754-14.9a5.38,5.38,0,0,0,1.232-6.18l-.624-1.366a5.351,5.351,0,0,0-5.366-3.135l-21.031,1.385a2.657,2.657,0,0,0-.846.216c-.031.012-.064.009-.094.022L21.541,136.4a8.057,8.057,0,0,0-4.639,6.382h-.086A11.293,11.293,0,0,1,5.392,132.006v-.392A10.746,10.746,0,0,1,16.168,121.23H32.333a5.393,5.393,0,0,0,5.388-5.388V18.858H145.48a10.736,10.736,0,0,1,10.771,10.382,10.35,10.35,0,0,1-3,7.571,11.78,11.78,0,0,1-8.419,3.6H129.316a5.393,5.393,0,0,0-5.388,5.388v96.984Zm73.015,13.47H129.316V45.8H144.83a17.167,17.167,0,0,0,11.426-4.432v104.11a10.787,10.787,0,0,1-10.776,10.776Zm0,0" transform="translate(0)" fill="#02293f"/>
  </g>
</svg>
