<svg id="data" xmlns="http://www.w3.org/2000/svg" width="164.98" height="164.98" viewBox="0 0 164.98 164.98">
  <path id="Caminho_1417" data-name="Caminho 1417" d="M48,160H58.644v5.322H48Zm0,0" transform="translate(-32.034 -106.781)" fill="#02293f"/>
  <path id="Caminho_1418" data-name="Caminho 1418" d="M157,42.575a7.993,7.993,0,0,0,7.983-7.983V7.983A7.993,7.993,0,0,0,157,0H119.744a7.993,7.993,0,0,0-7.983,7.983v26.61a7.993,7.993,0,0,0,7.983,7.983h7.983V47.9H122.4v5.322h13.3v26.61H124.728a18.605,18.605,0,0,0-7.663-4.532c.013-.269.018-.529.018-.79A21.272,21.272,0,0,0,77.866,63.068,21.177,21.177,0,0,0,69.185,61.2,21.406,21.406,0,0,0,49.292,74.933a18.5,18.5,0,0,0-5.617,2.235H23.949V69.185H34.593A7.993,7.993,0,0,0,42.575,61.2V7.983A7.993,7.993,0,0,0,34.593,0H7.983A7.993,7.993,0,0,0,0,7.983V61.2a7.993,7.993,0,0,0,7.983,7.983H18.627v13.3H38.015a18.523,18.523,0,0,0-2.587,5.322H23.949v29.271H13.3a7.993,7.993,0,0,0-7.983,7.983v23.949H0V157a7.993,7.993,0,0,0,7.983,7.983H50.558A7.993,7.993,0,0,0,58.541,157v-7.983H53.219V125.065a7.993,7.993,0,0,0-7.983-7.983H29.271V93.134h5.322a18.651,18.651,0,0,0,18.627,18.627h58.541a18.641,18.641,0,0,0,18.414-15.966h10.857v21.288H122.4v47.9H164.98v-47.9H146.353V90.473H130.164a18.418,18.418,0,0,0-1.655-5.322h12.523V53.219h13.3V47.9h-5.322V42.575Zm-119.744,0H5.322V15.966H37.254ZM7.983,5.322h26.61a2.663,2.663,0,0,1,2.661,2.661v2.661H5.322V7.983A2.663,2.663,0,0,1,7.983,5.322ZM5.322,61.2V47.9H37.254V61.2a2.663,2.663,0,0,1-2.661,2.661H7.983A2.663,2.663,0,0,1,5.322,61.2ZM53.219,157a2.663,2.663,0,0,1-2.661,2.661H7.983A2.663,2.663,0,0,1,5.322,157v-2.661h47.9ZM47.9,125.065v23.949H10.644V125.065A2.663,2.663,0,0,1,13.3,122.4H45.236A2.663,2.663,0,0,1,47.9,125.065Zm79.829,34.593V143.692h31.932v15.966Zm31.932-21.288H127.726V122.4h31.932Zm-47.9-31.932H53.219a13.3,13.3,0,0,1-1.6-26.5l1.746-.21.492-1.689a15.921,15.921,0,0,1,23.675-9.13l2.54,1.567,1.267-2.706a15.929,15.929,0,0,1,30.207,9.2l-.4,2.632,2.631.4a13.3,13.3,0,0,1-2.019,26.439ZM119.744,5.322H157a2.663,2.663,0,0,1,2.661,2.661V26.61H117.083V7.983A2.663,2.663,0,0,1,119.744,5.322Zm-2.661,29.271V31.932h42.575v2.661A2.663,2.663,0,0,1,157,37.254H119.744A2.663,2.663,0,0,1,117.083,34.593Zm26.61,13.3H133.048V42.575h10.644Zm0,0" fill="#02293f"/>
  <path id="Caminho_1419" data-name="Caminho 1419" d="M400,384h5.322v5.322H400Zm0,0" transform="translate(-266.952 -256.274)" fill="#02293f"/>
  <path id="Caminho_1420" data-name="Caminho 1420" d="M448,448h5.322v5.322H448Zm0,0" transform="translate(-298.986 -298.986)" fill="#02293f"/>
  <path id="Caminho_1421" data-name="Caminho 1421" d="M432,384h10.644v5.322H432Zm0,0" transform="translate(-288.308 -256.274)" fill="#02293f"/>
  <path id="Caminho_1422" data-name="Caminho 1422" d="M400,448h10.644v5.322H400Zm0,0" transform="translate(-266.952 -298.986)" fill="#02293f"/>
</svg>
