<svg xmlns="http://www.w3.org/2000/svg" width="164.98" height="162.042" viewBox="0 0 164.98 162.042">
  <g id="integration" transform="translate(-44 -41.377)">
    <path id="Caminho_1426" data-name="Caminho 1426" d="M205.867,93.353H156.062V44.434a3.085,3.085,0,0,0-3.113-3.057H47.113A3.085,3.085,0,0,0,44,44.434V148.386a3.085,3.085,0,0,0,3.113,3.057H96.918v48.918a3.085,3.085,0,0,0,3.113,3.057H205.867a3.085,3.085,0,0,0,3.113-3.057V96.41A3.085,3.085,0,0,0,205.867,93.353ZM103.144,119.076l19.964-19.609H136.1l-32.952,32.366Zm0-8.646V99.468H114.3Zm0,30.05,41.531-40.791c.066-.065.09-.151.149-.221h5.012v7.906l-38.643,37.955h-8.05Zm46.692-24.459v12.755l-16.851,16.553H120Zm0,21.4v7.906h-8.048Zm-99.611,7.906V47.492h99.611V93.353H100.031a3.085,3.085,0,0,0-3.113,3.057v48.918ZM202.754,197.3H103.144V151.443h49.805a3.085,3.085,0,0,0,3.113-3.057V99.468h46.692Z" fill="#02293f"/>
  </g>
</svg>
