<svg xmlns="http://www.w3.org/2000/svg" width="137.542" height="165.05" viewBox="0 0 137.542 165.05">
  <g id="script" transform="translate(-2)">
    <path id="Caminho_1408" data-name="Caminho 1408" d="M122.349,165.05H19.193A17.212,17.212,0,0,1,2,147.857V17.193A17.212,17.212,0,0,1,19.193,0H122.349a17.212,17.212,0,0,1,17.193,17.193V147.857A17.212,17.212,0,0,1,122.349,165.05ZM19.193,6.877A10.328,10.328,0,0,0,8.877,17.193V147.857a10.328,10.328,0,0,0,10.316,10.316H122.349a10.328,10.328,0,0,0,10.316-10.316V17.193A10.328,10.328,0,0,0,122.349,6.877Z" transform="translate(0)" fill="#02293f"/>
    <path id="Caminho_1409" data-name="Caminho 1409" d="M24.316,69.894H17.439a3.439,3.439,0,1,1,0-6.877h6.877a3.444,3.444,0,0,0,3.439-3.439V45.824a10.278,10.278,0,0,1,2.634-6.877,10.278,10.278,0,0,1-2.634-6.877V18.316a3.444,3.444,0,0,0-3.439-3.439H17.439a3.439,3.439,0,0,1,0-6.877h6.877A10.328,10.328,0,0,1,34.631,18.316V32.07a3.444,3.444,0,0,0,3.439,3.439,3.439,3.439,0,1,1,0,6.877,3.444,3.444,0,0,0-3.439,3.439V59.578A10.328,10.328,0,0,1,24.316,69.894Z" transform="translate(70.525 47.017)" fill="#02293f"/>
    <path id="Caminho_1410" data-name="Caminho 1410" d="M30.07,69.894H23.193A10.328,10.328,0,0,1,12.877,59.578V45.824a3.444,3.444,0,0,0-3.439-3.439,3.439,3.439,0,0,1,0-6.877,3.444,3.444,0,0,0,3.439-3.439V18.316A10.328,10.328,0,0,1,23.193,8H30.07a3.439,3.439,0,0,1,0,6.877H23.193a3.444,3.444,0,0,0-3.439,3.439V32.07a10.278,10.278,0,0,1-2.634,6.877,10.278,10.278,0,0,1,2.634,6.877V59.578a3.444,3.444,0,0,0,3.439,3.439H30.07a3.439,3.439,0,0,1,0,6.877Z" transform="translate(23.508 47.017)" fill="#02293f"/>
    <path id="Caminho_1411" data-name="Caminho 1411" d="M34.07,19.877H13.439a3.439,3.439,0,1,1,0-6.877H34.07a3.439,3.439,0,0,1,0,6.877Z" transform="translate(47.017 76.402)" fill="#02293f"/>
  </g>
</svg>
