<svg xmlns="http://www.w3.org/2000/svg" width="93.488" height="164.979" viewBox="0 0 93.488 164.979">
  <g id="Cloud" transform="translate(-2 -2.022)">
    <path id="Caminho_1374" data-name="Caminho 1374" d="M95.488,30.519V10.271a8.249,8.249,0,0,0-8.249-8.249H10.249A8.249,8.249,0,0,0,2,10.271V158.752A8.249,8.249,0,0,0,10.249,167h76.99a8.249,8.249,0,0,0,8.249-8.249V30.519Zm-20.02-23-1.375,5.5H23.4l-1.375-5.5ZM89.989,158.752s-1.231,2.75-2.75,2.75H10.249a2.75,2.75,0,0,1-2.75-2.75V10.271a2.75,2.75,0,0,1,2.75-2.75h6.1l2.23,8.914a2.75,2.75,0,0,0,2.667,2.084H76.241a2.75,2.75,0,0,0,2.667-2.084l2.23-8.914h6.1a2.75,2.75,0,0,1,2.75,2.75V29.689C89.073,29.617,89.989,158.752,89.989,158.752Z" transform="translate(0 0)" fill="#02293f"/>
    <path id="Caminho_1375" data-name="Caminho 1375" d="M39.575,22.293l-14.85,14.85a2.475,2.475,0,0,0,0,3.5l14.85,14.85,3.5-3.5-13.1-13.1,13.1-13.1Z" transform="translate(-2.486 45.369)" fill="#02293f"/>
    <path id="Caminho_1376" data-name="Caminho 1376" d="M41.793,55.493l14.85-14.85a2.475,2.475,0,0,0,0-3.5l-14.85-14.85-3.5,3.5,13.1,13.1-13.1,13.1Z" transform="translate(18.596 45.369)" fill="#02293f"/>
    <rect id="Retângulo_1669" data-name="Retângulo 1669" width="40.818" height="4.95" transform="matrix(0.243, -0.97, 0.97, 0.243, 41.387, 103.46)" fill="#02293f"/>
  </g>
</svg>
