<svg xmlns="http://www.w3.org/2000/svg" width="164.98" height="164.98" viewBox="0 0 164.98 164.98">
  <path id="blockchain-2" d="M73.436,23.331H47.162A3.677,3.677,0,0,0,43.5,27V52.661a3.677,3.677,0,0,0,3.666,3.666H72.825a3.677,3.677,0,0,0,3.666-3.666V27C76.491,24.981,75.452,23.331,73.436,23.331Zm-2.408,27.9H48.734V28.5H71.028Zm95.286,82.089h-29.33a3.677,3.677,0,0,0-3.666,3.666v12h-27.5v-12a3.677,3.677,0,0,0-3.666-3.666h-12V85.657H146.15a3.677,3.677,0,0,0,3.666-3.666V8.666A3.677,3.677,0,0,0,146.15,5H28.83a3.677,3.677,0,0,0-3.666,3.666V81.991a3.677,3.677,0,0,0,3.666,3.666H84.824v47.661h-12a3.677,3.677,0,0,0-3.666,3.666v12h-27.5v-12A3.677,3.677,0,0,0,38,133.318H8.666A3.677,3.677,0,0,0,5,136.984v29.33a3.677,3.677,0,0,0,3.666,3.666H38a3.677,3.677,0,0,0,3.666-3.666v-12h27.5v12a3.677,3.677,0,0,0,3.666,3.666h29.33a3.677,3.677,0,0,0,3.666-3.666v-12h27.5v12a3.677,3.677,0,0,0,3.666,3.666h29.33a3.677,3.677,0,0,0,3.666-3.666v-29.33A3.677,3.677,0,0,0,166.314,133.318ZM30.141,10.063l114.735.154.035,70.305L30.175,80.369ZM36.33,164.648h-26v-26h26Zm64.135-.039-26.167.023V138.686l26.222-.023Zm64.183.039h-26v-26h26ZM87.49,26c0-2.016,1.65-2.666,3.666-2.666h36.662c2.016,0,3.666.65,3.666,2.666s-1.65,2.666-3.666,2.666H91.156C89.14,28.664,87.49,28.014,87.49,26Zm0,18.331c0-2.016,1.65-2.666,3.666-2.666h36.662c2.016,0,3.666.65,3.666,2.666s-1.65,2.666-3.666,2.666H91.156C89.14,46.995,87.49,46.345,87.49,44.328Zm0,18.331c0-2.016,1.65-2.666,3.666-2.666h36.662c2.016,0,3.666.65,3.666,2.666s-1.65,2.666-3.666,2.666H91.156C89.14,65.326,87.49,64.676,87.49,62.66Z" transform="translate(-5 -5)" fill="#02293f"/>
</svg>
