<svg xmlns="http://www.w3.org/2000/svg" width="161.64" height="162.64" viewBox="0 0 161.64 162.64">
  <g id="strategy" transform="translate(0 0)">
    <g id="Grupo_1373" data-name="Grupo 1373" transform="translate(0 0)">
      <g id="Grupo_1372" data-name="Grupo 1372">
        <path id="Caminho_1427" data-name="Caminho 1427" d="M159.267,17.714H111.828L82.015.323a2.372,2.372,0,0,0-2.391,0L49.812,17.714H2.373A2.373,2.373,0,0,0,0,20.086V30.209a2.373,2.373,0,0,0,2.373,2.373H7.592v98.85A2.373,2.373,0,0,0,9.964,133.8H77.448V156.9H70.7c-1.31,0-2.309,1.58-2.309,2.89s1,2.855,2.309,2.855H90.942c1.31,0,2.335-1.544,2.335-2.855s-1.024-2.89-2.335-2.89h-6.75V133.8h67.483a2.372,2.372,0,0,0,2.373-2.373V32.581h5.219a2.372,2.372,0,0,0,2.372-2.373V20.086A2.373,2.373,0,0,0,159.267,17.714ZM80.82,6.119l20.592,11.595H60.228ZM155.9,27.836H132.7c-1.31,0-2.179,1.47-2.179,2.78s.869,2.965,2.179,2.965H148.3v94.478H13.336V33.581H133.73c1.31,0,2.472-1.654,2.472-2.965a2.84,2.84,0,0,0-2.472-2.78H5.745V23.459h150.15v4.377Z" transform="translate(0 0)" fill="#02293f"/>
      </g>
    </g>
    <g id="Grupo_1375" data-name="Grupo 1375" transform="translate(27.836 37.959)">
      <g id="Grupo_1374" data-name="Grupo 1374">
        <path id="Caminho_1428" data-name="Caminho 1428" d="M110.789,120.235a22.617,22.617,0,1,0,22.617,22.617A22.643,22.643,0,0,0,110.789,120.235Zm0,39.489c-9.855,0-16.872-7.017-16.872-16.872s7.018-16.872,16.872-16.872,16.872,7.018,16.872,16.872S120.644,159.724,110.789,159.724Z" transform="translate(-88.172 -120.235)" fill="#02293f"/>
      </g>
    </g>
    <g id="Grupo_1377" data-name="Grupo 1377" transform="translate(97.429 86.062)">
      <g id="Grupo_1376" data-name="Grupo 1376">
        <path id="Caminho_1429" data-name="Caminho 1429" d="M336.153,291.4l8.291-8.291a6.168,6.168,0,0,0-8.723-8.723l-8.291,8.291-8.291-8.291a6.168,6.168,0,1,0-8.724,8.723l8.291,8.291-8.291,8.291a6.168,6.168,0,1,0,8.724,8.723l8.291-8.291,8.291,8.291a6.168,6.168,0,1,0,8.724-8.723Zm5,13.594a1.437,1.437,0,0,1-2.074.065l-9.969-9.969a2.4,2.4,0,0,0-3.355,0l-9.969,9.969a1.423,1.423,0,0,1-2.013-2.013l9.969-9.969a2.372,2.372,0,0,0,0-3.355l-9.969-9.969a1.423,1.423,0,1,1,2.013-2.013l9.969,9.969a2.372,2.372,0,0,0,3.355,0l9.969-9.969a1.423,1.423,0,0,1,2.013,2.013l-9.969,9.969a2.372,2.372,0,0,0,0,3.355l9.969,9.969A1.439,1.439,0,0,1,341.15,305Z" transform="translate(-308.611 -272.605)" fill="#02293f"/>
      </g>
    </g>
    <g id="Grupo_1379" data-name="Grupo 1379" transform="translate(27.836 48.081)">
      <g id="Grupo_1378" data-name="Grupo 1378">
        <path id="Caminho_1430" data-name="Caminho 1430" d="M196.78,161.939l-13.653-9.122a2.372,2.372,0,0,0-2.964,3.705l7.372,4.9h-31.2c-6.89,0-13.495,6.605-13.495,13.495v25.306c0,4.273-2.477,6.75-6.75,6.75H90.545a2.6,2.6,0,0,0-2.405,2.589c0,1.31,1.1,3.156,2.405,3.156h45.55a12.509,12.509,0,0,0,12.495-12.495V174.914a7.759,7.759,0,0,1,7.75-7.75h31.2l-7.372,5.9a2.373,2.373,0,0,0,2.964,3.705l13.653-9.122C197.948,166.709,197.948,162.875,196.78,161.939Z" transform="translate(-88.172 -152.297)" fill="#02293f"/>
      </g>
    </g>
  </g>
</svg>
