<svg xmlns="http://www.w3.org/2000/svg" width="161.635" height="148.545" viewBox="0 0 161.635 148.545">
  <g id="data-program-code-computer-laptop" transform="translate(-2.621 -18.505)">
    <path id="Caminho_1377" data-name="Caminho 1377" d="M163.955,156.624l-14.5-53.2V26.758a8.277,8.277,0,0,0-8.253-8.252H25.671a8.277,8.277,0,0,0-8.252,8.252v76.666l-14.5,53.2a8.222,8.222,0,0,0,7.95,10.426H156.005a8.222,8.222,0,0,0,7.95-10.426ZM22.92,26.758a2.751,2.751,0,0,1,2.751-2.751H141.206a2.751,2.751,0,0,1,2.751,2.751V101.03H22.92ZM158.206,160.475a2.723,2.723,0,0,1-2.2,1.073H10.871a2.723,2.723,0,0,1-2.2-1.073,2.806,2.806,0,0,1-.468-2.421L22.26,106.532H144.617l14.057,51.523A2.806,2.806,0,0,1,158.206,160.475Z" fill="#02293f"/>
    <path id="Caminho_1378" data-name="Caminho 1378" d="M74.183,54.085A2.751,2.751,0,0,0,71.514,52H27.5a2.751,2.751,0,0,0-2.668,2.085l-2.751,11A2.751,2.751,0,0,0,24.75,68.5H74.265a2.751,2.751,0,0,0,2.668-3.417ZM28.274,63l1.375-5.5H69.366L70.741,63Z" transform="translate(33.93 87.542)" fill="#02293f"/>
    <path id="Caminho_1380" data-name="Caminho 1380" d="M12,42H23v5.5H12Z" transform="translate(16.422 70.033)" fill="#02293f"/>
    <path id="Caminho_1381" data-name="Caminho 1381" d="M18,42H29v5.5H18Z" transform="translate(26.927 70.033)" fill="#02293f"/>
    <path id="Caminho_1382" data-name="Caminho 1382" d="M24,42H35v5.5H24Z" transform="translate(37.432 70.033)" fill="#02293f"/>
    <path id="Caminho_1383" data-name="Caminho 1383" d="M36,42H47v5.5H36Z" transform="translate(58.442 70.033)" fill="#02293f"/>
    <path id="Caminho_1384" data-name="Caminho 1384" d="M42,42H53v5.5H42Z" transform="translate(68.947 70.033)" fill="#02293f"/>
    <path id="Caminho_1385" data-name="Caminho 1385" d="M48,42H59v5.5H48Z" transform="translate(79.452 70.033)" fill="#02293f"/>
    <path id="Caminho_1386" data-name="Caminho 1386" d="M30,42H41v5.5H30Z" transform="translate(47.937 70.033)" fill="#02293f"/>
    <path id="Caminho_1387" data-name="Caminho 1387" d="M12,46H23v5.5H12Z" transform="translate(16.422 77.037)" fill="#02293f"/>
    <path id="Caminho_1388" data-name="Caminho 1388" d="M18,46H29v5.5H18Z" transform="translate(26.927 77.037)" fill="#02293f"/>
    <path id="Caminho_1389" data-name="Caminho 1389" d="M24,46H35v5.5H24Z" transform="translate(37.432 77.037)" fill="#02293f"/>
    <path id="Caminho_1390" data-name="Caminho 1390" d="M36,46H47v5.5H36Z" transform="translate(58.442 77.037)" fill="#02293f"/>
    <path id="Caminho_1391" data-name="Caminho 1391" d="M42,46H53v5.5H42Z" transform="translate(68.947 77.037)" fill="#02293f"/>
    <path id="Caminho_1392" data-name="Caminho 1392" d="M48,46H59v5.5H48Z" transform="translate(79.452 77.037)" fill="#02293f"/>
    <path id="Caminho_1393" data-name="Caminho 1393" d="M30,46H41v5.5H30Z" transform="translate(47.937 77.037)" fill="#02293f"/>
    <path id="Caminho_1415" data-name="Caminho 1415" d="M39.575,22.293l-14.85,14.85a2.475,2.475,0,0,0,0,3.5l14.85,14.85,3.5-3.5-13.1-13.1,13.1-13.1Z" transform="translate(31.952 22.381)" fill="#02293f"/>
    <path id="Caminho_1416" data-name="Caminho 1416" d="M41.793,55.493l14.85-14.85a2.475,2.475,0,0,0,0-3.5l-14.85-14.85-3.5,3.5,13.1,13.1-13.1,13.1Z" transform="translate(53.034 22.381)" fill="#02293f"/>
    <rect id="Retângulo_1674" data-name="Retângulo 1674" width="40.818" height="4.95" transform="matrix(0.243, -0.97, 0.97, 0.243, 75.825, 80.472)" fill="#02293f"/>
  </g>
</svg>
