<svg xmlns="http://www.w3.org/2000/svg" viewBox="0 0 94.526 30.616"><defs><style>.harv{fill:#00337c;}</style></defs><g transform="translate(0 0)"><path class="harv" d="M452.409,360.226a.91.91,0,0,1,.747.327.92.92,0,0,1,.19.8l-5.265,27.857a1.432,1.432,0,0,1-.505.836,1.357,1.357,0,0,1-.894.352h-3.516a.906.906,0,0,1-.756-.351.974.974,0,0,1-.185-.833l2.22-11.49-12.895.078-2.312,11.42a1.443,1.443,0,0,1-.51.83,1.339,1.339,0,0,1-.882.35h-3.456a.914.914,0,0,1-.741-.327.953.953,0,0,1-.165-.848l5.689-27.549a1.4,1.4,0,0,1,.5-.8,1.356,1.356,0,0,1,.865-.346l3.392-.047a.874.874,0,0,1,.73.324.913.913,0,0,1,.173.791l-2.2,10.857,12.85-.108,2.11-10.92a1.384,1.384,0,0,1,.494-.806,1.352,1.352,0,0,1,.873-.345Z" transform="translate(-423.446 -360.225)"/><path class="harv" d="M449.2,371.973a7.443,7.443,0,0,1,1.159-1.943,9.828,9.828,0,0,1,2.129-1.945,12.121,12.121,0,0,1,3.081-1.507,12.882,12.882,0,0,1,3.982-.62,11.889,11.889,0,0,1,3.9.537,6.9,6.9,0,0,1,2.778,1.67,5.842,5.842,0,0,1,1.5,2.816,9.8,9.8,0,0,1,.021,3.932l-2.238,12.948a1.4,1.4,0,0,1-.5.844,1.36,1.36,0,0,1-.9.356h-3.368a.947.947,0,0,1-.778-.355.985.985,0,0,1-.2-.842l.259-1.462a9.61,9.61,0,0,1-3.058,2.2,10.579,10.579,0,0,1-4.586.907,9.605,9.605,0,0,1-3.286-.508,5.414,5.414,0,0,1-2.226-1.432,5.006,5.006,0,0,1-1.14-2.175,6.382,6.382,0,0,1-.03-2.736,7.128,7.128,0,0,1,3.006-4.714,14.956,14.956,0,0,1,6.117-2.334l7.336-1.263a2.3,2.3,0,0,0-.735-2.508,4.747,4.747,0,0,0-2.79-.711,4.308,4.308,0,0,0-1.751.317,6.6,6.6,0,0,0-1.322.83,3.284,3.284,0,0,1-.8.482,2.106,2.106,0,0,1-.74.134l-4.03.031a.914.914,0,0,1-.686-.253A.6.6,0,0,1,449.2,371.973Zm5.005,12.234a8.476,8.476,0,0,0,2.729-.424,7.413,7.413,0,0,0,2.156-1.128,6.1,6.1,0,0,0,1.47-1.585,5.016,5.016,0,0,0,.714-1.8l.078-.438L455.2,379.91a7.306,7.306,0,0,0-2.74.907,2.377,2.377,0,0,0-1.08,1.6,1.161,1.161,0,0,0,.691,1.357,4.643,4.643,0,0,0,2.129.434Z" transform="translate(-418.307 -358.893)"/><path class="harv" d="M477.526,371.335a5.155,5.155,0,0,0-5.838,4.983l-1.919,11.506a1.408,1.408,0,0,1-.5.849,1.371,1.371,0,0,1-.907.357h-3.394a.967.967,0,0,1-.786-.357.994.994,0,0,1-.211-.845l3.493-20.438a1.49,1.49,0,0,1,1.384-1.177l3.344-.036a.968.968,0,0,1,.779.336.958.958,0,0,1,.216.822l-.166,1a11.323,11.323,0,0,1,2.72-1.629,9.58,9.58,0,0,1,3.525-.6l2-.021a.984.984,0,0,1,.789.339.959.959,0,0,1,.223.821l-.461,2.877a1.36,1.36,0,0,1-.489.833,1.375,1.375,0,0,1-.9.357Z" transform="translate(-414.029 -358.863)"/><path class="harv" d="M486.795,388.715a2.467,2.467,0,0,1-.386-.767l-5.889-20.371a.9.9,0,0,1,0-.3,1.353,1.353,0,0,1,.488-.829,1.382,1.382,0,0,1,.9-.357l3.351-.035a1.083,1.083,0,0,1,.932.338,2.76,2.76,0,0,1,.386.691l3.923,13.642,8.068-13.761a4.213,4.213,0,0,1,.6-.707,1.476,1.476,0,0,1,1.048-.36l3.407-.037a1.032,1.032,0,0,1,.815.343.98.98,0,0,1,.247.832,1.085,1.085,0,0,1-.089.309l-12.16,20.6a3.746,3.746,0,0,1-.618.768,1.469,1.469,0,0,1-1.061.362h-3.018A1.1,1.1,0,0,1,486.795,388.715Z" transform="translate(-410.178 -358.915)"/></g></svg>