<svg xmlns="http://www.w3.org/2000/svg" xmlns:xlink="http://www.w3.org/1999/xlink" width="240.247" height="45.04" viewBox="0 0 240.247 45.04"><defs><style>.a{isolation:isolate;}.b{fill:#faaf01;}.c{fill:url(#a);}.d{fill:url(#b);}</style><linearGradient id="a" y1="0.5" x2="1" y2="0.5" gradientUnits="objectBoundingBox"><stop offset="0.014" stop-color="#f7c446"/><stop offset="0.947" stop-color="#fdac1a"/></linearGradient><linearGradient id="b" y1="0.5" x2="1" y2="0.5" gradientUnits="objectBoundingBox"><stop offset="0.059" stop-color="#fdb204"/><stop offset="0.947" stop-color="#ea8719"/></linearGradient></defs><g transform="translate(-370.209 -313.333)"><g class="a" transform="translate(452.8 321.334)"><path class="b" d="M405,340.7l3.59-3.5a6.49,6.49,0,0,0,5.515,3.547c2.906,0,4.957-2.308,4.957-5.6V315.689h5.3v19.794c0,5.9-4.062,10.088-9.789,10.088A12.11,12.11,0,0,1,405,340.7Z" transform="translate(-404.996 -315.689)"/><path class="b" d="M421.3,332.534V315.689h5.344v16.674c0,4.874,3.162,8.378,7.609,8.378,4.485,0,7.65-3.5,7.65-8.378V315.689h5.3v16.845c0,7.652-5.344,13.037-12.951,13.037C426.689,345.571,421.3,340.186,421.3,332.534Z" transform="translate(-382.586 -315.689)"/><path class="b" d="M440.492,315.689h5.344L455.5,333.6l9.7-17.913h5.3V345.06h-5.3V325.438l-9.7,17.911-9.661-17.911V345.06h-5.344Z" transform="translate(-356.218 -315.689)"/><path class="b" d="M461.39,315.689h12.78c6.285,0,10.985,4.019,10.985,9.748s-4.7,9.746-10.985,9.746h-7.436v9.877H461.39Zm12.182,14.58c3.635,0,6.156-1.838,6.156-4.831s-2.521-4.829-6.156-4.829h-6.838v9.661Z" transform="translate(-327.5 -315.689)"/></g><g transform="translate(370.209 313.333)"><path class="c" d="M402.251,343.4c-2.878,3.386-6.541,6.588-10.152,6.588a13.9,13.9,0,1,1,0-27.8c3.732,0,7.524,3.165,10.442,6.415l6.733-5.093c-4.665-5.112-10.646-9.964-16.534-9.964a22.535,22.535,0,0,0-22.531,22.531c0,8.685,5.731,17.173,13.554,20.807,10.019,4.653,18.545-.919,25.093-8.488Z" transform="translate(-370.209 -313.548)"/><path class="d" d="M399.242,334.544l15.1-20.086H403.468l-9.378,12.8c-.819-1.078-1.738-2.222-2.723-3.374l-6.757,5.107a50.379,50.379,0,0,1,3.782,5.318,55.023,55.023,0,0,1-4.117,6.178l6.634,5.017c.3-.368.594-.738.878-1.1.76-1,1.5-1.971,2.137-2.9l.048.048L404.56,356.03h10.85Z" transform="translate(-350.88 -312.298)"/></g></g></svg>