<svg xmlns="http://www.w3.org/2000/svg" width="142.228" height="37.794" viewBox="0 0 142.228 37.794"><defs><style>.plando{fill:#73d6ed;}</style></defs><path d="M26.46,47.579v9.84c0,.427-.131.525-.542.517H20.51V31.879h5.868v1.937c.427-.369.771-.689,1.149-.977a7.468,7.468,0,0,1,5.253-1.477A8.535,8.535,0,0,1,40.543,38.6a9.454,9.454,0,0,1-2.684,8.823,8.207,8.207,0,0,1-6.722,2.191,7.682,7.682,0,0,1-4.481-1.945Zm7.9-7.124a3.792,3.792,0,0,0-4.021-4.013A3.9,3.9,0,0,0,26.3,40.488a4.03,4.03,0,0,0,8.059,0Z" transform="translate(-20.51 -20.143)"/><path d="M75.354,49.107H69.511v-1.97a3.4,3.4,0,0,0-.353.3,7.591,7.591,0,0,1-6.443,2.142A8.634,8.634,0,0,1,55.2,41.581a10.259,10.259,0,0,1,1.182-5.967,8.314,8.314,0,0,1,8.207-4.276,7.78,7.78,0,0,1,4.719,2h.115V31.872h5.958ZM65.506,36.419a3.939,3.939,0,0,0-4.1,4.1,3.882,3.882,0,0,0,4.054,4.062,4.1,4.1,0,0,0,0-8.133Z" transform="translate(-26.719 -20.136)"/><path d="M101.276,49.114H95.334v-9.6a3.669,3.669,0,0,0-1-2.626,3.152,3.152,0,0,0-4.227-.082,3.636,3.636,0,0,0-1.412,3.012v9.3H82.72V31.88h5.975v1.855c.32-.287.542-.492.771-.689,2.29-1.978,4.859-2.093,7.575-1.124a5.745,5.745,0,0,1,3.775,3.283,6.336,6.336,0,0,1,.492,2.224c.049,3.816,0,7.624,0,11.441A1.641,1.641,0,0,1,101.276,49.114Z" transform="translate(-31.664 -20.143)"/><path d="M46.56,17.7h5.9V46.671h-5.9Z" transform="translate(-25.181 -17.7)"/><path d="M158.391,45.157a19.386,19.386,0,0,1-2.339,1.568,8.355,8.355,0,0,1-9.684-1.986,10.152,10.152,0,0,1-.714-11.884,8.42,8.42,0,0,1,8.921-3.5,7.386,7.386,0,0,1,3.431,1.7l.213.156h.09V18H164.3V46.4c0,.484-.148.574-.591.566h-4.924c-.328,0-.46-.082-.443-.427A8.812,8.812,0,0,0,158.391,45.157Zm-3.948-10.874a3.9,3.9,0,0,0-4.03,4.1,3.849,3.849,0,0,0,4.03,4.038,4.1,4.1,0,0,0,0-8.133Z" transform="translate(-42.663 -17.754)"/><path d="M189.55,40.58c-.074,4.1-1.838,6.8-5.072,8.314a10.718,10.718,0,0,1-9.972-.3,8.765,8.765,0,0,1-4.358-8.929A8.363,8.363,0,0,1,174.3,33.1a10.127,10.127,0,0,1,10.669-.222,8.289,8.289,0,0,1,4.342,5.909A14.068,14.068,0,0,1,189.55,40.58Zm-5.967.164A3.75,3.75,0,0,0,179.8,36.7a3.824,3.824,0,0,0-3.775,4.1,3.81,3.81,0,0,0,3.816,4.1C182.082,44.905,183.592,43.108,183.584,40.744Z" transform="translate(-47.322 -20.169)"/><path class="plando" d="M130.631,34.732v9.028a2.364,2.364,0,0,1-2.355,2.355H116.031a2.355,2.355,0,0,1-2.347-2.355V31.531a2.347,2.347,0,0,1,2.347-2.347h8.593a47.6,47.6,0,0,1,3.669-4.1H116.031a6.459,6.459,0,0,0-6.451,6.451V43.776a6.467,6.467,0,0,0,6.451,6.459h12.245a6.467,6.467,0,0,0,6.459-6.459V31.531a6.354,6.354,0,0,0-.246-1.732,54.984,54.984,0,0,0-3.857,4.932Z" transform="translate(-36.48 -19.023)"/><path class="plando" d="M115.983,30.5a43.762,43.762,0,0,1,4.686,10.1s.706,2.052,2.06,2.158c0,0,1.641.484,2.577-1.863a45.923,45.923,0,0,1,14.92-19.459.427.427,0,0,0,.164-.657l-.427-.64a.279.279,0,0,0-.443-.14s-3.02,1.174-8.765,6.615c-3.127,2.963-7.559,9.561-7.559,9.561l-.328.574s-.156.263-.3,0a28.724,28.724,0,0,0-2.117-3.57,30.171,30.171,0,0,0-2.634-3.135.509.509,0,0,0-.492-.246c-.3.057-1.321.394-1.321.394S115.794,30.232,115.983,30.5Z" transform="translate(-37.614 -18.102)"/></svg>