<svg xmlns="http://www.w3.org/2000/svg" viewBox="0 0 124.549 30.616"><defs><style>.a{fill:#273349;}.b{fill:#f39519;}</style></defs><g transform="translate(27.784 0)"><path class="a" d="M355.524,152.721a22.325,22.325,0,0,0,.147,2.527,5.148,5.148,0,0,0,.863,2.358h-8.506a5.273,5.273,0,0,1-.253-1.031,4.378,4.378,0,0,1-.042-1.032h-.083a6.8,6.8,0,0,1-3.179,2.063,13.4,13.4,0,0,1-3.854.547,11.3,11.3,0,0,1-2.989-.378,6.849,6.849,0,0,1-2.442-1.2,5.837,5.837,0,0,1-1.663-2.064,6.66,6.66,0,0,1-.611-2.967,6.13,6.13,0,0,1,.611-2.885,5.759,5.759,0,0,1,1.639-1.939,7.852,7.852,0,0,1,2.338-1.2,21.4,21.4,0,0,1,2.674-.674q1.369-.252,2.695-.4t2.38-.359a6.142,6.142,0,0,0,1.558-.526,1.426,1.426,0,0,0,.717-1.411,1.628,1.628,0,0,0-.863-1.558,3.906,3.906,0,0,0-1.874-.462,4.731,4.731,0,0,0-1.558.21,2.667,2.667,0,0,0-.947.547,1.725,1.725,0,0,0-.484.737,2.458,2.458,0,0,0-.127.736h-7.749a6.486,6.486,0,0,1,1.137-3.726,7,7,0,0,1,2.653-2.17,11.79,11.79,0,0,1,3.558-1.011,30.432,30.432,0,0,1,3.9-.253,19.064,19.064,0,0,1,6.022.738,6.6,6.6,0,0,1,3.074,1.956,5.145,5.145,0,0,1,1.116,2.758q.146,1.537.147,3.095Zm-8-4.925a8.722,8.722,0,0,1-1.6.611q-.843.232-1.685.442a7.007,7.007,0,0,0-2.1.8,1.71,1.71,0,0,0-.716,1.558,1.823,1.823,0,0,0,.737,1.389,2.777,2.777,0,0,0,1.874.632,3.61,3.61,0,0,0,2.422-.842,3.429,3.429,0,0,0,1.074-2.569Z" transform="translate(-332.909 -127.541)"/><rect class="a" width="8.337" height="21.854" transform="translate(27.203 8.211)"/><path class="a" d="M396.011,123.256h8.337v30.065h-8.337Z" transform="translate(-355.544 -123.256)"/><path class="a" d="M438.1,151.016a10.26,10.26,0,0,1-2.168,3.663,10.437,10.437,0,0,1-3.707,2.527,15.451,15.451,0,0,1-10.653,0,10.432,10.432,0,0,1-3.705-2.527,10.251,10.251,0,0,1-2.169-3.663,13.307,13.307,0,0,1-.716-4.358,13.134,13.134,0,0,1,.716-4.337,10.3,10.3,0,0,1,2.169-3.642,10.441,10.441,0,0,1,3.705-2.527,15.452,15.452,0,0,1,10.653,0,10.454,10.454,0,0,1,3.705,2.527,10.3,10.3,0,0,1,2.168,3.642,13.149,13.149,0,0,1,.718,4.337A13.325,13.325,0,0,1,438.1,151.016Zm-7.727-6.191a5.246,5.246,0,0,0-.484-1.726,3.519,3.519,0,0,0-1.1-1.3,3.676,3.676,0,0,0-3.789,0,3.507,3.507,0,0,0-1.1,1.3,5.245,5.245,0,0,0-.484,1.726,15.907,15.907,0,0,0,0,3.664,5.439,5.439,0,0,0,.484,1.748,3.459,3.459,0,0,0,1.1,1.326,3.672,3.672,0,0,0,3.789,0,3.464,3.464,0,0,0,1.1-1.326,5.458,5.458,0,0,0,.484-1.748,16.008,16.008,0,0,0,0-3.664Z" transform="translate(-362.35 -127.541)"/><path class="a" d="M457.8,135.753h8v3.5h.084a8.22,8.22,0,0,1,2.442-3.011,6.2,6.2,0,0,1,3.705-1.032,9.493,9.493,0,0,1,2.443.337v7.369q-.631-.211-1.326-.379a8.764,8.764,0,0,0-1.959-.169,4.63,4.63,0,0,0-3.768,1.537q-1.283,1.536-1.284,5.074v8.632H457.8Z" transform="translate(-377.706 -127.542)"/></g><g transform="translate(0 0.543)"><path class="a" d="M298,131.8h-8.412v-7.7h26.077v7.7H307.25v22.334H298Z" transform="translate(-289.585 -124.103)"/><rect class="b" width="8.412" height="5.853" transform="translate(54.911)"/></g></svg>